# Shape file for lane 1
v -0.000931666667 4.10000001 0
vt 0 0
v -0.00106833333 -4.09999999 0
vt 1 0
v 0.930691997 4.10774819 0
vt 0 0.05
v 1.06721569 -4.09111522 0
vt 1 0.05
v 1.86205714 4.13102164 0
vt 0 0.1
v 2.13520327 -4.06442778 0
vt 1 0.1
v 2.79290506 4.16981389 0
vt 0 0.15
v 3.20259775 -4.01994508 0
vt 1 0.15
v 3.72297719 4.22411416 0
vt 0 0.2
v 4.26910264 -3.95767947 0
vt 1 0.2
v 4.65201518 4.29390738 0
vt 0 0.25
v 5.3344217 -3.87764824 0
vt 1 0.25
v 5.57976098 4.37917416 0
vt 0 0.3
v 6.39825901 -3.77987364 0
vt 1 0.3
v 6.50595688 4.4798908 0
vt 0 0.35
v 7.46031907 -3.66438282 0
vt 1 0.35
v 7.43034561 4.59602935 0
vt 0 0.4
v 8.52030686 -3.53120785 0
vt 1 0.4
v 8.3526704 4.72755752 0
vt 0 0.45
v 9.57792795 -3.38038574 0
vt 1 0.45
v 9.27267506 4.8744388 0
vt 0 0.5
v 10.6328886 -3.21195837 0
vt 1 0.5
v 10.190104 5.03663238 0
vt 0 0.55
v 11.6848957 -3.02597253 0
vt 1 0.55
v 11.1047025 5.21409321 0
vt 0 0.6
v 12.7336571 -2.82247988 0
vt 1 0.6
v 12.0162164 5.406772 0
vt 0 0.65
v 13.7788814 -2.60153694 0
vt 1 0.65
v 12.9243925 5.61461522 0
vt 0 0.7
v 14.8202784 -2.36320509 0
vt 1 0.7
v 13.8289786 5.83756514 0
vt 0 0.75
v 15.8575587 -2.10755053 0
vt 1 0.75
v 14.7297234 6.07555983 0
vt 0 0.8
v 16.8904342 -1.83464428 0
vt 1 0.8
v 15.6263767 6.32853319 0
vt 0 0.85
v 17.9186181 -1.54456212 0
vt 1 0.85
v 16.5186895 6.59641494 0
vt 0 0.9
v 18.9418246 -1.23738466 0
vt 1 0.9
v 17.4064138 6.87913068 0
vt 0 0.95
v 19.9597697 -0.913197201 0
vt 1 0.95
v 18.2893032 7.17660187 0
vt 0 1
v 20.9721705 -0.572089803 0
vt 1 1
v 19.1671123 7.48874589 0
vt 0 1.05
v 21.9787459 -0.214157214 0
vt 1 1.05
v 20.0395973 7.81547604 0
vt 0 1.1
v 22.9792162 0.160501142 0
vt 1 1.1
v 20.9065159 8.15670154 0
vt 0 1.15
v 23.9733035 0.551781197 0
vt 1 1.15
v 21.7676272 8.51232763 0
vt 0 1.2
v 24.9607317 0.959574264 0
vt 1 1.2
v 22.6226921 8.88225553 0
vt 0 1.25
v 25.9412266 1.38376707 0
vt 1 1.25
v 23.4714731 9.26638246 0
vt 0 1.3
v 26.9145157 1.82424178 0
vt 1 1.3
v 24.3137344 9.66460174 0
vt 0 1.35
v 27.8803288 2.28087606 0
vt 1 1.35
v 25.1492421 10.0768028 0
vt 0 1.4
v 28.8383974 2.75354305 0
vt 1 1.4
v 25.977764 10.502871 0
vt 0 1.45
v 29.7884556 3.24211147 0
vt 1 1.45
v 26.79907 10.9426881 0
vt 0 1.5
v 30.7302395 3.7464456 0
vt 1 1.5
v 27.612932 11.396132 0
vt 0 1.55
v 31.6634873 4.26640536 0
vt 1 1.55
v 28.4191239 11.8630766 0
vt 0 1.6
v 32.5879399 4.80184632 0
vt 1 1.6
v 29.2174218 12.3433923 0
vt 0 1.65
v 33.5033406 5.35261974 0
vt 1 1.65
v 30.007604 12.8369456 0
vt 0 1.7
v 34.409435 5.91857264 0
vt 1 1.7
v 30.7894509 13.3435994 0
vt 0 1.75
v 35.3059714 6.4995478 0
vt 1 1.75
v 31.5627453 13.8632131 0
vt 0 1.8
v 36.1927008 7.09538387 0
vt 1 1.8
v 32.3272726 14.3956422 0
vt 0 1.85
v 37.0693769 7.70591531 0
vt 1 1.85
v 33.0828202 14.9407389 0
vt 0 1.9
v 37.9357563 8.33097256 0
vt 1 1.9
v 33.8291784 15.4983518 0
vt 0 1.95
v 38.7915981 8.97038198 0
vt 1 1.95
v 34.5661398 16.068326 0
vt 0 2
v 39.6366648 9.62396597 0
vt 1 2
v 35.2934997 16.6505032 0
vt 0 2.05
v 40.4707215 10.291543 0
vt 1 2.05
v 36.0110561 17.2447215 0
vt 0 2.1
v 41.2935366 10.9729276 0
vt 1 2.1
v 36.7186097 17.8508161 0
vt 0 2.15
v 42.1048816 11.6679305 0
vt 1 2.15
v 37.4159639 18.4686185 0
vt 0 2.2
v 42.904531 12.3763586 0
vt 1 2.2
v 38.102925 19.0979572 0
vt 0 2.25
v 43.6922628 13.0980153 0
vt 1 2.25
v 38.7793022 19.7386572 0
vt 0 2.3
v 44.4678582 13.8327 0
vt 1 2.3
v 39.4449076 20.3905407 0
vt 0 2.35
v 45.2311016 14.5802086 0
vt 1 2.35
v 40.0995564 21.0534266 0
vt 0 2.4
v 45.9817811 15.3403336 0
vt 1 2.4
v 40.7430666 21.7271307 0
vt 0 2.45
v 46.7196882 16.1128637 0
vt 1 2.45
v 41.3752596 22.411466 0
vt 0 2.5
v 47.4446179 16.8975844 0
vt 1 2.5
v 41.9959598 23.1062422 0
vt 0 2.55
v 48.1563689 17.6942777 0
vt 1 2.55
v 42.6049946 23.8112665 0
vt 0 2.6
v 48.8547434 18.5027224 0
vt 1 2.6
v 43.202195 24.5263429 0
vt 0 2.65
v 49.5395474 19.3226938 0
vt 1 2.65
v 43.7873951 25.251273 0
vt 0 2.7
v 50.2105908 20.1539642 0
vt 1 2.7
v 44.3604323 25.9858552 0
vt 0 2.75
v 50.8676871 20.9963027 0
vt 1 2.75
v 44.9211474 26.7298856 0
vt 0 2.8
v 51.5106539 21.8494753 0
vt 1 2.8
v 45.4693848 27.4831575 0
vt 0 2.85
v 52.1393124 22.713245 0
vt 1 2.85
v 46.004992 28.2454616 0
vt 0 2.9
v 52.7534882 23.5873719 0
vt 1 2.9
v 46.5278204 29.0165862 0
vt 0 2.95
v 53.3530105 24.4716132 0
vt 1 2.95
v 47.0377247 29.7963171 0
vt 0 3
v 53.9377129 25.3657232 0
vt 1 3
v 47.5345632 30.5844378 0
vt 0 3.05
v 54.5074329 26.2694537 0
vt 1 3.05
v 48.018198 31.3807292 0
vt 0 3.1
v 55.0620124 27.1825535 0
vt 1 3.1
v 48.4884947 32.1849703 0
vt 0 3.15
v 55.6012972 28.1047691 0
vt 1 3.15
v 48.9453227 32.9969376 0
vt 0 3.2
v 56.1251375 29.0358443 0
vt 1 3.2
v 49.3885551 33.8164055 0
vt 0 3.25
v 56.6333879 29.9755204 0
vt 1 3.25
v 49.8180688 34.6431465 0
vt 0 3.3
v 57.1259072 30.9235365 0
vt 1 3.3
v 50.2337445 35.4769309 0
vt 0 3.35
v 57.6025585 31.8796292 0
vt 1 3.35
v 50.6354666 36.3175271 0
vt 0 3.4
v 58.0632095 32.8435329 0
vt 1 3.4
v 51.0231237 37.1647017 0
vt 0 3.45
v 58.5077322 33.8149799 0
vt 1 3.45
v 51.396608 38.0182192 0
vt 0 3.5
v 58.9360031 34.7937004 0
vt 1 3.5
v 51.7558158 38.8778426 0
vt 0 3.55
v 59.3479033 35.7794224 0
vt 1 3.55
v 52.1006473 39.7433332 0
vt 0 3.6
v 59.7433183 36.7718722 0
vt 1 3.6
v 52.4310068 40.6144505 0
vt 0 3.65
v 60.1221383 37.7707741 0
vt 1 3.65
v 52.7468024 41.4909525 0
vt 0 3.7
v 60.4842582 38.7758507 0
vt 1 3.7
v 53.0479464 42.3725958 0
vt 0 3.75
v 60.8295772 39.7868227 0
vt 1 3.75
v 53.3343553 43.2591355 0
vt 0 3.8
v 61.1579996 40.8034094 0
vt 1 3.8
v 53.6059494 44.1503253 0
vt 0 3.85
v 61.469434 41.8253283 0
vt 1 3.85
v 53.8626533 45.0459178 0
vt 0 3.9
v 61.7637939 42.8522957 0
vt 1 3.9
v 54.1043958 45.945664 0
vt 0 3.95
v 62.0409976 43.8840262 0
vt 1 3.95
v 54.3311095 46.8493141 0
vt 0 4
v 62.3009682 44.9202332 0
vt 1 4
v 54.5427317 47.7566171 0
vt 0 4.05
v 62.5436333 45.960629 0
vt 1 4.05
v 54.7392034 48.667321 0
vt 0 4.1
v 62.7689255 47.0049245 0
vt 1 4.1
v 54.9204701 49.5811728 0
vt 0 4.15
v 62.9767824 48.0528296 0
vt 1 4.15
v 55.0864815 50.4979186 0
vt 0 4.2
v 63.1671461 49.1040534 0
vt 1 4.2
v 55.2371915 51.4173038 0
vt 0 4.25
v 63.3399638 50.1583037 0
vt 1 4.25
v 55.3725582 52.3390731 0
vt 0 4.3
v 63.4951875 51.2152877 0
vt 1 4.3
v 55.4925439 53.2629703 0
vt 0 4.35
v 63.632774 52.2747119 0
vt 1 4.35
v 55.5971154 54.1887389 0
vt 0 4.4
v 63.7526851 53.336282 0
vt 1 4.4
v 55.6862437 55.1161217 0
vt 0 4.45
v 63.8548876 54.3997031 0
vt 1 4.45
v 55.7599038 56.0448611 0
vt 0 4.5
v 63.9393531 55.4646797 0
vt 1 4.5
v 55.8180755 56.9746991 0
vt 0 4.55
v 64.006058 56.5309162 0
vt 1 4.55
v 55.8607425 57.9053775 0
vt 0 4.6
v 64.0549838 57.5981162 0
vt 1 4.6
v 55.887893 58.8366377 0
vt 0 4.65
v 64.0861171 58.6659834 0
vt 1 4.65
v 55.8995195 59.768221 0
vt 0 4.7
v 64.099449 59.7342212 0
vt 1 4.7
v 55.8956186 60.6998687 0
vt 0 4.75
v 64.0949759 60.8025328 0
vt 1 4.75
v 55.8761916 61.631322 0
vt 0 4.8
v 64.0726991 61.8706215 0
vt 1 4.8
v 55.8412438 62.5623222 0
vt 0 4.85
v 64.0326248 62.9381906 0
vt 1 4.85
v 55.7907848 63.4926106 0
vt 0 4.9
v 63.974764 64.0049435 0
vt 1 4.9
v 55.7248288 64.4219289 0
vt 0 4.95
v 63.8991328 65.070584 0
vt 1 4.95
v 55.643394 65.3500189 0
vt 0 5
v 63.8057523 66.134816 0
vt 1 5
v 55.5465031 66.2766229 0
vt 0 5.05
v 63.6946484 67.1973439 0
vt 1 5.05
v 55.4341829 67.2014833 0
vt 0 5.1
v 63.565852 68.2578727 0
vt 1 5.1
v 55.3064648 68.1243434 0
vt 0 5.15
v 63.4193988 69.3161076 0
vt 1 5.15
v 55.163384 69.0449468 0
vt 0 5.2
v 63.2553294 70.3717547 0
vt 1 5.2
v 55.0049805 69.9630378 0
vt 0 5.25
v 63.0736896 71.4245209 0
vt 1 5.25
v 54.8312981 70.8783613 0
vt 0 5.3
v 62.8745297 72.4741137 0
vt 1 5.3
v 54.6423852 71.7906631 0
vt 0 5.35
v 62.6579051 73.5202416 0
vt 1 5.35
v 54.4382942 72.6996898 0
vt 0 5.4
v 62.4238759 74.5626139 0
vt 1 5.4
v 54.2190818 73.6051889 0
vt 0 5.45
v 62.1725071 75.6009411 0
vt 1 5.45
v 53.9848089 74.5069088 0
vt 0 5.5
v 61.9038686 76.6349348 0
vt 1 5.5
v 53.7355406 75.4045992 0
vt 0 5.55
v 61.6180349 77.6643079 0
vt 1 5.55
v 53.4713461 76.2980106 0
vt 0 5.6
v 61.3150856 78.6887742 0
vt 1 5.6
v 53.1922987 77.1868949 0
vt 0 5.65
v 60.9951046 79.7080494 0
vt 1 5.65
v 52.8984761 78.0710051 0
vt 0 5.7
v 60.658181 80.7218503 0
vt 1 5.7
v 52.5899598 78.9500958 0
vt 0 5.75
v 60.3044083 81.7298952 0
vt 1 5.75
v 52.2668355 79.8239227 0
vt 0 5.8
v 59.9338847 82.7319042 0
vt 1 5.8
v 51.9291929 80.692243 0
vt 0 5.85
v 59.5467132 83.7275988 0
vt 1 5.85
v 51.577126 81.5548156 0
vt 0 5.9
v 59.1430013 84.7167027 0
vt 1 5.9
v 51.2107324 82.4114009 0
vt 0 5.95
v 58.7228613 85.698941 0
vt 1 5.95
v 50.8301139 83.261761 0
vt 0 6
v 58.2864096 86.6740408 0
vt 1 6
v 50.4353762 84.1056596 0
vt 0 6.05
v 57.8337677 87.6417313 0
vt 1 6.05
v 50.0266291 84.9428624 0
vt 0 6.1
v 57.3650612 88.6017438 0
vt 1 6.1
v 49.603986 85.7731367 0
vt 0 6.15
v 56.8804204 89.5538115 0
vt 1 6.15
v 49.1675643 86.596252 0
vt 0 6.2
v 56.3799798 90.49767 0
vt 1 6.2
v 48.7174853 87.4119797 0
vt 0 6.25
v 55.8638785 91.4330572 0
vt 1 6.25
v 48.2538739 88.220093 0
vt 0 6.3
v 55.3322597 92.3597131 0
vt 1 6.3
v 47.7768591 89.0203677 0
vt 0 6.35
v 54.7852713 93.2773804 0
vt 1 6.35
v 47.2865731 89.8125813 0
vt 0 6.4
v 54.2230651 94.1858043 0
vt 1 6.4
v 46.7831524 90.5965138 0
vt 0 6.45
v 53.6457972 95.0847323 0
vt 1 6.45
v 46.2667366 91.3719475 0
vt 0 6.5
v 53.0536281 95.9739147 0
vt 1 6.5
v 45.7374692 92.1386669 0
vt 0 6.55
v 52.4467223 96.8531047 0
vt 1 6.55
v 45.1954973 92.8964592 0
vt 0 6.6
v 51.8252482 97.7220579 0
vt 1 6.6
v 44.6409713 93.6451138 0
vt 0 6.65
v 51.1893786 98.580533 0
vt 1 6.65
v 44.0740454 94.3844227 0
vt 0 6.7
v 50.53929 99.4282915 0
vt 1 6.7
v 43.4948769 95.1141806 0
vt 0 6.75
v 49.875163 100.265098 0
vt 1 6.75
v 42.9036269 95.8341848 0
vt 0 6.8
v 49.1971822 101.09072 0
vt 1 6.8
v 42.3004594 96.5442353 0
vt 0 6.85
v 48.5055358 101.904928 0
vt 1 6.85
v 41.6855421 97.2441348 0
vt 0 6.9
v 47.8004159 102.707496 0
vt 1 6.9
v 41.0590457 97.933689 0
vt 0 6.95
v 47.0820185 103.498202 0
vt 1 6.95
v 40.4211443 98.6127063 0
vt 0 7
v 46.350543 104.276824 0
vt 1 7
v 39.7720151 99.2809981 0
vt 0 7.05
v 45.6061926 105.043148 0
vt 1 7.05
v 39.1118384 99.9383788 0
vt 0 7.1
v 44.8491742 105.79696 0
vt 1 7.1
v 38.4407974 100.584666 0
vt 0 7.15
v 44.079698 106.538051 0
vt 1 7.15
v 37.7590788 101.219679 0
vt 0 7.2
v 43.2979776 107.266216 0
vt 1 7.2
v 37.0668717 101.843243 0
vt 0 7.25
v 42.5042304 107.98125 0
vt 1 7.25
v 36.3643686 102.455185 0
vt 0 7.3
v 41.6986767 108.682958 0
vt 1 7.3
v 35.6517644 103.055333 0
vt 0 7.35
v 40.8815403 109.371142 0
vt 1 7.35
v 34.9292573 103.643522 0
vt 0 7.4
v 40.0530481 110.045613 0
vt 1 7.4
v 34.1970477 104.219588 0
vt 0 7.45
v 39.2134304 110.706182 0
vt 1 7.45
v 33.4553392 104.783371 0
vt 0 7.5
v 38.3629203 111.352666 0
vt 1 7.5
v 32.7043378 105.334714 0
vt 0 7.55
v 37.5017541 111.984887 0
vt 1 7.55
v 31.9442521 105.873465 0
vt 0 7.6
v 36.630171 112.602667 0
vt 1 7.6
v 31.1752931 106.399473 0
vt 0 7.65
v 35.7484131 113.205836 0
vt 1 7.65
v 30.3976746 106.912593 0
vt 0 7.7
v 34.8567252 113.794226 0
vt 1 7.7
v 29.6116124 107.412682 0
vt 0 7.75
v 33.9553552 114.367673 0
vt 1 7.75
v 28.817325 107.899601 0
vt 0 7.8
v 33.0445534 114.926018 0
vt 1 7.8
v 28.015033 108.373215 0
vt 0 7.85
v 32.1245727 115.469107 0
vt 1 7.85
v 27.2049592 108.833392 0
vt 0 7.9
v 31.1956687 115.996788 0
vt 1 7.9
v 26.3873286 109.280005 0
vt 0 7.95
v 30.2580995 116.508914 0
vt 1 7.95
v 25.5623684 109.712929 0
vt 0 8
v 29.3121255 117.005344 0
vt 1 8
v 24.7303077 110.132044 0
vt 0 8.05
v 28.3580093 117.48594 0
vt 1 8.05
v 23.8913776 110.537235 0
vt 0 8.1
v 27.3960162 117.950568 0
vt 1 8.1
v 23.0458112 110.928387 0
vt 0 8.15
v 26.4264132 118.399098 0
vt 1 8.15
v 22.1938433 111.305393 0
vt 0 8.2
v 25.4494697 118.831407 0
vt 1 8.2
v 21.3357106 111.668147 0
vt 0 8.25
v 24.4654571 119.247375 0
vt 1 8.25
v 20.4716514 112.01655 0
vt 0 8.3
v 23.4746486 119.646885 0
vt 1 8.3
v 19.6019059 112.350504 0
vt 0 8.35
v 22.4773196 120.029827 0
vt 1 8.35
v 18.7267154 112.669917 0
vt 0 8.4
v 21.473747 120.396094 0
vt 1 8.4
v 17.8463232 112.974699 0
vt 0 8.45
v 20.4642097 120.745585 0
vt 1 8.45
v 16.9609739 113.264767 0
vt 0 8.5
v 19.4489879 121.078203 0
vt 1 8.5
v 16.0709132 113.540039 0
vt 0 8.55
v 18.4283638 121.393855 0
vt 1 8.55
v 15.1763885 113.800439 0
vt 0 8.6
v 17.4026208 121.692453 0
vt 1 8.6
v 14.2776483 114.045895 0
vt 0 8.65
v 16.3720439 121.973915 0
vt 1 8.65
v 13.3749421 114.276339 0
vt 0 8.7
v 15.3369193 122.238163 0
vt 1 8.7
v 12.4685208 114.491706 0
vt 0 8.75
v 14.2975345 122.485122 0
vt 1 8.75
v 11.558636 114.691937 0
vt 0 8.8
v 13.2541783 122.714725 0
vt 1 8.8
v 10.6455406 114.876976 0
vt 0 8.85
v 12.2071405 122.926908 0
vt 1 8.85
v 9.72948817 115.046772 0
vt 0 8.9
v 11.1567118 123.121611 0
vt 1 8.9
v 8.81073317 115.201277 0
vt 0 8.95
v 10.1031842 123.298781 0
vt 1 8.95
v 7.88953079 115.340449 0
vt 0 9
v 9.04685016 123.458368 0
vt 1 9
v 6.96613693 115.464249 0
vt 0 9.05
v 7.98800317 123.600329 0
vt 1 9.05
v 6.04080808 115.572643 0
vt 0 9.1
v 6.92693735 123.724623 0
vt 1 9.1
v 5.11380126 115.6656 0
vt 0 9.15
v 5.86394742 123.831216 0
vt 1 9.15
v 4.18537398 115.743095 0
vt 0 9.2
v 4.79932866 123.920079 0
vt 1 9.2
v 3.25578412 115.805106 0
vt 0 9.25
v 3.73337678 123.991186 0
vt 1 9.25
v 2.32528989 115.851616 0
vt 0 9.3
v 2.66638787 124.044519 0
vt 1 9.3
v 1.39414977 115.882612 0
vt 0 9.35
v 1.59865832 124.080062 0
vt 1 9.35
v 0.462622388 115.898086 0
vt 0 9.4
v 0.530484706 124.097805 0
vt 1 9.4
v -0.469033494 115.898032 0
vt 0 9.45
v -0.537836261 124.097744 0
vt 1 9.45
v -1.40055909 115.882452 0
vt 0 9.5
v -1.60600783 124.079878 0
vt 1 9.5
v -2.33169565 115.851349 0
vt 0 9.55
v -2.6737333 124.044212 0
vt 1 9.55
v -3.26218454 115.804732 0
vt 0 9.6
v -3.74071608 123.990757 0
vt 1 9.6
v -4.19176728 115.742615 0
vt 0 9.65
v -4.8066598 123.919528 0
vt 1 9.65
v -5.12018567 115.665013 0
vt 0 9.7
v -5.87126837 123.830543 0
vt 1 9.7
v -6.04718182 115.57195 0
vt 0 9.75
v -6.93424606 123.723828 0
vt 1 9.75
v -6.97249824 115.46345 0
vt 0 9.8
v -7.99529762 123.599412 0
vt 1 9.8
v -7.89587789 115.339544 0
vt 0 9.85
v -9.05412832 123.45733 0
vt 1 9.85
v -8.8170643 115.200266 0
vt 0 9.9
v -10.110444 123.297622 0
vt 1 9.9
v -9.73580158 115.045655 0
vt 0 9.95
v -11.1639514 123.120331 0
vt 1 9.95
v -10.6518345 114.875754 0
vt 0 10
v -12.2143577 122.925507 0
vt 1 10
v -11.5649087 114.690611 0
vt 0 10.05
v -13.2613712 122.713205 0
vt 1 10.05
v -12.4747705 114.490275 0
vt 0 10.1
v -14.304701 122.483482 0
vt 1 10.1
v -13.3811671 114.274804 0
vt 0 10.15
v -15.3440575 122.236403 0
vt 1 10.15
v -14.2838469 114.044257 0
vt 0 10.2
v -16.3791518 121.972037 0
vt 1 10.2
v -15.182559 113.798698 0
vt 0 10.25
v -17.4096964 121.690457 0
vt 1 10.25
v -16.0770538 113.538195 0
vt 0 10.3
v -18.4354051 121.391741 0
vt 1 10.3
v -16.9670828 113.262821 0
vt 0 10.35
v -19.455993 121.075972 0
vt 1 10.35
v -17.852399 112.972652 0
vt 0 10.4
v -20.4711766 120.743238 0
vt 1 10.4
v -18.7327562 112.667769 0
vt 0 10.45
v -21.4806739 120.393631 0
vt 1 10.45
v -19.60791 112.348256 0
vt 0 10.5
v -22.4842044 120.027248 0
vt 1 10.5
v -20.4776172 112.014202 0
vt 0 10.55
v -23.4814895 119.644192 0
vt 1 10.55
v -21.3416364 111.6657 0
vt 0 10.6
v -24.4722521 119.244568 0
vt 1 10.6
v -22.1997275 111.302847 0
vt 0 10.65
v -25.4562171 118.828488 0
vt 1 10.65
v -23.0516521 110.925743 0
vt 0 10.7
v -26.433111 118.396067 0
vt 1 10.7
v -23.8971737 110.534494 0
vt 0 10.75
v -27.4026625 117.947425 0
vt 1 10.75
v -24.7360573 110.129208 0
vt 0 10.8
v -28.3646024 117.482687 0
vt 1 10.8
v -25.5680699 109.709997 0
vt 0 10.85
v -29.3186634 117.001982 0
vt 1 10.85
v -26.3929805 109.276978 0
vt 0 10.9
v -30.2645805 116.505444 0
vt 1 10.9
v -27.2105598 108.830272 0
vt 0 10.95
v -31.202091 115.99321 0
vt 1 10.95
v -28.0205809 108.370002 0
vt 0 11
v -32.1309344 115.465422 0
vt 1 11
v -28.8228186 107.896296 0
vt 0 11.05
v -33.0508528 114.922228 0
vt 1 11.05
v -29.6170501 107.409285 0
vt 0 11.1
v -33.9615906 114.363778 0
vt 1 11.1
v -30.4030549 106.909106 0
vt 0 11.15
v -34.8628948 113.790227 0
vt 1 11.15
v -31.1806146 106.395897 0
vt 0 11.2
v -35.7545151 113.201735 0
vt 1 11.2
v -31.9495132 105.869801 0
vt 0 11.25
v -36.6362039 112.598465 0
vt 1 11.25
v -32.7095372 105.330963 0
vt 0 11.3
v -37.5077162 111.980585 0
vt 1 11.3
v -33.4604754 104.779533 0
vt 0 11.35
v -38.3688098 111.348266 0
vt 1 11.35
v -34.2021192 104.215665 0
vt 0 11.4
v -39.2192458 110.701684 0
vt 1 11.4
v -34.9342626 103.639515 0
vt 0 11.45
v -40.0587877 110.041018 0
vt 1 11.45
v -35.6567023 103.051244 0
vt 0 11.5
v -40.8872025 109.366453 0
vt 1 11.5
v -36.3692377 102.451014 0
vt 0 11.55
v -41.70426 108.678175 0
vt 1 11.55
v -37.0716706 101.838992 0
vt 0 11.6
v -42.5097332 107.976375 0
vt 1 11.6
v -37.7638061 101.215348 0
vt 0 11.65
v -43.3033985 107.261249 0
vt 1 11.65
v -38.445452 100.580257 0
vt 0 11.7
v -44.0850353 106.532995 0
vt 1 11.7
v -39.1164187 99.9338927 0
vt 0 11.75
v -44.8544265 105.791816 0
vt 1 11.75
v -39.7765201 99.2764363 0
vt 0 11.8
v -45.6113585 105.037917 0
vt 1 11.8
v -40.4255727 98.6080701 0
vt 0 11.85
v -46.3556209 104.271508 0
vt 1 11.85
v -41.0633962 97.9289796 0
vt 0 11.9
v -47.0870071 103.492801 0
vt 1 11.9
v -41.6898135 97.2393536 0
vt 0 11.95
v -47.8053138 102.702014 0
vt 1 11.95
v -42.3046505 96.5393835 0
vt 0 12
v -48.5103416 101.899365 0
vt 1 12
v -42.9077365 95.8292638 0
vt 0 12.05
v -49.2018947 101.085077 0
vt 1 12.05
v -43.498904 95.1091918 0
vt 0 12.1
v -49.8797808 100.259377 0
vt 1 12.1
v -44.0779887 94.3793675 0
vt 0 12.15
v -50.5438118 99.4224947 0
vt 1 12.15
v -44.6448299 93.6399935 0
vt 0 12.2
v -51.1938031 98.5746617 0
vt 1 12.2
v -45.1992699 92.8912754 0
vt 0 12.25
v -51.8295743 97.7161136 0
vt 1 12.25
v -45.741155 92.133421 0
vt 0 12.3
v -52.4509487 96.8470892 0
vt 1 12.3
v -46.2703344 91.3666408 0
vt 0 12.35
v -53.0577537 95.9678296 0
vt 1 12.35
v -46.7866612 90.5911479 0
vt 0 12.4
v -53.6498209 95.0785792 0
vt 1 12.4
v -47.2899921 89.8071576 0
vt 0 12.45
v -54.2269856 94.179585 0
vt 1 12.45
v -47.7801872 89.0148878 0
vt 0 12.5
v -54.7890876 93.2710967 0
vt 1 12.5
v -48.2571103 88.2145585 0
vt 0 12.55
v -55.3359708 92.3533667 0
vt 1 12.55
v -48.7206289 87.4063919 0
vt 0 12.6
v -55.8674832 91.4266498 0
vt 1 12.6
v -49.1706144 86.5906127 0
vt 0 12.65
v -56.3834773 90.4912035 0
vt 1 12.65
v -49.6069416 85.7674473 0
vt 0 12.7
v -56.8838096 89.5472875 0
vt 1 12.7
v -50.0294895 84.9371245 0
vt 0 12.75
v -57.3683413 88.5951642 0
vt 1 12.75
v -50.4381406 84.0998749 0
vt 0 12.8
v -57.8369377 87.635098 0
vt 1 12.8
v -50.8327815 83.255931 0
vt 0 12.85
v -58.2894686 86.6673556 0
vt 1 12.85
v -51.2133024 82.4055273 0
vt 0 12.9
v -58.7258084 85.6922057 0
vt 1 12.9
v -51.5795978 81.5488999 0
vt 0 12.95
v -59.1458358 84.7099193 0
vt 1 12.95
v -51.9315659 80.6862869 0
vt 0 13
v -59.5494342 83.7207691 0
vt 1 13
v -52.2691088 79.8179279 0
vt 0 13.05
v -59.9364915 82.72503 0
vt 1 13.05
v -52.5921329 78.944064 0
vt 0 13.1
v -60.3069001 81.7229786 0
vt 1 13.1
v -52.9005484 78.064938 0
vt 0 13.15
v -60.6605572 80.7148931 0
vt 1 13.15
v -53.1942696 77.180794 0
vt 0 13.2
v -60.9973646 79.7010536 0
vt 1 13.2
v -53.473215 76.2918777 0
vt 0 13.25
v -61.3172286 78.6817417 0
vt 1 13.25
v -53.737307 75.398436 0
vt 0 13.3
v -61.6200605 77.6572406 0
vt 1 13.3
v -53.9864724 74.5007171 0
vt 0 13.35
v -61.9057761 76.6278348 0
vt 1 13.35
v -54.2206419 73.5989703 0
vt 0 13.4
v -62.174296 75.5938103 0
vt 1 13.4
v -54.4397504 72.693446 0
vt 0 13.45
v -62.4255457 74.5554542 0
vt 1 13.45
v -54.6437372 71.7843959 0
vt 0 13.5
v -62.6594553 73.5130551 0
vt 1 13.5
v -54.8325455 70.8720724 0
vt 0 13.55
v -62.87596 72.4669024 0
vt 1 13.55
v -55.0061228 69.956729 0
vt 0 13.6
v -63.0749995 71.4172868 0
vt 1 13.6
v -55.1644211 69.0386199 0
vt 0 13.65
v -63.2565186 70.3644997 0
vt 1 13.65
v -55.3073962 68.1180001 0
vt 0 13.7
v -63.4204668 69.3088338 0
vt 1 13.7
v -55.4350085 67.1951254 0
vt 0 13.75
v -63.5667987 68.2505821 0
vt 1 13.75
v -55.5472226 66.270252 0
vt 0 13.8
v -63.6954735 67.1900386 0
vt 1 13.8
v -55.6440073 65.343637 0
vt 0 13.85
v -63.8064555 66.1274979 0
vt 1 13.85
v -55.7253356 64.4155377 0
vt 0 13.9
v -63.899714 65.0632552 0
vt 1 13.9
v -55.791185 63.4862118 0
vt 0 13.95
v -63.9752229 63.997606 0
vt 1 13.95
v -55.8415373 62.5559176 0
vt 0 14
v -64.0329613 62.9308465 0
vt 1 14
v -55.8763783 61.6249134 0
vt 0 14.05
v -64.0729133 61.8632728 0
vt 1 14.05
v -55.8956985 60.6934579 0
vt 0 14.1
v -64.0950676 60.7951816 0
vt 1 14.1
v -55.8994925 59.7618097 0
vt 0 14.15
v -64.0994181 59.7268695 0
vt 1 14.15
v -55.8877592 58.8302277 0
vt 0 14.2
v -64.0859636 58.6586332 0
vt 1 14.2
v -55.8605019 57.8989707 0
vt 0 14.25
v -64.0547079 57.5907696 0
vt 1 14.25
v -55.8177282 56.9682972 0
vt 0 14.3
v -64.0056597 56.5235751 0
vt 1 14.3
v -55.7594498 56.0384659 0
vt 0 14.35
v -63.9388325 55.4573464 0
vt 1 14.35
v -55.6856831 55.1097349 0
vt 0 14.4
v -63.8542449 54.3923794 0
vt 1 14.4
v -55.5964486 54.1823624 0
vt 0 14.45
v -63.7519204 53.3289701 0
vt 1 14.45
v -55.4917709 53.2566058 0
vt 0 14.5
v -63.6318875 52.2674138 0
vt 1 14.5
v -55.3716792 52.3327223 0
vt 0 14.55
v -63.4941795 51.2080053 0
vt 1 14.55
v -55.2362068 51.4109686 0
vt 0 14.6
v -63.3388346 50.1510391 0
vt 1 14.6
v -55.0853914 50.4916006 0
vt 0 14.65
v -63.165896 49.0968086 0
vt 1 14.65
v -54.9192748 49.5748739 0
vt 0 14.7
v -62.9754117 48.0456067 0
vt 1 14.7
v -54.7379032 48.6610429 0
vt 0 14.75
v -62.7674347 46.9977254 0
vt 1 14.75
v -54.5413271 47.7503616 0
vt 0 14.8
v -62.5420226 45.9534557 0
vt 1 14.8
v -54.3296009 46.8430828 0
vt 0 14.85
v -62.2992382 44.9130878 0
vt 1 14.85
v -54.1027835 45.9394587 0
vt 0 14.9
v -62.0391488 43.8769106 0
vt 1 14.9
v -53.8609379 45.0397402 0
vt 0 14.95
v -61.7618268 42.8452119 0
vt 1 14.95
v -53.6041312 44.1441772 0
vt 0 15
v -61.467349 41.8182784 0
vt 1 15
v -53.3324349 43.2530186 0
vt 0 15.05
v -61.1557974 40.7963952 0
vt 1 15.05
v -53.0459244 42.3665117 0
vt 0 15.1
v -60.8272585 39.7798462 0
vt 1 15.1
v -52.7446792 41.4849029 0
vt 0 15.15
v -60.4818235 38.7689137 0
vt 1 15.15
v -52.428783 40.6084371 0
vt 0 15.2
v -60.1195884 37.7638787 0
vt 1 15.2
v -52.0983237 39.7373577 0
vt 0 15.25
v -59.7406538 36.7650202 0
vt 1 15.25
v -51.7533929 38.8719067 0
vt 0 15.3
v -59.3451249 35.7726158 0
vt 1 15.3
v -51.3940865 38.0123245 0
vt 0 15.35
v -58.9331117 34.786941 0
vt 1 15.35
v -51.0205043 37.1588498 0
vt 0 15.4
v -58.5047285 33.8082697 0
vt 1 15.4
v -50.6327501 36.3117198 0
vt 0 15.45
v -58.0600944 32.8368737 0
vt 1 15.45
v -50.2309315 35.4711696 0
vt 0 15.5
v -57.5993329 31.8730228 0
vt 1 15.5
v -49.8151602 34.6374329 0
vt 0 15.55
v -57.1225719 30.9169848 0
vt 1 15.55
v -49.3855517 33.8107412 0
vt 0 15.6
v -56.629944 29.9690252 0
vt 1 15.6
v -48.9422254 32.9913241 0
vt 0 15.65
v -56.1215858 29.0294074 0
vt 1 15.65
v -48.4853042 32.1794092 0
vt 0 15.7
v -55.5976387 28.0983923 0
vt 1 15.7
v -48.0149153 31.3752221 0
vt 0 15.75
v -55.0582481 27.1762385 0
vt 1 15.75
v -47.5311891 30.5789861 0
vt 0 15.8
v -54.5035639 26.2632023 0
vt 1 15.8
v -47.0342602 29.7909224 0
vt 0 15.85
v -53.9337402 25.3595372 0
vt 1 15.85
v -46.5242665 29.01125 0
vt 0 15.9
v -53.3489353 24.4654942 0
vt 1 15.9
v -46.0013497 28.2401854 0
vt 0 15.95
v -52.7493115 23.5813217 0
vt 1 15.95
v -45.465655 27.4779427 0
vt 0 16
v -52.1350356 22.7072652 0
vt 1 16
v -44.9173313 26.7247337 0
vt 0 16.05
v -51.5062779 21.8435676 0
vt 1 16.05
v -44.3565308 25.9807676 0
vt 0 16.1
v -50.8632134 20.9904688 0
vt 1 16.1
v -43.7834094 25.2462511 0
vt 0 16.15
v -50.2060204 20.1482057 0
vt 1 16.15
v -43.1981262 24.5213882 0
vt 0 16.2
v -49.5348817 19.3170122 0
vt 1 16.2
v -42.6008437 23.8063802 0
vt 0 16.25
v -48.8499836 18.4971194 0
vt 1 16.25
v -41.991728 23.1014258 0
vt 0 16.3
v -48.1515164 17.6887548 0
vt 1 16.3
v -41.3709482 22.4067208 0
vt 0 16.35
v -47.4396741 16.8921431 0
vt 1 16.35
v -40.7386767 21.7224581 0
vt 0 16.4
v -46.7146544 16.1075056 0
vt 1 16.4
v -40.0950892 21.0488277 0
vt 0 16.45
v -45.9766587 15.3350601 0
vt 1 16.45
v -39.4403644 20.386017 0
vt 0 16.5
v -45.225892 14.5750212 0
vt 1 16.5
v -38.7746843 19.7342098 0
vt 0 16.55
v -44.4625628 13.8276001 0
vt 1 16.55
v -38.0982336 19.0935873 0
vt 0 16.6
v -43.6868832 13.0930044 0
vt 1 16.6
v -37.4112003 18.4643275 0
vt 0 16.65
v -42.8990687 12.3714381 0
vt 1 16.65
v -36.7137752 17.846605 0
vt 0 16.7
v -42.099338 11.6631017 0
vt 1 16.7
v -36.0061522 17.2405916 0
vt 0 16.75
v -41.2879133 10.9681918 0
vt 1 16.75
v -35.2885276 16.6464555 0
vt 0 16.8
v -40.46502 10.2869016 0
vt 1 16.8
v -34.5611009 16.0643618 0
vt 0 16.85
v -39.6308868 9.61942026 0
vt 1 16.85
v -33.8240741 15.4944722 0
vt 0 16.9
v -38.7857451 8.9659332 0
vt 1 16.9
v -33.077652 14.9369449 0
vt 0 16.95
v -37.9298299 8.32662194 0
vt 1 16.95
v -32.3220419 14.3919348 0
vt 0 17
v -37.0633789 7.70166407 0
vt 1 17
v -31.5574536 13.8595934 0
vt 0 17.05
v -36.1866328 7.09123317 0
vt 1 17.05
v -30.7840995 13.3400684 0
vt 0 17.1
v -35.299835 6.49549881 0
vt 1 17.1
v -30.0021945 12.8335042 0
vt 0 17.15
v -34.403232 5.91462648 0
vt 1 17.15
v -29.2119558 12.3400415 0
vt 0 17.2
v -33.4970727 5.34877751 0
vt 1 17.2
v -28.4136028 11.8598174 0
vt 0 17.25
v -32.5816089 4.79810908 0
vt 1 17.25
v -27.6073573 11.3929653 0
vt 0 17.3
v -31.6570949 4.26277416 0
vt 1 17.3
v -26.7934433 10.9396148 0
vt 0 17.35
v -30.7237874 3.74292144 0
vt 1 17.35
v -25.9720868 10.4998919 0
vt 0 17.4
v -29.7819457 3.23869532 0
vt 1 17.4
v -25.1435161 10.0739186 0
vt 0 17.45
v -28.8318315 2.75023587 0
vt 1 17.45
v -24.3079612 9.66181346 0
vt 0 17.5
v -27.8737086 2.27767877 0
vt 1 17.5
v -23.4656542 9.26369079 0
vt 0 17.55
v -26.9078432 1.82115527 0
vt 1 17.55
v -22.6168292 8.8796612 0
vt 0 17.6
v -25.9345036 1.38079218 0
vt 1 17.6
v -21.7617218 8.50983138 0
vt 0 17.65
v -24.9539601 0.956711836 0
vt 1 17.65
v -20.9005697 8.15430406 0
vt 0 17.7
v -23.9664851 0.549032022 0
vt 1 17.7
v -20.0336119 7.81317798 0
vt 0 17.75
v -22.9723529 0.157865985 0
vt 1 17.75
v -19.1610895 7.48654791 0
vt 0 17.8
v -21.9718396 -0.216677623 0
vt 1 17.8
v -18.2832446 7.17450457 0
vt 0 17.85
v -20.9652232 -0.574494762 0
vt 1 17.85
v -17.4003211 6.87713464 0
vt 0 17.9
v -19.9527833 -0.915486043 0
vt 1 17.9
v -16.5125644 6.59452072 0
vt 0 17.95
v -18.934801 -1.23955675 0
vt 1 17.95
v -15.6202209 6.32674131 0
vt 0 18
v -17.9115592 -1.54661686 0
vt 1 18
v -14.7235386 6.07387079 0
vt 0 18.05
v -16.8833421 -1.83658108 0
vt 1 18.05
v -13.8227665 5.83597941 0
vt 0 18.1
v -15.8504353 -2.10936887 0
vt 1 18.1
v -12.9181548 5.61313324 0
vt 0 18.15
v -14.8131256 -2.36490446 0
vt 1 18.15
v -12.0099549 5.40539418 0
vt 0 18.2
v -13.7717014 -2.60311687 0
vt 1 18.2
v -11.0984189 5.21281994 0
vt 0 18.25
v -12.7264517 -2.82393992 0
vt 1 18.25
v -10.1838001 5.03546401 0
vt 0 18.3
v -11.677667 -3.02731229 0
vt 1 18.3
v -9.26635249 4.87337566 0
vt 0 18.35
v -10.6256385 -3.21317747 0
vt 1 18.35
v -8.34633099 4.7265999 0
vt 0 18.4
v -9.57065861 -3.38148384 0
vt 1 18.4
v -7.42399112 4.5951775 0
vt 0 18.45
v -8.51302023 -3.53218465 0
vt 1 18.45
v -6.49958908 4.47914498 0
vt 0 18.5
v -7.45301717 -3.66523804 0
vt 1 18.5
v -5.57338163 4.37853456 0
vt 0 18.55
v -6.39094387 -3.78060706 0
vt 1 18.55
v -4.64562606 4.2933742 0
vt 0 18.6
v -5.32709536 -3.87825964 0
vt 1 18.6
v -3.71658007 4.22368753 0
vt 0 18.65
v -4.26176713 -3.95816868 0
vt 1 18.65
v -2.78650172 4.16949393 0
vt 0 18.7
v -3.1952551 -4.02031197 0
vt 1 18.7
v -1.85564936 4.13080844 0
vt 0 18.75
v -2.12785553 -4.06467225 0
vt 1 18.75
v -0.924281551 4.10764181 0
vt 0 18.8
v -1.05986489 -4.0912372 0
vt 1 18.8
v 0.000940983333 4.10000001 0
vt 0 18.8496564
v 0.00107901667 -4.09999999 0
vt 1 18.8496564
mtllib Roads\3D_Road\Road_0faf324d-1ca1-41ca-9752-14fc08f50f0b_1.mtl
usemtl Road (One Lane)
g g1
s 1
f  1/1 2/2 4/4 3/3
f  3/3 4/4 6/6 5/5
f  5/5 6/6 8/8 7/7
f  7/7 8/8 10/10 9/9
f  9/9 10/10 12/12 11/11
f  11/11 12/12 14/14 13/13
f  13/13 14/14 16/16 15/15
f  15/15 16/16 18/18 17/17
f  17/17 18/18 20/20 19/19
f  19/19 20/20 22/22 21/21
f  21/21 22/22 24/24 23/23
f  23/23 24/24 26/26 25/25
f  25/25 26/26 28/28 27/27
f  27/27 28/28 30/30 29/29
f  29/29 30/30 32/32 31/31
f  31/31 32/32 34/34 33/33
f  33/33 34/34 36/36 35/35
f  35/35 36/36 38/38 37/37
f  37/37 38/38 40/40 39/39
f  39/39 40/40 42/42 41/41
f  41/41 42/42 44/44 43/43
f  43/43 44/44 46/46 45/45
f  45/45 46/46 48/48 47/47
f  47/47 48/48 50/50 49/49
f  49/49 50/50 52/52 51/51
f  51/51 52/52 54/54 53/53
f  53/53 54/54 56/56 55/55
f  55/55 56/56 58/58 57/57
f  57/57 58/58 60/60 59/59
f  59/59 60/60 62/62 61/61
f  61/61 62/62 64/64 63/63
f  63/63 64/64 66/66 65/65
f  65/65 66/66 68/68 67/67
f  67/67 68/68 70/70 69/69
f  69/69 70/70 72/72 71/71
f  71/71 72/72 74/74 73/73
f  73/73 74/74 76/76 75/75
f  75/75 76/76 78/78 77/77
f  77/77 78/78 80/80 79/79
f  79/79 80/80 82/82 81/81
f  81/81 82/82 84/84 83/83
f  83/83 84/84 86/86 85/85
f  85/85 86/86 88/88 87/87
f  87/87 88/88 90/90 89/89
f  89/89 90/90 92/92 91/91
f  91/91 92/92 94/94 93/93
f  93/93 94/94 96/96 95/95
f  95/95 96/96 98/98 97/97
f  97/97 98/98 100/100 99/99
f  99/99 100/100 102/102 101/101
f  101/101 102/102 104/104 103/103
f  103/103 104/104 106/106 105/105
f  105/105 106/106 108/108 107/107
f  107/107 108/108 110/110 109/109
f  109/109 110/110 112/112 111/111
f  111/111 112/112 114/114 113/113
f  113/113 114/114 116/116 115/115
f  115/115 116/116 118/118 117/117
f  117/117 118/118 120/120 119/119
f  119/119 120/120 122/122 121/121
f  121/121 122/122 124/124 123/123
f  123/123 124/124 126/126 125/125
f  125/125 126/126 128/128 127/127
f  127/127 128/128 130/130 129/129
f  129/129 130/130 132/132 131/131
f  131/131 132/132 134/134 133/133
f  133/133 134/134 136/136 135/135
f  135/135 136/136 138/138 137/137
f  137/137 138/138 140/140 139/139
f  139/139 140/140 142/142 141/141
f  141/141 142/142 144/144 143/143
f  143/143 144/144 146/146 145/145
f  145/145 146/146 148/148 147/147
f  147/147 148/148 150/150 149/149
f  149/149 150/150 152/152 151/151
f  151/151 152/152 154/154 153/153
f  153/153 154/154 156/156 155/155
f  155/155 156/156 158/158 157/157
f  157/157 158/158 160/160 159/159
f  159/159 160/160 162/162 161/161
f  161/161 162/162 164/164 163/163
f  163/163 164/164 166/166 165/165
f  165/165 166/166 168/168 167/167
f  167/167 168/168 170/170 169/169
f  169/169 170/170 172/172 171/171
f  171/171 172/172 174/174 173/173
f  173/173 174/174 176/176 175/175
f  175/175 176/176 178/178 177/177
f  177/177 178/178 180/180 179/179
f  179/179 180/180 182/182 181/181
f  181/181 182/182 184/184 183/183
f  183/183 184/184 186/186 185/185
f  185/185 186/186 188/188 187/187
f  187/187 188/188 190/190 189/189
f  189/189 190/190 192/192 191/191
f  191/191 192/192 194/194 193/193
f  193/193 194/194 196/196 195/195
f  195/195 196/196 198/198 197/197
f  197/197 198/198 200/200 199/199
f  199/199 200/200 202/202 201/201
f  201/201 202/202 204/204 203/203
f  203/203 204/204 206/206 205/205
f  205/205 206/206 208/208 207/207
f  207/207 208/208 210/210 209/209
f  209/209 210/210 212/212 211/211
f  211/211 212/212 214/214 213/213
f  213/213 214/214 216/216 215/215
f  215/215 216/216 218/218 217/217
f  217/217 218/218 220/220 219/219
f  219/219 220/220 222/222 221/221
f  221/221 222/222 224/224 223/223
f  223/223 224/224 226/226 225/225
f  225/225 226/226 228/228 227/227
f  227/227 228/228 230/230 229/229
f  229/229 230/230 232/232 231/231
f  231/231 232/232 234/234 233/233
f  233/233 234/234 236/236 235/235
f  235/235 236/236 238/238 237/237
f  237/237 238/238 240/240 239/239
f  239/239 240/240 242/242 241/241
f  241/241 242/242 244/244 243/243
f  243/243 244/244 246/246 245/245
f  245/245 246/246 248/248 247/247
f  247/247 248/248 250/250 249/249
f  249/249 250/250 252/252 251/251
f  251/251 252/252 254/254 253/253
f  253/253 254/254 256/256 255/255
f  255/255 256/256 258/258 257/257
f  257/257 258/258 260/260 259/259
f  259/259 260/260 262/262 261/261
f  261/261 262/262 264/264 263/263
f  263/263 264/264 266/266 265/265
f  265/265 266/266 268/268 267/267
f  267/267 268/268 270/270 269/269
f  269/269 270/270 272/272 271/271
f  271/271 272/272 274/274 273/273
f  273/273 274/274 276/276 275/275
f  275/275 276/276 278/278 277/277
f  277/277 278/278 280/280 279/279
f  279/279 280/280 282/282 281/281
f  281/281 282/282 284/284 283/283
f  283/283 284/284 286/286 285/285
f  285/285 286/286 288/288 287/287
f  287/287 288/288 290/290 289/289
f  289/289 290/290 292/292 291/291
f  291/291 292/292 294/294 293/293
f  293/293 294/294 296/296 295/295
f  295/295 296/296 298/298 297/297
f  297/297 298/298 300/300 299/299
f  299/299 300/300 302/302 301/301
f  301/301 302/302 304/304 303/303
f  303/303 304/304 306/306 305/305
f  305/305 306/306 308/308 307/307
f  307/307 308/308 310/310 309/309
f  309/309 310/310 312/312 311/311
f  311/311 312/312 314/314 313/313
f  313/313 314/314 316/316 315/315
f  315/315 316/316 318/318 317/317
f  317/317 318/318 320/320 319/319
f  319/319 320/320 322/322 321/321
f  321/321 322/322 324/324 323/323
f  323/323 324/324 326/326 325/325
f  325/325 326/326 328/328 327/327
f  327/327 328/328 330/330 329/329
f  329/329 330/330 332/332 331/331
f  331/331 332/332 334/334 333/333
f  333/333 334/334 336/336 335/335
f  335/335 336/336 338/338 337/337
f  337/337 338/338 340/340 339/339
f  339/339 340/340 342/342 341/341
f  341/341 342/342 344/344 343/343
f  343/343 344/344 346/346 345/345
f  345/345 346/346 348/348 347/347
f  347/347 348/348 350/350 349/349
f  349/349 350/350 352/352 351/351
f  351/351 352/352 354/354 353/353
f  353/353 354/354 356/356 355/355
f  355/355 356/356 358/358 357/357
f  357/357 358/358 360/360 359/359
f  359/359 360/360 362/362 361/361
f  361/361 362/362 364/364 363/363
f  363/363 364/364 366/366 365/365
f  365/365 366/366 368/368 367/367
f  367/367 368/368 370/370 369/369
f  369/369 370/370 372/372 371/371
f  371/371 372/372 374/374 373/373
f  373/373 374/374 376/376 375/375
f  375/375 376/376 378/378 377/377
f  377/377 378/378 380/380 379/379
f  379/379 380/380 382/382 381/381
f  381/381 382/382 384/384 383/383
f  383/383 384/384 386/386 385/385
f  385/385 386/386 388/388 387/387
f  387/387 388/388 390/390 389/389
f  389/389 390/390 392/392 391/391
f  391/391 392/392 394/394 393/393
f  393/393 394/394 396/396 395/395
f  395/395 396/396 398/398 397/397
f  397/397 398/398 400/400 399/399
f  399/399 400/400 402/402 401/401
f  401/401 402/402 404/404 403/403
f  403/403 404/404 406/406 405/405
f  405/405 406/406 408/408 407/407
f  407/407 408/408 410/410 409/409
f  409/409 410/410 412/412 411/411
f  411/411 412/412 414/414 413/413
f  413/413 414/414 416/416 415/415
f  415/415 416/416 418/418 417/417
f  417/417 418/418 420/420 419/419
f  419/419 420/420 422/422 421/421
f  421/421 422/422 424/424 423/423
f  423/423 424/424 426/426 425/425
f  425/425 426/426 428/428 427/427
f  427/427 428/428 430/430 429/429
f  429/429 430/430 432/432 431/431
f  431/431 432/432 434/434 433/433
f  433/433 434/434 436/436 435/435
f  435/435 436/436 438/438 437/437
f  437/437 438/438 440/440 439/439
f  439/439 440/440 442/442 441/441
f  441/441 442/442 444/444 443/443
f  443/443 444/444 446/446 445/445
f  445/445 446/446 448/448 447/447
f  447/447 448/448 450/450 449/449
f  449/449 450/450 452/452 451/451
f  451/451 452/452 454/454 453/453
f  453/453 454/454 456/456 455/455
f  455/455 456/456 458/458 457/457
f  457/457 458/458 460/460 459/459
f  459/459 460/460 462/462 461/461
f  461/461 462/462 464/464 463/463
f  463/463 464/464 466/466 465/465
f  465/465 466/466 468/468 467/467
f  467/467 468/468 470/470 469/469
f  469/469 470/470 472/472 471/471
f  471/471 472/472 474/474 473/473
f  473/473 474/474 476/476 475/475
f  475/475 476/476 478/478 477/477
f  477/477 478/478 480/480 479/479
f  479/479 480/480 482/482 481/481
f  481/481 482/482 484/484 483/483
f  483/483 484/484 486/486 485/485
f  485/485 486/486 488/488 487/487
f  487/487 488/488 490/490 489/489
f  489/489 490/490 492/492 491/491
f  491/491 492/492 494/494 493/493
f  493/493 494/494 496/496 495/495
f  495/495 496/496 498/498 497/497
f  497/497 498/498 500/500 499/499
f  499/499 500/500 502/502 501/501
f  501/501 502/502 504/504 503/503
f  503/503 504/504 506/506 505/505
f  505/505 506/506 508/508 507/507
f  507/507 508/508 510/510 509/509
f  509/509 510/510 512/512 511/511
f  511/511 512/512 514/514 513/513
f  513/513 514/514 516/516 515/515
f  515/515 516/516 518/518 517/517
f  517/517 518/518 520/520 519/519
f  519/519 520/520 522/522 521/521
f  521/521 522/522 524/524 523/523
f  523/523 524/524 526/526 525/525
f  525/525 526/526 528/528 527/527
f  527/527 528/528 530/530 529/529
f  529/529 530/530 532/532 531/531
f  531/531 532/532 534/534 533/533
f  533/533 534/534 536/536 535/535
f  535/535 536/536 538/538 537/537
f  537/537 538/538 540/540 539/539
f  539/539 540/540 542/542 541/541
f  541/541 542/542 544/544 543/543
f  543/543 544/544 546/546 545/545
f  545/545 546/546 548/548 547/547
f  547/547 548/548 550/550 549/549
f  549/549 550/550 552/552 551/551
f  551/551 552/552 554/554 553/553
f  553/553 554/554 556/556 555/555
f  555/555 556/556 558/558 557/557
f  557/557 558/558 560/560 559/559
f  559/559 560/560 562/562 561/561
f  561/561 562/562 564/564 563/563
f  563/563 564/564 566/566 565/565
f  565/565 566/566 568/568 567/567
f  567/567 568/568 570/570 569/569
f  569/569 570/570 572/572 571/571
f  571/571 572/572 574/574 573/573
f  573/573 574/574 576/576 575/575
f  575/575 576/576 578/578 577/577
f  577/577 578/578 580/580 579/579
f  579/579 580/580 582/582 581/581
f  581/581 582/582 584/584 583/583
f  583/583 584/584 586/586 585/585
f  585/585 586/586 588/588 587/587
f  587/587 588/588 590/590 589/589
f  589/589 590/590 592/592 591/591
f  591/591 592/592 594/594 593/593
f  593/593 594/594 596/596 595/595
f  595/595 596/596 598/598 597/597
f  597/597 598/598 600/600 599/599
f  599/599 600/600 602/602 601/601
f  601/601 602/602 604/604 603/603
f  603/603 604/604 606/606 605/605
f  605/605 606/606 608/608 607/607
f  607/607 608/608 610/610 609/609
f  609/609 610/610 612/612 611/611
f  611/611 612/612 614/614 613/613
f  613/613 614/614 616/616 615/615
f  615/615 616/616 618/618 617/617
f  617/617 618/618 620/620 619/619
f  619/619 620/620 622/622 621/621
f  621/621 622/622 624/624 623/623
f  623/623 624/624 626/626 625/625
f  625/625 626/626 628/628 627/627
f  627/627 628/628 630/630 629/629
f  629/629 630/630 632/632 631/631
f  631/631 632/632 634/634 633/633
f  633/633 634/634 636/636 635/635
f  635/635 636/636 638/638 637/637
f  637/637 638/638 640/640 639/639
f  639/639 640/640 642/642 641/641
f  641/641 642/642 644/644 643/643
f  643/643 644/644 646/646 645/645
f  645/645 646/646 648/648 647/647
f  647/647 648/648 650/650 649/649
f  649/649 650/650 652/652 651/651
f  651/651 652/652 654/654 653/653
f  653/653 654/654 656/656 655/655
f  655/655 656/656 658/658 657/657
f  657/657 658/658 660/660 659/659
f  659/659 660/660 662/662 661/661
f  661/661 662/662 664/664 663/663
f  663/663 664/664 666/666 665/665
f  665/665 666/666 668/668 667/667
f  667/667 668/668 670/670 669/669
f  669/669 670/670 672/672 671/671
f  671/671 672/672 674/674 673/673
f  673/673 674/674 676/676 675/675
f  675/675 676/676 678/678 677/677
f  677/677 678/678 680/680 679/679
f  679/679 680/680 682/682 681/681
f  681/681 682/682 684/684 683/683
f  683/683 684/684 686/686 685/685
f  685/685 686/686 688/688 687/687
f  687/687 688/688 690/690 689/689
f  689/689 690/690 692/692 691/691
f  691/691 692/692 694/694 693/693
f  693/693 694/694 696/696 695/695
f  695/695 696/696 698/698 697/697
f  697/697 698/698 700/700 699/699
f  699/699 700/700 702/702 701/701
f  701/701 702/702 704/704 703/703
f  703/703 704/704 706/706 705/705
f  705/705 706/706 708/708 707/707
f  707/707 708/708 710/710 709/709
f  709/709 710/710 712/712 711/711
f  711/711 712/712 714/714 713/713
f  713/713 714/714 716/716 715/715
f  715/715 716/716 718/718 717/717
f  717/717 718/718 720/720 719/719
f  719/719 720/720 722/722 721/721
f  721/721 722/722 724/724 723/723
f  723/723 724/724 726/726 725/725
f  725/725 726/726 728/728 727/727
f  727/727 728/728 730/730 729/729
f  729/729 730/730 732/732 731/731
f  731/731 732/732 734/734 733/733
f  733/733 734/734 736/736 735/735
f  735/735 736/736 738/738 737/737
f  737/737 738/738 740/740 739/739
f  739/739 740/740 742/742 741/741
f  741/741 742/742 744/744 743/743
f  743/743 744/744 746/746 745/745
f  745/745 746/746 748/748 747/747
f  747/747 748/748 750/750 749/749
f  749/749 750/750 752/752 751/751
f  751/751 752/752 754/754 753/753
f  753/753 754/754 756/756 755/755
g g2
s 2
g g3
s 3
g g4
s 4
