# Shape file for lane 2
v 0 7 0
vt 0 0
v 0 4.1 0
vt 0.967 0
v 0.883292439 7.00736094 0
vt 0 0.1
v 0.931623535 4.10776371 0
vt 0.967 0.1
v 1.76633952 7.02944172 0
vt 0 0.2
v 1.86298829 4.13105268 0
vt 0.967 0.2
v 2.64889597 7.0662362 0
vt 0 0.3
v 2.79383556 4.16986044 0
vt 0.967 0.3
v 3.53071663 7.11773416 0
vt 0 0.4
v 3.72390679 4.22417622 0
vt 0.967 0.4
v 4.41155656 7.1839213 0
vt 0 0.5
v 4.65294362 4.29398492 0
vt 0.967 0.5
v 5.29117108 7.26477924 0
vt 0 0.6
v 5.58068799 4.37926716 0
vt 0.967 0.6
v 6.16931587 7.36028551 0
vt 0 0.7
v 6.50688221 4.47999924 0
vt 0.967 0.7
v 7.045747 7.47041358 0
vt 0 0.8
v 7.431269 4.59615319 0
vt 0.967 0.8
v 7.92022102 7.59513287 0
vt 0 0.9
v 8.35359161 4.72769674 0
vt 0.967 0.9
v 8.79249503 7.73440873 0
vt 0 1
v 9.27359382 4.87459336 0
vt 0.967 1
v 9.66232674 7.88820247 0
vt 0 1.1
v 10.1910201 5.03680223 0
vt 0.967 1.1
v 10.5294745 8.05647137 0
vt 0 1.2
v 11.1056156 5.2142783 0
vt 0.967 1.2
v 11.3936975 8.2391687 0
vt 0 1.3
v 12.0171263 5.40697227 0
vt 0.967 1.3
v 12.2547557 8.43624371 0
vt 0 1.4
v 12.9252989 5.61483063 0
vt 0.967 1.4
v 13.1124098 8.64764165 0
vt 0 1.5
v 13.8298813 5.83779563 0
vt 0.967 1.5
v 13.9664217 8.8733038 0
vt 0 1.6
v 14.7306222 6.07580533 0
vt 0.967 1.6
v 14.8165541 9.11316749 0
vt 0 1.7
v 15.6272713 6.32879363 0
vt 0.967 1.7
v 15.662571 9.36716608 0
vt 0 1.8
v 16.5195796 6.59669026 0
vt 0.967 1.8
v 16.5042371 9.63522902 0
vt 0 1.9
v 17.4072992 6.87942079 0
vt 0.967 1.9
v 17.3413189 9.91728185 0
vt 0 2
v 18.2901836 7.1769067 0
vt 0.967 2
v 18.1735838 10.2132462 0
vt 0 2.1
v 19.1679874 7.48906535 0
vt 0.967 2.1
v 19.0008006 10.5230399 0
vt 0 2.2
v 20.040467 7.81581004 0
vt 0.967 2.2
v 19.8227394 10.8465769 0
vt 0 2.3
v 20.9073799 8.15704999 0
vt 0.967 2.3
v 20.6391721 11.1837673 0
vt 0 2.4
v 21.7684853 8.51269044 0
vt 0.967 2.4
v 21.4498719 11.5345175 0
vt 0 2.5
v 22.6235441 8.88263258 0
vt 0.967 2.5
v 22.2546134 11.8987299 0
vt 0 2.6
v 23.4723187 9.26677366 0
vt 0.967 2.6
v 23.0531733 12.2763036 0
vt 0 2.7
v 24.3145734 9.66500698 0
vt 0.967 2.7
v 23.8453297 12.6671335 0
vt 0 2.8
v 25.1500741 10.0772219 0
vt 0.967 2.8
v 24.6308625 13.0711111 0
vt 0 2.9
v 25.9785889 10.503304 0
vt 0.967 2.9
v 25.4095535 13.4881242 0
vt 0 3
v 26.7998876 10.9431348 0
vt 0.967 3
v 26.1811866 13.918057 0
vt 0 3.1
v 27.6137421 11.3965922 0
vt 0.967 3.1
v 26.9455472 14.36079 0
vt 0 3.2
v 28.4199262 11.8635502 0
vt 0.967 3.2
v 27.7024231 14.8162003 0
vt 0 3.3
v 29.2182161 12.3438792 0
vt 0.967 3.3
v 28.4516041 15.2841614 0
vt 0 3.4
v 30.00839 12.8374457 0
vt 0.967 3.4
v 29.1928821 15.7645432 0
vt 0 3.5
v 30.7902285 13.3441126 0
vt 0.967 3.5
v 29.9260511 16.2572124 0
vt 0 3.6
v 31.5635143 13.8637391 0
vt 0.967 3.6
v 30.6509075 16.7620321 0
vt 0 3.7
v 32.3280326 14.396181 0
vt 0.967 3.7
v 31.36725 17.278862 0
vt 0 3.8
v 33.0835712 14.9412903 0
vt 0.967 3.8
v 32.0748795 17.8075587 0
vt 0 3.9
v 33.8299201 15.4989157 0
vt 0.967 3.9
v 32.7735996 18.3479752 0
vt 0 4
v 34.566872 16.0689021 0
vt 0.967 4
v 33.4632161 18.8999614 0
vt 0 4.1
v 35.2942222 16.6510914 0
vt 0.967 4.1
v 34.1435374 19.4633641 0
vt 0 4.2
v 36.0117687 17.2453217 0
vt 0.967 4.2
v 34.8143747 20.0380266 0
vt 0 4.3
v 36.7193122 17.8514281 0
vt 0.967 4.3
v 35.4755415 20.6237895 0
vt 0 4.4
v 37.4166561 18.4692421 0
vt 0.967 4.4
v 36.1268543 21.2204899 0
vt 0 4.5
v 38.1036067 19.0985922 0
vt 0.967 4.5
v 36.768132 21.8279622 0
vt 0 4.6
v 38.7799732 19.7393036 0
vt 0.967 4.6
v 37.3991966 22.4460376 0
vt 0 4.7
v 39.4455678 20.3911982 0
vt 0.967 4.7
v 38.0198728 23.0745444 0
vt 0 4.8
v 40.1002055 21.0540949 0
vt 0.967 4.8
v 38.6299882 23.713308 0
vt 0 4.9
v 40.7437045 21.7278098 0
vt 0.967 4.9
v 39.2293732 24.3621511 0
vt 0 5
v 41.3758861 22.4121556 0
vt 0.967 5
v 39.8178615 25.0208933 0
vt 0 5.1
v 41.9965746 23.1069421 0
vt 0.967 5.1
v 40.3952895 25.6893517 0
vt 0 5.2
v 42.6055978 23.8119766 0
vt 0.967 5.2
v 40.9614968 26.3673406 0
vt 0 5.3
v 43.2027863 24.527063 0
vt 0.967 5.3
v 41.5163262 27.0546717 0
vt 0 5.4
v 43.7879742 25.2520028 0
vt 0.967 5.4
v 42.0596236 27.7511541 0
vt 0 5.5
v 44.3609992 25.9865946 0
vt 0.967 5.5
v 42.591238 28.4565942 0
vt 0 5.6
v 44.9217019 26.7306343 0
vt 0.967 5.6
v 43.1110218 29.1707963 0
vt 0 5.7
v 45.4699267 27.4839153 0
vt 0.967 5.7
v 43.6188305 29.8935618 0
vt 0 5.8
v 46.0055213 28.2462283 0
vt 0.967 5.8
v 44.1145232 30.62469 0
vt 0 5.9
v 46.5283368 29.0173617 0
vt 0.967 5.9
v 44.5979622 31.3639778 0
vt 0 6
v 47.0382281 29.7971011 0
vt 0.967 6
v 45.0690131 32.1112199 0
vt 0 6.1
v 47.5350535 30.58523 0
vt 0.967 6.1
v 45.5275452 32.8662087 0
vt 0 6.2
v 48.018675 31.3815295 0
vt 0.967 6.2
v 45.973431 33.6287345 0
vt 0 6.3
v 48.4889583 32.1857784 0
vt 0.967 6.3
v 46.4065466 34.3985854 0
vt 0 6.4
v 48.9457728 32.9977533 0
vt 0.967 6.4
v 46.8267719 35.1755477 0
vt 0 6.5
v 49.3889915 33.8172286 0
vt 0.967 6.5
v 47.2339901 35.9594056 0
vt 0 6.6
v 49.8184914 34.6439768 0
vt 0.967 6.6
v 47.628088 36.7499412 0
vt 0 6.7
v 50.2341532 35.4777682 0
vt 0.967 6.7
v 48.0089562 37.546935 0
vt 0 6.8
v 50.6358613 36.3183711 0
vt 0.967 6.8
v 48.3764888 38.3501656 0
vt 0 6.9
v 51.0235043 37.1655521 0
vt 0.967 6.9
v 48.7305839 39.15941 0
vt 0 7
v 51.3969743 38.0190758 0
vt 0.967 7
v 49.071143 39.9744432 0
vt 0 7.1
v 51.7561678 38.8787052 0
vt 0.967 7.1
v 49.3980716 40.795039 0
vt 0 7.2
v 52.1009849 39.7442015 0
vt 0.967 7.2
v 49.7112787 41.6209694 0
vt 0 7.3
v 52.4313298 40.6153243 0
vt 0.967 7.3
v 50.0106775 42.4520049 0
vt 0 7.4
v 52.7471108 41.4918316 0
vt 0.967 7.4
v 50.2961848 43.2879148 0
vt 0 7.5
v 53.0482402 42.3734799 0
vt 0.967 7.5
v 50.5677213 44.1284668 0
vt 0 7.6
v 53.3346343 43.2600244 0
vt 0.967 7.6
v 50.8252114 44.9734275 0
vt 0 7.7
v 53.6062136 44.1512188 0
vt 0.967 7.7
v 51.0685838 45.8225621 0
vt 0 7.8
v 53.8629026 45.0468155 0
vt 0.967 7.8
v 51.2977708 46.6756348 0
vt 0 7.9
v 54.10463 45.9465657 0
vt 0.967 7.9
v 51.5127088 47.5324086 0
vt 0 8
v 54.3313287 46.8502197 0
vt 0.967 8
v 51.713338 48.3926456 0
vt 0 8.1
v 54.5429357 47.7575262 0
vt 0.967 8.1
v 51.8996027 49.2561067 0
vt 0 8.2
v 54.7393923 48.6682333 0
vt 0.967 8.2
v 52.0714512 50.1225522 0
vt 0 8.3
v 54.9206438 49.5820881 0
vt 0.967 8.3
v 52.2288357 50.9917414 0
vt 0 8.4
v 55.0866399 50.4988367 0
vt 0.967 8.4
v 52.3717125 51.8634328 0
vt 0 8.5
v 55.2373346 51.4182244 0
vt 0.967 8.5
v 52.500042 52.7373844 0
vt 0 8.6
v 55.3726858 52.339996 0
vt 0.967 8.6
v 52.6137885 53.6133532 0
vt 0 8.7
v 55.4926562 53.2638952 0
vt 0.967 8.7
v 52.7129204 54.4910961 0
vt 0 8.8
v 55.5972123 54.1896655 0
vt 0.967 8.8
v 52.7974102 55.3703692 0
vt 0 8.9
v 55.686325 55.1170498 0
vt 0.967 8.9
v 52.8672343 56.2509283 0
vt 0 9
v 55.7599698 56.0457904 0
vt 0.967 9
v 52.9223734 57.1325288 0
vt 0 9.1
v 55.8181259 56.9756294 0
vt 0.967 9.1
v 52.9628122 58.0149258 0
vt 0 9.2
v 55.8607774 57.9063085 0
vt 0.967 9.2
v 52.9885395 58.8978741 0
vt 0 9.3
v 55.8879124 58.8375691 0
vt 0.967 9.3
v 52.9995481 59.7811286 0
vt 0 9.4
v 55.8995233 59.7691527 0
vt 0.967 9.4
v 52.9958349 60.6644439 0
vt 0 9.5
v 55.895607 60.7008003 0
vt 0.967 9.5
v 52.977401 61.5475747 0
vt 0 9.6
v 55.8761644 61.6322533 0
vt 0.967 9.6
v 52.9442514 62.4302756 0
vt 0 9.7
v 55.841201 62.5632529 0
vt 0.967 9.7
v 52.8963955 63.3123014 0
vt 0 9.8
v 55.7907266 63.4935405 0
vt 0.967 9.8
v 52.8338465 64.1934071 0
vt 0 9.9
v 55.7247551 64.4228577 0
vt 0.967 9.9
v 52.7566218 65.073348 0
vt 0 10
v 55.6433048 65.3509463 0
vt 0.967 10
v 52.6647427 65.9518798 0
vt 0 10.1
v 55.5463985 66.2775486 0
vt 0.967 10.1
v 52.558235 66.8287582 0
vt 0 10.2
v 55.4340629 67.2024072 0
vt 0.967 10.2
v 52.437128 67.7037398 0
vt 0 10.3
v 55.3063293 68.1252652 0
vt 0.967 10.3
v 52.3014555 68.5765815 0
vt 0 10.4
v 55.1632333 69.0458662 0
vt 0.967 10.4
v 52.1512552 69.4470409 0
vt 0 10.5
v 55.0048144 69.9639545 0
vt 0.967 10.5
v 51.9865687 70.3148762 0
vt 0 10.6
v 54.8311168 70.8792751 0
vt 0.967 10.6
v 51.8074419 71.1798463 0
vt 0 10.7
v 54.6421887 71.7915738 0
vt 0.967 10.7
v 51.6139244 72.041711 0
vt 0 10.8
v 54.4380826 72.7005971 0
vt 0.967 10.8
v 51.4060701 72.9002308 0
vt 0 10.9
v 54.2188551 73.6060925 0
vt 0.967 10.9
v 51.1839366 73.7551674 0
vt 0 11
v 53.9845671 74.5078086 0
vt 0.967 11
v 50.9475858 74.6062831 0
vt 0 11.1
v 53.7352838 75.4054948 0
vt 0.967 11.1
v 50.6970831 75.4533416 0
vt 0 11.2
v 53.4710744 76.2989018 0
vt 0.967 11.2
v 50.4324982 76.2961076 0
vt 0 11.3
v 53.1920123 77.1877814 0
vt 0.967 11.3
v 50.1539046 77.134347 0
vt 0 11.4
v 52.8981749 78.0718868 0
vt 0.967 11.4
v 49.8613798 77.967827 0
vt 0 11.5
v 52.5896439 78.9509723 0
vt 0.967 11.5
v 49.5550048 78.7963161 0
vt 0 11.6
v 52.2665051 79.8247938 0
vt 0.967 11.6
v 49.2348649 79.6195841 0
vt 0 11.7
v 51.9288481 80.6931085 0
vt 0.967 11.7
v 48.9010489 80.4374023 0
vt 0 11.8
v 51.5767667 81.5556752 0
vt 0.967 11.8
v 48.5536497 81.2495436 0
vt 0 11.9
v 51.2103588 82.4122544 0
vt 0.967 11.9
v 48.1927636 82.0557823 0
vt 0 12
v 50.8297262 83.2626082 0
vt 0.967 12
v 47.818491 82.8558946 0
vt 0 12.1
v 50.4349745 84.1065002 0
vt 0.967 12.1
v 47.4309357 83.6496582 0
vt 0 12.2
v 50.0262134 84.9436961 0
vt 0.967 12.2
v 47.0302055 84.4368526 0
vt 0 12.3
v 49.6035564 85.7739634 0
vt 0.967 12.3
v 46.6164117 85.2172592 0
vt 0 12.4
v 49.167121 86.5970715 0
vt 0.967 12.4
v 46.1896691 85.9906611 0
vt 0 12.5
v 48.7170284 87.4127916 0
vt 0.967 12.5
v 45.7500964 86.7568435 0
vt 0 12.6
v 48.2534036 88.2208972 0
vt 0.967 12.6
v 45.2978157 87.5155937 0
vt 0 12.7
v 47.7763754 89.0211639 0
vt 0.967 12.7
v 44.8329524 88.2667008 0
vt 0 12.8
v 47.2860762 89.8133694 0
vt 0.967 12.8
v 44.3556359 89.0099563 0
vt 0 12.9
v 46.7826424 90.5972935 0
vt 0.967 12.9
v 43.8659987 89.7451536 0
vt 0 13
v 46.2662137 91.3727186 0
vt 0.967 13
v 43.3641767 90.4720885 0
vt 0 13.1
v 45.7369335 92.1394292 0
vt 0.967 13.1
v 42.8503094 91.1905592 0
vt 0 13.2
v 45.194949 92.8972125 0
vt 0.967 13.2
v 42.3245395 91.9003661 0
vt 0 13.3
v 44.6404106 93.6458578 0
vt 0.967 13.3
v 41.7870131 92.6013119 0
vt 0 13.4
v 44.0734723 94.3851573 0
vt 0.967 13.4
v 41.2378794 93.293202 0
vt 0 13.5
v 43.4942917 95.1149055 0
vt 0.967 13.5
v 40.6772911 93.9758442 0
vt 0 13.6
v 42.9030296 95.8348999 0
vt 0.967 13.6
v 40.1054037 94.6490489 0
vt 0 13.7
v 42.2998503 96.5449403 0
vt 0.967 13.7
v 39.5223762 95.3126291 0
vt 0 13.8
v 41.6849214 97.2448296 0
vt 0.967 13.8
v 38.9283706 95.9664005 0
vt 0 13.9
v 41.0584135 97.9343733 0
vt 0.967 13.9
v 38.3235517 96.6101814 0
vt 0 14
v 40.4205008 98.61338 0
vt 0.967 14
v 37.7080877 97.2437931 0
vt 0 14.1
v 39.7713604 99.281661 0
vt 0.967 14.1
v 37.0821494 97.8670595 0
vt 0 14.2
v 39.1111727 99.9390307 0
vt 0.967 14.2
v 36.4459108 98.4798075 0
vt 0 14.3
v 38.440121 100.585306 0
vt 0.967 14.3
v 35.7995486 99.0818669 0
vt 0 14.4
v 37.7583918 101.220309 0
vt 0.967 14.4
v 35.1432422 99.6730705 0
vt 0 14.5
v 37.0661744 101.843861 0
vt 0.967 14.5
v 34.4771741 100.253254 0
vt 0 14.6
v 36.363661 102.455791 0
vt 0.967 14.6
v 33.8015292 100.822256 0
vt 0 14.7
v 35.6510468 103.055927 0
vt 0.967 14.7
v 33.1164952 101.37992 0
vt 0 14.8
v 34.9285299 103.644104 0
vt 0.967 14.8
v 32.4222624 101.926089 0
vt 0 14.9
v 34.1963107 104.220158 0
vt 0.967 14.9
v 31.7190236 102.460612 0
vt 0 15
v 33.4545929 104.783928 0
vt 0.967 15
v 31.0069742 102.98334 0
vt 0 15.1
v 32.7035822 105.335259 0
vt 0.967 15.1
v 30.286312 103.49413 0
vt 0 15.2
v 31.9434875 105.873997 0
vt 0.967 15.2
v 29.557237 103.992837 0
vt 0 15.3
v 31.1745198 106.399993 0
vt 0.967 15.3
v 28.8199519 104.479325 0
vt 0 15.4
v 30.3968927 106.9131 0
vt 0.967 15.4
v 28.0746615 104.953458 0
vt 0 15.5
v 29.6108222 107.413175 0
vt 0.967 15.5
v 27.3215727 105.415104 0
vt 0 15.6
v 28.8165267 107.900081 0
vt 0.967 15.6
v 26.5608948 105.864135 0
vt 0 15.7
v 28.0142268 108.373682 0
vt 0.967 15.7
v 25.792839 106.300426 0
vt 0 15.8
v 27.2041453 108.833846 0
vt 0.967 15.8
v 25.0176187 106.723856 0
vt 0 15.9
v 26.3865073 109.280445 0
vt 0.967 15.9
v 24.2354492 107.134308 0
vt 0 16
v 25.5615398 109.713355 0
vt 0.967 16
v 23.4465478 107.531667 0
vt 0 16.1
v 24.7294721 110.132457 0
vt 0.967 16.1
v 22.6511337 107.915824 0
vt 0 16.2
v 23.8905353 110.537633 0
vt 0.967 16.2
v 21.8494276 108.28667 0
vt 0 16.3
v 23.0449624 110.928771 0
vt 0.967 16.3
v 21.0416525 108.644104 0
vt 0 16.4
v 22.1929882 111.305763 0
vt 0.967 16.4
v 20.2280326 108.988026 0
vt 0 16.5
v 21.3348495 111.668503 0
vt 0.967 16.5
v 19.4087939 109.318341 0
vt 0 16.6
v 20.4707845 112.016891 0
vt 0.967 16.6
v 18.584164 109.634956 0
vt 0 16.7
v 19.6010334 112.350831 0
vt 0.967 16.7
v 17.754372 109.937784 0
vt 0 16.8
v 18.7258376 112.670229 0
vt 0.967 16.8
v 16.9196483 110.226741 0
vt 0 16.9
v 17.8454403 112.974997 0
vt 0.967 16.9
v 16.0802248 110.501746 0
vt 0 17
v 16.9600861 113.265049 0
vt 0.967 17
v 15.2363347 110.762724 0
vt 0 17.1
v 16.0700209 113.540307 0
vt 0.967 17.1
v 14.3882123 111.009601 0
vt 0 17.2
v 15.1754919 113.800692 0
vt 0.967 17.2
v 13.5360934 111.242308 0
vt 0 17.3
v 14.2767475 114.046133 0
vt 0.967 17.3
v 12.6802144 111.460783 0
vt 0 17.4
v 13.3740375 114.276561 0
vt 0.967 17.4
v 11.8208133 111.664963 0
vt 0 17.5
v 12.4676126 114.491914 0
vt 0.967 17.5
v 10.9581288 111.854792 0
vt 0 17.6
v 11.5577245 114.692129 0
vt 0.967 17.6
v 10.0924003 112.030217 0
vt 0 17.7
v 10.644626 114.877153 0
vt 0.967 17.7
v 9.22386849 112.191189 0
vt 0 17.8
v 9.72857073 115.046934 0
vt 0.967 17.8
v 8.35277454 112.337665 0
vt 0 17.9
v 8.80981314 115.201424 0
vt 0.967 17.9
v 7.47936043 112.469602 0
vt 0 18
v 7.88860845 115.340581 0
vt 0.967 18
v 6.60386876 112.586965 0
vt 0 18.1
v 6.96521253 115.464365 0
vt 0.967 18.1
v 5.72654274 112.689721 0
vt 0 18.2
v 6.03988187 115.572744 0
vt 0.967 18.2
v 4.84762604 112.777841 0
vt 0 18.3
v 5.1128735 115.665685 0
vt 0.967 18.3
v 3.96736281 112.851301 0
vt 0 18.4
v 4.18444492 115.743165 0
vt 0.967 18.4
v 3.08599756 112.910081 0
vt 0 18.5
v 3.25485403 115.80516 0
vt 0.967 18.5
v 2.20377511 112.954163 0
vt 0 18.6
v 2.32435903 115.851655 0
vt 0.967 18.6
v 1.32094051 112.983536 0
vt 0 18.7
v 1.39321839 115.882635 0
vt 0.967 18.7
v 0.437738997 112.998192 0
vt 0 18.8
v 0.461690753 115.898093 0
vt 0.967 18.8
v -0.44558411 112.998127 0
vt 0 18.9
v -0.469965128 115.898024 0
vt 0.967 18.9
v -1.32878345 112.98334 0
vt 0 19
v -1.40149047 115.882429 0
vt 0.967 19
v -2.21161369 112.953836 0
vt 0 19.1
v -2.33262651 115.85131 0
vt 0.967 19.1
v -3.0938296 112.909623 0
vt 0 19.2
v -3.26311462 115.804678 0
vt 0.967 19.2
v -3.97518614 112.850713 0
vt 0 19.3
v -4.19269633 115.742545 0
vt 0.967 19.3
v -4.85543849 112.777123 0
vt 0 19.4
v -5.12111342 115.664928 0
vt 0.967 19.4
v -5.73434213 112.688873 0
vt 0 19.5
v -6.04810802 115.571849 0
vt 0.967 19.5
v -6.61165294 112.585987 0
vt 0 19.6
v -6.97342263 115.463334 0
vt 0.967 19.6
v -7.48712722 112.468495 0
vt 0 19.7
v -7.89680022 115.339412 0
vt 0.967 19.7
v -8.36052179 112.336428 0
vt 0 19.8
v -8.8179843 115.200119 0
vt 0.967 19.8
v -9.23159405 112.189823 0
vt 0 19.9
v -9.736719 115.045493 0
vt 0.967 19.9
v -10.100102 112.028722 0
vt 0 20
v -10.6527491 114.875577 0
vt 0.967 20
v -10.9658045 111.853169 0
vt 0 20.1
v -11.5658202 114.690418 0
vt 0.967 20.1
v -11.828461 111.663212 0
vt 0 20.2
v -12.4756787 114.490067 0
vt 0.967 20.2
v -12.6878319 111.458905 0
vt 0 20.3
v -13.3820717 114.274581 0
vt 0.967 20.3
v -13.5436784 111.240304 0
vt 0 20.4
v -14.2847476 114.044019 0
vt 0.967 20.4
v -14.3957629 111.00747 0
vt 0 20.5
v -15.1834556 113.798445 0
vt 0.967 20.5
v -15.2438487 110.760468 0
vt 0 20.6
v -16.0779461 113.537927 0
vt 0.967 20.6
v -16.0877002 110.499365 0
vt 0 20.7
v -16.9679706 113.262538 0
vt 0.967 20.7
v -16.9270829 110.224236 0
vt 0 20.8
v -17.8532818 112.972354 0
vt 0.967 20.8
v -17.7617639 109.935155 0
vt 0 20.9
v -18.733634 112.667456 0
vt 0.967 20.9
v -18.5915111 109.632204 0
vt 0 21
v -19.6087824 112.347929 0
vt 0.967 21
v -19.4160941 109.315467 0
vt 0 21.1
v -20.4784841 112.013861 0
vt 0.967 21.1
v -20.2352839 108.985031 0
vt 0 21.2
v -21.3424975 111.665344 0
vt 0.967 21.2
v -21.0488529 108.640989 0
vt 0 21.3
v -22.2005826 111.302477 0
vt 0.967 21.3
v -21.8565751 108.283435 0
vt 0 21.4
v -23.0525009 110.925359 0
vt 0.967 21.4
v -22.6582262 107.91247 0
vt 0 21.5
v -23.8980159 110.534096 0
vt 0.967 21.5
v -23.4535835 107.528196 0
vt 0 21.6
v -24.7368928 110.128795 0
vt 0.967 21.6
v -24.2424261 107.13072 0
vt 0 21.7
v -25.5688984 109.709571 0
vt 0.967 21.7
v -25.0245348 106.720153 0
vt 0 21.8
v -26.3938018 109.276538 0
vt 0.967 21.8
v -25.7996924 106.296608 0
vt 0 21.9
v -27.2113737 108.829818 0
vt 0.967 21.9
v -26.5676836 105.860203 0
vt 0 22
v -28.021387 108.369535 0
vt 0.967 22
v -27.328295 105.411059 0
vt 0 22.1
v -28.8236168 107.895815 0
vt 0.967 22.1
v -28.0813155 104.949302 0
vt 0 22.2
v -29.6178403 107.408792 0
vt 0.967 22.2
v -28.8265357 104.475059 0
vt 0 22.3
v -30.4038367 106.9086 0
vt 0.967 22.3
v -29.5637488 103.988462 0
vt 0 22.4
v -31.1813879 106.395377 0
vt 0.967 22.4
v -30.2927499 103.489646 0
vt 0 22.5
v -31.9502777 105.869268 0
vt 0.967 22.5
v -31.0133365 102.97875 0
vt 0 22.6
v -32.7102927 105.330418 0
vt 0.967 22.6
v -31.7253086 102.455916 0
vt 0 22.7
v -33.4612217 104.778975 0
vt 0.967 22.7
v -32.4284682 101.921289 0
vt 0 22.8
v -34.2028561 104.215095 0
vt 0.967 22.8
v -33.1226202 101.375017 0
vt 0 22.9
v -34.93499 103.638933 0
vt 0.967 22.9
v -33.8075716 100.817253 0
vt 0 23
v -35.6574199 103.050649 0
vt 0.967 23
v -34.4831323 100.24815 0
vt 0 23.1
v -36.3699452 102.450407 0
vt 0.967 23.1
v -35.1491145 99.667868 0
vt 0 23.2
v -37.0723679 101.838374 0
vt 0.967 23.2
v -35.8053333 99.0765672 0
vt 0 23.3
v -37.7644931 101.214719 0
vt 0.967 23.3
v -36.4516064 98.4744121 0
vt 0 23.4
v -38.4461283 100.579616 0
vt 0.967 23.4
v -37.0877543 97.8615699 0
vt 0 23.5
v -39.1170843 99.9332407 0
vt 0.967 23.5
v -37.7136003 97.2382109 0
vt 0 23.6
v -39.7771747 99.2757734 0
vt 0.967 23.6
v -38.3289706 96.6045081 0
vt 0 23.7
v -40.4262161 98.6073963 0
vt 0.967 23.7
v -38.9336941 95.9606377 0
vt 0 23.8
v -41.0640283 97.9282952 0
vt 0.967 23.8
v -39.527603 95.3067784 0
vt 0 23.9
v -41.6904341 97.2386587 0
vt 0.967 23.9
v -40.1105323 94.6431119 0
vt 0 24
v -42.3052595 96.5386784 0
vt 0.967 24
v -40.6823199 93.9698226 0
vt 0 24.1
v -42.9083337 95.8285487 0
vt 0.967 24.1
v -41.2428072 93.2870974 0
vt 0 24.2
v -43.4994892 95.1084668 0
vt 0.967 24.2
v -41.7918385 92.595126 0
vt 0 24.3
v -44.0785617 94.3786328 0
vt 0.967 24.3
v -42.3292611 91.8941006 0
vt 0 24.4
v -44.6453905 93.6392495 0
vt 0.967 24.4
v -42.854926 91.1842159 0
vt 0 24.5
v -45.1998181 92.8905221 0
vt 0.967 24.5
v -43.3686869 90.4656692 0
vt 0 24.6
v -45.7416905 92.1326586 0
vt 0.967 24.6
v -43.8704012 89.7386599 0
vt 0 24.7
v -46.2708572 91.3658696 0
vt 0.967 24.7
v -44.3599297 89.0033902 0
vt 0 24.8
v -46.7871711 90.5903681 0
vt 0.967 24.8
v -44.8371362 88.2600641 0
vt 0 24.9
v -47.2904889 89.8063695 0
vt 0.967 24.9
v -45.3018882 87.5088881 0
vt 0 25
v -47.7806707 89.0140915 0
vt 0.967 25
v -45.7540566 86.750071 0
vt 0 25.1
v -48.2575805 88.2137542 0
vt 0.967 25.1
v -46.1935159 85.9838235 0
vt 0 25.2
v -48.7210857 87.4055799 0
vt 0.967 25.2
v -46.620144 85.2103585 0
vt 0 25.3
v -49.1710575 86.5897932 0
vt 0.967 25.3
v -47.0338223 84.4298907 0
vt 0 25.4
v -49.6073711 85.7666205 0
vt 0.967 25.4
v -47.434436 83.642637 0
vt 0 25.5
v -50.0299051 84.9362907 0
vt 0.967 25.5
v -47.8218737 82.848816 0
vt 0 25.6
v -50.4385423 84.0990342 0
vt 0.967 25.6
v -48.1960279 82.0486483 0
vt 0 25.7
v -50.8331691 83.2550838 0
vt 0.967 25.7
v -48.5567946 81.2423561 0
vt 0 25.8
v -51.2136759 82.4046737 0
vt 0.967 25.8
v -48.9040737 80.4301634 0
vt 0 25.9
v -51.579957 81.5480403 0
vt 0.967 25.9
v -49.2377686 79.6122958 0
vt 0 26
v -51.9319106 80.6854214 0
vt 0.967 26
v -49.5577866 78.7889804 0
vt 0 26.1
v -52.2694391 79.8170567 0
vt 0.967 26.1
v -49.8640389 77.9604461 0
vt 0 26.2
v -52.5924486 78.9431874 0
vt 0.967 26.2
v -50.1564404 77.1269228 0
vt 0 26.3
v -52.9008494 78.0640563 0
vt 0.967 26.3
v -50.4349099 76.2886421 0
vt 0 26.4
v -53.1945559 77.1799074 0
vt 0.967 26.4
v -50.69937 75.4458369 0
vt 0 26.5
v -53.4734865 76.2909865 0
vt 0.967 26.5
v -50.9497473 74.5987413 0
vt 0 26.6
v -53.7375637 75.3975404 0
vt 0.967 26.6
v -51.1859722 73.7475906 0
vt 0 26.7
v -53.9867141 74.4998173 0
vt 0.967 26.7
v -51.4079791 72.8926213 0
vt 0 26.8
v -54.2208685 73.5980666 0
vt 0.967 26.8
v -51.6157064 72.0340707 0
vt 0 26.9
v -54.439962 72.6925387 0
vt 0.967 26.9
v -51.8090962 71.1721774 0
vt 0 27
v -54.6439336 71.7834852 0
vt 0.967 27
v -51.988095 70.3071808 0
vt 0 27.1
v -54.8327266 70.8711586 0
vt 0.967 27.1
v -52.152653 69.4393211 0
vt 0 27.2
v -55.0062888 69.9558123 0
vt 0.967 27.2
v -52.3027245 68.5688395 0
vt 0 27.3
v -55.1645717 69.0377005 0
vt 0.967 27.3
v -52.4382678 67.6959777 0
vt 0 27.4
v -55.3075315 68.1170783 0
vt 0.967 27.4
v -52.5592452 66.8209781 0
vt 0 27.5
v -55.4351284 67.1942015 0
vt 0.967 27.5
v -52.6656232 65.9440839 0
vt 0 27.6
v -55.5473271 66.2693263 0
vt 0.967 27.6
v -52.7573722 65.0655386 0
vt 0 27.7
v -55.6440963 65.3427096 0
vt 0.967 27.7
v -52.8344667 64.1855863 0
vt 0 27.8
v -55.7254092 64.4146089 0
vt 0.967 27.8
v -52.8968853 63.3044713 0
vt 0 27.9
v -55.7912431 63.485282 0
vt 0.967 27.9
v -52.9446106 62.4224384 0
vt 0 28
v -55.8415799 62.5549869 0
vt 0.967 28
v -52.9776295 61.5397326 0
vt 0 28.1
v -55.8764054 61.6239821 0
vt 0.967 28.1
v -52.9959327 60.6565992 0
vt 0 28.2
v -55.8957101 60.6925263 0
vt 0.967 28.2
v -52.9995151 59.7732833 0
vt 0 28.3
v -55.8994886 59.7608781 0
vt 0.967 28.3
v -52.9883758 58.8900304 0
vt 0 28.4
v -55.8877397 58.8292963 0
vt 0.967 28.4
v -52.9625178 58.0070859 0
vt 0 28.5
v -55.8604669 57.8980397 0
vt 0.967 28.5
v -52.9219484 57.1246949 0
vt 0 28.6
v -55.8176776 56.9673669 0
vt 0.967 28.6
v -52.8666788 56.2431026 0
vt 0 28.7
v -55.7593838 56.0375365 0
vt 0.967 28.7
v -52.7967243 55.3625539 0
vt 0 28.8
v -55.6856016 55.1088068 0
vt 0.967 28.8
v -52.7121044 54.4832933 0
vt 0 28.9
v -55.5963516 54.1814357 0
vt 0.967 28.9
v -52.6128426 53.6055651 0
vt 0 29
v -55.4916585 53.2556809 0
vt 0.967 29
v -52.4989664 52.7296131 0
vt 0 29.1
v -55.3715514 52.3317994 0
vt 0.967 29.1
v -52.3705075 51.8556805 0
vt 0 29.2
v -55.2360636 51.410048 0
vt 0.967 29.2
v -52.2275017 50.9840103 0
vt 0 29.3
v -55.0852329 50.4906826 0
vt 0.967 29.3
v -52.0699885 50.1148444 0
vt 0 29.4
v -54.919101 49.5739585 0
vt 0.967 29.4
v -51.8980117 49.2484244 0
vt 0 29.5
v -54.7377143 48.6601306 0
vt 0.967 29.5
v -51.7116192 48.3849908 0
vt 0 29.6
v -54.5411229 47.7494525 0
vt 0.967 29.6
v -51.5108627 47.5247835 0
vt 0 29.7
v -54.3293816 46.8421773 0
vt 0.967 29.7
v -51.2957979 46.6680415 0
vt 0 29.8
v -54.1025491 45.938557 0
vt 0.967 29.8
v -51.0664846 45.8150028 0
vt 0 29.9
v -53.8606885 45.0388425 0
vt 0.967 29.9
v -50.8229866 44.9659042 0
vt 0 30
v -53.603867 44.1432838 0
vt 0.967 30
v -50.5653713 44.1209816 0
vt 0 30.1
v -53.3321558 43.2521297 0
vt 0.967 30.1
v -50.2937104 43.2804698 0
vt 0 30.2
v -53.0456305 42.3656276 0
vt 0.967 30.2
v -50.0080794 42.4446022 0
vt 0 30.3
v -52.7443706 41.4840239 0
vt 0.967 30.3
v -49.7085576 41.613611 0
vt 0 30.4
v -52.4284598 40.6075633 0
vt 0.967 30.4
v -49.3952282 40.787727 0
vt 0 30.5
v -52.0979859 39.7364894 0
vt 0.967 30.5
v -49.0681782 39.9671796 0
vt 0 30.6
v -51.7530407 38.8710442 0
vt 0.967 30.6
v -48.7274984 39.1521968 0
vt 0 30.7
v -51.39372 38.0114679 0
vt 0.967 30.7
v -48.3732836 38.3430049 0
vt 0 30.8
v -51.0201236 37.1579995 0
vt 0.967 30.8
v -48.005632 37.5398287 0
vt 0 30.9
v -50.6323553 36.3108759 0
vt 0.967 30.9
v -47.6246458 36.7428912 0
vt 0 31
v -50.2305227 35.4703325 0
vt 0.967 31
v -47.2304309 35.952414 0
vt 0 31.1
v -49.8147375 34.6366027 0
vt 0.967 31.1
v -46.8230968 35.1686164 0
vt 0 31.2
v -49.3851153 33.8099181 0
vt 0.967 31.2
v -46.4027565 34.3917163 0
vt 0 31.3
v -48.9417752 32.9905084 0
vt 0.967 31.3
v -45.9695268 33.6219295 0
vt 0 31.4
v -48.4848405 32.1786011 0
vt 0.967 31.4
v -45.5235282 32.8594697 0
vt 0 31.5
v -48.0144382 31.3744218 0
vt 0.967 31.5
v -45.0648844 32.1045488 0
vt 0 31.6
v -47.5306988 30.5781939 0
vt 0.967 31.6
v -44.5937228 31.3573764 0
vt 0 31.7
v -47.0337567 29.7901385 0
vt 0.967 31.7
v -44.1101744 30.6181602 0
vt 0 31.8
v -46.52375 29.0104746 0
vt 0.967 31.8
v -43.6143735 29.8871054 0
vt 0 31.9
v -46.0008204 28.2394187 0
vt 0.967 31.9
v -43.1064578 29.164415 0
vt 0 32
v -45.465113 27.4771849 0
vt 0.967 32
v -42.5865683 28.45029 0
vt 0 32.1
v -44.9167767 26.7239851 0
vt 0.967 32.1
v -42.0548494 27.7449285 0
vt 0 32.2
v -44.3559638 25.9800283 0
vt 0.967 32.2
v -41.511449 27.0485265 0
vt 0 32.3
v -43.7828302 25.2455214 0
vt 0.967 32.3
v -40.9565178 26.3612776 0
vt 0 32.4
v -43.1975349 24.5206682 0
vt 0.967 32.4
v -40.3902101 25.6833725 0
vt 0 32.5
v -42.6002405 23.8056702 0
vt 0.967 32.5
v -39.8126832 25.0149996 0
vt 0 32.6
v -41.991113 23.100726 0
vt 0.967 32.6
v -39.2240975 24.3563445 0
vt 0 32.7
v -41.3703217 22.4060313 0
vt 0.967 32.7
v -38.6246164 23.7075902 0
vt 0 32.8
v -40.7380388 21.7217791 0
vt 0.967 32.8
v -38.0144065 23.0689169 0
vt 0 32.9
v -40.09444 21.0481595 0
vt 0.967 32.9
v -37.3936373 22.440502 0
vt 0 33
v -39.4397042 20.3853596 0
vt 0.967 33
v -36.7624812 21.82252 0
vt 0 33.1
v -38.7740131 19.7335636 0
vt 0.967 33.1
v -36.1211135 21.2151427 0
vt 0 33.2
v -38.0975518 19.0929523 0
vt 0.967 33.2
v -35.4697124 20.6185386 0
vt 0 33.3
v -37.410508 18.4637039 0
vt 0.967 33.3
v -34.8084589 20.0328736 0
vt 0 33.4
v -36.7130727 17.8459931 0
vt 0.967 33.4
v -34.1375366 19.4583104 0
vt 0 33.5
v -36.0054395 17.2399915 0
vt 0.967 33.5
v -33.4571318 18.8950084 0
vt 0 33.6
v -35.2878051 16.6458674 0
vt 0.967 33.6
v -32.7674336 18.3431243 0
vt 0 33.7
v -34.5603687 16.0637858 0
vt 0.967 33.7
v -32.0686336 17.8028112 0
vt 0 33.8
v -33.8233324 15.4939084 0
vt 0.967 33.8
v -31.3609258 17.2742193 0
vt 0 33.9
v -33.076901 14.9363936 0
vt 0.967 33.9
v -30.6445068 16.7574954 0
vt 0 34
v -32.3212817 14.3913961 0
vt 0.967 34
v -29.9195757 16.2527831 0
vt 0 34.1
v -31.5566845 13.8590674 0
vt 0.967 34.1
v -29.1863338 15.7602224 0
vt 0 34.2
v -30.7833218 13.3395553 0
vt 0.967 34.2
v -28.4449847 15.2799503 0
vt 0 34.3
v -30.0014084 12.8330042 0
vt 0.967 34.3
v -27.6957344 14.8121001 0
vt 0 34.4
v -29.2111614 12.3395547 0
vt 0.967 34.4
v -26.9387911 14.3568019 0
vt 0 34.5
v -28.4128004 11.8593439 0
vt 0.967 34.5
v -26.1743649 13.914182 0
vt 0 34.6
v -27.6065472 11.3925052 0
vt 0.967 34.6
v -25.4026683 13.4843635 0
vt 0 34.7
v -26.7926256 10.9391682 0
vt 0.967 34.7
v -24.6239155 13.0674656 0
vt 0 34.8
v -25.9712618 10.499459 0
vt 0.967 34.8
v -23.8383229 12.6636043 0
vt 0 34.9
v -25.142684 10.0734996 0
vt 0.967 34.9
v -23.0461087 12.2728916 0
vt 0 35
v -24.3071222 9.66140834 0
vt 0.967 35
v -22.2474929 11.8954362 0
vt 0 35.1
v -23.4648086 9.2632997 0
vt 0.967 35.1
v -21.4426975 11.5313429 0
vt 0 35.2
v -22.6159771 8.87928426 0
vt 0.967 35.2
v -20.6319458 11.1807127 0
vt 0 35.3
v -21.7608636 8.50946869 0
vt 0.967 35.3
v -19.8154632 10.8436432 0
vt 0 35.4
v -20.8997056 8.15395572 0
vt 0.967 35.4
v -18.9934765 10.5202279 0
vt 0 35.5
v -20.0327422 7.81284409 0
vt 0.967 35.5
v -18.1662139 10.2105566 0
vt 0 35.6
v -19.1602142 7.48622856 0
vt 0.967 35.6
v -17.3339052 9.91471543 0
vt 0 35.7
v -18.2823642 7.17419985 0
vt 0.967 35.7
v -16.4967817 9.63278651 0
vt 0 35.8
v -17.3994358 6.87684464 0
vt 0.967 35.8
v -15.6550758 9.36484816 0
vt 0 35.9
v -16.5116743 6.59424551 0
vt 0.967 35.9
v -14.8090214 9.11097481 0
vt 0 36
v -15.6193263 6.32648098 0
vt 0.967 36
v -13.9588535 8.87123697 0
vt 0 36.1
v -14.7226398 6.07362541 0
vt 0.967 36.1
v -13.1048082 8.64570123 0
vt 0 36.2
v -13.8218637 5.83574904 0
vt 0.967 36.2
v -12.2471228 8.43443025 0
vt 0 36.3
v -12.9172484 5.61291794 0
vt 0.967 36.3
v -11.3860355 8.23748271 0
vt 0 36.4
v -12.0090449 5.40519402 0
vt 0.967 36.4
v -10.5217854 8.05491331 0
vt 0 36.5
v -11.0975058 5.21263498 0
vt 0.967 36.5
v -9.65461273 7.88677276 0
vt 0 36.6
v -10.182884 5.03529429 0
vt 0.967 36.6
v -8.78475826 7.73310778 0
vt 0 36.7
v -9.26543371 4.87322123 0
vt 0.967 36.7
v -7.91246364 7.59396104 0
vt 0 36.8
v -8.34540977 4.7264608 0
vt 0.967 36.8
v -7.03797117 7.4693712 0
vt 0 36.9
v -7.4230677 4.59505378 0
vt 0.967 36.9
v -6.16152375 7.35937287 0
vt 0 37
v -6.49866373 4.47903666 0
vt 0.967 37
v -5.28336483 7.26399659 0
vt 0 37.1
v -5.57245461 4.37844168 0
vt 0.967 37.1
v -4.40373835 7.18326886 0
vt 0 37.2
v -4.64469762 4.29329678 0
vt 0.967 37.2
v -3.52288863 7.1172121 0
vt 0 37.3
v -3.71565046 4.2236256 0
vt 0.967 37.3
v -2.64106036 7.06584467 0
vt 0 37.4
v -2.78557121 4.16944749 0
vt 0.967 37.4
v -1.75849848 7.02918083 0
vt 0 37.5
v -1.85471821 4.13077752 0
vt 0.967 37.5
v -0.875448133 7.00723077 0
vt 0 37.6
v -0.923350012 4.10762642 0
vt 0.967 37.6
v 0.000892166667 7.00000001 0
vt 0 37.6992128
v 0.000940983333 4.10000001 0
vt 0.967 37.6992128
mtllib Roads\3D_Road\Road_0faf324d-1ca1-41ca-9752-14fc08f50f0b_2.mtl
usemtl Road Transition (Light)
g g1
s 1
f  1/1 2/2 4/4 3/3
f  3/3 4/4 6/6 5/5
f  5/5 6/6 8/8 7/7
f  7/7 8/8 10/10 9/9
f  9/9 10/10 12/12 11/11
f  11/11 12/12 14/14 13/13
f  13/13 14/14 16/16 15/15
f  15/15 16/16 18/18 17/17
f  17/17 18/18 20/20 19/19
f  19/19 20/20 22/22 21/21
f  21/21 22/22 24/24 23/23
f  23/23 24/24 26/26 25/25
f  25/25 26/26 28/28 27/27
f  27/27 28/28 30/30 29/29
f  29/29 30/30 32/32 31/31
f  31/31 32/32 34/34 33/33
f  33/33 34/34 36/36 35/35
f  35/35 36/36 38/38 37/37
f  37/37 38/38 40/40 39/39
f  39/39 40/40 42/42 41/41
f  41/41 42/42 44/44 43/43
f  43/43 44/44 46/46 45/45
f  45/45 46/46 48/48 47/47
f  47/47 48/48 50/50 49/49
f  49/49 50/50 52/52 51/51
f  51/51 52/52 54/54 53/53
f  53/53 54/54 56/56 55/55
f  55/55 56/56 58/58 57/57
f  57/57 58/58 60/60 59/59
f  59/59 60/60 62/62 61/61
f  61/61 62/62 64/64 63/63
f  63/63 64/64 66/66 65/65
f  65/65 66/66 68/68 67/67
f  67/67 68/68 70/70 69/69
f  69/69 70/70 72/72 71/71
f  71/71 72/72 74/74 73/73
f  73/73 74/74 76/76 75/75
f  75/75 76/76 78/78 77/77
f  77/77 78/78 80/80 79/79
f  79/79 80/80 82/82 81/81
f  81/81 82/82 84/84 83/83
f  83/83 84/84 86/86 85/85
f  85/85 86/86 88/88 87/87
f  87/87 88/88 90/90 89/89
f  89/89 90/90 92/92 91/91
f  91/91 92/92 94/94 93/93
f  93/93 94/94 96/96 95/95
f  95/95 96/96 98/98 97/97
f  97/97 98/98 100/100 99/99
f  99/99 100/100 102/102 101/101
f  101/101 102/102 104/104 103/103
f  103/103 104/104 106/106 105/105
f  105/105 106/106 108/108 107/107
f  107/107 108/108 110/110 109/109
f  109/109 110/110 112/112 111/111
f  111/111 112/112 114/114 113/113
f  113/113 114/114 116/116 115/115
f  115/115 116/116 118/118 117/117
f  117/117 118/118 120/120 119/119
f  119/119 120/120 122/122 121/121
f  121/121 122/122 124/124 123/123
f  123/123 124/124 126/126 125/125
f  125/125 126/126 128/128 127/127
f  127/127 128/128 130/130 129/129
f  129/129 130/130 132/132 131/131
f  131/131 132/132 134/134 133/133
f  133/133 134/134 136/136 135/135
f  135/135 136/136 138/138 137/137
f  137/137 138/138 140/140 139/139
f  139/139 140/140 142/142 141/141
f  141/141 142/142 144/144 143/143
f  143/143 144/144 146/146 145/145
f  145/145 146/146 148/148 147/147
f  147/147 148/148 150/150 149/149
f  149/149 150/150 152/152 151/151
f  151/151 152/152 154/154 153/153
f  153/153 154/154 156/156 155/155
f  155/155 156/156 158/158 157/157
f  157/157 158/158 160/160 159/159
f  159/159 160/160 162/162 161/161
f  161/161 162/162 164/164 163/163
f  163/163 164/164 166/166 165/165
f  165/165 166/166 168/168 167/167
f  167/167 168/168 170/170 169/169
f  169/169 170/170 172/172 171/171
f  171/171 172/172 174/174 173/173
f  173/173 174/174 176/176 175/175
f  175/175 176/176 178/178 177/177
f  177/177 178/178 180/180 179/179
f  179/179 180/180 182/182 181/181
f  181/181 182/182 184/184 183/183
f  183/183 184/184 186/186 185/185
f  185/185 186/186 188/188 187/187
f  187/187 188/188 190/190 189/189
f  189/189 190/190 192/192 191/191
f  191/191 192/192 194/194 193/193
f  193/193 194/194 196/196 195/195
f  195/195 196/196 198/198 197/197
f  197/197 198/198 200/200 199/199
f  199/199 200/200 202/202 201/201
f  201/201 202/202 204/204 203/203
f  203/203 204/204 206/206 205/205
f  205/205 206/206 208/208 207/207
f  207/207 208/208 210/210 209/209
f  209/209 210/210 212/212 211/211
f  211/211 212/212 214/214 213/213
f  213/213 214/214 216/216 215/215
f  215/215 216/216 218/218 217/217
f  217/217 218/218 220/220 219/219
f  219/219 220/220 222/222 221/221
f  221/221 222/222 224/224 223/223
f  223/223 224/224 226/226 225/225
f  225/225 226/226 228/228 227/227
f  227/227 228/228 230/230 229/229
f  229/229 230/230 232/232 231/231
f  231/231 232/232 234/234 233/233
f  233/233 234/234 236/236 235/235
f  235/235 236/236 238/238 237/237
f  237/237 238/238 240/240 239/239
f  239/239 240/240 242/242 241/241
f  241/241 242/242 244/244 243/243
f  243/243 244/244 246/246 245/245
f  245/245 246/246 248/248 247/247
f  247/247 248/248 250/250 249/249
f  249/249 250/250 252/252 251/251
f  251/251 252/252 254/254 253/253
f  253/253 254/254 256/256 255/255
f  255/255 256/256 258/258 257/257
f  257/257 258/258 260/260 259/259
f  259/259 260/260 262/262 261/261
f  261/261 262/262 264/264 263/263
f  263/263 264/264 266/266 265/265
f  265/265 266/266 268/268 267/267
f  267/267 268/268 270/270 269/269
f  269/269 270/270 272/272 271/271
f  271/271 272/272 274/274 273/273
f  273/273 274/274 276/276 275/275
f  275/275 276/276 278/278 277/277
f  277/277 278/278 280/280 279/279
f  279/279 280/280 282/282 281/281
f  281/281 282/282 284/284 283/283
f  283/283 284/284 286/286 285/285
f  285/285 286/286 288/288 287/287
f  287/287 288/288 290/290 289/289
f  289/289 290/290 292/292 291/291
f  291/291 292/292 294/294 293/293
f  293/293 294/294 296/296 295/295
f  295/295 296/296 298/298 297/297
f  297/297 298/298 300/300 299/299
f  299/299 300/300 302/302 301/301
f  301/301 302/302 304/304 303/303
f  303/303 304/304 306/306 305/305
f  305/305 306/306 308/308 307/307
f  307/307 308/308 310/310 309/309
f  309/309 310/310 312/312 311/311
f  311/311 312/312 314/314 313/313
f  313/313 314/314 316/316 315/315
f  315/315 316/316 318/318 317/317
f  317/317 318/318 320/320 319/319
f  319/319 320/320 322/322 321/321
f  321/321 322/322 324/324 323/323
f  323/323 324/324 326/326 325/325
f  325/325 326/326 328/328 327/327
f  327/327 328/328 330/330 329/329
f  329/329 330/330 332/332 331/331
f  331/331 332/332 334/334 333/333
f  333/333 334/334 336/336 335/335
f  335/335 336/336 338/338 337/337
f  337/337 338/338 340/340 339/339
f  339/339 340/340 342/342 341/341
f  341/341 342/342 344/344 343/343
f  343/343 344/344 346/346 345/345
f  345/345 346/346 348/348 347/347
f  347/347 348/348 350/350 349/349
f  349/349 350/350 352/352 351/351
f  351/351 352/352 354/354 353/353
f  353/353 354/354 356/356 355/355
f  355/355 356/356 358/358 357/357
f  357/357 358/358 360/360 359/359
f  359/359 360/360 362/362 361/361
f  361/361 362/362 364/364 363/363
f  363/363 364/364 366/366 365/365
f  365/365 366/366 368/368 367/367
f  367/367 368/368 370/370 369/369
f  369/369 370/370 372/372 371/371
f  371/371 372/372 374/374 373/373
f  373/373 374/374 376/376 375/375
f  375/375 376/376 378/378 377/377
f  377/377 378/378 380/380 379/379
f  379/379 380/380 382/382 381/381
f  381/381 382/382 384/384 383/383
f  383/383 384/384 386/386 385/385
f  385/385 386/386 388/388 387/387
f  387/387 388/388 390/390 389/389
f  389/389 390/390 392/392 391/391
f  391/391 392/392 394/394 393/393
f  393/393 394/394 396/396 395/395
f  395/395 396/396 398/398 397/397
f  397/397 398/398 400/400 399/399
f  399/399 400/400 402/402 401/401
f  401/401 402/402 404/404 403/403
f  403/403 404/404 406/406 405/405
f  405/405 406/406 408/408 407/407
f  407/407 408/408 410/410 409/409
f  409/409 410/410 412/412 411/411
f  411/411 412/412 414/414 413/413
f  413/413 414/414 416/416 415/415
f  415/415 416/416 418/418 417/417
f  417/417 418/418 420/420 419/419
f  419/419 420/420 422/422 421/421
f  421/421 422/422 424/424 423/423
f  423/423 424/424 426/426 425/425
f  425/425 426/426 428/428 427/427
f  427/427 428/428 430/430 429/429
f  429/429 430/430 432/432 431/431
f  431/431 432/432 434/434 433/433
f  433/433 434/434 436/436 435/435
f  435/435 436/436 438/438 437/437
f  437/437 438/438 440/440 439/439
f  439/439 440/440 442/442 441/441
f  441/441 442/442 444/444 443/443
f  443/443 444/444 446/446 445/445
f  445/445 446/446 448/448 447/447
f  447/447 448/448 450/450 449/449
f  449/449 450/450 452/452 451/451
f  451/451 452/452 454/454 453/453
f  453/453 454/454 456/456 455/455
f  455/455 456/456 458/458 457/457
f  457/457 458/458 460/460 459/459
f  459/459 460/460 462/462 461/461
f  461/461 462/462 464/464 463/463
f  463/463 464/464 466/466 465/465
f  465/465 466/466 468/468 467/467
f  467/467 468/468 470/470 469/469
f  469/469 470/470 472/472 471/471
f  471/471 472/472 474/474 473/473
f  473/473 474/474 476/476 475/475
f  475/475 476/476 478/478 477/477
f  477/477 478/478 480/480 479/479
f  479/479 480/480 482/482 481/481
f  481/481 482/482 484/484 483/483
f  483/483 484/484 486/486 485/485
f  485/485 486/486 488/488 487/487
f  487/487 488/488 490/490 489/489
f  489/489 490/490 492/492 491/491
f  491/491 492/492 494/494 493/493
f  493/493 494/494 496/496 495/495
f  495/495 496/496 498/498 497/497
f  497/497 498/498 500/500 499/499
f  499/499 500/500 502/502 501/501
f  501/501 502/502 504/504 503/503
f  503/503 504/504 506/506 505/505
f  505/505 506/506 508/508 507/507
f  507/507 508/508 510/510 509/509
f  509/509 510/510 512/512 511/511
f  511/511 512/512 514/514 513/513
f  513/513 514/514 516/516 515/515
f  515/515 516/516 518/518 517/517
f  517/517 518/518 520/520 519/519
f  519/519 520/520 522/522 521/521
f  521/521 522/522 524/524 523/523
f  523/523 524/524 526/526 525/525
f  525/525 526/526 528/528 527/527
f  527/527 528/528 530/530 529/529
f  529/529 530/530 532/532 531/531
f  531/531 532/532 534/534 533/533
f  533/533 534/534 536/536 535/535
f  535/535 536/536 538/538 537/537
f  537/537 538/538 540/540 539/539
f  539/539 540/540 542/542 541/541
f  541/541 542/542 544/544 543/543
f  543/543 544/544 546/546 545/545
f  545/545 546/546 548/548 547/547
f  547/547 548/548 550/550 549/549
f  549/549 550/550 552/552 551/551
f  551/551 552/552 554/554 553/553
f  553/553 554/554 556/556 555/555
f  555/555 556/556 558/558 557/557
f  557/557 558/558 560/560 559/559
f  559/559 560/560 562/562 561/561
f  561/561 562/562 564/564 563/563
f  563/563 564/564 566/566 565/565
f  565/565 566/566 568/568 567/567
f  567/567 568/568 570/570 569/569
f  569/569 570/570 572/572 571/571
f  571/571 572/572 574/574 573/573
f  573/573 574/574 576/576 575/575
f  575/575 576/576 578/578 577/577
f  577/577 578/578 580/580 579/579
f  579/579 580/580 582/582 581/581
f  581/581 582/582 584/584 583/583
f  583/583 584/584 586/586 585/585
f  585/585 586/586 588/588 587/587
f  587/587 588/588 590/590 589/589
f  589/589 590/590 592/592 591/591
f  591/591 592/592 594/594 593/593
f  593/593 594/594 596/596 595/595
f  595/595 596/596 598/598 597/597
f  597/597 598/598 600/600 599/599
f  599/599 600/600 602/602 601/601
f  601/601 602/602 604/604 603/603
f  603/603 604/604 606/606 605/605
f  605/605 606/606 608/608 607/607
f  607/607 608/608 610/610 609/609
f  609/609 610/610 612/612 611/611
f  611/611 612/612 614/614 613/613
f  613/613 614/614 616/616 615/615
f  615/615 616/616 618/618 617/617
f  617/617 618/618 620/620 619/619
f  619/619 620/620 622/622 621/621
f  621/621 622/622 624/624 623/623
f  623/623 624/624 626/626 625/625
f  625/625 626/626 628/628 627/627
f  627/627 628/628 630/630 629/629
f  629/629 630/630 632/632 631/631
f  631/631 632/632 634/634 633/633
f  633/633 634/634 636/636 635/635
f  635/635 636/636 638/638 637/637
f  637/637 638/638 640/640 639/639
f  639/639 640/640 642/642 641/641
f  641/641 642/642 644/644 643/643
f  643/643 644/644 646/646 645/645
f  645/645 646/646 648/648 647/647
f  647/647 648/648 650/650 649/649
f  649/649 650/650 652/652 651/651
f  651/651 652/652 654/654 653/653
f  653/653 654/654 656/656 655/655
f  655/655 656/656 658/658 657/657
f  657/657 658/658 660/660 659/659
f  659/659 660/660 662/662 661/661
f  661/661 662/662 664/664 663/663
f  663/663 664/664 666/666 665/665
f  665/665 666/666 668/668 667/667
f  667/667 668/668 670/670 669/669
f  669/669 670/670 672/672 671/671
f  671/671 672/672 674/674 673/673
f  673/673 674/674 676/676 675/675
f  675/675 676/676 678/678 677/677
f  677/677 678/678 680/680 679/679
f  679/679 680/680 682/682 681/681
f  681/681 682/682 684/684 683/683
f  683/683 684/684 686/686 685/685
f  685/685 686/686 688/688 687/687
f  687/687 688/688 690/690 689/689
f  689/689 690/690 692/692 691/691
f  691/691 692/692 694/694 693/693
f  693/693 694/694 696/696 695/695
f  695/695 696/696 698/698 697/697
f  697/697 698/698 700/700 699/699
f  699/699 700/700 702/702 701/701
f  701/701 702/702 704/704 703/703
f  703/703 704/704 706/706 705/705
f  705/705 706/706 708/708 707/707
f  707/707 708/708 710/710 709/709
f  709/709 710/710 712/712 711/711
f  711/711 712/712 714/714 713/713
f  713/713 714/714 716/716 715/715
f  715/715 716/716 718/718 717/717
f  717/717 718/718 720/720 719/719
f  719/719 720/720 722/722 721/721
f  721/721 722/722 724/724 723/723
f  723/723 724/724 726/726 725/725
f  725/725 726/726 728/728 727/727
f  727/727 728/728 730/730 729/729
f  729/729 730/730 732/732 731/731
f  731/731 732/732 734/734 733/733
f  733/733 734/734 736/736 735/735
f  735/735 736/736 738/738 737/737
f  737/737 738/738 740/740 739/739
f  739/739 740/740 742/742 741/741
f  741/741 742/742 744/744 743/743
f  743/743 744/744 746/746 745/745
f  745/745 746/746 748/748 747/747
f  747/747 748/748 750/750 749/749
f  749/749 750/750 752/752 751/751
f  751/751 752/752 754/754 753/753
f  753/753 754/754 756/756 755/755
g g2
s 2
g g3
s 3
g g4
s 4
