# Shape file for lane 3
v -400 -7.1 0
vt 0 0
v -400 -100 0
vt 9 0
v -100 -7.1 0
vt 0 30
v -100 -100 0
vt 9 30
v -94.647231 -6.96615289 0
vt 0 30.5
v -90.0041661 -99.7500521 0
vt 9 30.5
v -89.3078411 -6.5649461 0
vt 0 31
v -80.0333167 -99.0008331 0
vt 9 31
v -83.995176 -5.89738245 0
vt 0 31.5
v -70.1123735 -97.7542156 0
vt 9 31.5
v -78.7225147 -4.96513049 0
vt 0 32
v -60.2661338 -96.0133156 0
vt 9 32
v -73.503036 -3.77052037 0
vt 0 32.5
v -50.5192081 -93.7824843 0
vt 9 32.5
v -68.3497859 -2.31653799 0
vt 0 33
v -40.8959587 -91.0672978 0
vt 9 33
v -63.2756448 -0.606817546 0
vt 0 33.5
v -31.4204385 -87.8745426 0
vt 9 33.5
v -58.2932955 1.35436754 0
vt 0 34
v -22.1163315 -84.2121988 0
vt 9 34
v -53.4151913 3.56211534 0
vt 0 34.5
v -13.0068932 -80.0894205 0
vt 9 34.5
v -48.6535248 6.01090762 0
vt 0 35
v -4.11489228 -75.5165124 0
vt 9 35
v -44.0201978 8.69462369 0
vt 0 35.5
v 4.53744579 -70.5049044 0
vt 9 35.5
v -39.5267911 11.6065556 0
vt 0 36
v 12.9284947 -65.067123 0
vt 9 36
v -35.1845359 14.7394252 0
vt 0 36.5
v 21.0372811 -59.2167597 0
vt 9 36.5
v -31.0042857 18.0854017 0
vt 0 37
v 28.8435374 -52.9684375 0
vt 9 37
v -26.9964888 21.6361221 0
vt 0 37.5
v 36.327752 -46.3377738 0
vt 9 37.5
v -23.1711627 25.3827114 0
vt 0 38
v 43.4712182 -39.3413419 0
vt 9 38
v -19.5378686 29.3158051 0
vt 0 38.5
v 50.256081 -31.9966292 0
vt 9 38.5
v -16.105688 33.4255724 0
vt 0 39
v 56.6653819 -24.3219937 0
vt 9 39
v -12.8831994 37.7017411 0
vt 0 39.5
v 62.683101 -16.3366179 0
vt 9 39.5
v -9.87845753 42.133623 0
vt 0 40
v 68.294197 -8.06046117 0
vt 9 40
v -7.09897254 46.7101408 0
vt 0 40.5
v 73.4846451 0.485790422 0
vt 9 40.5
v -4.55169174 51.4198554 0
vt 0 41
v 78.241472 9.28077571 0
vt 9 41
v -2.242982 56.2509951 0
vt 0 41.5
v 82.5527881 18.3025118 0
vt 9 41.5
v -0.178613893 61.1914845 0
vt 0 42
v 86.4078172 27.5284491 0
vt 9 42
v 1.63625273 66.228975 0
vt 0 42.5
v 89.7969239 36.9355275 0
vt 9 42.5
v 3.19708166 71.3508755 0
vt 0 43
v 92.7116371 46.5002343 0
vt 9 43
v 4.49997162 76.5443838 0
vt 0 43.5
v 95.1446716 56.1986626 0
vt 9 43.5
v 5.54166608 81.796519 0
vt 0 44
v 97.089946 66.0065714 0
vt 9 44
v 6.31956134 87.0941534 0
vt 0 44.5
v 98.5425982 75.8994461 0
vt 9 44.5
v 6.83171307 92.4240457 0
vt 0 45
v 99.4989973 85.8525597 0
vt 9 45
v 7.07684114 97.7728739 0
vt 0 45.5
v 99.9567528 95.8410344 0
vt 9 45.5
v 7.1 102.920367 0
vt 0 46
v 100 102.920367 0
vt 9 46
v 7.1 942.920377 0
vt 0 130.000001
v 100 942.920377 0
vt 9 130.000001
mtllib Roads\3D_Road\Road_da4c0f36-c2f3-4d28-9ec7-163a8275a787_3.mtl
usemtl Grass (Light)
g g1
s 1
f  1/1 2/2 4/4 3/3
f  3/3 4/4 6/6 5/5
f  5/5 6/6 8/8 7/7
f  7/7 8/8 10/10 9/9
f  9/9 10/10 12/12 11/11
f  11/11 12/12 14/14 13/13
f  13/13 14/14 16/16 15/15
f  15/15 16/16 18/18 17/17
f  17/17 18/18 20/20 19/19
f  19/19 20/20 22/22 21/21
f  21/21 22/22 24/24 23/23
f  23/23 24/24 26/26 25/25
f  25/25 26/26 28/28 27/27
f  27/27 28/28 30/30 29/29
f  29/29 30/30 32/32 31/31
f  31/31 32/32 34/34 33/33
f  33/33 34/34 36/36 35/35
f  35/35 36/36 38/38 37/37
f  37/37 38/38 40/40 39/39
f  39/39 40/40 42/42 41/41
f  41/41 42/42 44/44 43/43
f  43/43 44/44 46/46 45/45
f  45/45 46/46 48/48 47/47
f  47/47 48/48 50/50 49/49
f  49/49 50/50 52/52 51/51
f  51/51 52/52 54/54 53/53
f  53/53 54/54 56/56 55/55
f  55/55 56/56 58/58 57/57
f  57/57 58/58 60/60 59/59
f  59/59 60/60 62/62 61/61
f  61/61 62/62 64/64 63/63
f  63/63 64/64 66/66 65/65
f  65/65 66/66 68/68 67/67
f  67/67 68/68 70/70 69/69
g g2
s 2
g g3
s 3
g g4
s 4
