# Shape file for lane 5
v -400 -4 0
vt 0 0
v -400 -7.1 0
vt -0.969 0
v -100 -4 0
vt 0 30
v -100 -7.1 0
vt -0.969 30
v -94.8021664 -3.87002708 0
vt 0 30.5
v -94.647231 -6.96615289 0
vt -0.969 30.5
v -89.6173247 -3.48043319 0
vt 0 31
v -89.3078411 -6.5649461 0
vt -0.969 31
v -84.4584342 -2.83219211 0
vt 0 31.5
v -83.995176 -5.89738245 0
vt -0.969 31.5
v -79.3383896 -1.9269241 0
vt 0 32
v -78.7225147 -4.96513049 0
vt -0.969 32
v -74.2699882 -0.766891858 0
vt 0 32.5
v -73.503036 -3.77052037 0
vt -0.969 32.5
v -69.2658985 0.645005131 0
vt 0 33
v -68.3497859 -2.31653799 0
vt -0.969 33
v -64.338628 2.30523786 0
vt 0 33.5
v -63.2756448 -0.606817546 0
vt -0.969 33.5
v -59.5004924 4.20965662 0
vt 0 34
v -58.2932955 1.35436754 0
vt -0.969 34
v -54.7635845 6.35350136 0
vt 0 34.5
v -53.4151913 3.56211534 0
vt -0.969 34.5
v -50.139744 8.73141356 0
vt 0 35
v -48.6535248 6.01090762 0
vt -0.969 35
v -45.6405282 11.3374497 0
vt 0 35.5
v -44.0201978 8.69462369 0
vt -0.969 35.5
v -41.2771828 14.165096 0
vt 0 36
v -39.5267911 11.6065556 0
vt -0.969 36
v -37.0606138 17.207285 0
vt 0 36.5
v -35.1845359 14.7394252 0
vt -0.969 36.5
v -33.0013605 20.4564125 0
vt 0 37
v -31.0042857 18.0854017 0
vt -0.969 37
v -29.109569 23.9043576 0
vt 0 37.5
v -26.9964888 21.6361221 0
vt -0.969 37.5
v -25.3949665 27.5425022 0
vt 0 38
v -23.1711627 25.3827114 0
vt -0.969 38
v -21.8668379 31.3617528 0
vt 0 38.5
v -19.5378686 29.3158051 0
vt -0.969 38.5
v -18.5340014 35.3525633 0
vt 0 39
v -16.105688 33.4255724 0
vt -0.969 39
v -15.4047875 39.5049587 0
vt 0 39.5
v -12.8831994 37.7017411 0
vt -0.969 39.5
v -12.4870176 43.8085602 0
vt 0 40
v -9.87845753 42.133623 0
vt -0.969 40
v -9.78798454 48.252611 0
vt 0 40.5
v -7.09897254 46.7101408 0
vt -0.969 40.5
v -7.31443455 52.8260034 0
vt 0 41
v -4.55169174 51.4198554 0
vt -0.969 41
v -5.07255021 57.5173061 0
vt 0 41.5
v -2.242982 56.2509951 0
vt -0.969 41.5
v -3.06793506 62.3147935 0
vt 0 42
v -0.178613893 61.1914845 0
vt -0.969 42
v -1.30559959 67.2064743 0
vt 0 42.5
v 1.63625273 66.228975 0
vt -0.969 42.5
v 0.210051283 72.1801218 0
vt 0 43
v 3.19708166 71.3508755 0
vt -0.969 43
v 1.47522921 77.2233045 0
vt 0 43.5
v 4.49997162 76.5443838 0
vt -0.969 43.5
v 2.48677192 82.3234171 0
vt 0 44
v 5.54166608 81.796519 0
vt -0.969 44
v 3.24215107 87.467712 0
vt 0 44.5
v 6.31956134 87.0941534 0
vt -0.969 44.5
v 3.73947861 92.643331 0
vt 0 45
v 6.83171307 92.4240457 0
vt -0.969 45
v 3.97751148 97.8373379 0
vt 0 45.5
v 7.07684114 97.7728739 0
vt -0.969 45.5
v 4 102.920367 0
vt 0 46
v 7.1 102.920367 0
vt -0.969 46
v 4 942.920377 0
vt 0 130.000001
v 7.1 942.920377 0
vt -0.969 130.000001
mtllib Roads\3D_Road\Road_da4c0f36-c2f3-4d28-9ec7-163a8275a787_5.mtl
usemtl Road Transition (Light)
g g1
s 1
f  1/1 2/2 4/4 3/3
f  3/3 4/4 6/6 5/5
f  5/5 6/6 8/8 7/7
f  7/7 8/8 10/10 9/9
f  9/9 10/10 12/12 11/11
f  11/11 12/12 14/14 13/13
f  13/13 14/14 16/16 15/15
f  15/15 16/16 18/18 17/17
f  17/17 18/18 20/20 19/19
f  19/19 20/20 22/22 21/21
f  21/21 22/22 24/24 23/23
f  23/23 24/24 26/26 25/25
f  25/25 26/26 28/28 27/27
f  27/27 28/28 30/30 29/29
f  29/29 30/30 32/32 31/31
f  31/31 32/32 34/34 33/33
f  33/33 34/34 36/36 35/35
f  35/35 36/36 38/38 37/37
f  37/37 38/38 40/40 39/39
f  39/39 40/40 42/42 41/41
f  41/41 42/42 44/44 43/43
f  43/43 44/44 46/46 45/45
f  45/45 46/46 48/48 47/47
f  47/47 48/48 50/50 49/49
f  49/49 50/50 52/52 51/51
f  51/51 52/52 54/54 53/53
f  53/53 54/54 56/56 55/55
f  55/55 56/56 58/58 57/57
f  57/57 58/58 60/60 59/59
f  59/59 60/60 62/62 61/61
f  61/61 62/62 64/64 63/63
f  63/63 64/64 66/66 65/65
f  65/65 66/66 68/68 67/67
f  67/67 68/68 70/70 69/69
g g2
s 2
g g3
s 3
g g4
s 4
