# Shape file for lane 1
v -400 100 0
vt 0 0
v -400 12 0
vt 9 0
v -398 100 0
vt 0 0.2
v -398 12 0
vt 9 0.2
v -396 100 0
vt 0 0.4
v -396 12 0
vt 9 0.4
v -394 100 0
vt 0 0.6
v -394 12 0
vt 9 0.6
v -392 100 0
vt 0 0.8
v -392 12 0
vt 9 0.8
v -390 100 0
vt 0 1
v -390 12 0
vt 9 1
v -388 100 0
vt 0 1.2
v -388 12 0
vt 9 1.2
v -386 100 0
vt 0 1.4
v -386 12 0
vt 9 1.4
v -384 100 0
vt 0 1.6
v -384 12 0
vt 9 1.6
v -382 100 0
vt 0 1.8
v -382 12 0
vt 9 1.8
v -380 100 0
vt 0 2
v -380 12 0
vt 9 2
v -378 100 0
vt 0 2.2
v -378 12 0
vt 9 2.2
v -376 100 0
vt 0 2.4
v -376 12 0
vt 9 2.4
v -374 100 0
vt 0 2.6
v -374 12 0
vt 9 2.6
v -372 100 0
vt 0 2.8
v -372 12 0
vt 9 2.8
v -370 100 0
vt 0 3
v -370 12 0
vt 9 3
v -368 100 0
vt 0 3.2
v -368 12 0
vt 9 3.2
v -366 100 0
vt 0 3.4
v -366 12 0
vt 9 3.4
v -364 100 0
vt 0 3.6
v -364 12 0
vt 9 3.6
v -362 100 0
vt 0 3.8
v -362 12 0
vt 9 3.8
v -360 100 0
vt 0 4
v -360 12 0
vt 9 4
v -358 100 0
vt 0 4.2
v -358 12 0
vt 9 4.2
v -356 100 0
vt 0 4.4
v -356 12 0
vt 9 4.4
v -354 100 0
vt 0 4.6
v -354 12 0
vt 9 4.6
v -352 100 0
vt 0 4.8
v -352 12 0
vt 9 4.8
v -350 100 0
vt 0 5
v -350 12 0
vt 9 5
v -348 100 0
vt 0 5.2
v -348 12 0
vt 9 5.2
v -346 100 0
vt 0 5.4
v -346 12 0
vt 9 5.4
v -344 100 0
vt 0 5.6
v -344 12 0
vt 9 5.6
v -342 100 0
vt 0 5.8
v -342 12 0
vt 9 5.8
v -340 100 0
vt 0 6
v -340 12 0
vt 9 6
v -338 100 0
vt 0 6.2
v -338 12 0
vt 9 6.2
v -336 100 0
vt 0 6.4
v -336 12 0
vt 9 6.4
v -334 100 0
vt 0 6.6
v -334 12 0
vt 9 6.6
v -332 100 0
vt 0 6.8
v -332 12 0
vt 9 6.8
v -330 100 0
vt 0 7
v -330 12 0
vt 9 7
v -328 100 0
vt 0 7.2
v -328 12 0
vt 9 7.2
v -326 100 0
vt 0 7.4
v -326 12 0
vt 9 7.4
v -324 100 0
vt 0 7.6
v -324 12 0
vt 9 7.6
v -322 100 0
vt 0 7.8
v -322 12 0
vt 9 7.8
v -320 100 0
vt 0 8
v -320 12 0
vt 9 8
v -318 100 0
vt 0 8.2
v -318 12 0
vt 9 8.2
v -316 100 0
vt 0 8.4
v -316 12 0
vt 9 8.4
v -314 100 0
vt 0 8.6
v -314 12 0
vt 9 8.6
v -312 100 0
vt 0 8.8
v -312 12 0
vt 9 8.8
v -310 100 0
vt 0 9
v -310 12 0
vt 9 9
v -308 100 0
vt 0 9.2
v -308 12 0
vt 9 9.2
v -306 100 0
vt 0 9.4
v -306 12 0
vt 9 9.4
v -304 100 0
vt 0 9.6
v -304 12 0
vt 9 9.6
v -302 100 0
vt 0 9.8
v -302 12 0
vt 9 9.8
v -300 100 0
vt 0 10
v -300 12 0
vt 9 10
v -298 100 0
vt 0 10.2
v -298 12 0
vt 9 10.2
v -296 100 0
vt 0 10.4
v -296 12 0
vt 9 10.4
v -294 100 0
vt 0 10.6
v -294 12 0
vt 9 10.6
v -292 100 0
vt 0 10.8
v -292 12 0
vt 9 10.8
v -290 100 0
vt 0 11
v -290 12 0
vt 9 11
v -288 100 0
vt 0 11.2
v -288 12 0
vt 9 11.2
v -286 100 0
vt 0 11.4
v -286 12 0
vt 9 11.4
v -284 100 0
vt 0 11.6
v -284 12 0
vt 9 11.6
v -282 100 0
vt 0 11.8
v -282 12 0
vt 9 11.8
v -280 100 0
vt 0 12
v -280 12 0
vt 9 12
v -278 100 0
vt 0 12.2
v -278 12 0
vt 9 12.2
v -276 100 0
vt 0 12.4
v -276 12 0
vt 9 12.4
v -274 100 0
vt 0 12.6
v -274 12 0
vt 9 12.6
v -272 100 0
vt 0 12.8
v -272 12 0
vt 9 12.8
v -270 100 0
vt 0 13
v -270 12 0
vt 9 13
v -268 100 0
vt 0 13.2
v -268 12 0
vt 9 13.2
v -266 100 0
vt 0 13.4
v -266 12 0
vt 9 13.4
v -264 100 0
vt 0 13.6
v -264 12 0
vt 9 13.6
v -262 100 0
vt 0 13.8
v -262 12 0
vt 9 13.8
v -260 100 0
vt 0 14
v -260 12 0
vt 9 14
v -258 100 0
vt 0 14.2
v -258 12 0
vt 9 14.2
v -256 100 0
vt 0 14.4
v -256 12 0
vt 9 14.4
v -254 100 0
vt 0 14.6
v -254 12 0
vt 9 14.6
v -252 100 0
vt 0 14.8
v -252 12 0
vt 9 14.8
v -250 100 0
vt 0 15
v -250 12 0
vt 9 15
v -248 100 0
vt 0 15.2
v -248 12 0
vt 9 15.2
v -246 100 0
vt 0 15.4
v -246 12 0
vt 9 15.4
v -244 100 0
vt 0 15.6
v -244 12 0
vt 9 15.6
v -242 100 0
vt 0 15.8
v -242 12 0
vt 9 15.8
v -240 100 0
vt 0 16
v -240 12 0
vt 9 16
v -238 100 0
vt 0 16.2
v -238 12 0
vt 9 16.2
v -236 100 0
vt 0 16.4
v -236 12 0
vt 9 16.4
v -234 100 0
vt 0 16.6
v -234 12 0
vt 9 16.6
v -232 100 0
vt 0 16.8
v -232 12 0
vt 9 16.8
v -230 100 0
vt 0 17
v -230 12 0
vt 9 17
v -228 100 0
vt 0 17.2
v -228 12 0
vt 9 17.2
v -226 100 0
vt 0 17.4
v -226 12 0
vt 9 17.4
v -224 100 0
vt 0 17.6
v -224 12 0
vt 9 17.6
v -222 100 0
vt 0 17.8
v -222 12 0
vt 9 17.8
v -220 100 0
vt 0 18
v -220 12 0
vt 9 18
v -218 100 0
vt 0 18.2
v -218 12 0
vt 9 18.2
v -216 100 0
vt 0 18.4
v -216 12 0
vt 9 18.4
v -214 100 0
vt 0 18.6
v -214 12 0
vt 9 18.6
v -212 100 0
vt 0 18.8
v -212 12 0
vt 9 18.8
v -210 100 0
vt 0 19
v -210 12 0
vt 9 19
v -208 100 0
vt 0 19.2
v -208 12 0
vt 9 19.2
v -206 100 0
vt 0 19.4
v -206 12 0
vt 9 19.4
v -204 100 0
vt 0 19.6
v -204 12 0
vt 9 19.6
v -202 100 0
vt 0 19.8
v -202 12 0
vt 9 19.8
v -200 100 0
vt 0 20
v -200 12 0
vt 9 20
v -198 100 0
vt 0 20.2
v -198 12 0
vt 9 20.2
v -196 100 0
vt 0 20.4
v -196 12 0
vt 9 20.4
v -194 100 0
vt 0 20.6
v -194 12 0
vt 9 20.6
v -192 100 0
vt 0 20.8
v -192 12 0
vt 9 20.8
v -190 100 0
vt 0 21
v -190 12 0
vt 9 21
v -188 100 0
vt 0 21.2
v -188 12 0
vt 9 21.2
v -186 100 0
vt 0 21.4
v -186 12 0
vt 9 21.4
v -184 100 0
vt 0 21.6
v -184 12 0
vt 9 21.6
v -182 100 0
vt 0 21.8
v -182 12 0
vt 9 21.8
v -180 100 0
vt 0 22
v -180 12 0
vt 9 22
v -178 100 0
vt 0 22.2
v -178 12 0
vt 9 22.2
v -176 100 0
vt 0 22.4
v -176 12 0
vt 9 22.4
v -174 100 0
vt 0 22.6
v -174 12 0
vt 9 22.6
v -172 100 0
vt 0 22.8
v -172 12 0
vt 9 22.8
v -170 100 0
vt 0 23
v -170 12 0
vt 9 23
v -168 100 0
vt 0 23.2
v -168 12 0
vt 9 23.2
v -166 100 0
vt 0 23.4
v -166 12 0
vt 9 23.4
v -164 100 0
vt 0 23.6
v -164 12 0
vt 9 23.6
v -162 100 0
vt 0 23.8
v -162 12 0
vt 9 23.8
v -160 100 0
vt 0 24
v -160 12 0
vt 9 24
v -158 100 0
vt 0 24.2
v -158 12 0
vt 9 24.2
v -156 100 0
vt 0 24.4
v -156 12 0
vt 9 24.4
v -154 100 0
vt 0 24.6
v -154 12 0
vt 9 24.6
v -152 100 0
vt 0 24.8
v -152 12 0
vt 9 24.8
v -150 100 0
vt 0 25
v -150 12 0
vt 9 25
v -148 100 0
vt 0 25.2
v -148 12 0
vt 9 25.2
v -146 100 0
vt 0 25.4
v -146 12 0
vt 9 25.4
v -144 100 0
vt 0 25.6
v -144 12 0
vt 9 25.6
v -142 100 0
vt 0 25.8
v -142 12 0
vt 9 25.8
v -140 100 0
vt 0 26
v -140 12 0
vt 9 26
v -138 100 0
vt 0 26.2
v -138 12 0
vt 9 26.2
v -136 100 0
vt 0 26.4
v -136 12 0
vt 9 26.4
v -134 100 0
vt 0 26.6
v -134 12 0
vt 9 26.6
v -132 100 0
vt 0 26.8
v -132 12 0
vt 9 26.8
v -130 100 0
vt 0 27
v -130 12 0
vt 9 27
v -128 100 0
vt 0 27.2
v -128 12 0
vt 9 27.2
v -126 100 0
vt 0 27.4
v -126 12 0
vt 9 27.4
v -124 100 0
vt 0 27.6
v -124 12 0
vt 9 27.6
v -122 100 0
vt 0 27.8
v -122 12 0
vt 9 27.8
v -120 100 0
vt 0 28
v -120 12 0
vt 9 28
v -118 100 0
vt 0 28.2
v -118 12 0
vt 9 28.2
v -116 100 0
vt 0 28.4
v -116 12 0
vt 9 28.4
v -114 100 0
vt 0 28.6
v -114 12 0
vt 9 28.6
v -112 100 0
vt 0 28.8
v -112 12 0
vt 9 28.8
v -110 100 0
vt 0 29
v -110 12 0
vt 9 29
v -108 100 0
vt 0 29.2
v -108 12 0
vt 9 29.2
v -106 100 0
vt 0 29.4
v -106 12 0
vt 9 29.4
v -104 100 0
vt 0 29.6
v -104 12 0
vt 9 29.6
v -102 100 0
vt 0 29.8
v -102 12 0
vt 9 29.8
v -100 100 0
vt 0 30
v -100 12 0
vt 9 30
v -100 100 0
vt 0 30.2
v -98.2401173 12.0175994 0
vt 9 30.2
v -100 100 0
vt 0 30.4
v -96.4809386 12.0703906 0
vt 9 30.4
v -100 100 0
vt 0 30.6
v -94.7231674 12.1583525 0
vt 9 30.6
v -100 100 0
vt 0 30.8
v -92.9675069 12.2814498 0
vt 9 30.8
v -100 100 0
vt 0 31
v -91.2146593 12.4396335 0
vt 9 31
v -100 100 0
vt 0 31.2
v -89.4653258 12.63284 0
vt 9 31.2
v -100 100 0
vt 0 31.4
v -87.7202059 12.8609923 0
vt 9 31.4
v -100 100 0
vt 0 31.6
v -85.9799978 13.1239991 0
vt 9 31.6
v -100 100 0
vt 0 31.8
v -84.2453975 13.421755 0
vt 9 31.8
v -100 100 0
vt 0 32
v -82.5170989 13.7541411 0
vt 9 32
v -100 100 0
vt 0 32.2
v -80.7957932 14.1210245 0
vt 9 32.2
v -100 100 0
vt 0 32.4
v -79.0821689 14.5222582 0
vt 9 32.4
v -100 100 0
vt 0 32.6
v -77.3769114 14.9576819 0
vt 9 32.6
v -100 100 0
vt 0 32.8
v -75.6807029 15.4271214 0
vt 9 32.8
v -100 100 0
vt 0 33
v -73.9942218 15.930389 0
vt 9 33
v -100 100 0
vt 0 33.2
v -72.3181427 16.4672832 0
vt 9 33.2
v -100 100 0
vt 0 33.4
v -70.6531359 17.0375894 0
vt 9 33.4
v -100 100 0
vt 0 33.6
v -68.9998675 17.6410795 0
vt 9 33.6
v -100 100 0
vt 0 33.8
v -67.3589987 18.2775121 0
vt 9 33.8
v -100 100 0
vt 0 34
v -65.7311859 18.9466325 0
vt 9 34
v -100 100 0
vt 0 34.2
v -64.1170801 19.6481733 0
vt 9 34.2
v -100 100 0
vt 0 34.4
v -62.5173271 20.3818536 0
vt 9 34.4
v -100 100 0
vt 0 34.6
v -60.9325666 21.1473802 0
vt 9 34.6
v -100 100 0
vt 0 34.8
v -59.3634326 21.9444468 0
vt 9 34.8
v -100 100 0
vt 0 35
v -57.8105526 22.7727346 0
vt 9 35
v -100 100 0
vt 0 35.2
v -56.2745479 23.6319122 0
vt 9 35.2
v -100 100 0
vt 0 35.4
v -54.7560327 24.521636 0
vt 9 35.4
v -100 100 0
vt 0 35.6
v -53.2556146 25.4415502 0
vt 9 35.6
v -100 100 0
vt 0 35.8
v -51.7738936 26.3912868 0
vt 9 35.8
v -100 100 0
vt 0 36
v -50.3114623 27.3704659 0
vt 9 36
v -100 100 0
vt 0 36.2
v -48.8689059 28.3786958 0
vt 9 36.2
v -100 100 0
vt 0 36.4
v -47.4468012 29.4155733 0
vt 9 36.4
v -100 100 0
vt 0 36.6
v -46.045717 30.4806836 0
vt 9 36.6
v -100 100 0
vt 0 36.8
v -44.6662139 31.5736007 0
vt 9 36.8
v -100 100 0
vt 0 37
v -43.3088435 32.6938875 0
vt 9 37
v -100 100 0
vt 0 37.2
v -41.9741489 33.8410958 0
vt 9 37.2
v -100 100 0
vt 0 37.4
v -40.6626638 35.0147668 0
vt 9 37.4
v -100 100 0
vt 0 37.6
v -39.3749128 36.2144311 0
vt 9 37.6
v -100 100 0
vt 0 37.8
v -38.1114111 37.4396087 0
vt 9 37.8
v -100 100 0
vt 0 38
v -36.872664 38.6898096 0
vt 9 38
v -100 100 0
vt 0 38.2
v -35.659167 39.9645338 0
vt 9 38.2
v -100 100 0
vt 0 38.4
v -34.4714054 41.2632713 0
vt 9 38.4
v -100 100 0
vt 0 38.6
v -33.3098545 42.5855028 0
vt 9 38.6
v -100 100 0
vt 0 38.8
v -32.1749787 43.9306993 0
vt 9 38.8
v -100 100 0
vt 0 39
v -31.067232 45.2983228 0
vt 9 39
v -100 100 0
vt 0 39.2
v -29.9870574 46.6878262 0
vt 9 39.2
v -100 100 0
vt 0 39.4
v -28.9348872 48.0986538 0
vt 9 39.4
v -100 100 0
vt 0 39.6
v -27.911142 49.5302412 0
vt 9 39.6
v -100 100 0
vt 0 39.8
v -26.9162314 50.9820159 0
vt 9 39.8
v -100 100 0
vt 0 40
v -25.9505533 52.4533971 0
vt 9 40
v -100 100 0
vt 0 40.2
v -25.0144941 53.9437963 0
vt 9 40.2
v -100 100 0
vt 0 40.4
v -24.108428 55.4526174 0
vt 9 40.4
v -100 100 0
vt 0 40.6
v -23.2327176 56.9792568 0
vt 9 40.6
v -100 100 0
vt 0 40.8
v -22.387713 58.523104 0
vt 9 40.8
v -100 100 0
vt 0 41
v -21.5737523 60.0835413 0
vt 9 41
v -100 100 0
vt 0 41.2
v -20.7911611 61.6599447 0
vt 9 41.2
v -100 100 0
vt 0 41.4
v -20.0402523 63.2516837 0
vt 9 41.4
v -100 100 0
vt 0 41.6
v -19.3213264 64.8581214 0
vt 9 41.6
v -100 100 0
vt 0 41.8
v -18.6346709 66.4786155 0
vt 9 41.8
v -100 100 0
vt 0 42
v -17.9805604 68.1125176 0
vt 9 42
v -100 100 0
vt 0 42.2
v -17.3592566 69.7591743 0
vt 9 42.2
v -100 100 0
vt 0 42.4
v -16.771008 71.417927 0
vt 9 42.4
v -100 100 0
vt 0 42.6
v -16.2160499 73.0881121 0
vt 9 42.6
v -100 100 0
vt 0 42.8
v -15.6946043 74.7690616 0
vt 9 42.8
v -100 100 0
vt 0 43
v -15.2068797 76.4601031 0
vt 9 43
v -100 100 0
vt 0 43.2
v -14.7530712 78.1605603 0
vt 9 43.2
v -100 100 0
vt 0 43.4
v -14.3333603 79.8697529 0
vt 9 43.4
v -100 100 0
vt 0 43.6
v -13.947915 81.5869974 0
vt 9 43.6
v -100 100 0
vt 0 43.8
v -13.5968893 83.3116068 0
vt 9 43.8
v -100 100 0
vt 0 44
v -13.2804238 85.0428914 0
vt 9 44
v -100 100 0
vt 0 44.2
v -12.9986449 86.7801586 0
vt 9 44.2
v -100 100 0
vt 0 44.4
v -12.7516654 88.5227136 0
vt 9 44.4
v -100 100 0
vt 0 44.6
v -12.539584 90.2698594 0
vt 9 44.6
v -100 100 0
vt 0 44.8
v -12.3624857 92.020897 0
vt 9 44.8
v -100 100 0
vt 0 45
v -12.2204412 93.7751263 0
vt 9 45
v -100 100 0
vt 0 45.2
v -12.1135073 95.5318453 0
vt 9 45.2
v -100 100 0
vt 0 45.4
v -12.0417269 97.2903516 0
vt 9 45.4
v -100 100 0
vt 0 45.6
v -12.0051286 99.0499417 0
vt 9 45.6
v -100 100.920367 0
vt 0 45.8
v -12 100.920367 0
vt 9 45.8
v -100 102.920367 0
vt 0 46
v -12 102.920367 0
vt 9 46
v -100 104.920367 0
vt 0 46.2
v -12 104.920367 0
vt 9 46.2
v -100 106.920367 0
vt 0 46.4
v -12 106.920367 0
vt 9 46.4
v -100 108.920367 0
vt 0 46.6
v -12 108.920367 0
vt 9 46.6
v -100 110.920367 0
vt 0 46.8
v -12 110.920367 0
vt 9 46.8
v -100 112.920367 0
vt 0 47
v -12 112.920367 0
vt 9 47
v -100 114.920367 0
vt 0 47.2
v -12 114.920367 0
vt 9 47.2
v -100 116.920367 0
vt 0 47.4
v -12 116.920367 0
vt 9 47.4
v -100 118.920367 0
vt 0 47.6
v -12 118.920367 0
vt 9 47.6
v -100 120.920367 0
vt 0 47.8
v -12 120.920367 0
vt 9 47.8
v -100 122.920367 0
vt 0 48
v -12 122.920367 0
vt 9 48
v -100 124.920367 0
vt 0 48.2
v -12 124.920367 0
vt 9 48.2
v -100 126.920367 0
vt 0 48.4
v -12 126.920367 0
vt 9 48.4
v -100 128.920367 0
vt 0 48.6
v -12 128.920367 0
vt 9 48.6
v -100 130.920367 0
vt 0 48.8
v -12 130.920367 0
vt 9 48.8
v -100 132.920367 0
vt 0 49
v -12 132.920367 0
vt 9 49
v -100 134.920367 0
vt 0 49.2
v -12 134.920367 0
vt 9 49.2
v -100 136.920367 0
vt 0 49.4
v -12 136.920367 0
vt 9 49.4
v -100 138.920367 0
vt 0 49.6
v -12 138.920367 0
vt 9 49.6
v -100 140.920367 0
vt 0 49.8
v -12 140.920367 0
vt 9 49.8
v -100 142.920367 0
vt 0 50
v -12 142.920367 0
vt 9 50
v -100 144.920367 0
vt 0 50.2
v -12 144.920367 0
vt 9 50.2
v -100 146.920367 0
vt 0 50.4
v -12 146.920367 0
vt 9 50.4
v -100 148.920367 0
vt 0 50.6
v -12 148.920367 0
vt 9 50.6
v -100 150.920367 0
vt 0 50.8
v -12 150.920367 0
vt 9 50.8
v -100 152.920367 0
vt 0 51
v -12 152.920367 0
vt 9 51
v -100 154.920367 0
vt 0 51.2
v -12 154.920367 0
vt 9 51.2
v -100 156.920367 0
vt 0 51.4
v -12 156.920367 0
vt 9 51.4
v -100 158.920367 0
vt 0 51.6
v -12 158.920367 0
vt 9 51.6
v -100 160.920367 0
vt 0 51.8
v -12 160.920367 0
vt 9 51.8
v -100 162.920367 0
vt 0 52
v -12 162.920367 0
vt 9 52
v -100 164.920367 0
vt 0 52.2
v -12 164.920367 0
vt 9 52.2
v -100 166.920367 0
vt 0 52.4
v -12 166.920367 0
vt 9 52.4
v -100 168.920367 0
vt 0 52.6
v -12 168.920367 0
vt 9 52.6
v -100 170.920367 0
vt 0 52.8
v -12 170.920367 0
vt 9 52.8
v -100 172.920367 0
vt 0 53
v -12 172.920367 0
vt 9 53
v -100 174.920367 0
vt 0 53.2
v -12 174.920367 0
vt 9 53.2
v -100 176.920367 0
vt 0 53.4
v -12 176.920367 0
vt 9 53.4
v -100 178.920367 0
vt 0 53.6
v -12 178.920367 0
vt 9 53.6
v -100 180.920367 0
vt 0 53.8
v -12 180.920367 0
vt 9 53.8
v -100 182.920367 0
vt 0 54
v -12 182.920367 0
vt 9 54
v -100 184.920367 0
vt 0 54.2
v -12 184.920367 0
vt 9 54.2
v -100 186.920367 0
vt 0 54.4
v -12 186.920367 0
vt 9 54.4
v -100 188.920367 0
vt 0 54.6
v -12 188.920367 0
vt 9 54.6
v -100 190.920367 0
vt 0 54.8
v -12 190.920367 0
vt 9 54.8
v -100 192.920367 0
vt 0 55
v -12 192.920367 0
vt 9 55
v -100 194.920367 0
vt 0 55.2
v -12 194.920367 0
vt 9 55.2
v -100 196.920367 0
vt 0 55.4
v -12 196.920367 0
vt 9 55.4
v -100 198.920367 0
vt 0 55.6
v -12 198.920367 0
vt 9 55.6
v -100 200.920367 0
vt 0 55.8
v -12 200.920367 0
vt 9 55.8
v -100 202.920367 0
vt 0 56
v -12 202.920367 0
vt 9 56
v -100 204.920367 0
vt 0 56.2
v -12 204.920367 0
vt 9 56.2
v -100 206.920367 0
vt 0 56.4
v -12 206.920367 0
vt 9 56.4
v -100 208.920367 0
vt 0 56.6
v -12 208.920367 0
vt 9 56.6
v -100 210.920367 0
vt 0 56.8
v -12 210.920367 0
vt 9 56.8
v -100 212.920367 0
vt 0 57
v -12 212.920367 0
vt 9 57
v -100 214.920367 0
vt 0 57.2
v -12 214.920367 0
vt 9 57.2
v -100 216.920367 0
vt 0 57.4
v -12 216.920367 0
vt 9 57.4
v -100 218.920367 0
vt 0 57.6
v -12 218.920367 0
vt 9 57.6
v -100 220.920367 0
vt 0 57.8
v -12 220.920367 0
vt 9 57.8
v -100 222.920367 0
vt 0 58
v -12 222.920367 0
vt 9 58
v -100 224.920367 0
vt 0 58.2
v -12 224.920367 0
vt 9 58.2
v -100 226.920367 0
vt 0 58.4
v -12 226.920367 0
vt 9 58.4
v -100 228.920367 0
vt 0 58.6
v -12 228.920367 0
vt 9 58.6
v -100 230.920367 0
vt 0 58.8
v -12 230.920367 0
vt 9 58.8
v -100 232.920367 0
vt 0 59
v -12 232.920367 0
vt 9 59
v -100 234.920367 0
vt 0 59.2
v -12 234.920367 0
vt 9 59.2
v -100 236.920367 0
vt 0 59.4
v -12 236.920367 0
vt 9 59.4
v -100 238.920367 0
vt 0 59.6
v -12 238.920367 0
vt 9 59.6
v -100 240.920367 0
vt 0 59.8
v -12 240.920367 0
vt 9 59.8
v -100 242.920367 0
vt 0 60
v -12 242.920367 0
vt 9 60
v -100 244.920367 0
vt 0 60.2
v -12 244.920367 0
vt 9 60.2
v -100 246.920367 0
vt 0 60.4
v -12 246.920367 0
vt 9 60.4
v -100 248.920367 0
vt 0 60.6
v -12 248.920367 0
vt 9 60.6
v -100 250.920367 0
vt 0 60.8
v -12 250.920367 0
vt 9 60.8
v -100 252.920367 0
vt 0 61
v -12 252.920367 0
vt 9 61
v -100 254.920367 0
vt 0 61.2
v -12 254.920367 0
vt 9 61.2
v -100 256.920367 0
vt 0 61.4
v -12 256.920367 0
vt 9 61.4
v -100 258.920367 0
vt 0 61.6
v -12 258.920367 0
vt 9 61.6
v -100 260.920367 0
vt 0 61.8
v -12 260.920367 0
vt 9 61.8
v -100 262.920367 0
vt 0 62
v -12 262.920367 0
vt 9 62
v -100 264.920367 0
vt 0 62.2
v -12 264.920367 0
vt 9 62.2
v -100 266.920367 0
vt 0 62.4
v -12 266.920367 0
vt 9 62.4
v -100 268.920367 0
vt 0 62.6
v -12 268.920367 0
vt 9 62.6
v -100 270.920367 0
vt 0 62.8
v -12 270.920367 0
vt 9 62.8
v -100 272.920367 0
vt 0 63
v -12 272.920367 0
vt 9 63
v -100 274.920367 0
vt 0 63.2
v -12 274.920367 0
vt 9 63.2
v -100 276.920367 0
vt 0 63.4
v -12 276.920367 0
vt 9 63.4
v -100 278.920367 0
vt 0 63.6
v -12 278.920367 0
vt 9 63.6
v -100 280.920367 0
vt 0 63.8
v -12 280.920367 0
vt 9 63.8
v -100 282.920367 0
vt 0 64
v -12 282.920367 0
vt 9 64
v -100 284.920367 0
vt 0 64.2
v -12 284.920367 0
vt 9 64.2
v -100 286.920367 0
vt 0 64.4
v -12 286.920367 0
vt 9 64.4
v -100 288.920367 0
vt 0 64.6
v -12 288.920367 0
vt 9 64.6
v -100 290.920367 0
vt 0 64.8
v -12 290.920367 0
vt 9 64.8
v -100 292.920367 0
vt 0 65
v -12 292.920367 0
vt 9 65
v -100 294.920367 0
vt 0 65.2
v -12 294.920367 0
vt 9 65.2
v -100 296.920367 0
vt 0 65.4
v -12 296.920367 0
vt 9 65.4
v -100 298.920367 0
vt 0 65.6
v -12 298.920367 0
vt 9 65.6
v -100 300.920367 0
vt 0 65.8
v -12 300.920367 0
vt 9 65.8
v -100 302.920367 0
vt 0 66
v -12 302.920367 0
vt 9 66
v -100 304.920367 0
vt 0 66.2
v -12 304.920367 0
vt 9 66.2
v -100 306.920367 0
vt 0 66.4
v -12 306.920367 0
vt 9 66.4
v -100 308.920367 0
vt 0 66.6
v -12 308.920367 0
vt 9 66.6
v -100 310.920367 0
vt 0 66.8
v -12 310.920367 0
vt 9 66.8
v -100 312.920367 0
vt 0 67
v -12 312.920367 0
vt 9 67
v -100 314.920367 0
vt 0 67.2
v -12 314.920367 0
vt 9 67.2
v -100 316.920367 0
vt 0 67.4
v -12 316.920367 0
vt 9 67.4
v -100 318.920367 0
vt 0 67.6
v -12 318.920367 0
vt 9 67.6
v -100 320.920367 0
vt 0 67.8
v -12 320.920367 0
vt 9 67.8
v -100 322.920367 0
vt 0 68
v -12 322.920367 0
vt 9 68
v -100 324.920367 0
vt 0 68.2
v -12 324.920367 0
vt 9 68.2
v -100 326.920367 0
vt 0 68.4
v -12 326.920367 0
vt 9 68.4
v -100 328.920367 0
vt 0 68.6
v -12 328.920367 0
vt 9 68.6
v -100 330.920367 0
vt 0 68.8
v -12 330.920367 0
vt 9 68.8
v -100 332.920367 0
vt 0 69
v -12 332.920367 0
vt 9 69
v -100 334.920367 0
vt 0 69.2
v -12 334.920367 0
vt 9 69.2
v -100 336.920367 0
vt 0 69.4
v -12 336.920367 0
vt 9 69.4
v -100 338.920367 0
vt 0 69.6
v -12 338.920367 0
vt 9 69.6
v -100 340.920367 0
vt 0 69.8
v -12 340.920367 0
vt 9 69.8
v -100 342.920367 0
vt 0 70
v -12 342.920367 0
vt 9 70
v -100 344.920367 0
vt 0 70.2
v -12 344.920367 0
vt 9 70.2
v -100 346.920367 0
vt 0 70.4
v -12 346.920367 0
vt 9 70.4
v -100 348.920367 0
vt 0 70.6
v -12 348.920367 0
vt 9 70.6
v -100 350.920367 0
vt 0 70.8
v -12 350.920367 0
vt 9 70.8
v -100 352.920367 0
vt 0 71
v -12 352.920367 0
vt 9 71
v -100 354.920367 0
vt 0 71.2
v -12 354.920367 0
vt 9 71.2
v -100 356.920367 0
vt 0 71.4
v -12 356.920367 0
vt 9 71.4
v -100 358.920367 0
vt 0 71.6
v -12 358.920367 0
vt 9 71.6
v -100 360.920367 0
vt 0 71.8
v -12 360.920367 0
vt 9 71.8
v -100 362.920367 0
vt 0 72
v -12 362.920367 0
vt 9 72
v -100 364.920367 0
vt 0 72.2
v -12 364.920367 0
vt 9 72.2
v -100 366.920367 0
vt 0 72.4
v -12 366.920367 0
vt 9 72.4
v -100 368.920367 0
vt 0 72.6
v -12 368.920367 0
vt 9 72.6
v -100 370.920367 0
vt 0 72.8
v -12 370.920367 0
vt 9 72.8
v -100 372.920367 0
vt 0 73
v -12 372.920367 0
vt 9 73
v -100 374.920367 0
vt 0 73.2
v -12 374.920367 0
vt 9 73.2
v -100 376.920367 0
vt 0 73.4
v -12 376.920367 0
vt 9 73.4
v -100 378.920367 0
vt 0 73.6
v -12 378.920367 0
vt 9 73.6
v -100 380.920367 0
vt 0 73.8
v -12 380.920367 0
vt 9 73.8
v -100 382.920367 0
vt 0 74
v -12 382.920367 0
vt 9 74
v -100 384.920367 0
vt 0 74.2
v -12 384.920367 0
vt 9 74.2
v -100 386.920367 0
vt 0 74.4
v -12 386.920367 0
vt 9 74.4
v -100 388.920367 0
vt 0 74.6
v -12 388.920367 0
vt 9 74.6
v -100 390.920367 0
vt 0 74.8
v -12 390.920367 0
vt 9 74.8
v -100 392.920367 0
vt 0 75
v -12 392.920367 0
vt 9 75
v -100 394.920367 0
vt 0 75.2
v -12 394.920367 0
vt 9 75.2
v -100 396.920367 0
vt 0 75.4
v -12 396.920367 0
vt 9 75.4
v -100 398.920367 0
vt 0 75.6
v -12 398.920367 0
vt 9 75.6
v -100 400.920367 0
vt 0 75.8
v -12 400.920367 0
vt 9 75.8
v -100 402.920367 0
vt 0 76
v -12 402.920367 0
vt 9 76
v -100 404.920367 0
vt 0 76.2
v -12 404.920367 0
vt 9 76.2
v -100 406.920367 0
vt 0 76.4
v -12 406.920367 0
vt 9 76.4
v -100 408.920367 0
vt 0 76.6
v -12 408.920367 0
vt 9 76.6
v -100 410.920367 0
vt 0 76.8
v -12 410.920367 0
vt 9 76.8
v -100 412.920367 0
vt 0 77
v -12 412.920367 0
vt 9 77
v -100 414.920367 0
vt 0 77.2
v -12 414.920367 0
vt 9 77.2
v -100 416.920367 0
vt 0 77.4
v -12 416.920367 0
vt 9 77.4
v -100 418.920367 0
vt 0 77.6
v -12 418.920367 0
vt 9 77.6
v -100 420.920367 0
vt 0 77.8
v -12 420.920367 0
vt 9 77.8
v -100 422.920367 0
vt 0 78
v -12 422.920367 0
vt 9 78
v -100 424.920367 0
vt 0 78.2
v -12 424.920367 0
vt 9 78.2
v -100 426.920367 0
vt 0 78.4
v -12 426.920367 0
vt 9 78.4
v -100 428.920367 0
vt 0 78.6
v -12 428.920367 0
vt 9 78.6
v -100 430.920367 0
vt 0 78.8
v -12 430.920367 0
vt 9 78.8
v -100 432.920367 0
vt 0 79
v -12 432.920367 0
vt 9 79
v -100 434.920367 0
vt 0 79.2
v -12 434.920367 0
vt 9 79.2
v -100 436.920367 0
vt 0 79.4
v -12 436.920367 0
vt 9 79.4
v -100 438.920367 0
vt 0 79.6
v -12 438.920367 0
vt 9 79.6
v -100 440.920367 0
vt 0 79.8
v -12 440.920367 0
vt 9 79.8
v -100 442.920367 0
vt 0 80
v -12 442.920367 0
vt 9 80
v -100 444.920367 0
vt 0 80.2
v -12 444.920367 0
vt 9 80.2
v -100 446.920367 0
vt 0 80.4
v -12 446.920367 0
vt 9 80.4
v -100 448.920367 0
vt 0 80.6
v -12 448.920367 0
vt 9 80.6
v -100 450.920367 0
vt 0 80.8
v -12 450.920367 0
vt 9 80.8
v -100 452.920367 0
vt 0 81
v -12 452.920367 0
vt 9 81
v -100 454.920367 0
vt 0 81.2
v -12 454.920367 0
vt 9 81.2
v -100 456.920367 0
vt 0 81.4
v -12 456.920367 0
vt 9 81.4
v -100 458.920367 0
vt 0 81.6
v -12 458.920367 0
vt 9 81.6
v -100 460.920367 0
vt 0 81.8
v -12 460.920367 0
vt 9 81.8
v -100 462.920367 0
vt 0 82
v -12 462.920367 0
vt 9 82
v -100 464.920367 0
vt 0 82.2
v -12 464.920367 0
vt 9 82.2
v -100 466.920367 0
vt 0 82.4
v -12 466.920367 0
vt 9 82.4
v -100 468.920367 0
vt 0 82.6
v -12 468.920367 0
vt 9 82.6
v -100 470.920367 0
vt 0 82.8
v -12 470.920367 0
vt 9 82.8
v -100 472.920367 0
vt 0 83
v -12 472.920367 0
vt 9 83
v -100 474.920367 0
vt 0 83.2
v -12 474.920367 0
vt 9 83.2
v -100 476.920367 0
vt 0 83.4
v -12 476.920367 0
vt 9 83.4
v -100 478.920367 0
vt 0 83.6
v -12 478.920367 0
vt 9 83.6
v -100 480.920367 0
vt 0 83.8
v -12 480.920367 0
vt 9 83.8
v -100 482.920367 0
vt 0 84
v -12 482.920367 0
vt 9 84
v -100 484.920367 0
vt 0 84.2
v -12 484.920367 0
vt 9 84.2
v -100 486.920367 0
vt 0 84.4
v -12 486.920367 0
vt 9 84.4
v -100 488.920367 0
vt 0 84.6
v -12 488.920367 0
vt 9 84.6
v -100 490.920367 0
vt 0 84.8
v -12 490.920367 0
vt 9 84.8
v -100 492.920367 0
vt 0 85
v -12 492.920367 0
vt 9 85
v -100 494.920367 0
vt 0 85.2
v -12 494.920367 0
vt 9 85.2
v -100 496.920367 0
vt 0 85.4
v -12 496.920367 0
vt 9 85.4
v -100 498.920367 0
vt 0 85.6
v -12 498.920367 0
vt 9 85.6
v -100 500.920367 0
vt 0 85.8
v -12 500.920367 0
vt 9 85.8
v -100 502.920367 0
vt 0 86
v -12 502.920367 0
vt 9 86
v -100 504.920367 0
vt 0 86.2
v -12 504.920367 0
vt 9 86.2
v -100 506.920367 0
vt 0 86.4
v -12 506.920367 0
vt 9 86.4
v -100 508.920367 0
vt 0 86.6
v -12 508.920367 0
vt 9 86.6
v -100 510.920367 0
vt 0 86.8
v -12 510.920367 0
vt 9 86.8
v -100 512.920367 0
vt 0 87
v -12 512.920367 0
vt 9 87
v -100 514.920367 0
vt 0 87.2
v -12 514.920367 0
vt 9 87.2
v -100 516.920367 0
vt 0 87.4
v -12 516.920367 0
vt 9 87.4
v -100 518.920367 0
vt 0 87.6
v -12 518.920367 0
vt 9 87.6
v -100 520.920367 0
vt 0 87.8
v -12 520.920367 0
vt 9 87.8
v -100 522.920367 0
vt 0 88
v -12 522.920367 0
vt 9 88
v -100 524.920367 0
vt 0 88.2
v -12 524.920367 0
vt 9 88.2
v -100 526.920367 0
vt 0 88.4
v -12 526.920367 0
vt 9 88.4
v -100 528.920367 0
vt 0 88.6
v -12 528.920367 0
vt 9 88.6
v -100 530.920367 0
vt 0 88.8
v -12 530.920367 0
vt 9 88.8
v -100 532.920367 0
vt 0 89
v -12 532.920367 0
vt 9 89
v -100 534.920367 0
vt 0 89.2
v -12 534.920367 0
vt 9 89.2
v -100 536.920367 0
vt 0 89.4
v -12 536.920367 0
vt 9 89.4
v -100 538.920367 0
vt 0 89.6
v -12 538.920367 0
vt 9 89.6
v -100 540.920367 0
vt 0 89.8
v -12 540.920367 0
vt 9 89.8
v -100 542.920367 0
vt 0 90
v -12 542.920367 0
vt 9 90
v -100 100 0
vt 6.57519118e-14 34.2
v -100 100 0
vt 6.07890768e-14 35.6
v -100 100 0
vt 5.82914977e-14 36.2
v -100 100 0
vt 5.46367207e-14 37
v -100 100 0
vt 1.05353447e-13 37.4
v -100 100 0
vt 4.9579736e-14 38
v -100 100 0
vt 4.63043148e-14 38.6
v -100 100 0
vt 4.51748755e-14 38.8
v -100 100 0
vt 4.16799847e-14 39.4
v -100 100 0
vt 9.40689808e-14 41.8
v -100 100 0
vt 7.04003898e-14 43
v -100 100 0
vt 1.42130641e-13 43.4
v -100 100 0
vt 7.23746328e-14 44.6
v -100 100 0
vt 7.25802493e-14 45
mtllib Roads\3D_Road\Road_c76ab0d9-60d9-4781-bd32-84e57bf8316e_1.mtl
usemtl Grass (Light)
g g1
s 1
f  1/1 2/2 4/4 3/3
f  3/3 4/4 6/6 5/5
f  5/5 6/6 8/8 7/7
f  7/7 8/8 10/10 9/9
f  9/9 10/10 12/12 11/11
f  11/11 12/12 14/14 13/13
f  13/13 14/14 16/16 15/15
f  15/15 16/16 18/18 17/17
f  17/17 18/18 20/20 19/19
f  19/19 20/20 22/22 21/21
f  21/21 22/22 24/24 23/23
f  23/23 24/24 26/26 25/25
f  25/25 26/26 28/28 27/27
f  27/27 28/28 30/30 29/29
f  29/29 30/30 32/32 31/31
f  31/31 32/32 34/34 33/33
f  33/33 34/34 36/36 35/35
f  35/35 36/36 38/38 37/37
f  37/37 38/38 40/40 39/39
f  39/39 40/40 42/42 41/41
f  41/41 42/42 44/44 43/43
f  43/43 44/44 46/46 45/45
f  45/45 46/46 48/48 47/47
f  47/47 48/48 50/50 49/49
f  49/49 50/50 52/52 51/51
f  51/51 52/52 54/54 53/53
f  53/53 54/54 56/56 55/55
f  55/55 56/56 58/58 57/57
f  57/57 58/58 60/60 59/59
f  59/59 60/60 62/62 61/61
f  61/61 62/62 64/64 63/63
f  63/63 64/64 66/66 65/65
f  65/65 66/66 68/68 67/67
f  67/67 68/68 70/70 69/69
f  69/69 70/70 72/72 71/71
f  71/71 72/72 74/74 73/73
f  73/73 74/74 76/76 75/75
f  75/75 76/76 78/78 77/77
f  77/77 78/78 80/80 79/79
f  79/79 80/80 82/82 81/81
f  81/81 82/82 84/84 83/83
f  83/83 84/84 86/86 85/85
f  85/85 86/86 88/88 87/87
f  87/87 88/88 90/90 89/89
f  89/89 90/90 92/92 91/91
f  91/91 92/92 94/94 93/93
f  93/93 94/94 96/96 95/95
f  95/95 96/96 98/98 97/97
f  97/97 98/98 100/100 99/99
f  99/99 100/100 102/102 101/101
f  101/101 102/102 104/104 103/103
f  103/103 104/104 106/106 105/105
f  105/105 106/106 108/108 107/107
f  107/107 108/108 110/110 109/109
f  109/109 110/110 112/112 111/111
f  111/111 112/112 114/114 113/113
f  113/113 114/114 116/116 115/115
f  115/115 116/116 118/118 117/117
f  117/117 118/118 120/120 119/119
f  119/119 120/120 122/122 121/121
f  121/121 122/122 124/124 123/123
f  123/123 124/124 126/126 125/125
f  125/125 126/126 128/128 127/127
f  127/127 128/128 130/130 129/129
f  129/129 130/130 132/132 131/131
f  131/131 132/132 134/134 133/133
f  133/133 134/134 136/136 135/135
f  135/135 136/136 138/138 137/137
f  137/137 138/138 140/140 139/139
f  139/139 140/140 142/142 141/141
f  141/141 142/142 144/144 143/143
f  143/143 144/144 146/146 145/145
f  145/145 146/146 148/148 147/147
f  147/147 148/148 150/150 149/149
f  149/149 150/150 152/152 151/151
f  151/151 152/152 154/154 153/153
f  153/153 154/154 156/156 155/155
f  155/155 156/156 158/158 157/157
f  157/157 158/158 160/160 159/159
f  159/159 160/160 162/162 161/161
f  161/161 162/162 164/164 163/163
f  163/163 164/164 166/166 165/165
f  165/165 166/166 168/168 167/167
f  167/167 168/168 170/170 169/169
f  169/169 170/170 172/172 171/171
f  171/171 172/172 174/174 173/173
f  173/173 174/174 176/176 175/175
f  175/175 176/176 178/178 177/177
f  177/177 178/178 180/180 179/179
f  179/179 180/180 182/182 181/181
f  181/181 182/182 184/184 183/183
f  183/183 184/184 186/186 185/185
f  185/185 186/186 188/188 187/187
f  187/187 188/188 190/190 189/189
f  189/189 190/190 192/192 191/191
f  191/191 192/192 194/194 193/193
f  193/193 194/194 196/196 195/195
f  195/195 196/196 198/198 197/197
f  197/197 198/198 200/200 199/199
f  199/199 200/200 202/202 201/201
f  201/201 202/202 204/204 203/203
f  203/203 204/204 206/206 205/205
f  205/205 206/206 208/208 207/207
f  207/207 208/208 210/210 209/209
f  209/209 210/210 212/212 211/211
f  211/211 212/212 214/214 213/213
f  213/213 214/214 216/216 215/215
f  215/215 216/216 218/218 217/217
f  217/217 218/218 220/220 219/219
f  219/219 220/220 222/222 221/221
f  221/221 222/222 224/224 223/223
f  223/223 224/224 226/226 225/225
f  225/225 226/226 228/228 227/227
f  227/227 228/228 230/230 229/229
f  229/229 230/230 232/232 231/231
f  231/231 232/232 234/234 233/233
f  233/233 234/234 236/236 235/235
f  235/235 236/236 238/238 237/237
f  237/237 238/238 240/240 239/239
f  239/239 240/240 242/242 241/241
f  241/241 242/242 244/244 243/243
f  243/243 244/244 246/246 245/245
f  245/245 246/246 248/248 247/247
f  247/247 248/248 250/250 249/249
f  249/249 250/250 252/252 251/251
f  251/251 252/252 254/254 253/253
f  253/253 254/254 256/256 255/255
f  255/255 256/256 258/258 257/257
f  257/257 258/258 260/260 259/259
f  259/259 260/260 262/262 261/261
f  261/261 262/262 264/264 263/263
f  263/263 264/264 266/266 265/265
f  265/265 266/266 268/268 267/267
f  267/267 268/268 270/270 269/269
f  269/269 270/270 272/272 271/271
f  271/271 272/272 274/274 273/273
f  273/273 274/274 276/276 275/275
f  275/275 276/276 278/278 277/277
f  277/277 278/278 280/280 279/279
f  279/279 280/280 282/282 281/281
f  281/281 282/282 284/284 283/283
f  283/283 284/284 286/286 285/285
f  285/285 286/286 288/288 287/287
f  287/287 288/288 290/290 289/289
f  289/289 290/290 292/292 291/291
f  291/291 292/292 294/294 293/293
f  293/293 294/294 296/296 295/295
f  295/295 296/296 298/298 297/297
f  297/297 298/298 300/300 299/299
f  299/299 300/300 302/302 301/301
f  301/301 302/302 304/304 303/303
f  303/303 304/304 306/306 305/305
f  305/305 306/306 308/308 307/307
f  307/307 308/308 310/310 309/309
f  309/309 310/310 312/312 311/311
f  311/311 312/312 314/314 313/313
f  313/313 314/314 316/316 315/315
f  315/315 316/316 318/318 317/317
f  317/317 318/318 320/320 319/319
f  319/319 320/320 322/322 321/321
f  321/321 322/322 324/324 323/323
f  323/323 324/324 326/326 325/325
f  325/325 326/326 328/328 327/327
f  327/327 328/328 330/330 329/329
f  329/329 330/330 332/332 331/331
f  331/331 332/332 334/334 333/333
f  333/333 334/334 336/336 335/335
f  335/335 336/336 338/338 337/337
f  337/337 338/338 340/340 339/339
f  339/339 340/340 342/342 341/341
f  341/341 342/342 344/344 343/343
f  903/903 344/344 346/346
f  345/345 346/346 348/348 347/347
f  347/347 348/348 350/350 349/349
f  349/349 350/350 352/352 351/351
f  351/351 352/352 354/354 353/353
f  353/353 354/354 356/356 355/355
f  355/355 356/356 358/358 357/357
f  904/904 358/358 360/360
f  359/359 360/360 362/362 361/361
f  361/361 362/362 364/364 363/363
f  905/905 364/364 366/366
f  365/365 366/366 368/368 367/367
f  367/367 368/368 370/370 369/369
f  369/369 370/370 372/372 371/371
f  906/906 372/372 374/374
f  373/373 374/374 376/376 375/375
f  907/907 376/376 378/378
f  377/377 378/378 380/380 379/379
f  379/379 380/380 382/382 381/381
f  908/908 382/382 384/384
f  383/383 384/384 386/386 385/385
f  385/385 386/386 388/388 387/387
f  909/909 388/388 390/390
f  910/910 390/390 392/392
f  391/391 392/392 394/394 393/393
f  393/393 394/394 396/396 395/395
f  911/911 396/396 398/398
f  397/397 398/398 400/400 399/399
f  399/399 400/400 402/402 401/401
f  401/401 402/402 404/404 403/403
f  403/403 404/404 406/406 405/405
f  405/405 406/406 408/408 407/407
f  407/407 408/408 410/410 409/409
f  409/409 410/410 412/412 411/411
f  411/411 412/412 414/414 413/413
f  413/413 414/414 416/416 415/415
f  415/415 416/416 418/418 417/417
f  417/417 418/418 420/420 419/419
f  912/912 420/420 422/422
f  421/421 422/422 424/424 423/423
f  423/423 424/424 426/426 425/425
f  425/425 426/426 428/428 427/427
f  427/427 428/428 430/430 429/429
f  429/429 430/430 432/432 431/431
f  913/913 432/432 434/434
f  433/433 434/434 436/436 435/435
f  914/914 436/436 438/438
f  437/437 438/438 440/440 439/439
f  439/439 440/440 442/442 441/441
f  441/441 442/442 444/444 443/443
f  443/443 444/444 446/446 445/445
f  445/445 446/446 448/448 447/447
f  915/915 448/448 450/450
f  449/449 450/450 452/452 451/451
f  916/916 452/452 454/454
f  453/453 454/454 456/456 455/455
f  455/455 456/456 458/458 457/457
f  457/457 458/458 460/460 459/459
f  459/459 460/460 462/462 461/461
f  461/461 462/462 464/464 463/463
f  463/463 464/464 466/466 465/465
f  465/465 466/466 468/468 467/467
f  467/467 468/468 470/470 469/469
f  469/469 470/470 472/472 471/471
f  471/471 472/472 474/474 473/473
f  473/473 474/474 476/476 475/475
f  475/475 476/476 478/478 477/477
f  477/477 478/478 480/480 479/479
f  479/479 480/480 482/482 481/481
f  481/481 482/482 484/484 483/483
f  483/483 484/484 486/486 485/485
f  485/485 486/486 488/488 487/487
f  487/487 488/488 490/490 489/489
f  489/489 490/490 492/492 491/491
f  491/491 492/492 494/494 493/493
f  493/493 494/494 496/496 495/495
f  495/495 496/496 498/498 497/497
f  497/497 498/498 500/500 499/499
f  499/499 500/500 502/502 501/501
f  501/501 502/502 504/504 503/503
f  503/503 504/504 506/506 505/505
f  505/505 506/506 508/508 507/507
f  507/507 508/508 510/510 509/509
f  509/509 510/510 512/512 511/511
f  511/511 512/512 514/514 513/513
f  513/513 514/514 516/516 515/515
f  515/515 516/516 518/518 517/517
f  517/517 518/518 520/520 519/519
f  519/519 520/520 522/522 521/521
f  521/521 522/522 524/524 523/523
f  523/523 524/524 526/526 525/525
f  525/525 526/526 528/528 527/527
f  527/527 528/528 530/530 529/529
f  529/529 530/530 532/532 531/531
f  531/531 532/532 534/534 533/533
f  533/533 534/534 536/536 535/535
f  535/535 536/536 538/538 537/537
f  537/537 538/538 540/540 539/539
f  539/539 540/540 542/542 541/541
f  541/541 542/542 544/544 543/543
f  543/543 544/544 546/546 545/545
f  545/545 546/546 548/548 547/547
f  547/547 548/548 550/550 549/549
f  549/549 550/550 552/552 551/551
f  551/551 552/552 554/554 553/553
f  553/553 554/554 556/556 555/555
f  555/555 556/556 558/558 557/557
f  557/557 558/558 560/560 559/559
f  559/559 560/560 562/562 561/561
f  561/561 562/562 564/564 563/563
f  563/563 564/564 566/566 565/565
f  565/565 566/566 568/568 567/567
f  567/567 568/568 570/570 569/569
f  569/569 570/570 572/572 571/571
f  571/571 572/572 574/574 573/573
f  573/573 574/574 576/576 575/575
f  575/575 576/576 578/578 577/577
f  577/577 578/578 580/580 579/579
f  579/579 580/580 582/582 581/581
f  581/581 582/582 584/584 583/583
f  583/583 584/584 586/586 585/585
f  585/585 586/586 588/588 587/587
f  587/587 588/588 590/590 589/589
f  589/589 590/590 592/592 591/591
f  591/591 592/592 594/594 593/593
f  593/593 594/594 596/596 595/595
f  595/595 596/596 598/598 597/597
f  597/597 598/598 600/600 599/599
f  599/599 600/600 602/602 601/601
f  601/601 602/602 604/604 603/603
f  603/603 604/604 606/606 605/605
f  605/605 606/606 608/608 607/607
f  607/607 608/608 610/610 609/609
f  609/609 610/610 612/612 611/611
f  611/611 612/612 614/614 613/613
f  613/613 614/614 616/616 615/615
f  615/615 616/616 618/618 617/617
f  617/617 618/618 620/620 619/619
f  619/619 620/620 622/622 621/621
f  621/621 622/622 624/624 623/623
f  623/623 624/624 626/626 625/625
f  625/625 626/626 628/628 627/627
f  627/627 628/628 630/630 629/629
f  629/629 630/630 632/632 631/631
f  631/631 632/632 634/634 633/633
f  633/633 634/634 636/636 635/635
f  635/635 636/636 638/638 637/637
f  637/637 638/638 640/640 639/639
f  639/639 640/640 642/642 641/641
f  641/641 642/642 644/644 643/643
f  643/643 644/644 646/646 645/645
f  645/645 646/646 648/648 647/647
f  647/647 648/648 650/650 649/649
f  649/649 650/650 652/652 651/651
f  651/651 652/652 654/654 653/653
f  653/653 654/654 656/656 655/655
f  655/655 656/656 658/658 657/657
f  657/657 658/658 660/660 659/659
f  659/659 660/660 662/662 661/661
f  661/661 662/662 664/664 663/663
f  663/663 664/664 666/666 665/665
f  665/665 666/666 668/668 667/667
f  667/667 668/668 670/670 669/669
f  669/669 670/670 672/672 671/671
f  671/671 672/672 674/674 673/673
f  673/673 674/674 676/676 675/675
f  675/675 676/676 678/678 677/677
f  677/677 678/678 680/680 679/679
f  679/679 680/680 682/682 681/681
f  681/681 682/682 684/684 683/683
f  683/683 684/684 686/686 685/685
f  685/685 686/686 688/688 687/687
f  687/687 688/688 690/690 689/689
f  689/689 690/690 692/692 691/691
f  691/691 692/692 694/694 693/693
f  693/693 694/694 696/696 695/695
f  695/695 696/696 698/698 697/697
f  697/697 698/698 700/700 699/699
f  699/699 700/700 702/702 701/701
f  701/701 702/702 704/704 703/703
f  703/703 704/704 706/706 705/705
f  705/705 706/706 708/708 707/707
f  707/707 708/708 710/710 709/709
f  709/709 710/710 712/712 711/711
f  711/711 712/712 714/714 713/713
f  713/713 714/714 716/716 715/715
f  715/715 716/716 718/718 717/717
f  717/717 718/718 720/720 719/719
f  719/719 720/720 722/722 721/721
f  721/721 722/722 724/724 723/723
f  723/723 724/724 726/726 725/725
f  725/725 726/726 728/728 727/727
f  727/727 728/728 730/730 729/729
f  729/729 730/730 732/732 731/731
f  731/731 732/732 734/734 733/733
f  733/733 734/734 736/736 735/735
f  735/735 736/736 738/738 737/737
f  737/737 738/738 740/740 739/739
f  739/739 740/740 742/742 741/741
f  741/741 742/742 744/744 743/743
f  743/743 744/744 746/746 745/745
f  745/745 746/746 748/748 747/747
f  747/747 748/748 750/750 749/749
f  749/749 750/750 752/752 751/751
f  751/751 752/752 754/754 753/753
f  753/753 754/754 756/756 755/755
f  755/755 756/756 758/758 757/757
f  757/757 758/758 760/760 759/759
f  759/759 760/760 762/762 761/761
f  761/761 762/762 764/764 763/763
f  763/763 764/764 766/766 765/765
f  765/765 766/766 768/768 767/767
f  767/767 768/768 770/770 769/769
f  769/769 770/770 772/772 771/771
f  771/771 772/772 774/774 773/773
f  773/773 774/774 776/776 775/775
f  775/775 776/776 778/778 777/777
f  777/777 778/778 780/780 779/779
f  779/779 780/780 782/782 781/781
f  781/781 782/782 784/784 783/783
f  783/783 784/784 786/786 785/785
f  785/785 786/786 788/788 787/787
f  787/787 788/788 790/790 789/789
f  789/789 790/790 792/792 791/791
f  791/791 792/792 794/794 793/793
f  793/793 794/794 796/796 795/795
f  795/795 796/796 798/798 797/797
f  797/797 798/798 800/800 799/799
f  799/799 800/800 802/802 801/801
f  801/801 802/802 804/804 803/803
f  803/803 804/804 806/806 805/805
f  805/805 806/806 808/808 807/807
f  807/807 808/808 810/810 809/809
f  809/809 810/810 812/812 811/811
f  811/811 812/812 814/814 813/813
f  813/813 814/814 816/816 815/815
f  815/815 816/816 818/818 817/817
f  817/817 818/818 820/820 819/819
f  819/819 820/820 822/822 821/821
f  821/821 822/822 824/824 823/823
f  823/823 824/824 826/826 825/825
f  825/825 826/826 828/828 827/827
f  827/827 828/828 830/830 829/829
f  829/829 830/830 832/832 831/831
f  831/831 832/832 834/834 833/833
f  833/833 834/834 836/836 835/835
f  835/835 836/836 838/838 837/837
f  837/837 838/838 840/840 839/839
f  839/839 840/840 842/842 841/841
f  841/841 842/842 844/844 843/843
f  843/843 844/844 846/846 845/845
f  845/845 846/846 848/848 847/847
f  847/847 848/848 850/850 849/849
f  849/849 850/850 852/852 851/851
f  851/851 852/852 854/854 853/853
f  853/853 854/854 856/856 855/855
f  855/855 856/856 858/858 857/857
f  857/857 858/858 860/860 859/859
f  859/859 860/860 862/862 861/861
f  861/861 862/862 864/864 863/863
f  863/863 864/864 866/866 865/865
f  865/865 866/866 868/868 867/867
f  867/867 868/868 870/870 869/869
f  869/869 870/870 872/872 871/871
f  871/871 872/872 874/874 873/873
f  873/873 874/874 876/876 875/875
f  875/875 876/876 878/878 877/877
f  877/877 878/878 880/880 879/879
f  879/879 880/880 882/882 881/881
f  881/881 882/882 884/884 883/883
f  883/883 884/884 886/886 885/885
f  885/885 886/886 888/888 887/887
f  887/887 888/888 890/890 889/889
f  889/889 890/890 892/892 891/891
f  891/891 892/892 894/894 893/893
f  893/893 894/894 896/896 895/895
f  895/895 896/896 898/898 897/897
f  897/897 898/898 900/900 899/899
f  899/899 900/900 902/902 901/901
g g2
s 2
f  343/343 903/903 345/345
f  357/357 904/904 359/359
f  363/363 905/905 365/365
f  371/371 906/906 373/373
f  375/375 907/907 377/377
f  381/381 908/908 383/383
f  387/387 909/909 389/389
f  389/389 910/910 391/391
f  395/395 911/911 397/397
f  419/419 912/912 421/421
f  431/431 913/913 433/433
f  435/435 914/914 437/437
f  447/447 915/915 449/449
f  451/451 916/916 453/453
g g3
s 3
g g4
s 4
