# Shape file for lane 4
v -400 100 0
vt 0 0
v -400 7.1 0
vt 9 0
v -100 100 0
vt 0 30
v -100 7.1 0
vt 9 30
v -100 100 0
vt 0 30.5
v -95.3569352 7.21610081 0
vt 9 30.5
v -100 100 0
vt 0 31
v -90.7254756 7.56411305 0
vt 9 31
v -100 100 0
vt 0 31.5
v -86.1171975 8.14316686 0
vt 9 31.5
v -100 100 0
vt 0 32
v -81.5436192 8.95181492 0
vt 9 32
v -100 100 0
vt 0 32.5
v -77.0161722 9.98803602 0
vt 9 32.5
v -100 100 0
vt 0 33
v -72.5461728 11.2492402 0
vt 9 33
v -100 100 0
vt 0 33.5
v -68.1447937 12.732275 0
vt 9 33.5
v -100 100 0
vt 0 34
v -63.823036 14.4334337 0
vt 9 34
v -100 100 0
vt 0 34.5
v -59.5917019 16.3484642 0
vt 9 34.5
v -100 100 0
vt 0 35
v -55.4613675 18.47258 0
vt 9 35
v -100 100 0
vt 0 35.5
v -51.4423564 20.8004719 0
vt 9 35.5
v -100 100 0
vt 0 36
v -47.5447142 23.3263214 0
vt 9 36
v -100 100 0
vt 0 36.5
v -43.7781829 26.0438151 0
vt 9 36.5
v -100 100 0
vt 0 37
v -40.1521769 28.9461608 0
vt 9 37
v -100 100 0
vt 0 37.5
v -36.6757592 32.0261041 0
vt 9 37.5
v -100 100 0
vt 0 38
v -33.3576192 35.2759467 0
vt 9 38
v -100 100 0
vt 0 38.5
v -30.2060504 38.6875657 0
vt 9 38.5
v -100 100 0
vt 0 39
v -27.2289301 42.2524339 0
vt 9 39
v -100 100 0
vt 0 39.5
v -24.4336996 45.961641 0
vt 9 39.5
v -100 100 0
vt 0 40
v -21.8273455 49.8059158 0
vt 9 40
v -100 100 0
vt 0 40.5
v -19.4163823 53.7756497 0
vt 9 40.5
v -100 100 0
vt 0 41
v -17.2068363 57.8609203 0
vt 9 41
v -100 100 0
vt 0 41.5
v -15.2042299 62.0515167 0
vt 9 41.5
v -100 100 0
vt 0 42
v -13.4135689 66.3369646 0
vt 9 42
v -100 100 0
vt 0 42.5
v -11.8393289 70.7065525 0
vt 9 42.5
v -100 100 0
vt 0 43
v -10.4854446 75.1493588 0
vt 9 43
v -100 100 0
vt 0 43.5
v -9.35530006 79.6542788 0
vt 9 43.5
v -100 100 0
vt 0 44
v -8.45172008 84.2100524 0
vt 9 44
v -100 100 0
vt 0 44.5
v -7.77696313 88.8052927 0
vt 9 44.5
v -100 100 0
vt 0 45
v -7.33271574 93.428514 0
vt 9 45
v -100 100 0
vt 0 45.5
v -7.12008831 98.0681605 0
vt 9 45.5
v -100 102.920367 0
vt 0 46
v -7.1 102.920367 0
vt 9 46
v -100 942.920377 0
vt 0 130.000001
v -7.1 942.920377 0
vt 9 130.000001
v -100 100 0
vt 2.01550746e-14 37
v -100 100 0
vt 3.42456905e-14 38.5
v -100 100 0
vt 2.61406953e-14 42
v -100 100 0
vt 2.73452354e-14 44
mtllib Roads\3D_Road\Road_da4c0f36-c2f3-4d28-9ec7-163a8275a787_4.mtl
usemtl Grass (Light)
g g1
s 1
f  1/1 2/2 4/4 3/3
f  3/3 4/4 6/6 5/5
f  5/5 6/6 8/8 7/7
f  7/7 8/8 10/10 9/9
f  9/9 10/10 12/12 11/11
f  11/11 12/12 14/14 13/13
f  13/13 14/14 16/16 15/15
f  15/15 16/16 18/18 17/17
f  17/17 18/18 20/20 19/19
f  19/19 20/20 22/22 21/21
f  21/21 22/22 24/24 23/23
f  23/23 24/24 26/26 25/25
f  25/25 26/26 28/28 27/27
f  27/27 28/28 30/30 29/29
f  29/29 30/30 32/32 31/31
f  71/71 32/32 34/34
f  33/33 34/34 36/36 35/35
f  35/35 36/36 38/38 37/37
f  72/72 38/38 40/40
f  39/39 40/40 42/42 41/41
f  41/41 42/42 44/44 43/43
f  43/43 44/44 46/46 45/45
f  45/45 46/46 48/48 47/47
f  47/47 48/48 50/50 49/49
f  49/49 50/50 52/52 51/51
f  73/73 52/52 54/54
f  53/53 54/54 56/56 55/55
f  55/55 56/56 58/58 57/57
f  57/57 58/58 60/60 59/59
f  74/74 60/60 62/62
f  61/61 62/62 64/64 63/63
f  63/63 64/64 66/66 65/65
f  65/65 66/66 68/68 67/67
f  67/67 68/68 70/70 69/69
g g2
s 2
f  31/31 71/71 33/33
f  37/37 72/72 39/39
f  51/51 73/73 53/53
f  59/59 74/74 61/61
g g3
s 3
g g4
s 4
