# Shape file for lane 5
v -400 -4 8.2908676e-07
vt 0 0
v -400 -7.1 8.2908676e-07
vt -0.969 0
v -260 -4 0.000806458242
vt 0 14
v -260 -7.1 0.000806458242
vt -0.969 14
v -255 -4 -0.00707031115
vt 0 14.5
v -255 -7.1 -0.00707031115
vt -0.969 14.5
v -250 -4 -0.0339424552
vt 0 15
v -250 -7.1 -0.0339424552
vt -0.969 15
v -245 -4 -0.0758484818
vt 0 15.5
v -245 -7.1 -0.0758484818
vt -0.969 15.5
v -235 -4 -0.175884236
vt 0 16.5
v -235 -7.1 -0.175884236
vt -0.969 16.5
v -230 -4 -0.219448264
vt 0 17
v -230 -7.1 -0.219448264
vt -0.969 17
v -225 -4 -0.249125373
vt 0 17.5
v -225 -7.1 -0.249125373
vt -0.969 17.5
v -220 -4 -0.263438797
vt 0 18
v -220 -7.1 -0.263438797
vt -0.969 18
v -215 -4 -0.268563483
vt 0 18.5
v -215 -7.1 -0.268563483
vt -0.969 18.5
v -210 -4 -0.270915068
vt 0 19
v -210 -7.1 -0.270915068
vt -0.969 19
v -205 -4 -0.27688027
vt 0 19.5
v -205 -7.1 -0.27688027
vt -0.969 19.5
v -200 -4 -0.292845809
vt 0 20
v -200 -7.1 -0.292845809
vt -0.969 20
v -195 -4 -0.325195676
vt 0 20.5
v -195 -7.1 -0.325195676
vt -0.969 20.5
v -190 -4 -0.378377036
vt 0 21
v -190 -7.1 -0.378377036
vt -0.969 21
v -185 -4 -0.45150155
vt 0 21.5
v -185 -7.1 -0.45150155
vt -0.969 21.5
v -180 -4 -0.542770022
vt 0 22
v -180 -7.1 -0.542770022
vt -0.969 22
v -175 -4 -0.650383257
vt 0 22.5
v -175 -7.1 -0.650383257
vt -0.969 22.5
v -170 -4 -0.773006539
vt 0 23
v -170 -7.1 -0.777241512
vt -0.969 23
v -165 -4 -0.908376191
vt 0 23.5
v -165 -7.1 -0.916846136
vt -0.969 23.5
v -160 -4 -1.05469302
vt 0 24
v -160 -7.1 -1.06739793
vt -0.969 24
v -155 -4 -1.21015782
vt 0 24.5
v -155 -7.1 -1.22709771
vt -0.969 24.5
v -150 -4 -1.37297141
vt 0 25
v -150 -7.1 -1.39414627
vt -0.969 25
v -145 -4 -1.5408701
vt 0 25.5
v -145 -7.1 -1.56204496
vt -0.969 25.5
v -140 -4 -1.71251918
vt 0 26
v -140 -7.1 -1.73369404
vt -0.969 26
v -130 -4 -2.05987172
vt 0 27
v -130 -7.1 -2.08104658
vt -0.969 27
v -125 -4 -2.23197679
vt 0 27.5
v -125 -7.1 -2.25315165
vt -0.969 27.5
v -120 -4 -2.40023825
vt 0 28
v -120 -7.1 -2.42141311
vt -0.969 28
v -115 -4 -2.55617361
vt 0 28.5
v -115 -7.1 -2.57734848
vt -0.969 28.5
v -110 -4 -2.68628001
vt 0 29
v -110 -7.1 -2.70745487
vt -0.969 29
v -105 -4 -2.7769145
vt 0 29.5
v -105 -7.1 -2.79808936
vt -0.969 29.5
v -100 -4 -2.81443413
vt 0 30
v -100 -7.1 -2.835609
vt -0.969 30
v -95 -4 -2.78473149
vt 0 30.5
v -95 -7.1 -2.80167139
vt -0.969 30.5
v -90 -4 -2.67462812
vt 0 31
v -90 -7.1 -2.68733304
vt -0.969 31
v -85 -4 -2.47064163
vt 0 31.5
v -85 -7.1 -2.47911158
vt -0.969 31.5
v -80 -4 -2.17233681
vt 0 32
v -80 -7.1 -2.17657179
vt -0.969 32
v -75 -4 -1.80175562
vt 0 32.5
v -75 -7.1 -1.80175562
vt -0.969 32.5
v -70 -4 -1.38362777
vt 0 33
v -70 -7.1 -1.38362777
vt -0.969 33
v -60 -4 -0.500399589
vt 0 34
v -60 -7.1 -0.500399589
vt -0.969 34
v -55 -4 -0.0838297366
vt 0 34.5
v -55 -7.1 -0.0838297366
vt -0.969 34.5
v -50 -4 0.283690308
vt 0 35
v -50 -7.1 0.283690308
vt -0.969 35
v -45 -4 0.57789531
vt 0 35.5
v -45 -7.1 0.57789531
vt -0.969 35.5
v -40 -4 0.77452003
vt 0 36
v -40 -7.1 0.77452003
vt -0.969 36
v -35 -4 0.859770713
vt 0 36.5
v -35 -7.1 0.859770713
vt -0.969 36.5
v -30 -4 0.893731533
vt 0 37
v -30 -7.1 0.893731533
vt -0.969 37
v -25 -4 0.918610884
vt 0 37.5
v -25 -7.1 0.918610884
vt -0.969 37.5
v -20 -4 0.936318021
vt 0 38
v -20 -7.1 0.936318021
vt -0.969 38
v -15 -4 0.947721353
vt 0 38.5
v -15 -7.1 0.947721353
vt -0.969 38.5
v -10 -4 0.953689291
vt 0 39
v -10 -7.1 0.953689291
vt -0.969 39
v -5 -4 0.955090245
vt 0 39.5
v -5 -7.1 0.955090245
vt -0.969 39.5
v 0 -4 0.952792627
vt 0 40
v 0 -7.1 0.952792627
vt -0.969 40
v 5 -4 0.94765266
vt 0 40.5
v 5 -7.1 0.94765266
vt -0.969 40.5
v 10 -4 0.940052815
vt 0 41
v 10 -7.1 0.940052815
vt -0.969 41
v 15 -4 0.929760144
vt 0 41.5
v 15 -7.1 0.929760144
vt -0.969 41.5
v 20 -4 0.916500565
vt 0 42
v 20 -7.1 0.916500565
vt -0.969 42
v 25 -4 0.9
vt 0 42.5
v 25 -7.1 0.9
vt -0.969 42.5
v 30 -4 0.880089314
vt 0 43
v 30 -7.1 0.880089314
vt -0.969 43
v 35 -4 0.857019152
vt 0 43.5
v 35 -7.1 0.857019152
vt -0.969 43.5
v 40 -4 0.831145102
vt 0 44
v 40 -7.1 0.831145102
vt -0.969 44
v 45 -4 0.802822755
vt 0 44.5
v 45 -7.1 0.802822755
vt -0.969 44.5
v 50 -4 0.7724077
vt 0 45
v 50 -7.1 0.7724077
vt -0.969 45
v 55 -4 0.740255526
vt 0 45.5
v 55 -7.1 0.740255526
vt -0.969 45.5
v 60 -4 0.706721823
vt 0 46
v 60 -7.1 0.706721823
vt -0.969 46
v 70 -4 0.636932185
vt 0 47
v 70 -7.1 0.636932185
vt -0.969 47
v 85 -4 0.530775994
vt 0 48.5
v 85 -7.1 0.530775994
vt -0.969 48.5
v 90 -4 0.496420492
vt 0 49
v 90 -7.1 0.496420492
vt -0.969 49
v 95 -4 0.463172586
vt 0 49.5
v 95 -7.1 0.463172586
vt -0.969 49.5
v 100 -4 0.431387867
vt 0 50
v 100 -7.1 0.431387867
vt -0.969 50
v 105 -4 0.401421922
vt 0 50.5
v 105 -7.1 0.401421922
vt -0.969 50.5
v 110 -4 0.373630343
vt 0 51
v 110 -7.1 0.373630343
vt -0.969 51
v 115 -4 0.348368717
vt 0 51.5
v 115 -7.1 0.348368717
vt -0.969 51.5
v 120 -4 0.325992635
vt 0 52
v 120 -7.1 0.325992635
vt -0.969 52
v 125 -4 0.306857686
vt 0 52.5
v 125 -7.1 0.306857686
vt -0.969 52.5
v 130 -4 0.291290685
vt 0 53
v 130 -7.1 0.291290685
vt -0.969 53
v 135 -4 0.27916676
vt 0 53.5
v 135 -7.1 0.27916676
vt -0.969 53.5
v 140 -4 0.270002186
vt 0 54
v 140 -7.1 0.270002186
vt -0.969 54
v 145 -4 0.263303338
vt 0 54.5
v 145 -7.1 0.263303338
vt -0.969 54.5
v 150 -4 0.258576592
vt 0 55
v 150 -7.1 0.258576592
vt -0.969 55
v 160 -4 0.253064912
vt 0 56
v 160 -7.1 0.253064912
vt -0.969 56
v 180 -4 0.245057846
vt 0 58
v 180 -7.1 0.245057846
vt -0.969 58
v 200 -4 0.234005546
vt 0 60
v 200 -7.1 0.234005546
vt -0.969 60
v 205 -4 0.229210808
vt 0 60.5
v 205 -7.1 0.2310521
vt -0.969 60.5
v 210 -4 0.224523761
vt 0 61
v 210 -7.1 0.228206346
vt -0.969 61
v 215 -4 0.220010192
vt 0 61.5
v 215 -7.1 0.225534069
vt -0.969 61.5
v 220 -4 0.215735887
vt 0 62
v 220 -7.1 0.223101057
vt -0.969 62
v 225 -4 0.211766631
vt 0 62.5
v 225 -7.1 0.220973094
vt -0.969 62.5
v 230 -4 0.208168211
vt 0 63
v 230 -7.1 0.219215966
vt -0.969 63
v 235 -4 0.205017808
vt 0 63.5
v 235 -7.1 0.217906855
vt -0.969 63.5
v 240 -4 0.202438186
vt 0 64
v 240 -7.1 0.217168525
vt -0.969 64
v 245 -4 0.200563505
vt 0 64.5
v 245 -7.1 0.217135137
vt -0.969 64.5
v 250 -4 0.20268307
vt 0 65
v 250 -7.1 0.218149927
vt -0.969 65
v 255 -4 0.206564683
vt 0 65.5
v 255 -7.1 0.220190247
vt -0.969 65.5
v 260 -4 0.211553718
vt 0 66
v 260 -7.1 0.22333799
vt -0.969 66
v 265 -4 0.217784336
vt 0 66.5
v 265 -7.1 0.227727315
vt -0.969 66.5
v 270 -4 0.225390696
vt 0 67
v 270 -7.1 0.233492383
vt -0.969 67
v 275 -4 0.234506959
vt 0 67.5
v 275 -7.1 0.240767353
vt -0.969 67.5
v 280 -4 0.245267284
vt 0 68
v 280 -7.1 0.249686386
vt -0.969 68
v 285 -4 0.257220174
vt 0 68.5
v 285 -7.1 0.259797983
vt -0.969 68.5
v 290 -4 0.267571491
vt 0 69
v 290 -7.1 0.268308008
vt -0.969 69
v 295 -4 0.270301066
vt 0 69.5
v 295 -7.1 0.26917174
vt -0.969 69.5
v 300 -4 0.263132801
vt 0 70
v 300 -7.1 0.260121265
vt -0.969 70
v 305 -4 0.253362118
vt 0 70.5
v 305 -7.1 0.248468372
vt -0.969 70.5
v 310 -4 0.257814619
vt 0 71
v 310 -7.1 0.251038663
vt -0.969 71
v 315 -4 0.294067518
vt 0 71.5
v 315 -7.1 0.285409352
vt -0.969 71.5
v 320 -4 0.374472709
vt 0 72
v 320 -7.1 0.363932332
vt -0.969 72
v 325 -4 0.49539374
vt 0 72.5
v 325 -7.1 0.482971153
vt -0.969 72.5
v 330 -4 0.65014671
vt 0 73
v 330 -7.1 0.635841914
vt -0.969 73
v 335 -4 0.83204772
vt 0 73.5
v 335 -7.1 0.815860713
vt -0.969 73.5
v 340 -4 1.03813123
vt 0 74
v 340 -7.1 1.02294374
vt -0.969 74
v 345 -4 1.26047388
vt 0 74.5
v 345 -7.1 1.24820706
vt -0.969 74.5
v 350 -4 1.48991287
vt 0 75
v 350 -7.1 1.48056672
vt -0.969 75
v 355 -4 1.71976429
vt 0 75.5
v 355 -7.1 1.71333882
vt -0.969 75.5
v 360 -4 1.94334425
vt 0 76
v 360 -7.1 1.93983945
vt -0.969 76
v 365 -4 2.15396885
vt 0 76.5
v 365 -7.1 2.15338471
vt -0.969 76.5
v 370 -4 2.34193929
vt 0 77
v 370 -7.1 2.34193929
vt -0.969 77
v 375 -4 2.50283285
vt 0 77.5
v 375 -7.1 2.50283285
vt -0.969 77.5
v 380 -4 2.63071933
vt 0 78
v 380 -7.1 2.63071933
vt -0.969 78
v 385 -4 2.71891485
vt 0 78.5
v 385 -7.1 2.71891485
vt -0.969 78.5
v 390 -4 2.76114826
vt 0 79
v 390 -7.1 2.76114826
vt -0.969 79
v 395 -4 2.76719416
vt 0 79.5
v 395 -7.1 2.76719416
vt -0.969 79.5
v 400 -4 2.76767115
vt 0 80
v 400 -7.1 2.76767115
vt -0.969 80
v 405 -4 2.79459089
vt 0 80.5
v 405 -7.1 2.79459089
vt -0.969 80.5
v 410 -4 2.87996503
vt 0 81
v 410 -7.1 2.87996503
vt -0.969 81
v 415 -4 3.05561376
vt 0 81.5
v 415 -7.1 3.05561376
vt -0.969 81.5
v 420 -4 3.33192845
vt 0 82
v 420 -7.1 3.33192845
vt -0.969 82
v 425 -4 3.67858564
vt 0 82.5
v 425 -7.1 3.67858564
vt -0.969 82.5
v 435 -4 4.44341646
vt 0 83.5
v 435 -7.1 4.44341646
vt -0.969 83.5
v 440 -4 4.79183462
vt 0 84
v 440 -7.1 4.79183462
vt -0.969 84
v 445 -4 5.07108427
vt 0 84.5
v 445 -7.1 5.07108427
vt -0.969 84.5
v 450 -4 5.24628768
vt 0 85
v 450 -7.1 5.24628768
vt -0.969 85
v 455 -4 5.30953176
vt 0 85.5
v 455 -7.1 5.30953176
vt -0.969 85.5
v 460 -4 5.35046152
vt 0 86
v 460 -7.1 5.35046152
vt -0.969 86
v 465 -4 5.38212519
vt 0 86.5
v 465 -7.1 5.38212519
vt -0.969 86.5
v 470 -4 5.38221002
vt 0 87
v 470 -7.1 5.38221002
vt -0.969 87
v 475 -4 5.3203674
vt 0 87.5
v 475 -7.1 5.3203674
vt -0.969 87.5
v 480 -4 5.23196755
vt 0 88
v 480 -7.1 5.23196755
vt -0.969 88
v 485 -4 5.08198262
vt 0 88.5
v 485 -7.1 5.08198262
vt -0.969 88.5
v 490 -4 4.75763291
vt 0 89
v 490 -7.1 4.75763291
vt -0.969 89
v 500 -4 3.83351245
vt 0 90
v 500 -7.1 3.83351245
vt -0.969 90
v 505 -4 3.42901262
vt 0 90.5
v 505 -7.1 3.42901262
vt -0.969 90.5
v 510 -4 3.07174432
vt 0 91
v 510 -7.1 3.07174432
vt -0.969 91
v 515 -4 2.75
vt 0 91.5
v 515 -7.1 2.75
vt -0.969 91.5
v 520 -4 2.4483056
vt 0 92
v 520 -7.1 2.4483056
vt -0.969 92
v 525 -4 2.13612093
vt 0 92.5
v 525 -7.1 2.13612093
vt -0.969 92.5
v 530 -4 1.77913927
vt 0 93
v 530 -7.1 1.77913927
vt -0.969 93
v 535 -4 1.35892348
vt 0 93.5
v 535 -7.1 1.35892348
vt -0.969 93.5
v 540 -4 0.936349438
vt 0 94
v 540 -7.1 0.936349438
vt -0.969 94
v 545 -4 0.587538765
vt 0 94.5
v 545 -7.1 0.587538765
vt -0.969 94.5
v 550 -4 0.32727875
vt 0 95
v 550 -7.1 0.32727875
vt -0.969 95
v 555 -4 0.145942955
vt 0 95.5
v 555 -7.1 0.145942955
vt -0.969 95.5
v 560 -4 0.0338422956
vt 0 96
v 560 -7.1 0.0338422956
vt -0.969 96
v 565 -4 -0.0187057864
vt 0 96.5
v 565 -7.1 -0.0187057864
vt -0.969 96.5
v 570 -4 -0.02
vt 0 97
v 570 -7.1 -0.02
vt -0.969 97
v 575 -4 0.0167615156
vt 0 97.5
v 575 -7.1 0.0167615156
vt -0.969 97.5
v 580 -4 0.05182288
vt 0 98
v 580 -7.1 0.05182288
vt -0.969 98
v 585 -4 0.0741904509
vt 0 98.5
v 585 -7.1 0.0741904509
vt -0.969 98.5
v 590 -4 0.0893416941
vt 0 99
v 590 -7.1 0.0893416941
vt -0.969 99
v 595 -4 0.102824601
vt 0 99.5
v 595 -7.1 0.102824601
vt -0.969 99.5
v 600 -4 0.118667518
vt 0 100
v 600 -7.1 0.118667518
vt -0.969 100
v 605 -4 0.137508259
vt 0 100.5
v 605 -7.1 0.137508259
vt -0.969 100.5
v 610 -4 0.159525879
vt 0 101
v 610 -7.1 0.159525879
vt -0.969 101
v 615 -4 0.184899433
vt 0 101.5
v 615 -7.1 0.184899433
vt -0.969 101.5
v 620 -4 0.213807974
vt 0 102
v 620 -7.1 0.213807974
vt -0.969 102
v 625 -4 0.246430556
vt 0 102.5
v 625 -7.1 0.246430556
vt -0.969 102.5
v 630 -4 0.282105546
vt 0 103
v 630 -7.1 0.281454011
vt -0.969 103
v 635 -4 0.320591651
vt 0 103.5
v 635 -7.1 0.318311281
vt -0.969 103.5
v 640 -4 0.363328961
vt 0 104
v 640 -7.1 0.359419755
vt -0.969 104
v 645 -4 0.410354082
vt 0 104.5
v 645 -7.1 0.404816041
vt -0.969 104.5
v 650 -4 0.460832301
vt 0 105
v 650 -7.1 0.453665424
vt -0.969 105
v 655 -4 0.513599563
vt 0 105.5
v 655 -7.1 0.504803851
vt -0.969 105.5
v 660 -4 0.567491202
vt 0 106
v 660 -7.1 0.557066654
vt -0.969 106
v 665 -4 0.62134255
vt 0 106.5
v 665 -7.1 0.609289166
vt -0.969 106.5
v 670 -4 0.673988938
vt 0 107
v 670 -7.1 0.660306719
vt -0.969 107
v 675 -4 0.724399517
vt 0 107.5
v 675 -7.1 0.709088462
vt -0.969 107.5
v 680 -4 0.772403795
vt 0 108
v 680 -7.1 0.755463905
vt -0.969 108
v 685 -4 0.818171745
vt 0 108.5
v 685 -7.1 0.799603018
vt -0.969 108.5
v 690 -4 0.861874182
vt 0 109
v 690 -7.1 0.84167662
vt -0.969 109
v 695 -4 0.903681925
vt 0 109.5
v 695 -7.1 0.881855527
vt -0.969 109.5
v 700 -4 0.943765789
vt 0 110
v 700 -7.1 0.920310556
vt -0.969 110
v 705 -4 0.982296592
vt 0 110.5
v 705 -7.1 0.957212523
vt -0.969 110.5
v 715 -4 1.05916538
vt 0 111.5
v 715 -7.1 1.03375555
vt -0.969 111.5
v 725 -4 1.13229107
vt 0 112.5
v 725 -7.1 1.10688123
vt -0.969 112.5
v 735 -4 1.20242936
vt 0 113.5
v 735 -7.1 1.17701953
vt -0.969 113.5
v 745 -4 1.27034527
vt 0 114.5
v 745 -7.1 1.24493543
vt -0.969 114.5
v 760 -4 1.36960779
vt 0 116
v 760 -7.1 1.34419796
vt -0.969 116
v 790 -4 1.5658912
vt 0 119
v 790 -7.1 1.54048137
vt -0.969 119
v 800 -4 1.62839865
vt 0 120
v 800 -7.1 1.60298882
vt -0.969 120
v 805 -4 1.65799447
vt 0 120.5
v 805 -7.1 1.63258464
vt -0.969 120.5
v 810 -4 1.6865699
vt 0 121
v 810 -7.1 1.66150344
vt -0.969 121
v 815 -4 1.71518547
vt 0 121.5
v 815 -7.1 1.6918359
vt -0.969 121.5
v 820 -4 1.7418003
vt 0 122
v 820 -7.1 1.72016761
vt -0.969 122
v 825 -4 1.76614574
vt 0 122.5
v 825 -7.1 1.74622992
vt -0.969 122.5
v 830 -4 1.7879648
vt 0 123
v 830 -7.1 1.76976586
vt -0.969 123
v 835 -4 1.80717512
vt 0 123.5
v 835 -7.1 1.79069307
vt -0.969 123.5
v 840 -4 1.82382875
vt 0 124
v 840 -7.1 1.80906357
vt -0.969 124
v 845 -4 1.83798117
vt 0 124.5
v 845 -7.1 1.82493288
vt -0.969 124.5
v 850 -4 1.8496879
vt 0 125
v 850 -7.1 1.83835648
vt -0.969 125
v 855 -4 1.85900442
vt 0 125.5
v 855 -7.1 1.84938989
vt -0.969 125.5
v 860 -4 1.86598624
vt 0 126
v 860 -7.1 1.85808859
vt -0.969 126
v 865 -4 1.87068886
vt 0 126.5
v 865 -7.1 1.86450809
vt -0.969 126.5
v 870 -4 1.87316778
vt 0 127
v 870 -7.1 1.86870389
vt -0.969 127
v 875 -4 1.87347849
vt 0 127.5
v 875 -7.1 1.87073148
vt -0.969 127.5
v 880 -4 1.8716765
vt 0 128
v 880 -7.1 1.87064637
vt -0.969 128
v 885 -4 1.86693116
vt 0 128.5
v 885 -7.1 1.86693116
vt -0.969 128.5
v 890 -4 1.85885493
vt 0 129
v 890 -7.1 1.85885493
vt -0.969 129
v 895 -4 1.84883248
vt 0 129.5
v 895 -7.1 1.84883248
vt -0.969 129.5
v 900.00001 -4 1.8369193
vt 0 130.000001
v 900.00001 -7.1 1.8369193
vt -0.969 130.000001
mtllib Roads\3D_Road\Road_3e4359e5-a484-45e2-827c-ad67b8aaa8f2_5.mtl
usemtl Road Transition (Light)
g g1
s 1
f  1/1 2/2 4/4 3/3
f  3/3 4/4 6/6 5/5
f  5/5 6/6 8/8 7/7
f  7/7 8/8 10/10 9/9
f  9/9 10/10 12/12 11/11
f  11/11 12/12 14/14 13/13
f  13/13 14/14 16/16 15/15
f  15/15 16/16 18/18 17/17
f  17/17 18/18 20/20 19/19
f  19/19 20/20 22/22 21/21
f  21/21 22/22 24/24 23/23
f  23/23 24/24 26/26 25/25
f  25/25 26/26 28/28 27/27
f  27/27 28/28 30/30 29/29
f  29/29 30/30 32/32 31/31
f  31/31 32/32 34/34 33/33
f  33/33 34/34 36/36 35/35
f  35/35 36/36 38/38 37/37
f  37/37 38/38 40/40 39/39
f  39/39 40/40 42/42 41/41
f  41/41 42/42 44/44 43/43
f  43/43 44/44 46/46 45/45
f  45/45 46/46 48/48 47/47
f  47/47 48/48 50/50 49/49
f  49/49 50/50 52/52 51/51
f  51/51 52/52 54/54 53/53
f  53/53 54/54 56/56 55/55
f  55/55 56/56 58/58 57/57
f  57/57 58/58 60/60 59/59
f  59/59 60/60 62/62 61/61
f  61/61 62/62 64/64 63/63
f  63/63 64/64 66/66 65/65
f  65/65 66/66 68/68 67/67
f  67/67 68/68 70/70 69/69
f  69/69 70/70 72/72 71/71
f  71/71 72/72 74/74 73/73
f  73/73 74/74 76/76 75/75
f  75/75 76/76 78/78 77/77
f  77/77 78/78 80/80 79/79
f  79/79 80/80 82/82 81/81
f  81/81 82/82 84/84 83/83
f  83/83 84/84 86/86 85/85
f  85/85 86/86 88/88 87/87
f  87/87 88/88 90/90 89/89
f  89/89 90/90 92/92 91/91
f  91/91 92/92 94/94 93/93
f  93/93 94/94 96/96 95/95
f  95/95 96/96 98/98 97/97
f  97/97 98/98 100/100 99/99
f  99/99 100/100 102/102 101/101
f  101/101 102/102 104/104 103/103
f  103/103 104/104 106/106 105/105
f  105/105 106/106 108/108 107/107
f  107/107 108/108 110/110 109/109
f  109/109 110/110 112/112 111/111
f  111/111 112/112 114/114 113/113
f  113/113 114/114 116/116 115/115
f  115/115 116/116 118/118 117/117
f  117/117 118/118 120/120 119/119
f  119/119 120/120 122/122 121/121
f  121/121 122/122 124/124 123/123
f  123/123 124/124 126/126 125/125
f  125/125 126/126 128/128 127/127
f  127/127 128/128 130/130 129/129
f  129/129 130/130 132/132 131/131
f  131/131 132/132 134/134 133/133
f  133/133 134/134 136/136 135/135
f  135/135 136/136 138/138 137/137
f  137/137 138/138 140/140 139/139
f  139/139 140/140 142/142 141/141
f  141/141 142/142 144/144 143/143
f  143/143 144/144 146/146 145/145
f  145/145 146/146 148/148 147/147
f  147/147 148/148 150/150 149/149
f  149/149 150/150 152/152 151/151
f  151/151 152/152 154/154 153/153
f  153/153 154/154 156/156 155/155
f  155/155 156/156 158/158 157/157
f  157/157 158/158 160/160 159/159
f  159/159 160/160 162/162 161/161
f  161/161 162/162 164/164 163/163
f  163/163 164/164 166/166 165/165
f  165/165 166/166 168/168 167/167
f  167/167 168/168 170/170 169/169
f  169/169 170/170 172/172 171/171
f  171/171 172/172 174/174 173/173
f  173/173 174/174 176/176 175/175
f  175/175 176/176 178/178 177/177
f  177/177 178/178 180/180 179/179
f  179/179 180/180 182/182 181/181
f  181/181 182/182 184/184 183/183
f  183/183 184/184 186/186 185/185
f  185/185 186/186 188/188 187/187
f  187/187 188/188 190/190 189/189
f  189/189 190/190 192/192 191/191
f  191/191 192/192 194/194 193/193
f  193/193 194/194 196/196 195/195
f  195/195 196/196 198/198 197/197
f  197/197 198/198 200/200 199/199
f  199/199 200/200 202/202 201/201
f  201/201 202/202 204/204 203/203
f  203/203 204/204 206/206 205/205
f  205/205 206/206 208/208 207/207
f  207/207 208/208 210/210 209/209
f  209/209 210/210 212/212 211/211
f  211/211 212/212 214/214 213/213
f  213/213 214/214 216/216 215/215
f  215/215 216/216 218/218 217/217
f  217/217 218/218 220/220 219/219
f  219/219 220/220 222/222 221/221
f  221/221 222/222 224/224 223/223
f  223/223 224/224 226/226 225/225
f  225/225 226/226 228/228 227/227
f  227/227 228/228 230/230 229/229
f  229/229 230/230 232/232 231/231
f  231/231 232/232 234/234 233/233
f  233/233 234/234 236/236 235/235
f  235/235 236/236 238/238 237/237
f  237/237 238/238 240/240 239/239
f  239/239 240/240 242/242 241/241
f  241/241 242/242 244/244 243/243
f  243/243 244/244 246/246 245/245
f  245/245 246/246 248/248 247/247
f  247/247 248/248 250/250 249/249
f  249/249 250/250 252/252 251/251
f  251/251 252/252 254/254 253/253
f  253/253 254/254 256/256 255/255
f  255/255 256/256 258/258 257/257
f  257/257 258/258 260/260 259/259
f  259/259 260/260 262/262 261/261
f  261/261 262/262 264/264 263/263
f  263/263 264/264 266/266 265/265
f  265/265 266/266 268/268 267/267
f  267/267 268/268 270/270 269/269
f  269/269 270/270 272/272 271/271
f  271/271 272/272 274/274 273/273
f  273/273 274/274 276/276 275/275
f  275/275 276/276 278/278 277/277
f  277/277 278/278 280/280 279/279
f  279/279 280/280 282/282 281/281
f  281/281 282/282 284/284 283/283
f  283/283 284/284 286/286 285/285
f  285/285 286/286 288/288 287/287
f  287/287 288/288 290/290 289/289
f  289/289 290/290 292/292 291/291
f  291/291 292/292 294/294 293/293
f  293/293 294/294 296/296 295/295
f  295/295 296/296 298/298 297/297
f  297/297 298/298 300/300 299/299
f  299/299 300/300 302/302 301/301
f  301/301 302/302 304/304 303/303
f  303/303 304/304 306/306 305/305
f  305/305 306/306 308/308 307/307
f  307/307 308/308 310/310 309/309
f  309/309 310/310 312/312 311/311
f  311/311 312/312 314/314 313/313
f  313/313 314/314 316/316 315/315
f  315/315 316/316 318/318 317/317
f  317/317 318/318 320/320 319/319
f  319/319 320/320 322/322 321/321
f  321/321 322/322 324/324 323/323
f  323/323 324/324 326/326 325/325
f  325/325 326/326 328/328 327/327
f  327/327 328/328 330/330 329/329
f  329/329 330/330 332/332 331/331
f  331/331 332/332 334/334 333/333
f  333/333 334/334 336/336 335/335
f  335/335 336/336 338/338 337/337
f  337/337 338/338 340/340 339/339
f  339/339 340/340 342/342 341/341
f  341/341 342/342 344/344 343/343
f  343/343 344/344 346/346 345/345
f  345/345 346/346 348/348 347/347
f  347/347 348/348 350/350 349/349
f  349/349 350/350 352/352 351/351
f  351/351 352/352 354/354 353/353
f  353/353 354/354 356/356 355/355
f  355/355 356/356 358/358 357/357
f  357/357 358/358 360/360 359/359
f  359/359 360/360 362/362 361/361
f  361/361 362/362 364/364 363/363
f  363/363 364/364 366/366 365/365
f  365/365 366/366 368/368 367/367
f  367/367 368/368 370/370 369/369
f  369/369 370/370 372/372 371/371
f  371/371 372/372 374/374 373/373
f  373/373 374/374 376/376 375/375
f  375/375 376/376 378/378 377/377
f  377/377 378/378 380/380 379/379
f  379/379 380/380 382/382 381/381
f  381/381 382/382 384/384 383/383
f  383/383 384/384 386/386 385/385
f  385/385 386/386 388/388 387/387
f  387/387 388/388 390/390 389/389
f  389/389 390/390 392/392 391/391
f  391/391 392/392 394/394 393/393
f  393/393 394/394 396/396 395/395
f  395/395 396/396 398/398 397/397
f  397/397 398/398 400/400 399/399
f  399/399 400/400 402/402 401/401
f  401/401 402/402 404/404 403/403
f  403/403 404/404 406/406 405/405
f  405/405 406/406 408/408 407/407
f  407/407 408/408 410/410 409/409
f  409/409 410/410 412/412 411/411
f  411/411 412/412 414/414 413/413
g g2
s 2
g g3
s 3
g g4
s 4
