# Shape file for lane 5
v 0 -4.1 0
vt 0 0
v 0 -7 0
vt -0.967 0
v 1.06828387 -4.09109743 0
vt 0 0.1
v 1.11661497 -6.99069466 0
vt -0.967 0.1
v 2.13627101 -4.06439219 0
vt 0 0.2
v 2.23291978 -6.96278122 0
vt -0.967 0.2
v 3.20366475 -4.01989169 0
vt 0 0.3
v 3.34860434 -6.91626745 0
vt -0.967 0.3
v 4.2701686 -3.9576083 0
vt 0 0.4
v 4.46335876 -6.85116625 0
vt -0.967 0.4
v 5.33548633 -3.87755933 0
vt 0 0.5
v 5.57687339 -6.76749571 0
vt -0.967 0.5
v 6.39932201 -3.77976699 0
vt 0 0.6
v 6.68883892 -6.66527907 0
vt -0.967 0.6
v 7.46138014 -3.66425847 0
vt 0 0.7
v 7.79894648 -6.54454473 0
vt -0.967 0.7
v 8.52136571 -3.53106584 0
vt 0 0.8
v 8.90688772 -6.40532623 0
vt -0.967 0.8
v 9.57898429 -3.3802261 0
vt 0 0.9
v 10.0123549 -6.24766222 0
vt -0.967 0.9
v 10.6339421 -3.21178114 0
vt 0 1
v 11.1150409 -6.07159651 0
vt -0.967 1
v 11.6859461 -3.02577777 0
vt 0 1.1
v 12.2146395 -5.87717801 0
vt -0.967 1.1
v 12.7347041 -2.82226764 0
vt 0 1.2
v 13.3108452 -5.66446072 0
vt -0.967 1.2
v 13.7799248 -2.60130728 0
vt 0 1.3
v 14.4033535 -5.43350371 0
vt -0.967 1.3
v 14.8213177 -2.36295808 0
vt 0 1.4
v 15.491861 -5.18437116 0
vt -0.967 1.4
v 15.8585938 -2.10728623 0
vt 0 1.5
v 16.5760653 -4.91713225 0
vt -0.967 1.5
v 16.8914648 -1.83436276 0
vt 0 1.6
v 17.6556652 -4.63186123 0
vt -0.967 1.6
v 17.9196438 -1.54426347 0
vt 0 1.7
v 18.7303609 -4.32863733 0
vt -0.967 1.7
v 18.9428452 -1.23706895 0
vt 0 1.8
v 19.7998538 -4.00754477 0
vt -0.967 1.8
v 19.9607849 -0.91286453 0
vt 0 1.9
v 20.863847 -3.66867275 0
vt -0.967 1.9
v 20.9731801 -0.571740259 0
vt 0 2
v 21.9220447 -3.3121154 0
vt -0.967 2
v 21.9797495 -0.213790894 0
vt 0 2.1
v 22.9741531 -2.93797176 0
vt -0.967 2.1
v 22.9802135 0.160884138 0
vt 0 2.2
v 24.01988 -2.54634575 0
vt -0.967 2.2
v 23.9742943 0.552180761 0
vt 0 2.3
v 25.0589348 -2.13734616 0
vt -0.967 2.3
v 24.9617157 0.959990284 0
vt 0 2.4
v 26.0910289 -1.7110866 0
vt -0.967 2.4
v 25.9422035 1.38419943 0
vt 0 2.5
v 27.1158758 -1.26768546 0
vt -0.967 2.5
v 26.9154853 1.82469037 0
vt 0 2.6
v 28.1331906 -0.807265918 0
vt -0.967 2.6
v 27.8812907 2.28134074 0
vt 0 2.7
v 29.1426908 -0.329955858 0
vt -0.967 2.7
v 28.8393515 2.7540237 0
vt 0 2.8
v 30.144096 0.164112136 0
vt -0.967 2.8
v 29.7894016 3.24260795 0
vt 0 2.9
v 31.137128 0.674800824 0
vt -0.967 2.9
v 30.731177 3.74695778 0
vt 0 3
v 32.1215111 1.20196835 0
vt -0.967 3
v 31.6644162 4.2669331 0
vt 0 3.1
v 33.0969717 1.74546829 0
vt -0.967 3.1
v 32.5888599 4.80238946 0
vt 0 3.2
v 34.0632389 2.30514967 0
vt -0.967 3.2
v 33.5042514 5.35317814 0
vt 0 3.3
v 35.0200443 2.88085702 0
vt -0.967 3.3
v 34.4103363 5.91914613 0
vt 0 3.4
v 35.9671222 3.47243044 0
vt -0.967 3.4
v 35.306863 6.50013624 0
vt 0 3.5
v 36.9042094 4.07970559 0
vt -0.967 3.5
v 36.1935825 7.09598708 0
vt 0 3.6
v 37.8310457 4.7025138 0
vt -0.967 3.6
v 37.0702485 7.70653314 0
vt 0 3.7
v 38.7473736 5.34068207 0
vt -0.967 3.7
v 37.9366174 8.33160483 0
vt 0 3.8
v 39.6529386 5.99403313 0
vt -0.967 3.8
v 38.7924486 8.97102851 0
vt 0 3.9
v 40.5474892 6.6623855 0
vt -0.967 3.9
v 39.6375044 9.62462658 0
vt 0 4
v 41.4307768 7.34555353 0
vt -0.967 4
v 40.47155 10.2922175 0
vt 0 4.1
v 42.3025561 8.04334746 0
vt -0.967 4.1
v 41.2943538 10.9736158 0
vt 0 4.2
v 43.162585 8.75557345 0
vt -0.967 4.2
v 42.1056871 11.6686322 0
vt 0 4.3
v 44.0106246 9.48203368 0
vt -0.967 4.3
v 42.9053248 12.3770737 0
vt 0 4.4
v 44.8464393 10.2225264 0
vt -0.967 4.4
v 43.6930445 13.0987435 0
vt 0 4.5
v 45.6697969 10.9768458 0
vt -0.967 4.5
v 44.4686276 13.8334411 0
vt 0 4.6
v 46.4804688 11.7447824 0
vt -0.967 4.6
v 45.2318586 14.5809625 0
vt 0 4.7
v 47.2782297 12.526123 0
vt -0.967 4.7
v 45.9825254 15.3410999 0
vt 0 4.8
v 48.0628581 13.3206505 0
vt -0.967 4.8
v 46.7204197 16.1136424 0
vt 0 4.9
v 48.834136 14.1281441 0
vt -0.967 4.9
v 47.4453363 16.8983752 0
vt 0 5
v 49.5918492 14.9483796 0
vt -0.967 5
v 48.157074 17.6950803 0
vt 0 5.1
v 50.3357871 15.7811292 0
vt -0.967 5.1
v 48.855435 18.5035366 0
vt 0 5.2
v 51.0657433 16.6261615 0
vt -0.967 5.2
v 49.5402254 19.3235195 0
vt 0 5.3
v 51.7815148 17.4832419 0
vt -0.967 5.3
v 50.2112549 20.154801 0
vt 0 5.4
v 52.4829029 18.3521321 0
vt -0.967 5.4
v 50.8683372 20.9971505 0
vt 0 5.5
v 53.1697128 19.232591 0
vt -0.967 5.5
v 51.5112897 21.8503338 0
vt 0 5.6
v 53.8417537 20.1243738 0
vt -0.967 5.6
v 52.1399339 22.714114 0
vt 0 5.7
v 54.4988388 21.027233 0
vt -0.967 5.7
v 52.754095 23.5882511 0
vt 0 5.8
v 55.1407858 21.9409177 0
vt -0.967 5.8
v 53.3536026 24.4725024 0
vt 0 5.9
v 55.7674162 22.8651741 0
vt -0.967 5.9
v 53.9382901 25.3666222 0
vt 0 6
v 56.378556 23.7997455 0
vt -0.967 6
v 54.5079951 26.2703622 0
vt 0 6.1
v 56.9740355 24.7443723 0
vt -0.967 6.1
v 55.0625593 27.1834712 0
vt 0 6.2
v 57.5536892 25.6987921 0
vt -0.967 6.2
v 55.6018288 28.1056958 0
vt 0 6.3
v 58.1173561 26.6627398 0
vt -0.967 6.3
v 56.1256536 29.0367797 0
vt 0 6.4
v 58.6648797 27.6359476 0
vt -0.967 6.4
v 56.6338883 29.9764643 0
vt 0 6.5
v 59.1961079 28.6181453 0
vt -0.967 6.5
v 57.1263918 30.9244886 0
vt 0 6.6
v 59.7108931 29.6090599 0
vt -0.967 6.6
v 57.6030272 31.8805892 0
vt 0 6.7
v 60.2090924 30.6084162 0
vt -0.967 6.7
v 58.0636621 32.8445006 0
vt 0 6.8
v 60.6905672 31.6159367 0
vt -0.967 6.8
v 58.5081686 33.815955 0
vt 0 6.9
v 61.155184 32.6313415 0
vt -0.967 6.9
v 58.9364232 34.7946826 0
vt 0 7
v 61.6028136 33.6543485 0
vt -0.967 7
v 59.3483069 35.7804115 0
vt 0 7.1
v 62.0333317 34.6846735 0
vt -0.967 7.1
v 59.7437054 36.7728679 0
vt 0 7.2
v 62.4466188 35.7220305 0
vt -0.967 7.2
v 60.1225088 37.7717762 0
vt 0 7.3
v 62.8425599 36.7661311 0
vt -0.967 7.3
v 60.4846119 38.7768588 0
vt 0 7.4
v 63.2210452 37.8166855 0
vt -0.967 7.4
v 60.8299141 39.7878366 0
vt 0 7.5
v 63.5819695 38.8734017 0
vt -0.967 7.5
v 61.1583195 40.8044287 0
vt 0 7.6
v 63.9252325 39.9359863 0
vt -0.967 7.6
v 61.4697369 41.8263528 0
vt 0 7.7
v 64.250739 41.0041442 0
vt -0.967 7.7
v 61.7640797 42.8533251 0
vt 0 7.8
v 64.5583984 42.0775785 0
vt -0.967 7.8
v 62.0412662 43.8850602 0
vt 0 7.9
v 64.8481254 43.1559911 0
vt -0.967 7.9
v 62.3012195 44.9212716 0
vt 0 8
v 65.1198394 44.2390826 0
vt -0.967 8
v 62.5438672 45.9616714 0
vt 0 8.1
v 65.373465 45.326552 0
vt -0.967 8.1
v 62.7691421 47.0059706 0
vt 0 8.2
v 65.6089317 46.4180972 0
vt -0.967 8.2
v 62.9769815 48.0538792 0
vt 0 8.3
v 65.8261741 47.5134151 0
vt -0.967 8.3
v 63.1673277 49.1051061 0
vt 0 8.4
v 66.0251319 48.6122014 0
vt -0.967 8.4
v 63.3401278 50.1593593 0
vt 0 8.5
v 66.2057498 49.7141509 0
vt -0.967 8.5
v 63.4953339 51.216346 0
vt 0 8.6
v 66.3679777 50.8189576 0
vt -0.967 8.6
v 63.6329027 52.2757725 0
vt 0 8.7
v 66.5117704 51.9263145 0
vt -0.967 8.7
v 63.7527962 53.3373445 0
vt 0 8.8
v 66.6370881 53.035914 0
vt -0.967 8.8
v 63.854981 54.4007673 0
vt 0 8.9
v 66.7438959 54.1474479 0
vt -0.967 8.9
v 63.9394286 55.4657454 0
vt 0 9
v 66.8321641 55.2606075 0
vt -0.967 9
v 64.0061158 56.5319829 0
vt 0 9.1
v 66.9018683 56.3750836 0
vt -0.967 9.1
v 64.0550239 57.5991838 0
vt 0 9.2
v 66.9529891 57.4905665 0
vt -0.967 9.2
v 64.0861393 58.6670515 0
vt 0 9.3
v 66.9855122 58.6067465 0
vt -0.967 9.3
v 64.0994534 59.7352895 0
vt 0 9.4
v 66.9994287 59.7233136 0
vt -0.967 9.4
v 64.0949626 60.8036011 0
vt 0 9.5
v 66.9947347 60.8399574 0
vt -0.967 9.5
v 64.072668 61.8716894 0
vt 0 9.6
v 66.9714314 61.956368 0
vt -0.967 9.6
v 64.0325758 62.9392578 0
vt 0 9.7
v 66.9295254 63.0722351 0
vt -0.967 9.7
v 63.9746972 64.0060098 0
vt 0 9.8
v 66.8690283 64.1872489 0
vt -0.967 9.8
v 63.8990483 65.071649 0
vt 0 9.9
v 66.7899569 65.3010996 0
vt -0.967 9.9
v 63.8056501 66.1358794 0
vt 0 10
v 66.6923332 66.4134777 0
vt -0.967 10
v 63.6945285 67.1984055 0
vt 0 10.1
v 66.5761842 67.5240744 0
vt -0.967 10.1
v 63.5657144 68.2589321 0
vt 0 10.2
v 66.4415423 68.6325811 0
vt -0.967 10.2
v 63.4192435 69.3171646 0
vt 0 10.3
v 66.2884448 69.7386899 0
vt -0.967 10.3
v 63.2551566 70.372809 0
vt 0 10.4
v 66.1169343 70.8420936 0
vt -0.967 10.4
v 63.0734992 71.4255722 0
vt 0 10.5
v 65.9270584 71.9424857 0
vt -0.967 10.5
v 62.8743218 72.4751616 0
vt 0 10.6
v 65.7188699 73.0395605 0
vt -0.967 10.6
v 62.6576797 73.5212859 0
vt 0 10.7
v 65.4924265 74.1330133 0
vt -0.967 10.7
v 62.4236331 74.5636543 0
vt 0 10.8
v 65.2477913 75.2225403 0
vt -0.967 10.8
v 62.1722471 75.6019773 0
vt 0 10.9
v 64.985032 76.307839 0
vt -0.967 10.9
v 61.9035913 76.6359666 0
vt 0 11
v 64.7042218 77.3886078 0
vt -0.967 11
v 61.6177405 77.6653348 0
vt 0 11.1
v 64.4054386 78.4645465 0
vt -0.967 11.1
v 61.3147741 78.6897962 0
vt 0 11.2
v 64.0887654 79.5353564 0
vt -0.967 11.2
v 60.9947761 79.709066 0
vt 0 11.3
v 63.7542902 80.6007398 0
vt -0.967 11.3
v 60.6578356 80.7228612 0
vt 0 11.4
v 63.4021059 81.660401 0
vt -0.967 11.4
v 60.3040461 81.7309003 0
vt 0 11.5
v 63.0323103 82.7140455 0
vt -0.967 11.5
v 59.9335058 82.732903 0
vt 0 11.6
v 62.6450061 83.7613807 0
vt -0.967 11.6
v 59.5463177 83.7285913 0
vt 0 11.7
v 62.2403009 84.8021157 0
vt -0.967 11.7
v 59.1425894 84.7176884 0
vt 0 11.8
v 61.8183072 85.8359614 0
vt -0.967 11.8
v 58.7224329 85.6999197 0
vt 0 11.9
v 61.3791421 86.8626305 0
vt -0.967 11.9
v 58.2859651 86.6750122 0
vt 0 12
v 60.9229276 87.881838 0
vt -0.967 12
v 57.833307 87.6426952 0
vt 0 12.1
v 60.4497905 88.8933008 0
vt -0.967 12.1
v 57.3645845 88.6026999 0
vt 0 12.2
v 59.9598622 89.8967378 0
vt -0.967 12.2
v 56.8799278 89.5547595 0
vt 0 12.3
v 59.4532787 90.8918703 0
vt -0.967 12.3
v 56.3794715 90.4986097 0
vt 0 12.4
v 58.9301808 91.878422 0
vt -0.967 12.4
v 55.8633546 91.4339882 0
vt 0 12.5
v 58.3907138 92.8561187 0
vt -0.967 12.5
v 55.3317204 92.3606353 0
vt 0 12.6
v 57.8350276 93.824689 0
vt -0.967 12.6
v 54.7847167 93.2782935 0
vt 0 12.7
v 57.2632764 94.7838637 0
vt -0.967 12.7
v 54.2224953 94.186708 0
vt 0 12.8
v 56.6756191 95.7333765 0
vt -0.967 12.8
v 53.6452125 95.0856264 0
vt 0 12.9
v 56.072219 96.6729636 0
vt -0.967 12.9
v 53.0530286 95.9747989 0
vt 0 13
v 55.4532436 97.602364 0
vt -0.967 13
v 52.446108 96.8539788 0
vt 0 13.1
v 54.8188649 98.5213195 0
vt -0.967 13.1
v 51.8246195 97.7229216 0
vt 0 13.2
v 54.1692591 99.4295749 0
vt -0.967 13.2
v 51.1887355 98.5813861 0
vt 0 13.3
v 53.5046066 100.326878 0
vt -0.967 13.3
v 50.5386328 99.4291338 0
vt 0 13.4
v 52.825092 101.212979 0
vt -0.967 13.4
v 49.8744919 100.265929 0
vt 0 13.5
v 52.1309042 102.087633 0
vt -0.967 13.5
v 49.1964973 101.09154 0
vt 0 13.6
v 51.4222359 102.950596 0
vt -0.967 13.6
v 48.5048373 101.905737 0
vt 0 13.7
v 50.699284 103.801628 0
vt -0.967 13.7
v 47.7997041 102.708293 0
vt 0 13.8
v 49.9622492 104.640493 0
vt -0.967 13.8
v 47.0812935 103.498986 0
vt 0 13.9
v 49.2113364 105.466959 0
vt -0.967 13.9
v 46.349805 104.277597 0
vt 0 14
v 48.4467541 106.280795 0
vt -0.967 14
v 45.6054419 105.043908 0
vt 0 14.1
v 47.6687146 107.081776 0
vt -0.967 14.1
v 44.8484109 105.797708 0
vt 0 14.2
v 46.8774342 107.869679 0
vt -0.967 14.2
v 44.0789223 106.538786 0
vt 0 14.3
v 46.0731325 108.644285 0
vt -0.967 14.3
v 43.2971899 107.266937 0
vt 0 14.4
v 45.2560331 109.405379 0
vt -0.967 14.4
v 42.5034307 107.981959 0
vt 0 14.5
v 44.4263628 110.15275 0
vt -0.967 14.5
v 41.6978653 108.683653 0
vt 0 14.6
v 43.5843522 110.886189 0
vt -0.967 14.6
v 40.8807174 109.371823 0
vt 0 14.7
v 42.730235 111.605494 0
vt -0.967 14.7
v 40.052214 110.04628 0
vt 0 14.8
v 41.8642487 112.310464 0
vt -0.967 14.8
v 39.2125853 110.706835 0
vt 0 14.9
v 40.9866336 113.000904 0
vt -0.967 14.9
v 38.3620644 111.353306 0
vt 0 15
v 40.0976337 113.676622 0
vt -0.967 15
v 37.5008877 111.985512 0
vt 0 15.1
v 39.1974957 114.33743 0
vt -0.967 15.1
v 36.6292943 112.603277 0
vt 0 15.2
v 38.2864698 114.983145 0
vt -0.967 15.2
v 35.7475263 113.206432 0
vt 0 15.3
v 37.3648091 115.613587 0
vt -0.967 15.3
v 34.8558287 113.794807 0
vt 0 15.4
v 36.4327694 116.228581 0
vt -0.967 15.4
v 33.9544491 114.368239 0
vt 0 15.5
v 35.4906098 116.827956 0
vt -0.967 15.5
v 33.0436379 114.926569 0
vt 0 15.6
v 34.5385919 117.411546 0
vt -0.967 15.6
v 32.1236482 115.469642 0
vt 0 15.7
v 33.5769802 117.979189 0
vt -0.967 15.7
v 31.1947355 115.997308 0
vt 0 15.8
v 32.6060417 118.530727 0
vt -0.967 15.8
v 30.2571577 116.509419 0
vt 0 15.9
v 31.6260463 119.066007 0
vt -0.967 15.9
v 29.3111754 117.005833 0
vt 0 16
v 30.637266 119.58488 0
vt -0.967 16
v 28.3570512 117.486413 0
vt 0 16.1
v 29.6399755 120.087202 0
vt -0.967 16.1
v 27.3950503 117.951024 0
vt 0 16.2
v 28.634452 120.572834 0
vt -0.967 16.2
v 26.4254399 118.399539 0
vt 0 16.3
v 27.6209746 121.04164 0
vt -0.967 16.3
v 25.4484892 118.831832 0
vt 0 16.4
v 26.5998249 121.49349 0
vt -0.967 16.4
v 24.4644696 119.247782 0
vt 0 16.5
v 25.5712865 121.928259 0
vt -0.967 16.5
v 23.4736545 119.647276 0
vt 0 16.6
v 24.5356451 122.345827 0
vt -0.967 16.6
v 22.4763191 120.030201 0
vt 0 16.7
v 23.4931885 122.746076 0
vt -0.967 16.7
v 21.4727404 120.396452 0
vt 0 16.8
v 22.4442061 123.128897 0
vt -0.967 16.8
v 20.4631972 120.745926 0
vt 0 16.9
v 21.3889893 123.494182 0
vt -0.967 16.9
v 19.44797 121.078527 0
vt 0 17
v 20.3278313 123.84183 0
vt -0.967 17
v 18.4273406 121.394162 0
vt 0 17.1
v 19.2610268 124.171745 0
vt -0.967 17.1
v 17.4015926 121.692743 0
vt 0 17.2
v 18.1888722 124.483835 0
vt -0.967 17.2
v 16.371011 121.974188 0
vt 0 17.3
v 17.1116652 124.778013 0
vt -0.967 17.3
v 15.335882 122.238418 0
vt 0 17.4
v 16.0297051 125.054197 0
vt -0.967 17.4
v 14.2964931 122.485361 0
vt 0 17.5
v 14.9432923 125.312311 0
vt -0.967 17.5
v 13.2531331 122.714946 0
vt 0 17.6
v 13.8527288 125.552284 0
vt -0.967 17.6
v 12.2060917 122.927111 0
vt 0 17.7
v 12.7583174 125.774048 0
vt -0.967 17.7
v 11.1556598 123.121797 0
vt 0 17.8
v 11.660362 125.977541 0
vt -0.967 17.8
v 10.1021292 123.298949 0
vt 0 17.9
v 10.5591678 126.162708 0
vt -0.967 17.9
v 9.04579252 123.458519 0
vt 0 18
v 9.45504054 126.329497 0
vt -0.967 18
v 7.98694317 123.600462 0
vt 0 18.1
v 8.34828693 126.477862 0
vt -0.967 18.1
v 6.92587527 123.724738 0
vt 0 18.2
v 7.2392144 126.607761 0
vt -0.967 18.2
v 5.86288357 123.831314 0
vt 0 18.3
v 6.12813103 126.719158 0
vt -0.967 18.3
v 4.79826332 123.920159 0
vt 0 18.4
v 5.01534544 126.812022 0
vt -0.967 18.4
v 3.73231026 123.991248 0
vt 0 18.5
v 3.90116673 126.886328 0
vt -0.967 18.5
v 2.66532046 124.044563 0
vt 0 18.6
v 2.78590438 126.942055 0
vt -0.967 18.6
v 1.59759032 124.080088 0
vt 0 18.7
v 1.6698682 126.979187 0
vt -0.967 18.7
v 0.529416409 124.097814 0
vt 0 18.8
v 0.553368166 126.997715 0
vt -0.967 18.8
v -0.538904556 124.097735 0
vt 0 18.9
v -0.563285574 126.997632 0
vt -0.967 18.9
v -1.60707583 124.079851 0
vt 0 19
v -1.67978285 126.978939 0
vt -0.967 19
v -2.6748007 124.044168 0
vt 0 19.1
v -2.79581353 126.941642 0
vt -0.967 19.1
v -3.74178259 123.990695 0
vt 0 19.2
v -3.91106761 126.88575 0
vt -0.967 19.2
v -4.80772512 123.919448 0
vt 0 19.3
v -5.02523531 126.811279 0
vt -0.967 19.3
v -5.87233221 123.830445 0
vt 0 19.4
v -6.13800714 126.71825 0
vt -0.967 19.4
v -6.93530812 123.723712 0
vt 0 19.5
v -7.24907401 126.606688 0
vt -0.967 19.5
v -7.99635761 123.599279 0
vt 0 19.6
v -8.3581273 126.476625 0
vt -0.967 19.6
v -9.05518594 123.457179 0
vt 0 19.7
v -9.46485894 126.328097 0
vt -0.967 19.7
v -10.111499 123.297453 0
vt 0 19.8
v -10.5689615 126.161145 0
vt -0.967 19.8
v -11.1650034 123.120145 0
vt 0 19.9
v -11.6701283 125.975815 0
vt -0.967 19.9
v -12.2154064 122.925304 0
vt 0 20
v -12.7680535 125.772158 0
vt -0.967 20
v -13.2624164 122.712984 0
vt 0 20.1
v -13.8624321 125.550232 0
vt -0.967 20.1
v -14.3057424 122.483244 0
vt 0 20.2
v -14.9529601 125.310099 0
vt -0.967 20.2
v -15.3450947 122.236148 0
vt 0 20.3
v -16.0393346 125.051824 0
vt -0.967 20.3
v -16.3801846 121.971764 0
vt 0 20.4
v -17.1212538 124.775479 0
vt -0.967 20.4
v -17.4107246 121.690167 0
vt 0 20.5
v -18.1984173 124.481141 0
vt -0.967 20.5
v -18.4364283 121.391434 0
vt 0 20.6
v -19.2705257 124.168893 0
vt -0.967 20.6
v -19.457011 121.075648 0
vt 0 20.7
v -20.3372814 123.83882 0
vt -0.967 20.7
v -20.472189 120.742897 0
vt 0 20.8
v -21.3983879 123.491015 0
vt -0.967 20.8
v -21.4816804 120.393273 0
vt 0 20.9
v -22.4535505 123.125574 0
vt -0.967 20.9
v -22.4852049 120.026874 0
vt 0 21
v -23.5024763 122.742598 0
vt -0.967 21
v -23.4824836 119.643801 0
vt 0 21.1
v -24.5448737 122.342194 0
vt -0.967 21.1
v -24.4732395 119.24416 0
vt 0 21.2
v -25.5804532 121.924473 0
vt -0.967 21.2
v -25.4571975 118.828064 0
vt 0 21.3
v -26.6089272 121.489552 0
vt -0.967 21.3
v -26.4340842 118.395626 0
vt 0 21.4
v -27.63001 121.03755 0
vt -0.967 21.4
v -27.4036283 117.946968 0
vt 0 21.5
v -28.643418 120.568594 0
vt -0.967 21.5
v -28.3655604 117.482214 0
vt 0 21.6
v -29.6488697 120.082814 0
vt -0.967 21.6
v -29.3196134 117.001494 0
vt 0 21.7
v -30.6460858 119.580344 0
vt -0.967 21.7
v -30.2655222 116.504939 0
vt 0 21.8
v -31.6347892 119.061325 0
vt -0.967 21.8
v -31.2030242 115.99269 0
vt 0 21.9
v -32.6147055 118.5259 0
vt -0.967 21.9
v -32.1318588 115.464887 0
vt 0 22
v -33.5855623 117.974218 0
vt -0.967 22
v -33.0517681 114.921677 0
vt 0 22.1
v -34.5470899 117.406433 0
vt -0.967 22.1
v -33.9624966 114.363212 0
vt 0 22.2
v -35.4990214 116.822702 0
vt -0.967 22.2
v -34.8637913 113.789646 0
vt 0 22.3
v -36.4410923 116.223187 0
vt -0.967 22.3
v -35.7554018 113.201139 0
vt 0 22.4
v -37.3730409 115.608055 0
vt -0.967 22.4
v -36.6370805 112.597855 0
vt 0 22.5
v -38.2946084 114.977477 0
vt -0.967 22.5
v -37.5085825 111.97996 0
vt 0 22.6
v -39.2055386 114.331627 0
vt -0.967 22.6
v -38.3696656 111.347627 0
vt 0 22.7
v -40.1055788 113.670686 0
vt -0.967 22.7
v -39.2200908 110.70103 0
vt 0 22.8
v -40.9944787 112.994837 0
vt -0.967 22.8
v -40.0596218 110.040351 0
vt 0 22.9
v -41.8719915 112.304267 0
vt -0.967 22.9
v -40.8880253 109.365771 0
vt 0 23
v -42.7378735 111.599168 0
vt -0.967 23
v -41.7050713 108.67748 0
vt 0 23.1
v -43.5918842 110.879737 0
vt -0.967 23.1
v -42.5105328 107.975667 0
vt 0 23.2
v -44.4337863 110.146173 0
vt -0.967 23.2
v -43.3041861 107.260528 0
vt 0 23.3
v -45.2633459 109.398679 0
vt -0.967 23.3
v -44.0858108 106.532261 0
vt 0 23.4
v -46.0803327 108.637464 0
vt -0.967 23.4
v -44.8551897 105.791069 0
vt 0 23.5
v -46.8845196 107.862739 0
vt -0.967 23.5
v -45.6121091 105.037157 0
vt 0 23.6
v -47.6756834 107.074719 0
vt -0.967 23.6
v -46.3563588 104.270735 0
vt 0 23.7
v -48.4536043 106.273623 0
vt -0.967 23.7
v -47.0877319 103.492017 0
vt 0 23.8
v -49.2180662 105.459674 0
vt -0.967 23.8
v -47.8060255 102.701217 0
vt 0 23.9
v -49.9688566 104.633097 0
vt -0.967 23.9
v -48.5110399 101.898556 0
vt 0 24
v -50.7057672 103.794123 0
vt -0.967 24
v -49.2025794 101.084257 0
vt 0 24.1
v -51.4285931 102.942983 0
vt -0.967 24.1
v -49.8804518 100.258546 0
vt 0 24.2
v -52.1371337 102.079916 0
vt -0.967 24.2
v -50.5444688 99.4216523 0
vt 0 24.3
v -52.831192 101.205159 0
vt -0.967 24.3
v -51.194446 98.5738084 0
vt 0 24.4
v -53.5105754 100.318957 0
vt -0.967 24.4
v -51.8302029 97.7152498 0
vt 0 24.5
v -54.1750951 99.421556 0
vt -0.967 24.5
v -52.4515628 96.846215 0
vt 0 24.6
v -54.8245664 98.5132044 0
vt -0.967 24.6
v -53.0583532 95.9669453 0
vt 0 24.7
v -55.4588091 97.594155 0
vt -0.967 24.7
v -53.6504055 95.0776851 0
vt 0 24.8
v -56.0776469 96.664663 0
vt -0.967 24.8
v -54.2275552 94.1786813 0
vt 0 24.9
v -56.680908 95.7249867 0
vt -0.967 24.9
v -54.7896421 93.2701836 0
vt 0 25
v -57.2684247 94.7753869 0
vt -0.967 25
v -55.33651 92.3524444 0
vt 0 25.1
v -57.8400339 93.8161275 0
vt -0.967 25.1
v -55.868007 91.4257186 0
vt 0 25.2
v -58.3955768 92.847475 0
vt -0.967 25.2
v -56.3839855 90.4902637 0
vt 0 25.3
v -58.934899 91.8696984 0
vt -0.967 25.3
v -56.8843021 89.5463395 0
vt 0 25.4
v -59.4578509 90.8830693 0
vt -0.967 25.4
v -57.3688179 88.5942081 0
vt 0 25.5
v -59.964287 89.8878618 0
vt -0.967 25.5
v -57.8373982 87.6341341 0
vt 0 25.6
v -60.4540668 88.8843523 0
vt -0.967 25.6
v -58.289913 86.6663841 0
vt 0 25.7
v -60.9270542 87.8728196 0
vt -0.967 25.7
v -58.7262365 85.6912269 0
vt 0 25.8
v -61.3831178 86.8535445 0
vt -0.967 25.8
v -59.1462476 84.7089335 0
vt 0 25.9
v -61.8221309 85.8268104 0
vt -0.967 25.9
v -59.5498295 83.7197766 0
vt 0 26
v -62.2439716 84.7929022 0
vt -0.967 26
v -59.9368702 82.7240311 0
vt 0 26.1
v -62.6485227 83.7521074 0
vt -0.967 26.1
v -60.3072622 81.7219734 0
vt 0 26.2
v -63.0356718 82.7047148 0
vt -0.967 26.2
v -60.6609025 80.7138821 0
vt 0 26.3
v -63.4053115 81.6510156 0
vt -0.967 26.3
v -60.9976929 79.700037 0
vt 0 26.4
v -63.757339 80.5913023 0
vt -0.967 26.4
v -61.31754 78.6807198 0
vt 0 26.5
v -64.0916565 79.5258693 0
vt -0.967 26.5
v -61.6203548 77.6562136 0
vt 0 26.6
v -64.4081711 78.4550126 0
vt -0.967 26.6
v -61.9060532 76.626803 0
vt 0 26.7
v -64.7067951 77.3790297 0
vt -0.967 26.7
v -62.1745559 75.592774 0
vt 0 26.8
v -64.9874453 76.2982193 0
vt -0.967 26.8
v -62.4257883 74.5544138 0
vt 0 26.9
v -65.2500439 75.2128818 0
vt -0.967 26.9
v -62.6596805 73.5120107 0
vt 0 27
v -65.4945179 74.1233186 0
vt -0.967 27
v -62.8761678 72.4658545 0
vt 0 27.1
v -65.7207994 73.0298323 0
vt -0.967 27.1
v -63.0751898 71.4162355 0
vt 0 27.2
v -65.9288255 71.9327267 0
vt -0.967 27.2
v -63.2566913 70.3634455 0
vt 0 27.3
v -66.1185385 70.8323065 0
vt -0.967 27.3
v -63.420622 69.3077768 0
vt 0 27.4
v -66.2898857 69.7288774 0
vt -0.967 27.4
v -63.5669362 68.2495226 0
vt 0 27.5
v -66.4428194 68.6227459 0
vt -0.967 27.5
v -63.6955933 67.188977 0
vt 0 27.6
v -66.5772972 67.5142193 0
vt -0.967 27.6
v -63.8065577 66.1264345 0
vt 0 27.7
v -66.6932818 66.4036054 0
vt -0.967 27.7
v -63.8997984 65.0621902 0
vt 0 27.8
v -66.7907409 65.2912128 0
vt -0.967 27.8
v -63.9752895 63.9965398 0
vt 0 27.9
v -66.8696474 64.1773505 0
vt -0.967 27.9
v -64.0330102 62.9297793 0
vt 0 28
v -66.9299794 63.0623278 0
vt -0.967 28
v -64.0729443 61.8622049 0
vt 0 28.1
v -66.9717203 61.9464544 0
vt -0.967 28.1
v -64.0950808 60.7941133 0
vt 0 28.2
v -66.9948583 60.8300405 0
vt -0.967 28.2
v -64.0994135 59.7258011 0
vt 0 28.3
v -66.999387 59.7133959 0
vt -0.967 28.3
v -64.0859413 58.6575651 0
vt 0 28.4
v -66.9853052 58.5968309 0
vt -0.967 28.4
v -64.0546678 57.589702 0
vt 0 28.5
v -66.9526169 57.4806558 0
vt -0.967 28.5
v -64.0056017 56.5225084 0
vt 0 28.6
v -66.901331 56.3651804 0
vt -0.967 28.6
v -63.9387568 55.4562807 0
vt 0 28.7
v -66.8314618 55.2507146 0
vt -0.967 28.7
v -63.8541514 54.3913152 0
vt 0 28.8
v -66.7430288 54.1375681 0
vt -0.967 28.8
v -63.7518092 53.3279075 0
vt 0 28.9
v -66.6360565 53.02605 0
vt -0.967 28.9
v -63.6317586 52.2663532 0
vt 0 29
v -66.5105746 51.9164691 0
vt -0.967 29
v -63.494033 51.2069471 0
vt 0 29.1
v -66.3666179 50.8091335 0
vt -0.967 29.1
v -63.3386704 50.1499835 0
vt 0 29.2
v -66.2042265 49.7043509 0
vt -0.967 29.2
v -63.1657143 49.0957558 0
vt 0 29.3
v -66.0234455 48.6024281 0
vt -0.967 29.3
v -62.9752125 48.0445571 0
vt 0 29.4
v -65.824325 47.5036712 0
vt -0.967 29.4
v -62.767218 46.9966793 0
vt 0 29.5
v -65.6069205 46.4083855 0
vt -0.967 29.5
v -62.5417885 45.9524134 0
vt 0 29.6
v -65.3712922 45.3168751 0
vt -0.967 29.6
v -62.2989867 44.9120495 0
vt 0 29.7
v -65.1175056 44.2294433 0
vt -0.967 29.7
v -62.0388801 43.8758766 0
vt 0 29.8
v -64.8456313 43.1463921 0
vt -0.967 29.8
v -61.7615409 42.8441826 0
vt 0 29.9
v -64.5557447 42.0680223 0
vt -0.967 29.9
v -61.467046 41.8172539 0
vt 0 30
v -64.2479264 40.9946336 0
vt -0.967 30
v -61.1554774 40.7953759 0
vt 0 30.1
v -63.9222618 39.9265239 0
vt -0.967 30.1
v -60.8269215 39.7788324 0
vt 0 30.2
v -63.5788415 38.8639902 0
vt -0.967 30.2
v -60.4814697 38.7679057 0
vt 0 30.3
v -63.2177608 37.8073273 0
vt -0.967 30.3
v -60.1192178 37.7628767 0
vt 0 30.4
v -62.83912 36.756829 0
vt -0.967 30.4
v -59.7402665 36.7640246 0
vt 0 30.5
v -62.4430243 35.712787 0
vt -0.967 30.5
v -59.3447211 35.7716267 0
vt 0 30.6
v -62.0295837 34.6754912 0
vt -0.967 30.6
v -58.9326915 34.7859588 0
vt 0 30.7
v -61.5989131 33.6452299 0
vt -0.967 30.7
v -58.504292 33.8072946 0
vt 0 30.8
v -61.1511321 32.6222892 0
vt -0.967 30.8
v -58.0596417 32.835906 0
vt 0 30.9
v -60.686365 31.6069532 0
vt -0.967 30.9
v -57.5988641 31.8720628 0
vt 0 31
v -60.204741 30.599504 0
vt -0.967 31
v -57.1220872 30.9160327 0
vt 0 31.1
v -59.7063938 29.6002214 0
vt -0.967 31.1
v -56.6294434 29.9680814 0
vt 0 31.2
v -59.1914619 28.609383 0
vt -0.967 31.2
v -56.1210696 29.028472 0
vt 0 31.3
v -58.6600884 27.627264 0
vt -0.967 31.3
v -55.597107 28.0974657 0
vt 0 31.4
v -58.1124207 26.6541373 0
vt -0.967 31.4
v -55.057701 27.1753209 0
vt 0 31.5
v -57.5486111 25.690273 0
vt -0.967 31.5
v -54.5030016 26.2622939 0
vt 0 31.6
v -56.9688161 24.735939 0
vt -0.967 31.6
v -53.9331629 25.3586383 0
vt 0 31.7
v -56.3731968 23.7914004 0
vt -0.967 31.7
v -53.348343 24.4646051 0
vt 0 31.8
v -55.7619186 22.8569195 0
vt -0.967 31.8
v -52.7487046 23.5804425 0
vt 0 31.9
v -55.1351514 21.9327558 0
vt -0.967 31.9
v -52.134414 22.7063963 0
vt 0 32
v -54.4930692 21.0191662 0
vt -0.967 32
v -51.505642 21.8427092 0
vt 0 32.1
v -53.8358504 20.1164043 0
vt -0.967 32.1
v -50.8625632 20.989621 0
vt 0 32.2
v -53.1636776 19.2247209 0
vt -0.967 32.2
v -50.2053562 20.1473689 0
vt 0 32.3
v -52.4767374 18.3443637 0
vt -0.967 32.3
v -49.5342037 19.3161867 0
vt 0 32.4
v -51.7752207 17.4755773 0
vt -0.967 32.4
v -48.8492919 18.4963052 0
vt 0 32.5
v -51.0593223 16.6186029 0
vt -0.967 32.5
v -48.1508112 17.6879523 0
vt 0 32.6
v -50.329241 15.7736787 0
vt -0.967 32.6
v -47.4389556 16.8913525 0
vt 0 32.7
v -49.5851798 14.9410392 0
vt -0.967 32.7
v -46.7139228 16.106727 0
vt 0 32.8
v -48.8273452 14.1209159 0
vt -0.967 32.8
v -45.9759142 15.3342938 0
vt 0 32.9
v -48.0559478 13.3135364 0
vt -0.967 32.9
v -45.2251349 14.5742675 0
vt 0 33
v -47.2712018 12.5191251 0
vt -0.967 33
v -44.4617933 13.8268591 0
vt 0 33.1
v -46.4733252 11.7379026 0
vt -0.967 33.1
v -43.6861014 13.0922763 0
vt 0 33.2
v -45.6625397 10.970086 0
vt -0.967 33.2
v -42.8982749 12.3707231 0
vt 0 33.3
v -44.8390704 10.2158885 0
vt -0.967 33.3
v -42.0985324 11.6624 0
vt 0 33.4
v -44.0031462 9.47551951 0
vt -0.967 33.4
v -41.2870961 10.9675037 0
vt 0 33.5
v -43.1549991 8.74918482 0
vt -0.967 33.5
v -40.4641915 10.2862272 0
vt 0 33.6
v -42.2948647 8.03708614 0
vt -0.967 33.6
v -39.6300471 9.61875975 0
vt 0 33.7
v -41.4229821 7.33942127 0
vt -0.967 33.7
v -38.7848946 8.96528678 0
vt 0 33.8
v -40.5395934 6.65638399 0
vt -0.967 33.8
v -37.9289687 8.32598978 0
vt 0 33.9
v -39.6449439 5.98816405 0
vt -0.967 33.9
v -37.0625073 7.70104635 0
vt 0 34
v -38.7392822 5.33494704 0
vt -0.967 34
v -36.185751 7.09063007 0
vt 0 34.1
v -37.8228598 4.69691442 0
vt -0.967 34.1
v -35.2989433 6.49491049 0
vt 0 34.2
v -36.8959314 4.07424342 0
vt -0.967 34.2
v -34.4023306 5.9140531 0
vt 0 34.3
v -35.9587542 3.46710698 0
vt -0.967 34.3
v -33.4961618 5.34821923 0
vt 0 34.4
v -35.0115888 2.87567377 0
vt -0.967 34.4
v -32.5806889 4.79756606 0
vt 0 34.5
v -34.0546982 2.30010805 0
vt -0.967 34.5
v -31.6561659 4.26224655 0
vt 0 34.6
v -33.0883481 1.74056971 0
vt -0.967 34.6
v -30.7228498 3.74240938 0
vt 0 34.7
v -32.1128071 1.19721417 0
vt -0.967 34.7
v -29.7809997 3.23819896 0
vt 0 34.8
v -31.128346 0.670192365 0
vt -0.967 34.8
v -28.8308773 2.74975535 0
vt 0 34.9
v -30.1352384 0.159650677 0
vt -0.967 34.9
v -27.8727466 2.27721421 0
vt 0 35
v -29.1337601 -0.334269077 0
vt -0.967 35
v -26.9068735 1.82070681 0
vt 0 35.1
v -28.1241892 -0.8114297 0
vt -0.967 35.1
v -25.9335266 1.38035995 0
vt 0 35.2
v -27.1068062 -1.27169865 0
vt -0.967 35.2
v -24.952976 0.956295944 0
vt 0 35.3
v -26.0818938 -1.71494808 0
vt -0.967 35.3
v -23.9654942 0.548632589 0
vt 0 35.4
v -25.0497365 -2.14105486 0
vt -0.967 35.4
v -22.9713555 0.157483121 0
vt 0 35.5
v -24.0106212 -2.54990064 0
vt -0.967 35.5
v -21.970836 -0.217043812 0
vt 0 35.6
v -22.9648364 -2.94137185 0
vt -0.967 35.6
v -20.9642136 -0.574844174 0
vt 0 35.7
v -21.9126726 -3.31535975 0
vt -0.967 35.7
v -19.951768 -0.915818581 0
vt 0 35.8
v -20.8544221 -3.67176045 0
vt -0.967 35.8
v -18.9337804 -1.23987232 0
vt 0 35.9
v -19.7903788 -4.01047497 0
vt -0.967 35.9
v -17.9105334 -1.54691537 0
vt 0 36
v -18.7208384 -4.33140921 0
vt -0.967 36
v -16.8823115 -1.83686246 0
vt 0 36.1
v -17.6460978 -4.63447402 0
vt -0.967 36.1
v -15.8494001 -2.10963304 0
vt 0 36.2
v -16.5664557 -4.91958523 0
vt -0.967 36.2
v -14.8120862 -2.36515134 0
vt 0 36.3
v -15.4822118 -5.18666365 0
vt -0.967 36.3
v -13.770658 -2.60334639 0
vt 0 36.4
v -14.3936675 -5.43563507 0
vt -0.967 36.4
v -12.7254046 -2.82415202 0
vt 0 36.5
v -13.301125 -5.66643035 0
vt -0.967 36.5
v -11.6766165 -3.0275069 0
vt 0 36.6
v -12.2048878 -5.87898538 0
vt -0.967 36.6
v -10.624585 -3.21335455 0
vt 0 36.7
v -11.1052604 -6.07324111 0
vt -0.967 36.7
v -9.56960226 -3.38164334 0
vt 0 36.8
v -10.0025484 -6.24914359 0
vt -0.967 36.8
v -8.51196136 -3.53232653 0
vt 0 36.9
v -8.89705789 -6.40664395 0
vt -0.967 36.9
v -7.45195608 -3.66536225 0
vt 0 37
v -7.78909606 -6.54569845 0
vt -0.967 37
v -6.38988086 -3.78071356 0
vt 0 37.1
v -6.67897064 -6.66626847 0
vt -0.967 37.1
v -5.32603072 -3.87834842 0
vt 0 37.2
v -5.56698999 -6.7683205 0
vt -0.967 37.2
v -4.26070116 -3.9582397 0
vt 0 37.3
v -4.45346299 -6.85182621 0
vt -0.967 37.3
v -3.1941881 -4.02036522 0
vt 0 37.4
v -3.33869895 -6.91676239 0
vt -0.967 37.4
v -2.12678778 -4.06470771 0
vt 0 37.5
v -2.22300751 -6.96311102 0
vt -0.967 37.5
v -1.0587967 -4.09125486 0
vt 0 37.6
v -1.10669858 -6.99085921 0
vt -0.967 37.6
v 0.00107901667 -4.09999999 0
vt 0 37.6992128
v 0.00112783333 -6.99999999 0
vt -0.967 37.6992128
mtllib Roads\3D_Road\Road_0faf324d-1ca1-41ca-9752-14fc08f50f0b_5.mtl
usemtl Road Transition (Light)
g g1
s 1
f  1/1 2/2 4/4 3/3
f  3/3 4/4 6/6 5/5
f  5/5 6/6 8/8 7/7
f  7/7 8/8 10/10 9/9
f  9/9 10/10 12/12 11/11
f  11/11 12/12 14/14 13/13
f  13/13 14/14 16/16 15/15
f  15/15 16/16 18/18 17/17
f  17/17 18/18 20/20 19/19
f  19/19 20/20 22/22 21/21
f  21/21 22/22 24/24 23/23
f  23/23 24/24 26/26 25/25
f  25/25 26/26 28/28 27/27
f  27/27 28/28 30/30 29/29
f  29/29 30/30 32/32 31/31
f  31/31 32/32 34/34 33/33
f  33/33 34/34 36/36 35/35
f  35/35 36/36 38/38 37/37
f  37/37 38/38 40/40 39/39
f  39/39 40/40 42/42 41/41
f  41/41 42/42 44/44 43/43
f  43/43 44/44 46/46 45/45
f  45/45 46/46 48/48 47/47
f  47/47 48/48 50/50 49/49
f  49/49 50/50 52/52 51/51
f  51/51 52/52 54/54 53/53
f  53/53 54/54 56/56 55/55
f  55/55 56/56 58/58 57/57
f  57/57 58/58 60/60 59/59
f  59/59 60/60 62/62 61/61
f  61/61 62/62 64/64 63/63
f  63/63 64/64 66/66 65/65
f  65/65 66/66 68/68 67/67
f  67/67 68/68 70/70 69/69
f  69/69 70/70 72/72 71/71
f  71/71 72/72 74/74 73/73
f  73/73 74/74 76/76 75/75
f  75/75 76/76 78/78 77/77
f  77/77 78/78 80/80 79/79
f  79/79 80/80 82/82 81/81
f  81/81 82/82 84/84 83/83
f  83/83 84/84 86/86 85/85
f  85/85 86/86 88/88 87/87
f  87/87 88/88 90/90 89/89
f  89/89 90/90 92/92 91/91
f  91/91 92/92 94/94 93/93
f  93/93 94/94 96/96 95/95
f  95/95 96/96 98/98 97/97
f  97/97 98/98 100/100 99/99
f  99/99 100/100 102/102 101/101
f  101/101 102/102 104/104 103/103
f  103/103 104/104 106/106 105/105
f  105/105 106/106 108/108 107/107
f  107/107 108/108 110/110 109/109
f  109/109 110/110 112/112 111/111
f  111/111 112/112 114/114 113/113
f  113/113 114/114 116/116 115/115
f  115/115 116/116 118/118 117/117
f  117/117 118/118 120/120 119/119
f  119/119 120/120 122/122 121/121
f  121/121 122/122 124/124 123/123
f  123/123 124/124 126/126 125/125
f  125/125 126/126 128/128 127/127
f  127/127 128/128 130/130 129/129
f  129/129 130/130 132/132 131/131
f  131/131 132/132 134/134 133/133
f  133/133 134/134 136/136 135/135
f  135/135 136/136 138/138 137/137
f  137/137 138/138 140/140 139/139
f  139/139 140/140 142/142 141/141
f  141/141 142/142 144/144 143/143
f  143/143 144/144 146/146 145/145
f  145/145 146/146 148/148 147/147
f  147/147 148/148 150/150 149/149
f  149/149 150/150 152/152 151/151
f  151/151 152/152 154/154 153/153
f  153/153 154/154 156/156 155/155
f  155/155 156/156 158/158 157/157
f  157/157 158/158 160/160 159/159
f  159/159 160/160 162/162 161/161
f  161/161 162/162 164/164 163/163
f  163/163 164/164 166/166 165/165
f  165/165 166/166 168/168 167/167
f  167/167 168/168 170/170 169/169
f  169/169 170/170 172/172 171/171
f  171/171 172/172 174/174 173/173
f  173/173 174/174 176/176 175/175
f  175/175 176/176 178/178 177/177
f  177/177 178/178 180/180 179/179
f  179/179 180/180 182/182 181/181
f  181/181 182/182 184/184 183/183
f  183/183 184/184 186/186 185/185
f  185/185 186/186 188/188 187/187
f  187/187 188/188 190/190 189/189
f  189/189 190/190 192/192 191/191
f  191/191 192/192 194/194 193/193
f  193/193 194/194 196/196 195/195
f  195/195 196/196 198/198 197/197
f  197/197 198/198 200/200 199/199
f  199/199 200/200 202/202 201/201
f  201/201 202/202 204/204 203/203
f  203/203 204/204 206/206 205/205
f  205/205 206/206 208/208 207/207
f  207/207 208/208 210/210 209/209
f  209/209 210/210 212/212 211/211
f  211/211 212/212 214/214 213/213
f  213/213 214/214 216/216 215/215
f  215/215 216/216 218/218 217/217
f  217/217 218/218 220/220 219/219
f  219/219 220/220 222/222 221/221
f  221/221 222/222 224/224 223/223
f  223/223 224/224 226/226 225/225
f  225/225 226/226 228/228 227/227
f  227/227 228/228 230/230 229/229
f  229/229 230/230 232/232 231/231
f  231/231 232/232 234/234 233/233
f  233/233 234/234 236/236 235/235
f  235/235 236/236 238/238 237/237
f  237/237 238/238 240/240 239/239
f  239/239 240/240 242/242 241/241
f  241/241 242/242 244/244 243/243
f  243/243 244/244 246/246 245/245
f  245/245 246/246 248/248 247/247
f  247/247 248/248 250/250 249/249
f  249/249 250/250 252/252 251/251
f  251/251 252/252 254/254 253/253
f  253/253 254/254 256/256 255/255
f  255/255 256/256 258/258 257/257
f  257/257 258/258 260/260 259/259
f  259/259 260/260 262/262 261/261
f  261/261 262/262 264/264 263/263
f  263/263 264/264 266/266 265/265
f  265/265 266/266 268/268 267/267
f  267/267 268/268 270/270 269/269
f  269/269 270/270 272/272 271/271
f  271/271 272/272 274/274 273/273
f  273/273 274/274 276/276 275/275
f  275/275 276/276 278/278 277/277
f  277/277 278/278 280/280 279/279
f  279/279 280/280 282/282 281/281
f  281/281 282/282 284/284 283/283
f  283/283 284/284 286/286 285/285
f  285/285 286/286 288/288 287/287
f  287/287 288/288 290/290 289/289
f  289/289 290/290 292/292 291/291
f  291/291 292/292 294/294 293/293
f  293/293 294/294 296/296 295/295
f  295/295 296/296 298/298 297/297
f  297/297 298/298 300/300 299/299
f  299/299 300/300 302/302 301/301
f  301/301 302/302 304/304 303/303
f  303/303 304/304 306/306 305/305
f  305/305 306/306 308/308 307/307
f  307/307 308/308 310/310 309/309
f  309/309 310/310 312/312 311/311
f  311/311 312/312 314/314 313/313
f  313/313 314/314 316/316 315/315
f  315/315 316/316 318/318 317/317
f  317/317 318/318 320/320 319/319
f  319/319 320/320 322/322 321/321
f  321/321 322/322 324/324 323/323
f  323/323 324/324 326/326 325/325
f  325/325 326/326 328/328 327/327
f  327/327 328/328 330/330 329/329
f  329/329 330/330 332/332 331/331
f  331/331 332/332 334/334 333/333
f  333/333 334/334 336/336 335/335
f  335/335 336/336 338/338 337/337
f  337/337 338/338 340/340 339/339
f  339/339 340/340 342/342 341/341
f  341/341 342/342 344/344 343/343
f  343/343 344/344 346/346 345/345
f  345/345 346/346 348/348 347/347
f  347/347 348/348 350/350 349/349
f  349/349 350/350 352/352 351/351
f  351/351 352/352 354/354 353/353
f  353/353 354/354 356/356 355/355
f  355/355 356/356 358/358 357/357
f  357/357 358/358 360/360 359/359
f  359/359 360/360 362/362 361/361
f  361/361 362/362 364/364 363/363
f  363/363 364/364 366/366 365/365
f  365/365 366/366 368/368 367/367
f  367/367 368/368 370/370 369/369
f  369/369 370/370 372/372 371/371
f  371/371 372/372 374/374 373/373
f  373/373 374/374 376/376 375/375
f  375/375 376/376 378/378 377/377
f  377/377 378/378 380/380 379/379
f  379/379 380/380 382/382 381/381
f  381/381 382/382 384/384 383/383
f  383/383 384/384 386/386 385/385
f  385/385 386/386 388/388 387/387
f  387/387 388/388 390/390 389/389
f  389/389 390/390 392/392 391/391
f  391/391 392/392 394/394 393/393
f  393/393 394/394 396/396 395/395
f  395/395 396/396 398/398 397/397
f  397/397 398/398 400/400 399/399
f  399/399 400/400 402/402 401/401
f  401/401 402/402 404/404 403/403
f  403/403 404/404 406/406 405/405
f  405/405 406/406 408/408 407/407
f  407/407 408/408 410/410 409/409
f  409/409 410/410 412/412 411/411
f  411/411 412/412 414/414 413/413
f  413/413 414/414 416/416 415/415
f  415/415 416/416 418/418 417/417
f  417/417 418/418 420/420 419/419
f  419/419 420/420 422/422 421/421
f  421/421 422/422 424/424 423/423
f  423/423 424/424 426/426 425/425
f  425/425 426/426 428/428 427/427
f  427/427 428/428 430/430 429/429
f  429/429 430/430 432/432 431/431
f  431/431 432/432 434/434 433/433
f  433/433 434/434 436/436 435/435
f  435/435 436/436 438/438 437/437
f  437/437 438/438 440/440 439/439
f  439/439 440/440 442/442 441/441
f  441/441 442/442 444/444 443/443
f  443/443 444/444 446/446 445/445
f  445/445 446/446 448/448 447/447
f  447/447 448/448 450/450 449/449
f  449/449 450/450 452/452 451/451
f  451/451 452/452 454/454 453/453
f  453/453 454/454 456/456 455/455
f  455/455 456/456 458/458 457/457
f  457/457 458/458 460/460 459/459
f  459/459 460/460 462/462 461/461
f  461/461 462/462 464/464 463/463
f  463/463 464/464 466/466 465/465
f  465/465 466/466 468/468 467/467
f  467/467 468/468 470/470 469/469
f  469/469 470/470 472/472 471/471
f  471/471 472/472 474/474 473/473
f  473/473 474/474 476/476 475/475
f  475/475 476/476 478/478 477/477
f  477/477 478/478 480/480 479/479
f  479/479 480/480 482/482 481/481
f  481/481 482/482 484/484 483/483
f  483/483 484/484 486/486 485/485
f  485/485 486/486 488/488 487/487
f  487/487 488/488 490/490 489/489
f  489/489 490/490 492/492 491/491
f  491/491 492/492 494/494 493/493
f  493/493 494/494 496/496 495/495
f  495/495 496/496 498/498 497/497
f  497/497 498/498 500/500 499/499
f  499/499 500/500 502/502 501/501
f  501/501 502/502 504/504 503/503
f  503/503 504/504 506/506 505/505
f  505/505 506/506 508/508 507/507
f  507/507 508/508 510/510 509/509
f  509/509 510/510 512/512 511/511
f  511/511 512/512 514/514 513/513
f  513/513 514/514 516/516 515/515
f  515/515 516/516 518/518 517/517
f  517/517 518/518 520/520 519/519
f  519/519 520/520 522/522 521/521
f  521/521 522/522 524/524 523/523
f  523/523 524/524 526/526 525/525
f  525/525 526/526 528/528 527/527
f  527/527 528/528 530/530 529/529
f  529/529 530/530 532/532 531/531
f  531/531 532/532 534/534 533/533
f  533/533 534/534 536/536 535/535
f  535/535 536/536 538/538 537/537
f  537/537 538/538 540/540 539/539
f  539/539 540/540 542/542 541/541
f  541/541 542/542 544/544 543/543
f  543/543 544/544 546/546 545/545
f  545/545 546/546 548/548 547/547
f  547/547 548/548 550/550 549/549
f  549/549 550/550 552/552 551/551
f  551/551 552/552 554/554 553/553
f  553/553 554/554 556/556 555/555
f  555/555 556/556 558/558 557/557
f  557/557 558/558 560/560 559/559
f  559/559 560/560 562/562 561/561
f  561/561 562/562 564/564 563/563
f  563/563 564/564 566/566 565/565
f  565/565 566/566 568/568 567/567
f  567/567 568/568 570/570 569/569
f  569/569 570/570 572/572 571/571
f  571/571 572/572 574/574 573/573
f  573/573 574/574 576/576 575/575
f  575/575 576/576 578/578 577/577
f  577/577 578/578 580/580 579/579
f  579/579 580/580 582/582 581/581
f  581/581 582/582 584/584 583/583
f  583/583 584/584 586/586 585/585
f  585/585 586/586 588/588 587/587
f  587/587 588/588 590/590 589/589
f  589/589 590/590 592/592 591/591
f  591/591 592/592 594/594 593/593
f  593/593 594/594 596/596 595/595
f  595/595 596/596 598/598 597/597
f  597/597 598/598 600/600 599/599
f  599/599 600/600 602/602 601/601
f  601/601 602/602 604/604 603/603
f  603/603 604/604 606/606 605/605
f  605/605 606/606 608/608 607/607
f  607/607 608/608 610/610 609/609
f  609/609 610/610 612/612 611/611
f  611/611 612/612 614/614 613/613
f  613/613 614/614 616/616 615/615
f  615/615 616/616 618/618 617/617
f  617/617 618/618 620/620 619/619
f  619/619 620/620 622/622 621/621
f  621/621 622/622 624/624 623/623
f  623/623 624/624 626/626 625/625
f  625/625 626/626 628/628 627/627
f  627/627 628/628 630/630 629/629
f  629/629 630/630 632/632 631/631
f  631/631 632/632 634/634 633/633
f  633/633 634/634 636/636 635/635
f  635/635 636/636 638/638 637/637
f  637/637 638/638 640/640 639/639
f  639/639 640/640 642/642 641/641
f  641/641 642/642 644/644 643/643
f  643/643 644/644 646/646 645/645
f  645/645 646/646 648/648 647/647
f  647/647 648/648 650/650 649/649
f  649/649 650/650 652/652 651/651
f  651/651 652/652 654/654 653/653
f  653/653 654/654 656/656 655/655
f  655/655 656/656 658/658 657/657
f  657/657 658/658 660/660 659/659
f  659/659 660/660 662/662 661/661
f  661/661 662/662 664/664 663/663
f  663/663 664/664 666/666 665/665
f  665/665 666/666 668/668 667/667
f  667/667 668/668 670/670 669/669
f  669/669 670/670 672/672 671/671
f  671/671 672/672 674/674 673/673
f  673/673 674/674 676/676 675/675
f  675/675 676/676 678/678 677/677
f  677/677 678/678 680/680 679/679
f  679/679 680/680 682/682 681/681
f  681/681 682/682 684/684 683/683
f  683/683 684/684 686/686 685/685
f  685/685 686/686 688/688 687/687
f  687/687 688/688 690/690 689/689
f  689/689 690/690 692/692 691/691
f  691/691 692/692 694/694 693/693
f  693/693 694/694 696/696 695/695
f  695/695 696/696 698/698 697/697
f  697/697 698/698 700/700 699/699
f  699/699 700/700 702/702 701/701
f  701/701 702/702 704/704 703/703
f  703/703 704/704 706/706 705/705
f  705/705 706/706 708/708 707/707
f  707/707 708/708 710/710 709/709
f  709/709 710/710 712/712 711/711
f  711/711 712/712 714/714 713/713
f  713/713 714/714 716/716 715/715
f  715/715 716/716 718/718 717/717
f  717/717 718/718 720/720 719/719
f  719/719 720/720 722/722 721/721
f  721/721 722/722 724/724 723/723
f  723/723 724/724 726/726 725/725
f  725/725 726/726 728/728 727/727
f  727/727 728/728 730/730 729/729
f  729/729 730/730 732/732 731/731
f  731/731 732/732 734/734 733/733
f  733/733 734/734 736/736 735/735
f  735/735 736/736 738/738 737/737
f  737/737 738/738 740/740 739/739
f  739/739 740/740 742/742 741/741
f  741/741 742/742 744/744 743/743
f  743/743 744/744 746/746 745/745
f  745/745 746/746 748/748 747/747
f  747/747 748/748 750/750 749/749
f  749/749 750/750 752/752 751/751
f  751/751 752/752 754/754 753/753
f  753/753 754/754 756/756 755/755
g g2
s 2
g g3
s 3
g g4
s 4
