# Shape file for lane 1
v -400 4 0
vt 0 0
v -400 -4 0
vt 1 0
v -100 4 0
vt 0 30
v -100 -4 0
vt 1 30
v -95.2019998 4.119975 0
vt 0 30.5
v -94.8021664 -3.87002708 0
vt 1 30.5
v -90.415992 4.47960013 0
vt 0 31
v -89.6173247 -3.48043319 0
vt 1 31
v -85.6539393 5.07797652 0
vt 0 31.5
v -84.4584342 -2.83219211 0
vt 1 31.5
v -80.9277442 5.91360853 0
vt 0 32
v -79.3383896 -1.9269241 0
vt 1 32
v -76.2492199 6.98440752 0
vt 0 32.5
v -74.2699882 -0.766891858 0
vt 1 32.5
v -71.6300602 8.28769704 0
vt 0 33
v -69.2658985 0.645005131 0
vt 1 33
v -67.0818105 9.82021957 0
vt 0 33.5
v -64.338628 2.30523786 0
vt 1 33.5
v -62.6158391 11.5781446 0
vt 0 34
v -59.5004924 4.20965662 0
vt 1 34
v -58.2433087 13.5570782 0
vt 0 34.5
v -54.7635845 6.35350136 0
vt 1 34.5
v -53.9751483 15.7520741 0
vt 0 35
v -50.139744 8.73141356 0
vt 1 35
v -49.822026 18.1576459 0
vt 0 35.5
v -45.6405282 11.3374497 0
vt 1 35.5
v -45.7943226 20.767781 0
vt 0 36
v -41.2771828 14.165096 0
vt 1 36
v -41.902105 23.5759553 0
vt 0 36.5
v -37.0606138 17.207285 0
vt 1 36.5
v -38.155102 26.57515 0
vt 0 37
v -33.0013605 20.4564125 0
vt 1 37
v -34.562679 29.7578686 0
vt 0 37.5
v -29.109569 23.9043576 0
vt 1 37.5
v -31.1338153 33.1161559 0
vt 0 38
v -25.3949665 27.5425022 0
vt 1 38
v -27.8770811 36.641618 0
vt 0 38.5
v -21.8668379 31.3617528 0
vt 1 38.5
v -24.8006167 40.325443 0
vt 0 39
v -18.5340014 35.3525633 0
vt 1 39
v -21.9121115 44.1584234 0
vt 0 39.5
v -15.4047875 39.5049587 0
vt 1 39.5
v -19.2187855 48.1309786 0
vt 0 40
v -12.4870176 43.8085602 0
vt 1 40
v -16.7273703 52.2331794 0
vt 0 40.5
v -9.78798454 48.252611 0
vt 1 40.5
v -14.4440934 56.4547723 0
vt 0 41
v -7.31443455 52.8260034 0
vt 1 41
v -12.3746617 60.7852057 0
vt 0 41.5
v -5.07255021 57.5173061 0
vt 1 41.5
v -10.5242477 65.2136556 0
vt 0 42
v -3.06793506 62.3147935 0
vt 1 42
v -8.89747654 69.7290532 0
vt 0 42.5
v -1.30559959 67.2064743 0
vt 1 42.5
v -7.4984142 74.3201125 0
vt 0 43
v 0.210051283 72.1801218 0
vt 1 43
v -6.33055765 78.975358 0
vt 0 43.5
v 1.47522921 77.2233045 0
vt 1 43.5
v -5.39682592 83.6831543 0
vt 0 44
v 2.48677192 82.3234171 0
vt 1 44
v -4.69955286 88.4317341 0
vt 0 44.5
v 3.24215107 87.467712 0
vt 1 44.5
v -4.24048129 93.2092286 0
vt 0 45
v 3.73947861 92.643331 0
vt 1 45
v -4.02075864 98.0036965 0
vt 0 45.5
v 3.97751148 97.8373379 0
vt 1 45.5
v -4 102.920367 0
vt 0 46
v 4 102.920367 0
vt 1 46
v -4 942.920377 0
vt 0 130.000001
v 4 942.920377 0
vt 1 130.000001
mtllib Roads\3D_Road\Road_da4c0f36-c2f3-4d28-9ec7-163a8275a787_1.mtl
usemtl Road (One Lane)
g g1
s 1
f  1/1 2/2 4/4 3/3
f  3/3 4/4 6/6 5/5
f  5/5 6/6 8/8 7/7
f  7/7 8/8 10/10 9/9
f  9/9 10/10 12/12 11/11
f  11/11 12/12 14/14 13/13
f  13/13 14/14 16/16 15/15
f  15/15 16/16 18/18 17/17
f  17/17 18/18 20/20 19/19
f  19/19 20/20 22/22 21/21
f  21/21 22/22 24/24 23/23
f  23/23 24/24 26/26 25/25
f  25/25 26/26 28/28 27/27
f  27/27 28/28 30/30 29/29
f  29/29 30/30 32/32 31/31
f  31/31 32/32 34/34 33/33
f  33/33 34/34 36/36 35/35
f  35/35 36/36 38/38 37/37
f  37/37 38/38 40/40 39/39
f  39/39 40/40 42/42 41/41
f  41/41 42/42 44/44 43/43
f  43/43 44/44 46/46 45/45
f  45/45 46/46 48/48 47/47
f  47/47 48/48 50/50 49/49
f  49/49 50/50 52/52 51/51
f  51/51 52/52 54/54 53/53
f  53/53 54/54 56/56 55/55
f  55/55 56/56 58/58 57/57
f  57/57 58/58 60/60 59/59
f  59/59 60/60 62/62 61/61
f  61/61 62/62 64/64 63/63
f  63/63 64/64 66/66 65/65
f  65/65 66/66 68/68 67/67
f  67/67 68/68 70/70 69/69
g g2
s 2
g g3
s 3
g g4
s 4
