# Shape file for lane 2
v -400 7.1 0
vt 0 0
v -400 4 0
vt 1 0
v -100 7.1 0
vt 0 30
v -100 4 0
vt 1 30
v -95.3569352 7.21610081 0
vt 0 30.5
v -95.2019998 4.119975 0
vt 1 30.5
v -90.7254756 7.56411305 0
vt 0 31
v -90.415992 4.47960013 0
vt 1 31
v -86.1171975 8.14316686 0
vt 0 31.5
v -85.6539393 5.07797652 0
vt 1 31.5
v -81.5436192 8.95181492 0
vt 0 32
v -80.9277442 5.91360853 0
vt 1 32
v -77.0161722 9.98803602 0
vt 0 32.5
v -76.2492199 6.98440752 0
vt 1 32.5
v -72.5461728 11.2492402 0
vt 0 33
v -71.6300602 8.28769704 0
vt 1 33
v -68.1447937 12.732275 0
vt 0 33.5
v -67.0818105 9.82021957 0
vt 1 33.5
v -63.823036 14.4334337 0
vt 0 34
v -62.6158391 11.5781446 0
vt 1 34
v -59.5917019 16.3484642 0
vt 0 34.5
v -58.2433087 13.5570782 0
vt 1 34.5
v -55.4613675 18.47258 0
vt 0 35
v -53.9751483 15.7520741 0
vt 1 35
v -51.4423564 20.8004719 0
vt 0 35.5
v -49.822026 18.1576459 0
vt 1 35.5
v -47.5447142 23.3263214 0
vt 0 36
v -45.7943226 20.767781 0
vt 1 36
v -43.7781829 26.0438151 0
vt 0 36.5
v -41.902105 23.5759553 0
vt 1 36.5
v -40.1521769 28.9461608 0
vt 0 37
v -38.155102 26.57515 0
vt 1 37
v -36.6757592 32.0261041 0
vt 0 37.5
v -34.562679 29.7578686 0
vt 1 37.5
v -33.3576192 35.2759467 0
vt 0 38
v -31.1338153 33.1161559 0
vt 1 38
v -30.2060504 38.6875657 0
vt 0 38.5
v -27.8770811 36.641618 0
vt 1 38.5
v -27.2289301 42.2524339 0
vt 0 39
v -24.8006167 40.325443 0
vt 1 39
v -24.4336996 45.961641 0
vt 0 39.5
v -21.9121115 44.1584234 0
vt 1 39.5
v -21.8273455 49.8059158 0
vt 0 40
v -19.2187855 48.1309786 0
vt 1 40
v -19.4163823 53.7756497 0
vt 0 40.5
v -16.7273703 52.2331794 0
vt 1 40.5
v -17.2068363 57.8609203 0
vt 0 41
v -14.4440934 56.4547723 0
vt 1 41
v -15.2042299 62.0515167 0
vt 0 41.5
v -12.3746617 60.7852057 0
vt 1 41.5
v -13.4135689 66.3369646 0
vt 0 42
v -10.5242477 65.2136556 0
vt 1 42
v -11.8393289 70.7065525 0
vt 0 42.5
v -8.89747654 69.7290532 0
vt 1 42.5
v -10.4854446 75.1493588 0
vt 0 43
v -7.4984142 74.3201125 0
vt 1 43
v -9.35530006 79.6542788 0
vt 0 43.5
v -6.33055765 78.975358 0
vt 1 43.5
v -8.45172008 84.2100524 0
vt 0 44
v -5.39682592 83.6831543 0
vt 1 44
v -7.77696313 88.8052927 0
vt 0 44.5
v -4.69955286 88.4317341 0
vt 1 44.5
v -7.33271574 93.428514 0
vt 0 45
v -4.24048129 93.2092286 0
vt 1 45
v -7.12008831 98.0681605 0
vt 0 45.5
v -4.02075864 98.0036965 0
vt 1 45.5
v -7.1 102.920367 0
vt 0 46
v -4 102.920367 0
vt 1 46
v -7.1 942.920377 0
vt 0 130.000001
v -4 942.920377 0
vt 1 130.000001
mtllib Roads\3D_Road\Road_da4c0f36-c2f3-4d28-9ec7-163a8275a787_2.mtl
usemtl Road Transition (Light)
g g1
s 1
f  1/1 2/2 4/4 3/3
f  3/3 4/4 6/6 5/5
f  5/5 6/6 8/8 7/7
f  7/7 8/8 10/10 9/9
f  9/9 10/10 12/12 11/11
f  11/11 12/12 14/14 13/13
f  13/13 14/14 16/16 15/15
f  15/15 16/16 18/18 17/17
f  17/17 18/18 20/20 19/19
f  19/19 20/20 22/22 21/21
f  21/21 22/22 24/24 23/23
f  23/23 24/24 26/26 25/25
f  25/25 26/26 28/28 27/27
f  27/27 28/28 30/30 29/29
f  29/29 30/30 32/32 31/31
f  31/31 32/32 34/34 33/33
f  33/33 34/34 36/36 35/35
f  35/35 36/36 38/38 37/37
f  37/37 38/38 40/40 39/39
f  39/39 40/40 42/42 41/41
f  41/41 42/42 44/44 43/43
f  43/43 44/44 46/46 45/45
f  45/45 46/46 48/48 47/47
f  47/47 48/48 50/50 49/49
f  49/49 50/50 52/52 51/51
f  51/51 52/52 54/54 53/53
f  53/53 54/54 56/56 55/55
f  55/55 56/56 58/58 57/57
f  57/57 58/58 60/60 59/59
f  59/59 60/60 62/62 61/61
f  61/61 62/62 64/64 63/63
f  63/63 64/64 66/66 65/65
f  65/65 66/66 68/68 67/67
f  67/67 68/68 70/70 69/69
g g2
s 2
g g3
s 3
g g4
s 4
