# Shape file for lane 3
v 0 -7 0
vt 0 0
v 0 -50 0
vt 4 0
v 1.11661497 -6.99069466 0
vt 0 0.1
v 1.83324846 -49.9847226 0
vt 4 0.1
v 2.23291978 -6.96278122 0
vt 0 0.2
v 3.66598769 -49.9388945 0
vt 4 0.2
v 3.34860434 -6.91626745 0
vt 0 0.3
v 5.49770862 -49.8625286 0
vt 4 0.3
v 4.46335876 -6.85116625 0
vt 0 0.4
v 7.32790244 -49.7556461 0
vt 4 0.4
v 5.57687339 -6.76749571 0
vt 0 0.5
v 9.15606078 -49.6182765 0
vt 4 0.5
v 6.68883892 -6.66527907 0
vt 0 0.6
v 10.9816758 -49.4504582 0
vt 4 0.6
v 7.79894648 -6.54454473 0
vt 0 0.7
v 12.8042405 -49.2522376 0
vt 4 0.7
v 8.90688772 -6.40532623 0
vt 0 0.8
v 14.6232485 -49.0236699 0
vt 4 0.8
v 10.0123549 -6.24766222 0
vt 0 0.9
v 16.4381946 -48.7648186 0
vt 4 0.9
v 11.1150409 -6.07159651 0
vt 0 1
v 18.2485746 -48.4757555 0
vt 4 1
v 12.2146395 -5.87717801 0
vt 0 1.1
v 20.0538857 -48.1565609 0
vt 4 1.1
v 13.3108452 -5.66446072 0
vt 0 1.2
v 21.8536264 -47.8073236 0
vt 4 1.2
v 14.4033535 -5.43350371 0
vt 0 1.3
v 23.6472968 -47.4281404 0
vt 4 1.3
v 15.491861 -5.18437116 0
vt 0 1.4
v 25.4343986 -47.0191168 0
vt 4 1.4
v 16.5760653 -4.91713225 0
vt 0 1.5
v 27.2144355 -46.5803664 0
vt 4 1.5
v 17.6556652 -4.63186123 0
vt 0 1.6
v 28.986913 -46.112011 0
vt 4 1.6
v 18.7303609 -4.32863733 0
vt 0 1.7
v 30.7513388 -45.6141807 0
vt 4 1.7
v 19.7998538 -4.00754477 0
vt 0 1.8
v 32.5072227 -45.0870138 0
vt 4 1.8
v 20.863847 -3.66867275 0
vt 0 1.9
v 34.2540771 -44.5306568 0
vt 4 1.9
v 21.9220447 -3.3121154 0
vt 0 2
v 35.9914166 -43.9452641 0
vt 4 2
v 22.9741531 -2.93797176 0
vt 0 2.1
v 37.7187588 -43.3309984 0
vt 4 2.1
v 24.01988 -2.54634575 0
vt 0 2.2
v 39.4356238 -42.6880303 0
vt 4 2.2
v 25.0589348 -2.13734616 0
vt 0 2.3
v 41.1415347 -42.0165385 0
vt 4 2.3
v 26.0910289 -1.7110866 0
vt 0 2.4
v 42.8360177 -41.3167093 0
vt 4 2.4
v 27.1158758 -1.26768546 0
vt 0 2.5
v 44.518602 -40.5887373 0
vt 4 2.5
v 28.1331906 -0.807265918 0
vt 0 2.6
v 46.1888203 -39.8328246 0
vt 4 2.6
v 29.1426908 -0.329955858 0
vt 0 2.7
v 47.8462088 -39.0491813 0
vt 4 2.7
v 30.144096 0.164112136 0
vt 0 2.8
v 49.4903069 -38.2380249 0
vt 4 2.8
v 31.137128 0.674800824 0
vt 0 2.9
v 51.120658 -37.3995807 0
vt 4 2.9
v 32.1215111 1.20196835 0
vt 0 3
v 52.7368092 -36.5340818 0
vt 4 3
v 33.0969717 1.74546829 0
vt 0 3.1
v 54.3383117 -35.6417685 0
vt 4 3.1
v 34.0632389 2.30514967 0
vt 0 3.2
v 55.9247206 -34.7228886 0
vt 4 3.2
v 35.0200443 2.88085702 0
vt 0 3.3
v 57.4955952 -33.7776974 0
vt 4 3.3
v 35.9671222 3.47243044 0
vt 0 3.4
v 59.0504991 -32.8064575 0
vt 4 3.4
v 36.9042094 4.07970559 0
vt 0 3.5
v 60.5890005 -31.8094386 0
vt 4 3.5
v 37.8310457 4.7025138 0
vt 0 3.6
v 62.1106721 -30.7869176 0
vt 4 3.6
v 38.7473736 5.34068207 0
vt 0 3.7
v 63.615091 -29.7391787 0
vt 4 3.7
v 39.6529386 5.99403313 0
vt 0 3.8
v 65.1018395 -28.6665128 0
vt 4 3.8
v 40.5474892 6.6623855 0
vt 0 3.9
v 66.5705046 -27.5692178 0
vt 4 3.9
v 41.4307768 7.34555353 0
vt 0 4
v 68.0206783 -26.4475987 0
vt 4 4
v 42.3025561 8.04334746 0
vt 0 4.1
v 69.4519578 -25.3019669 0
vt 4 4.1
v 43.162585 8.75557345 0
vt 0 4.2
v 70.8639456 -24.1326406 0
vt 4 4.2
v 44.0106246 9.48203368 0
vt 0 4.3
v 72.2562494 -22.9399447 0
vt 4 4.3
v 44.8464393 10.2225264 0
vt 0 4.4
v 73.6284824 -21.7242105 0
vt 4 4.4
v 45.6697969 10.9768458 0
vt 0 4.5
v 74.9802636 -20.4857756 0
vt 4 4.5
v 46.4804688 11.7447824 0
vt 0 4.6
v 76.3112174 -19.224984 0
vt 4 4.6
v 47.2782297 12.526123 0
vt 0 4.7
v 77.6209741 -17.9421861 0
vt 4 4.7
v 48.0628581 13.3206505 0
vt 0 4.8
v 78.90917 -16.637738 0
vt 4 4.8
v 48.834136 14.1281441 0
vt 0 4.9
v 80.1754471 -15.3120022 0
vt 4 4.9
v 49.5918492 14.9483796 0
vt 0 5
v 81.4194539 -13.9653468 0
vt 4 5
v 50.3357871 15.7811292 0
vt 0 5.1
v 82.6408446 -12.598146 0
vt 4 5.1
v 51.0657433 16.6261615 0
vt 0 5.2
v 83.83928 -11.2107796 0
vt 4 5.2
v 51.7815148 17.4832419 0
vt 0 5.3
v 85.0144273 -9.80363276 0
vt 4 5.3
v 52.4829029 18.3521321 0
vt 0 5.4
v 86.1659601 -8.37709651 0
vt 4 5.4
v 53.1697128 19.232591 0
vt 0 5.5
v 87.2935584 -6.93156706 0
vt 4 5.5
v 53.8417537 20.1243738 0
vt 0 5.6
v 88.396909 -5.46744594 0
vt 4 5.6
v 54.4988388 21.027233 0
vt 0 5.7
v 89.4757055 -3.98513984 0
vt 4 5.7
v 55.1407858 21.9409177 0
vt 0 5.8
v 90.5296483 -2.4850605 0
vt 4 5.8
v 55.7674162 22.8651741 0
vt 0 5.9
v 91.5584445 -0.967624603 0
vt 4 5.9
v 56.378556 23.7997455 0
vt 0 6
v 92.5618083 0.566746355 0
vt 4 6
v 56.9740355 24.7443723 0
vt 0 6.1
v 93.5394612 2.11762617 0
vt 4 6.1
v 57.5536892 25.6987921 0
vt 0 6.2
v 94.4911315 3.68458405 0
vt 4 6.2
v 58.1173561 26.6627398 0
vt 0 6.3
v 95.4165548 5.26718473 0
vt 4 6.3
v 58.6648797 27.6359476 0
vt 0 6.4
v 96.3154742 6.86498863 0
vt 4 6.4
v 59.1961079 28.6181453 0
vt 0 6.5
v 97.1876399 8.4775519 0
vt 4 6.5
v 59.7108931 29.6090599 0
vt 0 6.6
v 98.0328096 10.1044266 0
vt 4 6.6
v 60.2090924 30.6084162 0
vt 0 6.7
v 98.8507486 11.7451609 0
vt 4 6.7
v 60.6905672 31.6159367 0
vt 0 6.8
v 99.6412298 13.3992991 0
vt 4 6.8
v 61.155184 32.6313415 0
vt 0 6.9
v 100.404033 15.0663815 0
vt 4 6.9
v 61.6028136 33.6543485 0
vt 0 7
v 101.138948 16.7459452 0
vt 4 7
v 62.0333317 34.6846735 0
vt 0 7.1
v 101.845769 18.4375237 0
vt 4 7.1
v 62.4466188 35.7220305 0
vt 0 7.2
v 102.524299 20.140647 0
vt 4 7.2
v 62.8425599 36.7661311 0
vt 0 7.3
v 103.174352 21.8548421 0
vt 4 7.3
v 63.2210452 37.8166855 0
vt 0 7.4
v 103.795746 23.5796329 0
vt 4 7.4
v 63.5819695 38.8734017 0
vt 0 7.5
v 104.388308 25.3145401 0
vt 4 7.5
v 63.9252325 39.9359863 0
vt 0 7.6
v 104.951874 27.059082 0
vt 4 7.6
v 64.250739 41.0041442 0
vt 0 7.7
v 105.486288 28.812774 0
vt 4 7.7
v 64.5583984 42.0775785 0
vt 0 7.8
v 105.9914 30.5751289 0
vt 4 7.8
v 64.8481254 43.1559911 0
vt 0 7.9
v 106.467072 32.3456571 0
vt 4 7.9
v 65.1198394 44.2390826 0
vt 0 8
v 106.913169 34.1238669 0
vt 4 8
v 65.373465 45.326552 0
vt 0 8.1
v 107.329569 35.9092644 0
vt 4 8.1
v 65.6089317 46.4180972 0
vt 0 8.2
v 107.716156 37.7013536 0
vt 4 8.2
v 65.8261741 47.5134151 0
vt 0 8.3
v 108.072823 39.4996367 0
vt 4 8.3
v 66.0251319 48.6122014 0
vt 0 8.4
v 108.39947 41.3036143 0
vt 4 8.4
v 66.2057498 49.7141509 0
vt 0 8.5
v 108.696007 43.1127851 0
vt 4 8.5
v 66.3679777 50.8189576 0
vt 0 8.6
v 108.962351 44.9266468 0
vt 4 8.6
v 66.5117704 51.9263145 0
vt 0 8.7
v 109.198429 46.7446954 0
vt 4 8.7
v 66.6370881 53.035914 0
vt 0 8.8
v 109.404174 48.5664259 0
vt 4 8.8
v 66.7438959 54.1474479 0
vt 0 8.9
v 109.579531 50.3913324 0
vt 4 8.9
v 66.8321641 55.2606075 0
vt 0 9
v 109.724449 52.2189078 0
vt 4 9
v 66.9018683 56.3750836 0
vt 0 9.1
v 109.838888 54.0486446 0
vt 4 9.1
v 66.9529891 57.4905665 0
vt 0 9.2
v 109.922818 55.8800346 0
vt 4 9.2
v 66.9855122 58.6067465 0
vt 0 9.3
v 109.976214 57.7125689 0
vt 4 9.3
v 66.9994287 59.7233136 0
vt 0 9.4
v 109.999062 59.5457387 0
vt 4 9.4
v 66.9947347 60.8399574 0
vt 0 9.5
v 109.991355 61.3790346 0
vt 4 9.5
v 66.9714314 61.956368 0
vt 0 9.6
v 109.953096 63.2119475 0
vt 4 9.6
v 66.9295254 63.0722351 0
vt 0 9.7
v 109.884295 65.0439681 0
vt 4 9.7
v 66.8690283 64.1872489 0
vt 0 9.8
v 109.784972 66.8745877 0
vt 4 9.8
v 66.7899569 65.3010996 0
vt 0 9.9
v 109.655153 68.7032978 0
vt 4 9.9
v 66.6923332 66.4134777 0
vt 0 10
v 109.494875 70.5295903 0
vt 4 10
v 66.5761842 67.5240744 0
vt 0 10.1
v 109.304183 72.352958 0
vt 4 10.1
v 66.4415423 68.6325811 0
vt 0 10.2
v 109.083129 74.1728944 0
vt 4 10.2
v 66.2884448 69.7386899 0
vt 0 10.3
v 108.831775 75.9888939 0
vt 4 10.3
v 66.1169343 70.8420936 0
vt 0 10.4
v 108.550191 77.8004523 0
vt 4 10.4
v 65.9270584 71.9424857 0
vt 0 10.5
v 108.238454 79.6070661 0
vt 4 10.5
v 65.7188699 73.0395605 0
vt 0 10.6
v 107.896652 81.4082337 0
vt 4 10.6
v 65.4924265 74.1330133 0
vt 0 10.7
v 107.524879 83.2034547 0
vt 4 10.7
v 65.2477913 75.2225403 0
vt 0 10.8
v 107.123239 84.9922304 0
vt 4 10.8
v 64.985032 76.307839 0
vt 0 10.9
v 106.691844 86.774064 0
vt 4 10.9
v 64.7042218 77.3886078 0
vt 0 11
v 106.230812 88.5484606 0
vt 4 11
v 64.4054386 78.4645465 0
vt 0 11.1
v 105.740272 90.3149272 0
vt 4 11.1
v 64.0887654 79.5353564 0
vt 0 11.2
v 105.220361 92.0729731 0
vt 4 11.2
v 63.7542902 80.6007398 0
vt 0 11.3
v 104.671223 93.8221101 0
vt 4 11.3
v 63.4021059 81.660401 0
vt 0 11.4
v 104.09301 95.5618524 0
vt 4 11.4
v 63.0323103 82.7140455 0
vt 0 11.5
v 103.485883 97.2917165 0
vt 4 11.5
v 62.6450061 83.7613807 0
vt 0 11.6
v 102.85001 99.0112221 0
vt 4 11.6
v 62.2403009 84.8021157 0
vt 0 11.7
v 102.185569 100.719891 0
vt 4 11.7
v 61.8183072 85.8359614 0
vt 0 11.8
v 101.492743 102.41725 0
vt 4 11.8
v 61.3791421 86.8626305 0
vt 0 11.9
v 100.771726 104.102826 0
vt 4 11.9
v 60.9229276 87.881838 0
vt 0 12
v 100.022717 105.776152 0
vt 4 12
v 60.4497905 88.8933008 0
vt 0 12.1
v 99.2459247 107.436762 0
vt 4 12.1
v 59.9598622 89.8967378 0
vt 0 12.2
v 98.4415647 109.084196 0
vt 4 12.2
v 59.4532787 90.8918703 0
vt 0 12.3
v 97.6098605 110.717996 0
vt 4 12.3
v 58.9301808 91.878422 0
vt 0 12.4
v 96.7510431 112.337708 0
vt 4 12.4
v 58.3907138 92.8561187 0
vt 0 12.5
v 95.8653511 113.942882 0
vt 4 12.5
v 57.8350276 93.824689 0
vt 0 12.6
v 94.9530303 115.533072 0
vt 4 12.6
v 57.2632764 94.7838637 0
vt 0 12.7
v 94.0143344 117.107836 0
vt 4 12.7
v 56.6756191 95.7333765 0
vt 0 12.8
v 93.0495239 118.666738 0
vt 4 12.8
v 56.072219 96.6729636 0
vt 0 12.9
v 92.058867 120.209343 0
vt 4 12.9
v 55.4532436 97.602364 0
vt 0 13
v 91.0426387 121.735224 0
vt 4 13
v 54.8188649 98.5213195 0
vt 0 13.1
v 90.0011214 123.243957 0
vt 4 13.1
v 54.1692591 99.4295749 0
vt 0 13.2
v 88.9346044 124.735123 0
vt 4 13.2
v 53.5046066 100.326878 0
vt 0 13.3
v 87.8433839 126.208307 0
vt 4 13.3
v 52.825092 101.212979 0
vt 0 13.4
v 86.727763 127.6631 0
vt 4 13.4
v 52.1309042 102.087633 0
vt 0 13.5
v 85.5880517 129.099098 0
vt 4 13.5
v 51.4222359 102.950596 0
vt 0 13.6
v 84.4245664 130.515903 0
vt 4 13.6
v 50.699284 103.801628 0
vt 0 13.7
v 83.2376304 131.91312 0
vt 4 13.7
v 49.9622492 104.640493 0
vt 0 13.8
v 82.0275733 133.290362 0
vt 4 13.8
v 49.2113364 105.466959 0
vt 0 13.9
v 80.7947314 134.647246 0
vt 4 13.9
v 48.4467541 106.280795 0
vt 0 14
v 79.539447 135.983395 0
vt 4 14
v 47.6687146 107.081776 0
vt 0 14.1
v 78.2620688 137.298438 0
vt 4 14.1
v 46.8774342 107.869679 0
vt 0 14.2
v 76.9629517 138.59201 0
vt 4 14.2
v 46.0731325 108.644285 0
vt 0 14.3
v 75.6424564 139.863751 0
vt 4 14.3
v 45.2560331 109.405379 0
vt 0 14.4
v 74.3009499 141.113309 0
vt 4 14.4
v 44.4263628 110.15275 0
vt 0 14.5
v 72.9388046 142.340335 0
vt 4 14.5
v 43.5843522 110.886189 0
vt 0 14.6
v 71.5563991 143.54449 0
vt 4 14.6
v 42.730235 111.605494 0
vt 0 14.7
v 70.1541172 144.725438 0
vt 4 14.7
v 41.8642487 112.310464 0
vt 0 14.8
v 68.7323486 145.882852 0
vt 4 14.8
v 40.9866336 113.000904 0
vt 0 14.9
v 67.291488 147.01641 0
vt 4 14.9
v 40.0976337 113.676622 0
vt 0 15
v 65.8319359 148.125798 0
vt 4 15
v 39.1974957 114.33743 0
vt 0 15.1
v 64.3540974 149.210706 0
vt 4 15.1
v 38.2864698 114.983145 0
vt 0 15.2
v 62.8583833 150.270835 0
vt 4 15.2
v 37.3648091 115.613587 0
vt 0 15.3
v 61.3452089 151.305889 0
vt 4 15.3
v 36.4327694 116.228581 0
vt 0 15.4
v 59.8149946 152.315581 0
vt 4 15.4
v 35.4906098 116.827956 0
vt 0 15.5
v 58.2681654 153.29963 0
vt 4 15.5
v 34.5385919 117.411546 0
vt 0 15.6
v 56.7051509 154.257763 0
vt 4 15.6
v 33.5769802 117.979189 0
vt 0 15.7
v 55.1263854 155.189714 0
vt 4 15.7
v 32.6060417 118.530727 0
vt 0 15.8
v 53.5323073 156.095224 0
vt 4 15.8
v 31.6260463 119.066007 0
vt 0 15.9
v 51.9233595 156.974042 0
vt 4 15.9
v 30.637266 119.58488 0
vt 0 16
v 50.2999889 157.825923 0
vt 4 16
v 29.6399755 120.087202 0
vt 0 16.1
v 48.6626464 158.65063 0
vt 4 16.1
v 28.634452 120.572834 0
vt 0 16.2
v 47.0117868 159.447936 0
vt 4 16.2
v 27.6209746 121.04164 0
vt 0 16.3
v 45.3478687 160.217617 0
vt 4 16.3
v 26.5998249 121.49349 0
vt 0 16.4
v 43.6713542 160.959461 0
vt 4 16.4
v 25.5712865 121.928259 0
vt 0 16.5
v 41.9827091 161.673262 0
vt 4 16.5
v 24.5356451 122.345827 0
vt 0 16.6
v 40.2824024 162.35882 0
vt 4 16.6
v 23.4931885 122.746076 0
vt 0 16.7
v 38.5709064 163.015946 0
vt 4 16.7
v 22.4442061 123.128897 0
vt 0 16.8
v 36.8486965 163.644457 0
vt 4 16.8
v 21.3889893 123.494182 0
vt 0 16.9
v 35.1162511 164.244179 0
vt 4 16.9
v 20.3278313 123.84183 0
vt 0 17
v 33.3740514 164.814945 0
vt 4 17
v 19.2610268 124.171745 0
vt 0 17.1
v 31.6225814 165.356596 0
vt 4 17.1
v 18.1888722 124.483835 0
vt 0 17.2
v 29.8623275 165.868982 0
vt 4 17.2
v 17.1116652 124.778013 0
vt 0 17.3
v 28.0937787 166.351961 0
vt 4 17.3
v 16.0297051 125.054197 0
vt 0 17.4
v 26.3174262 166.805398 0
vt 4 17.4
v 14.9432923 125.312311 0
vt 0 17.5
v 24.5337635 167.229168 0
vt 4 17.5
v 13.8527288 125.552284 0
vt 0 17.6
v 22.7432861 167.623152 0
vt 4 17.6
v 12.7583174 125.774048 0
vt 0 17.7
v 20.9464912 167.987242 0
vt 4 17.7
v 11.660362 125.977541 0
vt 0 17.8
v 19.143878 168.321336 0
vt 4 17.8
v 10.5591678 126.162708 0
vt 0 17.9
v 17.3359472 168.625342 0
vt 4 17.9
v 9.45504054 126.329497 0
vt 0 18
v 15.5232009 168.899175 0
vt 4 18
v 8.34828693 126.477862 0
vt 0 18.1
v 13.7061427 169.142758 0
vt 4 18.1
v 7.2392144 126.607761 0
vt 0 18.2
v 11.8852774 169.356025 0
vt 4 18.2
v 6.12813103 126.719158 0
vt 0 18.3
v 10.0611106 169.538916 0
vt 4 18.3
v 5.01534544 126.812022 0
vt 0 18.4
v 8.23414923 169.69138 0
vt 4 18.4
v 3.90116673 126.886328 0
vt 0 18.5
v 6.4049006 169.813375 0
vt 4 18.5
v 2.78590438 126.942055 0
vt 0 18.6
v 4.57387287 169.904867 0
vt 4 18.6
v 1.6698682 126.979187 0
vt 0 18.7
v 2.74157465 169.96583 0
vt 4 18.7
v 0.553368166 126.997715 0
vt 0 18.8
v 0.908514899 169.996248 0
vt 4 18.8
v -0.563285574 126.997632 0
vt 0 18.9
v -0.92479721 169.996112 0
vt 4 18.9
v -1.67978285 126.978939 0
vt 0 19
v -2.75785244 169.965423 0
vt 4 19
v -2.79581353 126.941642 0
vt 0 19.1
v -4.59014161 169.904188 0
vt 4 19.1
v -3.91106761 126.88575 0
vt 0 19.2
v -6.42115578 169.812425 0
vt 4 19.2
v -5.02523531 126.811279 0
vt 0 19.3
v -8.25038633 169.69016 0
vt 4 19.3
v -6.13800714 126.71825 0
vt 0 19.4
v -10.0773252 169.537425 0
vt 4 19.4
v -7.24907401 126.606688 0
vt 0 19.5
v -11.9014648 169.354264 0
vt 4 19.5
v -8.3581273 126.476625 0
vt 0 19.6
v -13.7222986 169.140728 0
vt 4 19.6
v -9.46485894 126.328097 0
vt 0 19.7
v -15.5393206 168.896876 0
vt 4 19.7
v -10.5689615 126.161145 0
vt 0 19.8
v -17.3520264 168.622775 0
vt 4 19.8
v -11.6701283 125.975815 0
vt 0 19.9
v -19.1599122 168.318501 0
vt 4 19.9
v -12.7680535 125.772158 0
vt 0 20
v -20.9624759 167.984141 0
vt 4 20
v -13.8624321 125.550232 0
vt 0 20.1
v -22.7592169 167.619785 0
vt 4 20.1
v -14.9529601 125.310099 0
vt 0 20.2
v -24.549636 167.225535 0
vt 4 20.2
v -16.0393346 125.051824 0
vt 0 20.3
v -26.3332359 166.801501 0
vt 4 20.3
v -17.1212538 124.775479 0
vt 0 20.4
v -28.1095212 166.347801 0
vt 4 20.4
v -18.1984173 124.481141 0
vt 0 20.5
v -29.8779985 165.864561 0
vt 4 20.5
v -19.2705257 124.168893 0
vt 0 20.6
v -31.6381765 165.351914 0
vt 4 20.6
v -20.3372814 123.83882 0
vt 0 20.7
v -33.3895664 164.810004 0
vt 4 20.7
v -21.3983879 123.491015 0
vt 0 20.8
v -35.1316816 164.23898 0
vt 4 20.8
v -22.4535505 123.125574 0
vt 0 20.9
v -36.8640382 163.639002 0
vt 4 20.9
v -23.5024763 122.742598 0
vt 0 21
v -38.586155 163.010236 0
vt 4 21
v -24.5448737 122.342194 0
vt 0 21.1
v -40.2975538 162.352856 0
vt 4 21.1
v -25.5804532 121.924473 0
vt 0 21.2
v -41.997759 161.667046 0
vt 4 21.2
v -26.6089272 121.489552 0
vt 0 21.3
v -43.6862984 160.952996 0
vt 4 21.3
v -27.63001 121.03755 0
vt 0 21.4
v -45.362703 160.210903 0
vt 4 21.4
v -28.643418 120.568594 0
vt 0 21.5
v -47.0265072 159.440976 0
vt 4 21.5
v -29.6488697 120.082814 0
vt 0 21.6
v -48.6772488 158.643426 0
vt 4 21.6
v -30.6460858 119.580344 0
vt 0 21.7
v -50.3144692 157.818476 0
vt 4 21.7
v -31.6347892 119.061325 0
vt 0 21.8
v -51.9377137 156.966354 0
vt 4 21.8
v -32.6147055 118.5259 0
vt 0 21.9
v -53.5465314 156.087299 0
vt 4 21.9
v -33.5855623 117.974218 0
vt 0 22
v -55.1404753 155.181553 0
vt 4 22
v -34.5470899 117.406433 0
vt 0 22.1
v -56.7191029 154.249368 0
vt 4 22.1
v -35.4990214 116.822702 0
vt 0 22.2
v -58.2819755 153.291003 0
vt 4 22.2
v -36.4410923 116.223187 0
vt 0 22.3
v -59.828659 152.306725 0
vt 4 22.3
v -37.3730409 115.608055 0
vt 0 22.4
v -61.3587239 151.296807 0
vt 4 22.4
v -38.2946084 114.977477 0
vt 0 22.5
v -62.8717451 150.261529 0
vt 4 22.5
v -39.2055386 114.331627 0
vt 0 22.6
v -64.3673023 149.201179 0
vt 4 22.6
v -40.1055788 113.670686 0
vt 0 22.7
v -65.8449801 148.116052 0
vt 4 22.7
v -40.9944787 112.994837 0
vt 0 22.8
v -67.304368 147.006448 0
vt 4 22.8
v -41.8719915 112.304267 0
vt 0 22.9
v -68.7450607 145.872677 0
vt 4 22.9
v -42.7378735 111.599168 0
vt 0 23
v -70.166658 144.715052 0
vt 4 23
v -43.5918842 110.879737 0
vt 0 23.1
v -71.5687651 143.533897 0
vt 4 23.1
v -44.4337863 110.146173 0
vt 0 23.2
v -72.9509924 142.329537 0
vt 4 23.2
v -45.2633459 109.398679 0
vt 0 23.3
v -74.3129559 141.102309 0
vt 4 23.3
v -46.0803327 108.637464 0
vt 0 23.4
v -75.6542775 139.852553 0
vt 4 23.4
v -46.8845196 107.862739 0
vt 0 23.5
v -76.9745845 138.580617 0
vt 4 23.5
v -47.6756834 107.074719 0
vt 0 23.6
v -78.2735101 137.286853 0
vt 4 23.6
v -48.4536043 106.273623 0
vt 0 23.7
v -79.5506936 135.971621 0
vt 4 23.7
v -49.2180662 105.459674 0
vt 0 23.8
v -80.8057803 134.635286 0
vt 4 23.8
v -49.9688566 104.633097 0
vt 0 23.9
v -82.0384213 133.278219 0
vt 4 23.9
v -50.7057672 103.794123 0
vt 0 24
v -83.2482745 131.900798 0
vt 4 24
v -51.4285931 102.942983 0
vt 0 24.1
v -84.4350037 130.503405 0
vt 4 24.1
v -52.1371337 102.079916 0
vt 0 24.2
v -85.5982792 129.086428 0
vt 4 24.2
v -52.831192 101.205159 0
vt 0 24.3
v -86.737778 127.650261 0
vt 4 24.3
v -53.5105754 100.318957 0
vt 0 24.4
v -87.8531835 126.195303 0
vt 4 24.4
v -54.1750951 99.421556 0
vt 0 24.5
v -88.9441859 124.721958 0
vt 4 24.5
v -54.8245664 98.5132044 0
vt 0 24.6
v -90.0104822 123.230634 0
vt 4 24.6
v -55.4588091 97.594155 0
vt 0 24.7
v -91.0517762 121.721747 0
vt 4 24.7
v -56.0776469 96.664663 0
vt 0 24.8
v -92.0677785 120.195715 0
vt 4 24.8
v -56.680908 95.7249867 0
vt 0 24.9
v -93.0582071 118.652963 0
vt 4 24.9
v -57.2684247 94.7753869 0
vt 0 25
v -94.0227868 117.093919 0
vt 4 25
v -57.8400339 93.8161275 0
vt 0 25.1
v -94.9612496 115.519015 0
vt 4 25.1
v -58.3955768 92.847475 0
vt 0 25.2
v -95.873335 113.92869 0
vt 4 25.2
v -58.934899 91.8696984 0
vt 0 25.3
v -96.7587894 112.323385 0
vt 4 25.3
v -59.4578509 90.8830693 0
vt 0 25.4
v -97.6173671 110.703547 0
vt 4 25.4
v -59.964287 89.8878618 0
vt 0 25.5
v -98.4488294 109.069624 0
vt 4 25.5
v -60.4540668 88.8843523 0
vt 0 25.6
v -99.2529455 107.422071 0
vt 4 25.6
v -60.9270542 87.8728196 0
vt 0 25.7
v -100.029492 105.761346 0
vt 4 25.7
v -61.3831178 86.8535445 0
vt 0 25.8
v -100.778253 104.087909 0
vt 4 25.8
v -61.8221309 85.8268104 0
vt 0 25.9
v -101.499021 102.402226 0
vt 4 25.9
v -62.2439716 84.7929022 0
vt 0 26
v -102.191595 100.704765 0
vt 4 26
v -62.6485227 83.7521074 0
vt 0 26.1
v -102.855784 98.9959972 0
vt 4 26.1
v -63.0356718 82.7047148 0
vt 0 26.2
v -103.491402 97.2763975 0
vt 4 26.2
v -63.4053115 81.6510156 0
vt 0 26.3
v -104.098273 95.5464435 0
vt 4 26.3
v -63.757339 80.5913023 0
vt 0 26.4
v -104.676228 93.8066157 0
vt 4 26.4
v -64.0916565 79.5258693 0
vt 0 26.5
v -105.225108 92.0573974 0
vt 4 26.5
v -64.4081711 78.4550126 0
vt 0 26.6
v -105.744759 90.2992745 0
vt 4 26.6
v -64.7067951 77.3790297 0
vt 0 26.7
v -106.235037 88.5327353 0
vt 4 26.7
v -64.9874453 76.2982193 0
vt 0 26.8
v -106.695806 86.7582705 0
vt 4 26.8
v -65.2500439 75.2128818 0
vt 0 26.9
v -107.126938 84.9763731 0
vt 4 26.9
v -65.4945179 74.1233186 0
vt 0 27
v -107.528313 83.1875379 0
vt 4 27
v -65.7207994 73.0298323 0
vt 0 27.1
v -107.89982 81.3922619 0
vt 4 27.1
v -65.9288255 71.9327267 0
vt 0 27.2
v -108.241355 79.5910438 0
vt 4 27.2
v -66.1185385 70.8323065 0
vt 0 27.3
v -108.552824 77.7843838 0
vt 4 27.3
v -66.2898857 69.7288774 0
vt 0 27.4
v -108.834141 75.9727838 0
vt 4 27.4
v -66.4428194 68.6227459 0
vt 0 27.5
v -109.085226 74.1567471 0
vt 4 27.5
v -66.5772972 67.5142193 0
vt 0 27.6
v -109.30601 72.336778 0
vt 4 27.6
v -66.6932818 66.4036054 0
vt 0 27.7
v -109.496433 70.5133821 0
vt 4 27.7
v -66.7907409 65.2912128 0
vt 0 27.8
v -109.65644 68.6870658 0
vt 4 27.8
v -66.8696474 64.1773505 0
vt 0 27.9
v -109.785988 66.8583366 0
vt 4 27.9
v -66.9299794 63.0623278 0
vt 0 28
v -109.885041 65.0277023 0
vt 4 28
v -66.9717203 61.9464544 0
vt 0 28.1
v -109.953571 63.1956715 0
vt 4 28.1
v -66.9948583 60.8300405 0
vt 0 28.2
v -109.991558 61.362753 0
vt 4 28.2
v -66.999387 59.7133959 0
vt 0 28.3
v -109.998994 59.5294559 0
vt 4 28.3
v -66.9853052 58.5968309 0
vt 0 28.4
v -109.975874 57.6962896 0
vt 4 28.4
v -66.9526169 57.4806558 0
vt 0 28.5
v -109.922207 55.8637632 0
vt 4 28.5
v -66.901331 56.3651804 0
vt 0 28.6
v -109.838006 54.0323857 0
vt 4 28.6
v -66.8314618 55.2507146 0
vt 0 28.7
v -109.723296 52.2026658 0
vt 4 28.7
v -66.7430288 54.1375681 0
vt 0 28.8
v -109.578107 50.3751118 0
vt 4 28.8
v -66.6360565 53.02605 0
vt 0 28.9
v -109.402481 48.5502313 0
vt 4 28.9
v -66.5105746 51.9164691 0
vt 0 29
v -109.196466 46.7285313 0
vt 4 29
v -66.3666179 50.8091335 0
vt 0 29.1
v -108.960119 44.9105177 0
vt 4 29.1
v -66.2042265 49.7043509 0
vt 0 29.2
v -108.693506 43.0966955 0
vt 4 29.2
v -66.0234455 48.6024281 0
vt 0 29.3
v -108.396702 41.2875685 0
vt 4 29.3
v -65.824325 47.5036712 0
vt 0 29.4
v -108.069787 39.4836394 0
vt 4 29.4
v -65.6069205 46.4083855 0
vt 0 29.5
v -107.712855 37.6854091 0
vt 4 29.5
v -65.3712922 45.3168751 0
vt 0 29.6
v -107.326002 35.8933771 0
vt 4 29.6
v -65.1175056 44.2294433 0
vt 0 29.7
v -106.909338 34.1080413 0
vt 4 29.7
v -64.8456313 43.1463921 0
vt 0 29.8
v -106.462977 32.3298975 0
vt 4 29.8
v -64.5557447 42.0680223 0
vt 0 29.9
v -105.987044 30.5594397 0
vt 4 29.9
v -64.2479264 40.9946336 0
vt 0 30
v -105.48167 28.7971596 0
vt 4 30
v -63.9222618 39.9265239 0
vt 0 30.1
v -104.946997 27.0435468 0
vt 4 30.1
v -63.5788415 38.8639902 0
vt 0 30.2
v -104.383173 25.2990883 0
vt 4 30.2
v -63.2177608 37.8073273 0
vt 0 30.3
v -103.790354 23.5642688 0
vt 4 30.3
v -62.83912 36.756829 0
vt 0 30.4
v -103.168704 21.83957 0
vt 4 30.4
v -62.4430243 35.712787 0
vt 0 30.5
v -102.518398 20.1254712 0
vt 4 30.5
v -62.0295837 34.6754912 0
vt 0 30.6
v -101.839615 18.4224483 0
vt 4 30.6
v -61.5989131 33.6452299 0
vt 0 30.7
v -101.132544 16.7309745 0
vt 4 30.7
v -61.1511321 32.6222892 0
vt 0 30.8
v -100.397381 15.0515196 0
vt 4 30.8
v -60.686365 31.6069532 0
vt 0 30.9
v -99.6343306 13.3845501 0
vt 4 30.9
v -60.204741 30.599504 0
vt 0 31
v -98.8436046 11.730529 0
vt 4 31
v -59.7063938 29.6002214 0
vt 0 31.1
v -98.0254227 10.0899158 0
vt 4 31.1
v -59.1914619 28.609383 0
vt 0 31.2
v -97.1800121 8.46316616 0
vt 4 31.2
v -58.6600884 27.627264 0
vt 0 31.3
v -96.3076078 6.850732 0
vt 4 31.3
v -58.1124207 26.6541373 0
vt 0 31.4
v -95.4084519 5.25306119 0
vt 4 31.4
v -57.5486111 25.690273 0
vt 0 31.5
v -94.4827943 3.6705975 0
vt 4 31.5
v -56.9688161 24.735939 0
vt 0 31.6
v -93.5308921 2.10378051 0
vt 4 31.6
v -56.3731968 23.7914004 0
vt 0 31.7
v -92.5530096 0.553045437 0
vt 4 31.7
v -55.7619186 22.8569195 0
vt 0 31.8
v -91.5494186 -0.98117698 0
vt 4 31.8
v -55.1351514 21.9327558 0
vt 0 31.9
v -90.5203978 -2.49846057 0
vt 4 31.9
v -54.4930692 21.0191662 0
vt 0 32
v -89.4662331 -3.99838388 0
vt 4 32
v -53.8358504 20.1164043 0
vt 0 32.1
v -88.3872171 -5.48053028 0
vt 4 32.1
v -53.1636776 19.2247209 0
vt 0 32.2
v -87.2836498 -6.94448806 0
vt 4 32.2
v -52.4767374 18.3443637 0
vt 0 32.3
v -86.1558375 -8.38985058 0
vt 4 32.3
v -51.7752207 17.4755773 0
vt 0 32.4
v -85.0040936 -9.81621635 0
vt 4 32.4
v -51.0593223 16.6186029 0
vt 0 32.5
v -83.828738 -11.2231892 0
vt 4 32.5
v -50.329241 15.7736787 0
vt 0 32.6
v -82.6300972 -12.6103783 0
vt 4 32.6
v -49.5851798 14.9410392 0
vt 0 32.7
v -81.4085042 -13.9773982 0
vt 4 32.7
v -48.8273452 14.1209159 0
vt 0 32.8
v -80.1642981 -15.3238694 0
vt 4 32.8
v -48.0559478 13.3135364 0
vt 0 32.9
v -78.8978247 -16.6494178 0
vt 4 32.9
v -47.2712018 12.5191251 0
vt 0 33
v -77.6094358 -17.9536752 0
vt 4 33
v -46.4733252 11.7379026 0
vt 0 33.1
v -76.2994892 -19.2362792 0
vt 4 33.1
v -45.6625397 10.970086 0
vt 0 33.2
v -74.9683488 -20.4968737 0
vt 4 33.2
v -44.8390704 10.2158885 0
vt 0 33.3
v -73.6163843 -21.7351085 0
vt 4 33.3
v -44.0031462 9.47551951 0
vt 0 33.4
v -72.2439713 -22.9506396 0
vt 4 33.4
v -43.1549991 8.74918482 0
vt 0 33.5
v -70.851491 -24.1431294 0
vt 4 33.5
v -42.2948647 8.03708614 0
vt 0 33.6
v -69.4393302 -25.3122466 0
vt 4 33.6
v -41.4229821 7.33942127 0
vt 0 33.7
v -68.0078811 -26.4576666 0
vt 4 33.7
v -40.5395934 6.65638399 0
vt 0 33.8
v -66.5575414 -27.5790711 0
vt 4 33.8
v -39.6449439 5.98816405 0
vt 0 33.9
v -65.0887139 -28.6761486 0
vt 4 33.9
v -38.7392822 5.33494704 0
vt 0 34
v -63.6018066 -29.7485944 0
vt 4 34
v -37.8228598 4.69691442 0
vt 0 34.1
v -62.0972326 -30.7961106 0
vt 4 34.1
v -36.8959314 4.07424342 0
vt 0 34.2
v -60.5754097 -31.8184063 0
vt 4 34.2
v -35.9587542 3.46710698 0
vt 0 34.3
v -59.0367607 -32.8151975 0
vt 4 34.3
v -35.0115888 2.87567377 0
vt 0 34.4
v -57.481713 -33.7862073 0
vt 4 34.4
v -34.0546982 2.30010805 0
vt 0 34.5
v -55.9106985 -34.7311659 0
vt 4 34.5
v -33.0883481 1.74056971 0
vt 0 34.6
v -54.3241537 -35.6498109 0
vt 4 34.6
v -32.1128071 1.19721417 0
vt 0 34.7
v -52.7225191 -36.5418872 0
vt 4 34.7
v -31.128346 0.670192365 0
vt 0 34.8
v -51.1062397 -37.4071469 0
vt 4 34.8
v -30.1352384 0.159650677 0
vt 0 34.9
v -49.4757645 -38.2453496 0
vt 4 34.9
v -29.1337601 -0.334269077 0
vt 0 35
v -47.8315464 -39.0562627 0
vt 4 35
v -28.1241892 -0.8114297 0
vt 0 35.1
v -46.174042 -39.8396607 0
vt 4 35.1
v -27.1068062 -1.27169865 0
vt 0 35.2
v -44.5037117 -40.5953261 0
vt 4 35.2
v -26.0818938 -1.71494808 0
vt 0 35.3
v -42.8210197 -41.3230491 0
vt 4 35.3
v -25.0497365 -2.14105486 0
vt 0 35.4
v -41.1264331 -42.0226274 0
vt 4 35.4
v -24.0106212 -2.54990064 0
vt 0 35.5
v -39.4204229 -42.6938667 0
vt 4 35.5
v -22.9648364 -2.94137185 0
vt 0 35.6
v -37.7034627 -43.3365806 0
vt 4 35.6
v -21.9126726 -3.31535975 0
vt 0 35.7
v -35.9760296 -43.9505906 0
vt 4 35.7
v -20.8544221 -3.67176045 0
vt 0 35.8
v -34.2386034 -44.5357261 0
vt 4 35.8
v -19.7903788 -4.01047497 0
vt 0 35.9
v -32.4916668 -45.0918246 0
vt 4 35.9
v -18.7208384 -4.33140921 0
vt 0 36
v -30.7357048 -45.6187315 0
vt 4 36
v -17.6460978 -4.63447402 0
vt 0 36.1
v -28.9712054 -46.1163006 0
vt 4 36.1
v -16.5664557 -4.91958523 0
vt 0 36.2
v -27.1986585 -46.5843937 0
vt 4 36.2
v -15.4822118 -5.18666365 0
vt 0 36.3
v -25.4185567 -47.0228806 0
vt 4 36.3
v -14.3936675 -5.43563507 0
vt 0 36.4
v -23.6313943 -47.4316397 0
vt 4 36.4
v -13.301125 -5.66643035 0
vt 0 36.5
v -21.8376678 -47.8105573 0
vt 4 36.5
v -12.2048878 -5.87898538 0
vt 0 36.6
v -20.0378755 -48.1595282 0
vt 4 36.6
v -11.1052604 -6.07324111 0
vt 0 36.7
v -18.2325171 -48.4784555 0
vt 4 36.7
v -10.0025484 -6.24914359 0
vt 0 36.8
v -16.4220944 -48.7672507 0
vt 4 36.8
v -8.89705789 -6.40664395 0
vt 0 36.9
v -14.60711 -49.0258334 0
vt 4 36.9
v -7.78909606 -6.54569845 0
vt 0 37
v -12.7880682 -49.2541318 0
vt 4 37
v -6.67897064 -6.66626847 0
vt 0 37.1
v -10.9654742 -49.4520826 0
vt 4 37.1
v -5.56698999 -6.7683205 0
vt 0 37.2
v -9.13983431 -49.6196307 0
vt 4 37.2
v -4.45346299 -6.85182621 0
vt 0 37.3
v -7.31165566 -49.7567296 0
vt 4 37.3
v -3.33869895 -6.91676239 0
vt 0 37.4
v -5.48144603 -49.8633412 0
vt 4 37.4
v -2.22300751 -6.96311102 0
vt 0 37.5
v -3.64971382 -49.939436 0
vt 4 37.5
v -1.10669858 -6.99085921 0
vt 0 37.6
v -1.81696782 -49.9849927 0
vt 4 37.6
v 0.00112783333 -6.99999999 0
vt 0 37.6992128
v 0.00185166667 -50 0
vt 4 37.6992128
mtllib Roads\3D_Road\Road_0faf324d-1ca1-41ca-9752-14fc08f50f0b_3.mtl
usemtl Grass (Light)
g g1
s 1
f  1/1 2/2 4/4 3/3
f  3/3 4/4 6/6 5/5
f  5/5 6/6 8/8 7/7
f  7/7 8/8 10/10 9/9
f  9/9 10/10 12/12 11/11
f  11/11 12/12 14/14 13/13
f  13/13 14/14 16/16 15/15
f  15/15 16/16 18/18 17/17
f  17/17 18/18 20/20 19/19
f  19/19 20/20 22/22 21/21
f  21/21 22/22 24/24 23/23
f  23/23 24/24 26/26 25/25
f  25/25 26/26 28/28 27/27
f  27/27 28/28 30/30 29/29
f  29/29 30/30 32/32 31/31
f  31/31 32/32 34/34 33/33
f  33/33 34/34 36/36 35/35
f  35/35 36/36 38/38 37/37
f  37/37 38/38 40/40 39/39
f  39/39 40/40 42/42 41/41
f  41/41 42/42 44/44 43/43
f  43/43 44/44 46/46 45/45
f  45/45 46/46 48/48 47/47
f  47/47 48/48 50/50 49/49
f  49/49 50/50 52/52 51/51
f  51/51 52/52 54/54 53/53
f  53/53 54/54 56/56 55/55
f  55/55 56/56 58/58 57/57
f  57/57 58/58 60/60 59/59
f  59/59 60/60 62/62 61/61
f  61/61 62/62 64/64 63/63
f  63/63 64/64 66/66 65/65
f  65/65 66/66 68/68 67/67
f  67/67 68/68 70/70 69/69
f  69/69 70/70 72/72 71/71
f  71/71 72/72 74/74 73/73
f  73/73 74/74 76/76 75/75
f  75/75 76/76 78/78 77/77
f  77/77 78/78 80/80 79/79
f  79/79 80/80 82/82 81/81
f  81/81 82/82 84/84 83/83
f  83/83 84/84 86/86 85/85
f  85/85 86/86 88/88 87/87
f  87/87 88/88 90/90 89/89
f  89/89 90/90 92/92 91/91
f  91/91 92/92 94/94 93/93
f  93/93 94/94 96/96 95/95
f  95/95 96/96 98/98 97/97
f  97/97 98/98 100/100 99/99
f  99/99 100/100 102/102 101/101
f  101/101 102/102 104/104 103/103
f  103/103 104/104 106/106 105/105
f  105/105 106/106 108/108 107/107
f  107/107 108/108 110/110 109/109
f  109/109 110/110 112/112 111/111
f  111/111 112/112 114/114 113/113
f  113/113 114/114 116/116 115/115
f  115/115 116/116 118/118 117/117
f  117/117 118/118 120/120 119/119
f  119/119 120/120 122/122 121/121
f  121/121 122/122 124/124 123/123
f  123/123 124/124 126/126 125/125
f  125/125 126/126 128/128 127/127
f  127/127 128/128 130/130 129/129
f  129/129 130/130 132/132 131/131
f  131/131 132/132 134/134 133/133
f  133/133 134/134 136/136 135/135
f  135/135 136/136 138/138 137/137
f  137/137 138/138 140/140 139/139
f  139/139 140/140 142/142 141/141
f  141/141 142/142 144/144 143/143
f  143/143 144/144 146/146 145/145
f  145/145 146/146 148/148 147/147
f  147/147 148/148 150/150 149/149
f  149/149 150/150 152/152 151/151
f  151/151 152/152 154/154 153/153
f  153/153 154/154 156/156 155/155
f  155/155 156/156 158/158 157/157
f  157/157 158/158 160/160 159/159
f  159/159 160/160 162/162 161/161
f  161/161 162/162 164/164 163/163
f  163/163 164/164 166/166 165/165
f  165/165 166/166 168/168 167/167
f  167/167 168/168 170/170 169/169
f  169/169 170/170 172/172 171/171
f  171/171 172/172 174/174 173/173
f  173/173 174/174 176/176 175/175
f  175/175 176/176 178/178 177/177
f  177/177 178/178 180/180 179/179
f  179/179 180/180 182/182 181/181
f  181/181 182/182 184/184 183/183
f  183/183 184/184 186/186 185/185
f  185/185 186/186 188/188 187/187
f  187/187 188/188 190/190 189/189
f  189/189 190/190 192/192 191/191
f  191/191 192/192 194/194 193/193
f  193/193 194/194 196/196 195/195
f  195/195 196/196 198/198 197/197
f  197/197 198/198 200/200 199/199
f  199/199 200/200 202/202 201/201
f  201/201 202/202 204/204 203/203
f  203/203 204/204 206/206 205/205
f  205/205 206/206 208/208 207/207
f  207/207 208/208 210/210 209/209
f  209/209 210/210 212/212 211/211
f  211/211 212/212 214/214 213/213
f  213/213 214/214 216/216 215/215
f  215/215 216/216 218/218 217/217
f  217/217 218/218 220/220 219/219
f  219/219 220/220 222/222 221/221
f  221/221 222/222 224/224 223/223
f  223/223 224/224 226/226 225/225
f  225/225 226/226 228/228 227/227
f  227/227 228/228 230/230 229/229
f  229/229 230/230 232/232 231/231
f  231/231 232/232 234/234 233/233
f  233/233 234/234 236/236 235/235
f  235/235 236/236 238/238 237/237
f  237/237 238/238 240/240 239/239
f  239/239 240/240 242/242 241/241
f  241/241 242/242 244/244 243/243
f  243/243 244/244 246/246 245/245
f  245/245 246/246 248/248 247/247
f  247/247 248/248 250/250 249/249
f  249/249 250/250 252/252 251/251
f  251/251 252/252 254/254 253/253
f  253/253 254/254 256/256 255/255
f  255/255 256/256 258/258 257/257
f  257/257 258/258 260/260 259/259
f  259/259 260/260 262/262 261/261
f  261/261 262/262 264/264 263/263
f  263/263 264/264 266/266 265/265
f  265/265 266/266 268/268 267/267
f  267/267 268/268 270/270 269/269
f  269/269 270/270 272/272 271/271
f  271/271 272/272 274/274 273/273
f  273/273 274/274 276/276 275/275
f  275/275 276/276 278/278 277/277
f  277/277 278/278 280/280 279/279
f  279/279 280/280 282/282 281/281
f  281/281 282/282 284/284 283/283
f  283/283 284/284 286/286 285/285
f  285/285 286/286 288/288 287/287
f  287/287 288/288 290/290 289/289
f  289/289 290/290 292/292 291/291
f  291/291 292/292 294/294 293/293
f  293/293 294/294 296/296 295/295
f  295/295 296/296 298/298 297/297
f  297/297 298/298 300/300 299/299
f  299/299 300/300 302/302 301/301
f  301/301 302/302 304/304 303/303
f  303/303 304/304 306/306 305/305
f  305/305 306/306 308/308 307/307
f  307/307 308/308 310/310 309/309
f  309/309 310/310 312/312 311/311
f  311/311 312/312 314/314 313/313
f  313/313 314/314 316/316 315/315
f  315/315 316/316 318/318 317/317
f  317/317 318/318 320/320 319/319
f  319/319 320/320 322/322 321/321
f  321/321 322/322 324/324 323/323
f  323/323 324/324 326/326 325/325
f  325/325 326/326 328/328 327/327
f  327/327 328/328 330/330 329/329
f  329/329 330/330 332/332 331/331
f  331/331 332/332 334/334 333/333
f  333/333 334/334 336/336 335/335
f  335/335 336/336 338/338 337/337
f  337/337 338/338 340/340 339/339
f  339/339 340/340 342/342 341/341
f  341/341 342/342 344/344 343/343
f  343/343 344/344 346/346 345/345
f  345/345 346/346 348/348 347/347
f  347/347 348/348 350/350 349/349
f  349/349 350/350 352/352 351/351
f  351/351 352/352 354/354 353/353
f  353/353 354/354 356/356 355/355
f  355/355 356/356 358/358 357/357
f  357/357 358/358 360/360 359/359
f  359/359 360/360 362/362 361/361
f  361/361 362/362 364/364 363/363
f  363/363 364/364 366/366 365/365
f  365/365 366/366 368/368 367/367
f  367/367 368/368 370/370 369/369
f  369/369 370/370 372/372 371/371
f  371/371 372/372 374/374 373/373
f  373/373 374/374 376/376 375/375
f  375/375 376/376 378/378 377/377
f  377/377 378/378 380/380 379/379
f  379/379 380/380 382/382 381/381
f  381/381 382/382 384/384 383/383
f  383/383 384/384 386/386 385/385
f  385/385 386/386 388/388 387/387
f  387/387 388/388 390/390 389/389
f  389/389 390/390 392/392 391/391
f  391/391 392/392 394/394 393/393
f  393/393 394/394 396/396 395/395
f  395/395 396/396 398/398 397/397
f  397/397 398/398 400/400 399/399
f  399/399 400/400 402/402 401/401
f  401/401 402/402 404/404 403/403
f  403/403 404/404 406/406 405/405
f  405/405 406/406 408/408 407/407
f  407/407 408/408 410/410 409/409
f  409/409 410/410 412/412 411/411
f  411/411 412/412 414/414 413/413
f  413/413 414/414 416/416 415/415
f  415/415 416/416 418/418 417/417
f  417/417 418/418 420/420 419/419
f  419/419 420/420 422/422 421/421
f  421/421 422/422 424/424 423/423
f  423/423 424/424 426/426 425/425
f  425/425 426/426 428/428 427/427
f  427/427 428/428 430/430 429/429
f  429/429 430/430 432/432 431/431
f  431/431 432/432 434/434 433/433
f  433/433 434/434 436/436 435/435
f  435/435 436/436 438/438 437/437
f  437/437 438/438 440/440 439/439
f  439/439 440/440 442/442 441/441
f  441/441 442/442 444/444 443/443
f  443/443 444/444 446/446 445/445
f  445/445 446/446 448/448 447/447
f  447/447 448/448 450/450 449/449
f  449/449 450/450 452/452 451/451
f  451/451 452/452 454/454 453/453
f  453/453 454/454 456/456 455/455
f  455/455 456/456 458/458 457/457
f  457/457 458/458 460/460 459/459
f  459/459 460/460 462/462 461/461
f  461/461 462/462 464/464 463/463
f  463/463 464/464 466/466 465/465
f  465/465 466/466 468/468 467/467
f  467/467 468/468 470/470 469/469
f  469/469 470/470 472/472 471/471
f  471/471 472/472 474/474 473/473
f  473/473 474/474 476/476 475/475
f  475/475 476/476 478/478 477/477
f  477/477 478/478 480/480 479/479
f  479/479 480/480 482/482 481/481
f  481/481 482/482 484/484 483/483
f  483/483 484/484 486/486 485/485
f  485/485 486/486 488/488 487/487
f  487/487 488/488 490/490 489/489
f  489/489 490/490 492/492 491/491
f  491/491 492/492 494/494 493/493
f  493/493 494/494 496/496 495/495
f  495/495 496/496 498/498 497/497
f  497/497 498/498 500/500 499/499
f  499/499 500/500 502/502 501/501
f  501/501 502/502 504/504 503/503
f  503/503 504/504 506/506 505/505
f  505/505 506/506 508/508 507/507
f  507/507 508/508 510/510 509/509
f  509/509 510/510 512/512 511/511
f  511/511 512/512 514/514 513/513
f  513/513 514/514 516/516 515/515
f  515/515 516/516 518/518 517/517
f  517/517 518/518 520/520 519/519
f  519/519 520/520 522/522 521/521
f  521/521 522/522 524/524 523/523
f  523/523 524/524 526/526 525/525
f  525/525 526/526 528/528 527/527
f  527/527 528/528 530/530 529/529
f  529/529 530/530 532/532 531/531
f  531/531 532/532 534/534 533/533
f  533/533 534/534 536/536 535/535
f  535/535 536/536 538/538 537/537
f  537/537 538/538 540/540 539/539
f  539/539 540/540 542/542 541/541
f  541/541 542/542 544/544 543/543
f  543/543 544/544 546/546 545/545
f  545/545 546/546 548/548 547/547
f  547/547 548/548 550/550 549/549
f  549/549 550/550 552/552 551/551
f  551/551 552/552 554/554 553/553
f  553/553 554/554 556/556 555/555
f  555/555 556/556 558/558 557/557
f  557/557 558/558 560/560 559/559
f  559/559 560/560 562/562 561/561
f  561/561 562/562 564/564 563/563
f  563/563 564/564 566/566 565/565
f  565/565 566/566 568/568 567/567
f  567/567 568/568 570/570 569/569
f  569/569 570/570 572/572 571/571
f  571/571 572/572 574/574 573/573
f  573/573 574/574 576/576 575/575
f  575/575 576/576 578/578 577/577
f  577/577 578/578 580/580 579/579
f  579/579 580/580 582/582 581/581
f  581/581 582/582 584/584 583/583
f  583/583 584/584 586/586 585/585
f  585/585 586/586 588/588 587/587
f  587/587 588/588 590/590 589/589
f  589/589 590/590 592/592 591/591
f  591/591 592/592 594/594 593/593
f  593/593 594/594 596/596 595/595
f  595/595 596/596 598/598 597/597
f  597/597 598/598 600/600 599/599
f  599/599 600/600 602/602 601/601
f  601/601 602/602 604/604 603/603
f  603/603 604/604 606/606 605/605
f  605/605 606/606 608/608 607/607
f  607/607 608/608 610/610 609/609
f  609/609 610/610 612/612 611/611
f  611/611 612/612 614/614 613/613
f  613/613 614/614 616/616 615/615
f  615/615 616/616 618/618 617/617
f  617/617 618/618 620/620 619/619
f  619/619 620/620 622/622 621/621
f  621/621 622/622 624/624 623/623
f  623/623 624/624 626/626 625/625
f  625/625 626/626 628/628 627/627
f  627/627 628/628 630/630 629/629
f  629/629 630/630 632/632 631/631
f  631/631 632/632 634/634 633/633
f  633/633 634/634 636/636 635/635
f  635/635 636/636 638/638 637/637
f  637/637 638/638 640/640 639/639
f  639/639 640/640 642/642 641/641
f  641/641 642/642 644/644 643/643
f  643/643 644/644 646/646 645/645
f  645/645 646/646 648/648 647/647
f  647/647 648/648 650/650 649/649
f  649/649 650/650 652/652 651/651
f  651/651 652/652 654/654 653/653
f  653/653 654/654 656/656 655/655
f  655/655 656/656 658/658 657/657
f  657/657 658/658 660/660 659/659
f  659/659 660/660 662/662 661/661
f  661/661 662/662 664/664 663/663
f  663/663 664/664 666/666 665/665
f  665/665 666/666 668/668 667/667
f  667/667 668/668 670/670 669/669
f  669/669 670/670 672/672 671/671
f  671/671 672/672 674/674 673/673
f  673/673 674/674 676/676 675/675
f  675/675 676/676 678/678 677/677
f  677/677 678/678 680/680 679/679
f  679/679 680/680 682/682 681/681
f  681/681 682/682 684/684 683/683
f  683/683 684/684 686/686 685/685
f  685/685 686/686 688/688 687/687
f  687/687 688/688 690/690 689/689
f  689/689 690/690 692/692 691/691
f  691/691 692/692 694/694 693/693
f  693/693 694/694 696/696 695/695
f  695/695 696/696 698/698 697/697
f  697/697 698/698 700/700 699/699
f  699/699 700/700 702/702 701/701
f  701/701 702/702 704/704 703/703
f  703/703 704/704 706/706 705/705
f  705/705 706/706 708/708 707/707
f  707/707 708/708 710/710 709/709
f  709/709 710/710 712/712 711/711
f  711/711 712/712 714/714 713/713
f  713/713 714/714 716/716 715/715
f  715/715 716/716 718/718 717/717
f  717/717 718/718 720/720 719/719
f  719/719 720/720 722/722 721/721
f  721/721 722/722 724/724 723/723
f  723/723 724/724 726/726 725/725
f  725/725 726/726 728/728 727/727
f  727/727 728/728 730/730 729/729
f  729/729 730/730 732/732 731/731
f  731/731 732/732 734/734 733/733
f  733/733 734/734 736/736 735/735
f  735/735 736/736 738/738 737/737
f  737/737 738/738 740/740 739/739
f  739/739 740/740 742/742 741/741
f  741/741 742/742 744/744 743/743
f  743/743 744/744 746/746 745/745
f  745/745 746/746 748/748 747/747
f  747/747 748/748 750/750 749/749
f  749/749 750/750 752/752 751/751
f  751/751 752/752 754/754 753/753
f  753/753 754/754 756/756 755/755
g g2
s 2
g g3
s 3
g g4
s 4
