# Blender 3.5.1
# www.blender.org
mtllib tractor_rear_details.mtl
o tractor_details
v -0.857100 0.000000 0.212600
v -0.857100 0.186100 0.077400
v -0.857100 0.230000 0.212600
v -0.857100 0.071100 -0.006100
v -0.857100 -0.071100 -0.006100
v -0.857100 -0.186100 0.077400
v -0.857100 -0.230000 0.212600
v -0.857100 -0.186100 0.347800
v -0.857100 -0.071100 0.431400
v -0.857100 0.071100 0.431400
v -0.857100 0.186100 0.347800
v -0.973900 0.202900 0.212600
v -0.973900 0.164100 0.093400
v -1.055200 0.108600 0.133700
v -0.973900 0.062700 0.019700
v -1.055200 0.041500 0.084900
v -0.973900 -0.062700 0.019700
v -1.055200 -0.041500 0.084900
v -0.973900 -0.164100 0.093400
v -1.055200 -0.108600 0.133700
v -0.973900 -0.202900 0.212600
v -1.055200 -0.134200 0.212600
v -0.973900 -0.164100 0.331900
v -1.055200 -0.108600 0.291500
v -0.973900 -0.062700 0.405600
v -1.055200 -0.041500 0.340300
v -0.973900 0.062700 0.405600
v -1.055200 0.041500 0.340300
v -0.973900 0.164100 0.331900
v -1.055200 0.108600 0.291500
v -1.055200 0.134200 0.212600
v -1.541200 0.108600 0.133700
v -1.541200 0.134200 0.212600
v -1.541200 0.041500 0.084900
v -1.541200 -0.041500 0.084900
v -1.541200 -0.108600 0.133700
v -1.541200 -0.134200 0.212600
v -1.541200 -0.108600 0.291500
v -1.541200 -0.041500 0.340300
v -1.541200 0.041500 0.340300
v -1.541200 0.108600 0.291500
v -1.872600 0.154000 0.102300
v -1.872600 0.154000 0.312900
v -1.517600 0.154000 0.312900
v -1.517600 0.154000 0.102300
v -1.872600 -0.154000 0.102300
v -1.517600 -0.154000 0.102300
v -1.517600 -0.154000 0.312900
v -1.872600 -0.154000 0.312900
v -1.872600 0.105300 0.053600
v -1.517600 0.105300 0.053600
v -1.517600 -0.105300 0.053600
v -1.872600 -0.105300 0.053600
v -1.517600 0.126900 0.062600
v -1.517600 0.145000 0.080700
v -1.517600 0.145000 0.334500
v -1.517600 0.126900 0.352600
v -1.517600 0.105300 0.361600
v -1.517600 -0.105300 0.361600
v -1.517600 -0.126900 0.352600
v -1.517600 -0.145000 0.334500
v -1.517600 -0.145000 0.080700
v -1.517600 -0.126900 0.062600
v -1.872600 0.105300 0.361600
v -1.872600 -0.105300 0.361600
v -1.872600 0.126900 0.352600
v -1.872600 0.145000 0.334500
v -1.872600 0.145000 0.080700
v -1.872600 0.126900 0.062600
v -1.872600 -0.126900 0.062600
v -1.872600 -0.145000 0.080700
v -1.872600 -0.145000 0.334500
v -1.872600 -0.126900 0.352600
v -1.871700 0.177500 0.324500
v -1.871700 0.177500 0.074400
v -1.871700 -0.177500 0.074400
v -1.871700 -0.177500 0.324500
v -1.871700 0.125000 0.021900
v -1.871700 -0.125000 0.021900
v -1.871700 0.147500 0.031300
v -1.871700 0.168200 0.051900
v -1.871700 0.168200 0.347000
v -1.871700 0.147500 0.367600
v -1.871700 0.125000 0.376900
v -1.871700 -0.125000 0.376900
v -1.871700 -0.147500 0.367600
v -1.871700 -0.168200 0.347000
v -1.871700 -0.168200 0.051900
v -1.871700 -0.147500 0.031300
v -2.203800 0.478800 0.383200
v -2.203800 0.478800 0.691500
v -1.591400 0.478800 0.691500
v -1.591400 0.478800 0.383200
v -2.203800 -0.483400 0.383200
v -1.591400 -0.483400 0.383200
v -1.591400 -0.483400 0.691500
v -2.203800 -0.483400 0.691500
v -1.616500 0.453700 0.716600
v -2.178700 0.453700 0.716600
v -2.178700 -0.458300 0.716600
v -1.616500 -0.458300 0.716600
v -2.199300 0.474300 0.702500
v -2.189700 0.464700 0.712000
v -1.605500 0.464700 0.712000
v -1.596000 0.474300 0.702500
v -1.596000 -0.478900 0.702500
v -1.605500 -0.469300 0.712000
v -2.189700 -0.469300 0.712000
v -2.199300 -0.478900 0.702500
v -1.828100 0.178100 0.682200
v -1.747600 0.178100 0.955500
v -1.569300 0.178100 0.955500
v -1.649900 0.178100 0.682200
v -1.828100 -0.151900 0.682200
v -1.649900 -0.151900 0.682200
v -1.569300 -0.151900 0.955500
v -1.747600 -0.151900 0.955500
v -1.626200 0.149300 0.682200
v -1.545600 0.149300 0.955500
v -1.545600 -0.123100 0.955500
v -1.626200 -0.123100 0.682200
v -1.771200 0.149300 0.955500
v -1.851800 0.149300 0.682200
v -1.851800 -0.123100 0.682200
v -1.771200 -0.123100 0.955500
v -1.838400 0.172900 0.682200
v -1.847500 0.161800 0.682200
v -1.767000 0.161800 0.955500
v -1.757800 0.172900 0.955500
v -1.559000 0.172900 0.955500
v -1.549900 0.161800 0.955500
v -1.630500 0.161800 0.682200
v -1.639600 0.172900 0.682200
v -1.639600 -0.146700 0.682200
v -1.630500 -0.135600 0.682200
v -1.549900 -0.135600 0.955500
v -1.559000 -0.146700 0.955500
v -1.757800 -0.146700 0.955500
v -1.767000 -0.135600 0.955500
v -1.847500 -0.135600 0.682200
v -1.838400 -0.146700 0.682200
v -1.851300 0.213800 0.950500
v -1.851300 0.213800 0.995800
v -1.655000 0.252200 0.995800
v -1.655000 0.252200 0.950500
v -1.458400 0.193400 1.007700
v -1.458400 0.193400 0.950500
v -1.851300 -0.204400 0.950500
v -1.655000 -0.242800 0.950500
v -1.655000 -0.242800 0.995800
v -1.851300 -0.204400 0.995800
v -1.458400 -0.184000 0.950500
v -1.458400 -0.184000 1.007700
v -1.441900 0.167000 0.950500
v -1.441900 0.167000 1.008800
v -1.441900 -0.157600 1.008800
v -1.441900 -0.157600 0.950500
v -1.458800 0.171500 1.024600
v -1.655000 0.230300 1.012700
v -1.655000 -0.220900 1.012700
v -1.458800 -0.162100 1.024600
v -1.851100 0.192100 1.012700
v -1.851100 -0.182700 1.012700
v -1.868000 0.189000 0.995800
v -1.868000 0.189000 0.950500
v -1.868000 -0.179600 0.950500
v -1.868000 -0.179600 0.995800
v -1.947500 0.227500 0.971500
v -2.051300 0.212500 1.250800
v -1.984900 0.212500 1.279700
v -1.866200 0.227500 1.006900
v -1.931800 -0.219700 0.978300
v -1.866200 -0.219700 1.006900
v -1.984900 -0.204700 1.279700
v -2.050500 -0.204700 1.251200
v -1.939300 0.209300 0.954500
v -1.860200 0.209300 0.988900
v -1.877500 0.003900 0.957100
v -1.927200 0.003900 0.935500
v -1.860200 -0.201500 0.988900
v -1.924300 -0.201500 0.961100
v -1.850500 0.207700 1.011400
v -1.972300 0.190800 1.289700
v -2.001100 0.003900 1.326600
v -1.868100 0.003900 0.979600
v -1.972300 -0.183000 1.289700
v -1.850500 -0.199900 1.011400
v -1.993600 0.190500 1.299600
v -2.059100 0.190500 1.271000
v -2.089000 0.003900 1.307500
v -2.022700 0.003900 1.336300
v -2.059100 -0.182700 1.271000
v -1.993600 -0.182700 1.299600
v -1.851100 -0.182700 0.933600
v -1.458900 -0.162100 0.933600
v -1.655000 -0.220900 0.933600
v -2.094500 0.000000 1.278700
v -1.946300 -0.199900 0.969700
v -2.067500 -0.182900 1.248200
v -2.096800 0.000000 1.284000
v -1.949200 0.000000 0.944700
v -1.948800 0.000000 0.944600
v -2.088600 0.000000 1.306200
v -2.088400 0.000000 1.306700
v -1.927100 0.000000 0.935900
v -1.851100 0.182700 0.933600
v -1.868000 0.179600 0.950500
v -1.851300 0.204400 0.950500
v -1.441900 0.157600 0.950500
v -1.458900 0.162100 0.933600
v -1.458400 0.184000 0.950500
v -1.655000 0.220900 0.933600
v -1.655000 0.242800 0.950500
v -2.067500 0.182900 1.248200
v -1.946300 0.199900 0.969700
v -1.931800 0.219700 0.978300
v -1.924300 0.201500 0.961100
v -2.050500 0.204700 1.251200
v -2.059100 0.182700 1.271000
vn 1.0000 -0.0000 -0.0000
vn -0.4307 0.9025 0.0001
vn -0.4307 0.7300 -0.5306
vn -0.3673 0.7526 -0.5465
vn -0.4304 0.2790 -0.8584
vn -0.3672 0.2876 -0.8846
vn -0.4305 -0.2789 -0.8584
vn -0.3671 -0.2877 -0.8846
vn -0.4307 -0.7301 -0.5304
vn -0.3672 -0.7527 -0.5464
vn -0.4307 -0.9025 -0.0002
vn -0.3675 -0.9300 -0.0001
vn -0.4307 -0.7301 0.5306
vn -0.3675 -0.7526 0.5463
vn -0.4307 -0.2789 0.8583
vn -0.3675 -0.2876 0.8844
vn -0.4307 0.2790 0.8583
vn -0.3675 0.2876 0.8844
vn -0.4307 0.7301 0.5305
vn -0.3674 0.7527 0.5463
vn -0.3675 0.9300 0.0001
vn -0.0000 0.8093 -0.5874
vn -0.0000 1.0000 -0.0000
vn -0.0000 0.3092 -0.9510
vn -0.0000 -0.3092 -0.9510
vn -0.0000 -0.8093 -0.5874
vn -0.0000 -1.0000 -0.0000
vn -0.0000 -0.8093 0.5874
vn -0.0000 -0.3092 0.9510
vn -0.0000 0.3092 0.9510
vn -0.0000 0.8093 0.5874
vn -0.2259 0.7882 -0.5725
vn -0.2261 0.9741 0.0001
vn -0.2255 0.3010 -0.9266
vn -0.2263 -0.3009 -0.9264
vn -0.2262 -0.7880 -0.5725
vn -0.2262 -0.9741 -0.0002
vn -0.2262 -0.7882 0.5724
vn -0.2263 -0.3011 0.9264
vn -0.2263 0.3011 0.9263
vn -0.2264 0.7882 0.5723
vn -0.0000 0.9808 -0.1952
vn -0.0000 0.9808 0.1952
vn -0.0000 0.9807 -0.1955
vn -0.0000 -0.9808 -0.1953
vn -0.0000 -0.9808 -0.1950
vn -0.0000 -0.9808 0.1953
vn -0.0000 -0.9808 0.1950
vn -0.0000 0.1953 -0.9808
vn -0.0000 0.1950 -0.9808
vn -0.0000 -0.1953 -0.9808
vn -0.0000 -0.1950 -0.9808
vn -0.0000 0.1953 0.9808
vn -0.0000 0.1950 0.9808
vn -0.0000 -0.1953 0.9808
vn -0.0000 -0.1950 0.9808
vn -1.0000 -0.0000 -0.0000
vn -0.0000 0.8314 0.5556
vn -0.0000 0.5557 0.8314
vn -0.0000 0.8315 0.5556
vn -0.0000 0.8315 -0.5555
vn -0.0000 0.5556 -0.8314
vn -0.0000 0.5557 -0.8314
vn -0.0000 0.8314 -0.5556
vn -0.0000 -0.8315 -0.5555
vn -0.0000 -0.5557 -0.8314
vn -0.0000 -0.8314 -0.5556
vn -0.0000 -0.8309 0.5564
vn -0.0000 -0.5557 0.8314
vn -0.0000 -0.8314 0.5556
vn -0.7071 0.7071 -0.0000
vn -0.6871 0.6871 0.2360
vn 0.6873 0.6870 0.2361
vn 0.7071 0.7071 -0.0000
vn -0.7071 -0.7071 -0.0000
vn 0.7071 -0.7071 -0.0000
vn 0.6872 -0.6870 0.2361
vn -0.6871 -0.6871 0.2361
vn 0.1481 0.1483 0.9778
vn -0.1481 0.1482 0.9778
vn -0.1494 -0.1494 0.9774
vn 0.1481 -0.1483 0.9778
vn -0.5489 0.5488 0.6305
vn -0.3503 0.3503 0.8687
vn 0.3503 0.3501 0.8687
vn 0.5487 0.5488 0.6307
vn 0.5488 -0.5487 0.6307
vn 0.3503 -0.3502 0.8687
vn -0.3501 -0.3501 0.8688
vn -0.5494 -0.5494 0.6296
vn -0.2699 0.9596 0.0796
vn -0.1904 0.9801 0.0562
vn 0.2696 0.9597 -0.0795
vn 0.1906 0.9801 -0.0562
vn -0.2699 -0.9596 0.0795
vn 0.1906 -0.9801 -0.0562
vn 0.2699 -0.9596 -0.0796
vn -0.1906 -0.9801 0.0563
vn 0.9465 0.1616 -0.2792
vn 0.9480 0.1524 -0.2796
vn 0.9479 -0.1526 -0.2796
vn 0.9466 -0.1615 -0.2792
vn -0.9466 0.1614 0.2791
vn -0.9478 0.1533 0.2795
vn -0.9480 -0.1526 0.2795
vn -0.9466 -0.1614 0.2791
vn -0.6358 0.7488 0.1874
vn -0.8528 0.4578 0.2515
vn -0.8386 0.4855 0.2472
vn -0.5923 0.7866 0.1746
vn 0.6359 0.7487 -0.1875
vn 0.8527 0.4579 -0.2515
vn 0.8383 0.4859 -0.2472
vn 0.5918 0.7869 -0.1746
vn 0.5923 -0.7865 -0.1747
vn 0.8389 -0.4848 -0.2474
vn 0.8522 -0.4590 -0.2513
vn 0.6359 -0.7487 -0.1875
vn -0.5924 -0.7865 0.1746
vn -0.8385 -0.4857 0.2471
vn -0.8527 -0.4578 0.2515
vn -0.6359 -0.7487 0.1875
vn -0.5528 0.8333 -0.0000
vn -0.4874 0.7870 0.3783
vn 0.0329 0.9114 0.4103
vn 0.0487 0.9988 -0.0000
vn 0.5223 0.7601 0.3867
vn 0.6063 0.7952 -0.0000
vn -0.5521 -0.8338 -0.0000
vn 0.0487 -0.9988 -0.0000
vn 0.0330 -0.9114 0.4102
vn -0.4875 -0.7869 0.3782
vn 0.6063 -0.7952 -0.0000
vn 0.5226 -0.7598 0.3867
vn 0.9613 0.2754 -0.0000
vn 0.9026 0.2400 0.3574
vn 0.9025 -0.2401 0.3576
vn 0.9612 -0.2757 -0.0000
vn 0.3606 0.2630 0.8949
vn -0.0062 0.3684 0.9296
vn -0.0061 -0.3679 0.9299
vn 0.3607 -0.2629 0.8949
vn -0.3840 0.2722 0.8823
vn -0.3843 -0.2718 0.8823
vn -0.9034 0.2560 0.3439
vn -0.9564 0.2920 -0.0000
vn -0.9564 -0.2920 -0.0000
vn -0.9033 -0.2564 0.3439
vn 0.1415 0.9350 -0.3251
vn -0.1599 0.9165 0.3666
vn 0.2225 0.8493 0.4788
vn 0.4718 0.8719 -0.1307
vn 0.1400 -0.9363 -0.3220
vn 0.4720 -0.8721 -0.1294
vn 0.2232 -0.8492 0.4786
vn -0.1634 -0.9120 0.3762
vn 0.3573 0.4447 -0.8213
vn 0.6631 0.3691 -0.6512
vn 0.6840 0.0003 -0.7295
vn 0.3985 0.0027 -0.9172
vn 0.6627 -0.3693 -0.6515
vn 0.3593 -0.4340 -0.8262
vn 0.9609 0.2739 0.0416
vn 0.7020 0.2955 0.6479
vn 0.6808 -0.0038 0.7324
vn 0.9989 -0.0043 -0.0472
vn 0.7115 -0.2870 0.6414
vn 0.9620 -0.2684 0.0507
vn 0.0128 0.4221 0.9065
vn -0.3495 0.4834 0.8026
vn -0.3986 -0.0002 0.9171
vn -0.0308 0.0002 0.9995
vn -0.3502 -0.4810 0.8037
vn 0.0123 -0.4225 0.9063
vn -0.6700 -0.4528 -0.5883
vn -0.6699 -0.4529 -0.5883
vn 0.6924 -0.4318 -0.5780
vn -0.1189 -0.6101 -0.7834
vn -0.1188 -0.6072 -0.7856
vn -0.1188 -0.6071 -0.7857
vn 0.1802 -0.6009 -0.7787
vn 0.1790 -0.5988 -0.7807
vn 0.1790 -0.5985 -0.7809
vn -0.9162 -0.0695 -0.3946
vn -0.3354 -0.5729 -0.7479
vn -0.7733 -0.5641 0.2896
vn -0.7367 -0.6141 -0.2831
vn -0.7137 -0.6441 -0.2751
vn -0.3703 -0.1205 -0.9211
vn -0.9167 -0.2129 0.3380
vn -0.9168 -0.2129 0.3379
vn -0.9168 -0.2129 0.3380
vn -0.9152 -0.0631 -0.3981
vn -0.3666 -0.1201 -0.9226
vn -0.9171 -0.2127 0.3373
vn -0.9170 -0.2127 0.3373
vn -0.9170 -0.2127 0.3374
vn -0.6699 0.4529 -0.5883
vn -0.6700 0.4528 -0.5883
vn 0.6924 0.4318 -0.5780
vn -0.1187 0.6094 -0.7839
vn -0.1188 0.6071 -0.7857
vn -0.1188 0.6072 -0.7856
vn 0.1803 0.6013 -0.7784
vn 0.1802 0.6009 -0.7787
vn 0.1790 0.5985 -0.7809
vn -0.9162 0.0695 -0.3946
vn -0.3354 0.5729 -0.7479
vn -0.7733 0.5641 0.2896
vn -0.7734 0.5638 0.2898
vn -0.7367 0.6141 -0.2831
vn -0.7137 0.6441 -0.2751
vn -0.3703 0.1205 -0.9211
vn -0.3702 0.1205 -0.9211
vn -0.9167 0.2129 0.3381
vn -0.9168 0.2129 0.3379
vn -0.9152 0.0631 -0.3981
vn -0.3666 0.1201 -0.9226
vn -0.3671 0.1201 -0.9224
vn -0.3667 0.1201 -0.9225
vn -0.9170 0.2127 0.3373
vn -0.9171 0.2127 0.3372
vt 0.742200 0.200900
vt 0.730000 0.248100
vt 0.612800 0.185900
vt 0.704500 0.231800
vt 0.641300 0.186100
vt 0.760100 0.246200
vt 0.584900 0.182800
vt 0.783400 0.227000
vt 0.557700 0.176900
vt 0.790900 0.197900
vt 0.531200 0.168300
vt 0.780000 0.170000
vt 0.505600 0.156700
vt 0.754900 0.153800
vt 0.481300 0.141000
vt 0.460100 0.119600
vt 0.725200 0.156000
vt 0.700600 0.174000
vt 0.693400 0.203600
vt 0.670800 0.182700
vt 0.640400 0.160400
vt 0.615200 0.160600
vt 0.617900 0.137600
vt 0.590200 0.158000
vt 0.595400 0.135500
vt 0.565700 0.153000
vt 0.573300 0.131000
vt 0.541900 0.145500
vt 0.552000 0.124300
vt 0.519200 0.135600
vt 0.531900 0.115600
vt 0.498000 0.122600
vt 0.513900 0.105300
vt 0.479900 0.103600
vt 0.711100 0.137900
vt 0.499400 0.093500
vt 0.697800 0.124200
vt 0.689500 0.150400
vt 0.680600 0.129800
vt 0.665400 0.157300
vt 0.661200 0.134600
vt 0.640100 0.137200
vt 0.620900 0.034400
vt 0.634700 0.033700
vt 0.608200 0.033300
vt 0.595600 0.030600
vt 0.583100 0.026500
vt 0.570500 0.020700
vt 0.557600 0.013100
vt 0.544000 0.004300
vt 0.681400 0.023200
vt 0.664400 0.026800
vt 0.649000 0.031000
vt 0.860200 0.550300
vt 0.857500 0.538900
vt 0.849300 0.593600
vt 0.814200 0.527600
vt 0.895100 0.413900
vt 0.833300 0.454800
vt 0.883900 0.457100
vt 0.876500 0.466000
vt 0.923500 0.566300
vt 0.698000 0.496000
vt 0.947200 0.473400
vt 0.717600 0.423300
vt 0.958300 0.430100
vt 0.760700 0.434900
vt 0.912600 0.609600
vt 0.741100 0.507600
vt 0.872700 0.542800
vt 0.891400 0.469800
vt 0.934600 0.480800
vt 0.702700 0.419300
vt 0.916000 0.553800
vt 0.683100 0.492000
vt 0.887400 0.466800
vt 0.886600 0.468600
vt 0.884600 0.462100
vt 0.881300 0.467200
vt 0.898000 0.409900
vt 0.828500 0.453500
vt 0.902700 0.407100
vt 0.823300 0.452200
vt 0.907600 0.406400
vt 0.818500 0.450900
vt 0.775400 0.439500
vt 0.954900 0.420500
vt 0.771000 0.437500
vt 0.957600 0.425200
vt 0.765600 0.436200
vt 0.944200 0.477400
vt 0.712800 0.422000
vt 0.939600 0.480100
vt 0.707500 0.420600
vt 0.856800 0.606200
vt 0.799000 0.523600
vt 0.900100 0.617100
vt 0.755800 0.511900
vt 0.852800 0.603200
vt 0.803900 0.525000
vt 0.850000 0.598600
vt 0.809300 0.526400
vt 0.863100 0.546300
vt 0.862400 0.540200
vt 0.867800 0.543500
vt 0.867800 0.541500
vt 0.920000 0.556700
vt 0.687900 0.493300
vt 0.922800 0.561400
vt 0.693200 0.494700
vt 0.909700 0.613600
vt 0.745900 0.508900
vt 0.905000 0.616400
vt 0.751100 0.510300
vt 0.080200 0.960400
vt 0.087300 0.907800
vt 0.012700 0.897800
vt 0.005600 0.950400
vt 0.077800 0.895200
vt 0.025200 0.888300
vt 0.082200 0.897900
vt 0.086000 0.902800
vt 0.077600 0.964900
vt 0.072700 0.968600
vt 0.067700 0.970000
vt 0.015100 0.962900
vt 0.010600 0.960300
vt 0.006900 0.955400
vt 0.015300 0.893300
vt 0.020200 0.889600
vt 0.381500 0.594200
vt 0.336800 0.679400
vt 0.319100 0.613700
vt 0.317400 0.616900
vt 0.280500 0.489500
vt 0.277300 0.487800
vt 0.343000 0.470100
vt 0.257900 0.425400
vt 0.056700 0.695200
vt 0.141800 0.740000
vt 0.018200 0.571100
vt 0.062900 0.485900
vt 0.080600 0.551700
vt 0.082300 0.548400
vt 0.119200 0.675800
vt 0.122400 0.677500
vt 0.274600 0.497000
vt 0.309900 0.610900
vt 0.125200 0.668300
vt 0.089800 0.554400
vt 0.316400 0.613500
vt 0.315700 0.614800
vt 0.312900 0.612600
vt 0.313000 0.612400
vt 0.276300 0.494000
vt 0.276000 0.493900
vt 0.278400 0.491200
vt 0.277100 0.490500
vt 0.083300 0.551800
vt 0.084000 0.550500
vt 0.086700 0.552900
vt 0.086800 0.552700
vt 0.123700 0.671400
vt 0.123400 0.671300
vt 0.121300 0.674100
vt 0.122600 0.674800
vt 0.793400 0.715200
vt 0.773100 0.772100
vt 0.735400 0.770100
vt 0.755600 0.713100
vt 0.863200 0.740100
vt 0.893800 0.762300
vt 0.685700 0.688400
vt 0.873500 0.819300
vt 0.665600 0.745400
vt 0.842900 0.797000
vt 0.747400 0.711700
vt 0.727200 0.768700
vt 0.672800 0.749400
vt 0.692900 0.692400
vt 0.781300 0.773500
vt 0.801500 0.716600
vt 0.856000 0.736000
vt 0.835700 0.792900
vt 0.795800 0.715400
vt 0.798800 0.715900
vt 0.778600 0.772800
vt 0.775600 0.772300
vt 0.733000 0.769900
vt 0.729900 0.769400
vt 0.750100 0.712400
vt 0.753200 0.712900
vt 0.687700 0.689700
vt 0.690400 0.691300
vt 0.670200 0.748300
vt 0.667600 0.746700
vt 0.840900 0.795600
vt 0.838200 0.794100
vt 0.858500 0.737200
vt 0.861200 0.738700
vt 0.759500 0.839000
vt 0.756900 0.846800
vt 0.715300 0.845500
vt 0.712500 0.837200
vt 0.678800 0.868200
vt 0.671100 0.861400
vt 0.780800 0.937500
vt 0.755100 0.980200
vt 0.738600 0.958100
vt 0.713500 0.971500
vt 0.738100 0.949200
vt 0.775800 0.931000
vt 0.690400 0.952200
vt 0.670700 0.979100
vt 0.695700 0.942900
vt 0.665600 0.872400
vt 0.676400 0.872600
vt 0.692300 0.938500
vt 0.682600 0.943500
vt 0.665600 0.983300
vt 0.679700 0.872200
vt 0.715700 0.850900
vt 0.737800 0.943800
vt 0.696100 0.939100
vt 0.756700 0.851000
vt 0.774900 0.926800
vt 0.760500 0.850900
vt 0.767600 0.846800
vt 0.786600 0.927000
vt 0.759600 0.984600
vt 0.778400 0.926400
vt 0.923500 0.167800
vt 0.925200 0.237700
vt 0.912500 0.234200
vt 0.908600 0.173400
vt 0.808800 0.180500
vt 0.824000 0.280900
vt 0.821700 0.181700
vt 0.830800 0.243000
vt 0.819400 0.248900
vt 0.886900 0.291300
vt 0.913100 0.155800
vt 0.908200 0.170400
vt 0.865800 0.164200
vt 0.863700 0.152900
vt 0.824500 0.179600
vt 0.816900 0.170000
vt 0.818900 0.284400
vt 0.906300 0.171700
vt 0.908800 0.234100
vt 0.872500 0.249000
vt 0.865100 0.170200
vt 0.834600 0.243800
vt 0.824800 0.182300
vt 0.908800 0.237400
vt 0.916800 0.247800
vt 0.875000 0.267400
vt 0.872200 0.253400
vt 0.828800 0.259400
vt 0.891700 0.296500
vt 0.833500 0.246800
vt 0.754700 0.986000
vt 0.670400 0.985000
vt 0.713200 0.977400
vt 0.890500 0.336700
vt 0.893900 0.880200
vt 0.823300 0.286100
vt 0.886700 0.297000
vt 0.891700 0.336700
vt 0.892600 0.879900
vt 0.813800 0.327600
vt 0.970600 0.890700
vt 0.813700 0.327400
vt 0.970800 0.890600
vt 0.896700 0.336600
vt 0.887700 0.878500
vt 0.896700 0.336500
vt 0.887600 0.878300
vt 0.808800 0.326300
vt 0.975800 0.890800
vt 0.976800 0.959200
vt 0.981700 0.960700
vt 0.977100 0.965000
vt 0.887600 0.960500
vt 0.892500 0.958900
vt 0.892700 0.964800
vt 0.935200 0.967200
vt 0.935400 0.973000
vt 0.907600 0.842800
vt 0.971600 0.848200
vt 0.972300 0.842900
vt 0.976400 0.847600
vt 0.908900 0.837200
vt 0.902900 0.841100
s 1
usemtl engine
f 1/1/1 2/2/1 3/4/1
f 1/1/1 4/6/1 2/2/1
f 1/1/1 5/8/1 4/6/1
f 1/1/1 6/10/1 5/8/1
f 1/1/1 7/12/1 6/10/1
f 1/1/1 8/14/1 7/12/1
f 1/1/1 9/17/1 8/14/1
f 1/1/1 10/18/1 9/17/1
f 1/1/1 11/19/1 10/18/1
f 1/1/1 3/4/1 11/19/1
f 12/21/2 13/22/3 14/23/4
f 13/22/3 15/24/5 16/25/6
f 15/24/5 17/26/7 18/27/8
f 17/26/7 19/28/9 20/29/10
f 19/28/9 21/30/11 22/31/12
f 21/30/11 23/32/13 24/33/14
f 23/32/13 25/34/15 26/36/16
f 25/35/15 27/38/17 28/39/18
f 27/38/17 29/40/19 30/41/20
f 29/40/19 12/21/2 31/42/21
f 31/42/21 32/43/22 33/44/23
f 31/42/21 14/23/4 32/43/22
f 14/23/4 34/45/24 32/43/22
f 14/23/4 16/25/6 34/45/24
f 16/25/6 35/46/25 34/45/24
f 16/25/6 18/27/8 35/46/25
f 18/27/8 36/47/26 35/46/25
f 18/27/8 20/29/10 36/47/26
f 20/29/10 37/48/27 36/47/26
f 20/29/10 22/31/12 37/48/27
f 22/31/12 38/49/28 37/48/27
f 22/31/12 24/33/14 38/49/28
f 24/33/14 39/50/29 38/49/28
f 24/33/14 26/36/16 39/50/29
f 26/37/16 40/52/30 39/51/29
f 26/37/16 28/39/18 40/52/30
f 28/39/18 41/53/31 40/52/30
f 28/39/18 30/41/20 41/53/31
f 30/41/20 33/44/23 41/53/31
f 30/41/20 31/42/21 33/44/23
f 12/21/2 14/23/4 31/42/21
f 12/21/2 2/3/32 13/22/3
f 3/5/33 2/3/32 12/21/2
f 13/22/3 16/25/6 14/23/4
f 13/22/3 4/7/34 15/24/5
f 2/3/32 4/7/34 13/22/3
f 15/24/5 18/27/8 16/25/6
f 15/24/5 5/9/35 17/26/7
f 4/7/34 5/9/35 15/24/5
f 17/26/7 20/29/10 18/27/8
f 17/26/7 6/11/36 19/28/9
f 5/9/35 6/11/36 17/26/7
f 19/28/9 22/31/12 20/29/10
f 19/28/9 7/13/37 21/30/11
f 6/11/36 7/13/37 19/28/9
f 21/30/11 24/33/14 22/31/12
f 21/30/11 8/15/38 23/32/13
f 7/13/37 8/15/38 21/30/11
f 23/32/13 26/36/16 24/33/14
f 23/32/13 9/16/39 25/34/15
f 8/15/38 9/16/39 23/32/13
f 25/35/15 28/39/18 26/37/16
f 25/35/15 10/18/40 27/38/17
f 9/17/39 10/18/40 25/35/15
f 27/38/17 30/41/20 28/39/18
f 27/38/17 11/20/41 29/40/19
f 10/18/40 11/20/41 27/38/17
f 29/40/19 31/42/21 30/41/20
f 29/40/19 3/5/33 12/21/2
f 11/20/41 3/5/33 29/40/19
f 42/55/42 43/57/43 44/59/43
f 44/59/43 45/61/44 42/55/42
f 46/63/45 47/65/46 48/67/47
f 48/67/47 49/69/48 46/63/45
f 50/70/49 51/71/50 52/72/51
f 52/72/51 53/74/52 50/70/49
f 54/76/1 55/78/1 45/60/1
f 45/60/1 44/58/1 56/80/1
f 56/80/1 57/82/1 58/84/1
f 45/60/1 56/80/1 58/84/1
f 58/85/1 59/86/1 60/88/1
f 60/87/1 61/89/1 48/66/1
f 58/84/1 60/87/1 48/66/1
f 45/60/1 58/84/1 48/66/1
f 48/66/1 47/64/1 62/91/1
f 62/91/1 63/93/1 52/72/1
f 48/66/1 62/91/1 52/72/1
f 45/60/1 48/66/1 52/72/1
f 54/76/1 45/60/1 52/72/1
f 51/71/1 54/76/1 52/72/1
f 58/85/53 64/96/54 65/98/55
f 65/98/55 59/86/56 58/85/53
f 66/99/57 67/101/57 43/56/57
f 43/56/57 42/54/57 68/103/57
f 68/103/57 69/105/57 50/70/57
f 43/56/57 68/103/57 50/70/57
f 50/70/57 53/74/57 70/107/57
f 70/107/57 71/109/57 46/62/57
f 50/70/57 70/107/57 46/62/57
f 43/56/57 50/70/57 46/62/57
f 46/62/57 49/68/57 72/111/57
f 72/111/57 73/113/57 65/97/57
f 46/62/57 72/111/57 65/97/57
f 43/56/57 46/62/57 65/97/57
f 66/99/57 43/56/57 65/97/57
f 64/95/57 66/99/57 65/97/57
f 67/102/58 66/100/59 57/83/59
f 57/83/59 56/81/60 67/102/58
f 55/79/61 54/77/62 69/106/63
f 69/106/63 68/104/64 55/79/61
f 71/110/65 70/108/66 63/94/66
f 63/94/66 62/92/67 71/110/65
f 61/90/68 60/88/69 73/114/69
f 73/114/69 72/112/70 61/90/68
f 43/57/43 67/102/58 56/81/60
f 56/81/60 44/59/43 43/57/43
f 45/61/44 55/79/61 68/104/64
f 68/104/64 42/55/42 45/61/44
f 46/63/45 71/110/65 62/92/67
f 62/92/67 47/65/46 46/63/45
f 48/67/47 61/90/68 72/112/70
f 72/112/70 49/69/48 48/67/47
f 66/100/59 64/96/54 58/85/53
f 58/85/53 57/83/59 66/100/59
f 54/77/62 51/71/50 50/70/49
f 50/70/49 69/106/63 54/77/62
f 70/108/66 53/75/52 52/73/51
f 52/73/51 63/94/66 70/108/66
f 60/88/69 59/86/56 65/98/55
f 65/98/55 73/114/69 60/88/69
f 80/121/1 81/122/1 75/116/1
f 75/116/1 74/115/1 82/123/1
f 82/123/1 83/124/1 84/125/1
f 75/116/1 82/123/1 84/125/1
f 84/125/1 85/126/1 86/127/1
f 86/127/1 87/128/1 77/118/1
f 84/125/1 86/127/1 77/118/1
f 75/116/1 84/125/1 77/118/1
f 77/118/1 76/117/1 88/129/1
f 88/129/1 89/130/1 79/120/1
f 77/118/1 88/129/1 79/120/1
f 75/116/1 77/118/1 79/120/1
f 80/121/1 75/116/1 79/120/1
f 78/119/1 80/121/1 79/120/1
f 90/131/71 91/133/72 92/135/73
f 92/135/73 93/137/74 90/131/71
f 94/139/75 95/141/76 96/143/77
f 96/143/77 97/145/78 94/139/75
f 93/138/74 92/136/73 96/144/77
f 96/144/77 95/142/76 93/138/74
f 98/147/79 99/148/80 100/149/81
f 100/149/81 101/150/82 98/147/79
f 91/134/72 90/132/71 94/140/75
f 94/140/75 97/146/78 91/134/72
f 102/151/83 103/154/84 104/155/85
f 104/155/85 105/157/86 102/151/83
f 106/159/87 107/161/88 108/164/89
f 108/164/89 109/165/90 106/159/87
f 105/158/86 104/156/85 107/162/88
f 107/162/88 106/160/87 105/158/86
f 103/153/84 102/152/83 109/166/90
f 109/166/90 108/163/89 103/153/84
f 91/133/72 102/151/83 105/157/86
f 105/157/86 92/135/73 91/133/72
f 96/143/77 106/159/87 109/165/90
f 109/165/90 97/145/78 96/143/77
f 92/136/73 105/158/86 106/160/87
f 106/160/87 96/144/77 92/136/73
f 99/148/80 103/153/84 108/163/89
f 108/163/89 100/149/81 99/148/80
f 103/154/84 99/148/80 98/147/79
f 98/147/79 104/155/85 103/154/84
f 107/161/88 101/150/82 100/149/81
f 100/149/81 108/164/89 107/161/88
f 104/156/85 98/147/79 101/150/82
f 101/150/82 107/162/88 104/156/85
f 102/152/83 91/134/72 97/146/78
f 97/146/78 109/166/90 102/152/83
f 110/167/91 111/168/92 112/169/93
f 112/169/93 113/170/94 110/167/91
f 114/171/95 115/172/96 116/174/97
f 116/174/97 117/176/98 114/171/95
f 118/177/99 119/178/100 120/179/101
f 120/179/101 121/180/102 118/177/99
f 122/181/103 123/182/104 124/183/105
f 124/183/105 125/184/106 122/181/103
f 126/185/107 127/186/108 128/187/109
f 128/187/109 129/188/110 126/185/107
f 130/189/111 131/190/112 132/191/113
f 132/191/113 133/192/114 130/189/111
f 134/193/115 135/194/116 136/195/117
f 136/195/117 137/196/118 134/193/115
f 138/197/119 139/198/120 140/199/121
f 140/199/121 141/200/122 138/197/119
f 110/167/91 126/185/107 129/188/110
f 129/188/110 111/168/92 110/167/91
f 112/169/93 130/189/111 133/192/114
f 133/192/114 113/170/94 112/169/93
f 115/173/96 134/193/115 137/196/118
f 137/196/118 116/175/97 115/173/96
f 117/176/98 138/197/119 141/200/122
f 141/200/122 114/171/95 117/176/98
f 127/186/108 123/182/104 122/181/103
f 122/181/103 128/187/109 127/186/108
f 131/190/112 119/178/100 118/177/99
f 118/177/99 132/191/113 131/190/112
f 135/194/116 121/180/102 120/179/101
f 120/179/101 136/195/117 135/194/116
f 139/198/120 125/184/106 124/183/105
f 124/183/105 140/199/121 139/198/120
usemtl seat
f 142/201/123 143/202/124 144/203/125
f 144/203/125 145/204/126 142/201/123
f 145/204/126 144/203/125 146/205/127
f 146/205/127 147/206/128 145/204/126
f 148/207/129 149/209/130 150/211/131
f 150/211/131 151/212/132 148/207/129
f 149/209/130 152/213/133 153/215/134
f 153/215/134 150/211/131 149/209/130
f 154/216/135 155/217/136 156/218/137
f 156/218/137 157/219/138 154/216/135
f 158/221/139 159/222/140 160/223/141
f 160/223/141 161/224/142 158/221/139
f 159/222/140 162/225/143 163/226/144
f 163/226/144 160/223/141 159/222/140
f 164/227/145 165/228/146 166/229/147
f 166/229/147 167/231/148 164/227/145
f 164/227/145 162/225/143 143/202/124
f 146/205/127 158/221/139 155/217/136
f 167/231/148 151/212/132 163/226/144
f 161/224/142 153/215/134 156/218/137
f 142/201/123 165/228/146 164/227/145
f 164/227/145 143/202/124 142/201/123
f 143/202/124 162/225/143 159/222/140
f 159/222/140 144/203/125 143/202/124
f 144/203/125 159/222/140 158/221/139
f 158/221/139 146/205/127 144/203/125
f 146/205/127 155/217/136 154/216/135
f 154/216/135 147/206/128 146/205/127
f 150/211/131 160/223/141 163/226/144
f 163/226/144 151/212/132 150/211/131
f 151/212/132 167/231/148 166/229/147
f 166/229/147 148/207/129 151/212/132
f 152/213/133 157/219/138 156/218/137
f 156/218/137 153/215/134 152/213/133
f 153/215/134 161/224/142 160/223/141
f 160/223/141 150/211/131 153/215/134
f 155/217/136 158/221/139 161/224/142
f 161/224/142 156/218/137 155/217/136
f 162/225/143 164/227/145 167/231/148
f 167/231/148 163/226/144 162/225/143
f 168/232/149 169/233/150 170/234/151
f 170/234/151 171/235/152 168/232/149
f 172/236/153 173/238/154 174/239/155
f 174/239/155 175/240/156 172/236/153
f 176/242/157 177/243/158 178/244/159
f 178/244/159 179/245/160 176/242/157
f 179/245/160 178/244/159 180/246/161
f 180/246/161 181/247/162 179/245/160
f 182/249/163 183/250/164 184/251/165
f 184/251/165 185/252/166 182/249/163
f 185/252/166 184/251/165 186/253/167
f 186/253/167 187/254/168 185/252/166
f 188/255/169 189/256/170 190/257/171
f 190/257/171 191/258/172 188/255/169
f 191/258/172 190/257/171 192/259/173
f 192/259/173 193/261/174 191/258/172
f 171/235/152 182/249/163 177/243/158
f 170/234/151 188/255/169 183/250/164
f 180/246/161 187/254/168 173/238/154
f 186/253/167 193/261/174 174/239/155
f 169/233/150 189/256/170 188/255/169
f 188/255/169 170/234/151 169/233/150
f 170/234/151 183/250/164 182/249/163
f 182/249/163 171/235/152 170/234/151
f 171/235/152 177/243/158 176/242/157
f 176/242/157 168/232/149 171/235/152
f 172/236/153 181/247/162 180/246/161
f 180/246/161 173/238/154 172/236/153
f 173/238/154 187/254/168 186/253/167
f 186/253/167 174/239/155 173/238/154
f 174/239/155 193/261/174 192/259/173
f 192/259/173 175/240/156 174/239/155
f 177/243/158 182/249/163 185/252/166
f 185/252/166 178/244/159 177/243/158
f 178/244/159 185/252/166 187/254/168
f 187/254/168 180/246/161 178/244/159
f 183/250/164 188/255/169 191/258/172
f 191/258/172 184/251/165 183/250/164
f 184/251/165 191/258/172 193/261/174
f 193/261/174 186/253/167 184/251/165
s 0
usemtl plastic
f 194/262/175 148/208/175 166/230/176
f 157/220/177 152/214/177 195/263/177
f 148/208/178 194/262/178 196/264/178
f 196/264/179 149/210/180 148/208/180
f 149/210/181 196/264/181 195/263/181
f 195/263/182 152/214/183 149/210/183
f 197/265/184 198/267/184 199/268/184 200/269/184
f 172/237/185 198/267/185 181/248/185
f 175/241/186 192/260/186 199/268/186
f 175/241/187 199/268/187 198/267/187
f 198/267/188 172/237/188 175/241/188
f 201/271/189 202/273/189 181/248/189 198/267/189
f 203/275/190 199/268/191 192/260/191 204/277/192
f 201/271/193 198/267/193 197/265/193
f 205/279/194 181/248/194 202/273/194
f 200/269/195 199/268/196 203/275/197
f 206/281/198 207/282/199 208/283/199
f 209/284/200 210/285/200 211/286/200
f 208/283/201 212/287/201 206/281/201
f 212/287/202 208/283/202 213/288/203
f 213/288/204 210/285/205 212/287/204
f 210/285/206 213/288/206 211/286/206
f 197/266/207 200/270/207 214/289/207 215/290/207
f 216/291/208 217/292/208 215/290/208
f 218/293/209 214/289/209 219/294/210
f 218/293/211 215/290/211 214/289/211
f 215/290/212 218/293/212 216/291/212
f 201/272/213 215/290/214 217/292/213 202/274/213
f 203/276/215 204/278/216 219/294/216 214/289/216
f 201/272/217 197/266/217 215/290/217
f 205/280/218 202/274/219 217/292/220
f 200/270/221 203/276/221 214/289/222
